# Blender v2.90.0 OBJ File: 'apple_clr.blend'
# www.blender.org
mtllib apple_clr.mtl
o Apple
v 0.460091 0.019995 -0.275880
v 0.131489 0.019995 -0.411993
v 0.131489 0.283234 -0.805957
v 0.738667 0.283234 -0.554456
v -0.197114 0.019995 -0.275880
v -0.475688 0.283234 -0.554456
v -0.333224 0.019995 0.052722
v -0.727190 0.283234 0.052722
v -0.197114 0.019995 0.381324
v -0.475688 0.283234 0.659899
v 0.131489 0.019995 0.517435
v 0.131489 0.283234 0.911400
v 0.460091 0.019995 0.381324
v 0.738667 0.283234 0.659899
v 0.596202 0.019995 0.052722
v 0.990168 0.283234 0.052722
v 0.131489 0.677200 -1.069196
v 0.924805 0.677200 -0.740594
v -0.661828 0.677200 -0.740594
v -0.990429 0.677200 0.052722
v -0.661828 0.677200 0.846037
v 0.131489 0.677200 1.174639
v 0.924805 0.677200 0.846037
v 1.253407 0.677200 0.052722
v 0.131489 1.141913 -1.161634
v 0.990168 1.141913 -0.805957
v -0.727190 1.141913 -0.805957
v -1.082866 1.141913 0.052722
v -0.727190 1.141913 0.911400
v 0.131489 1.141913 1.267077
v 0.990168 1.141913 0.911400
v 1.345843 1.141913 0.052722
v 0.131489 1.606627 -1.069196
v 0.924805 1.606627 -0.740594
v -0.661828 1.606627 -0.740594
v -0.990429 1.606627 0.052722
v -0.661828 1.606627 0.846037
v 0.131489 1.606627 1.174640
v 0.924805 1.606627 0.846037
v 1.253407 1.606627 0.052722
v 0.131489 2.149596 -0.805957
v 0.738667 2.149596 -0.554456
v -0.475688 2.149596 -0.554456
v -0.727190 2.149596 0.052722
v -0.475688 2.000592 0.659899
v 0.131489 2.232527 0.911400
v 0.738667 2.232527 0.659899
v 0.990168 2.000592 0.052722
v 0.131489 2.306775 -0.411992
v 0.460091 2.306775 -0.275880
v -0.197114 2.306775 -0.275880
v -0.333224 2.306775 0.052722
v -0.197114 2.157771 0.381324
v 0.131489 2.389707 0.517435
v 0.460091 2.389707 0.381324
v 0.596202 2.157771 0.052722
v 0.131489 -0.072442 0.052722
v 0.247668 2.806223 0.052722
v 0.213640 2.843473 -0.029429
v 0.131489 2.843473 -0.063457
v 0.049339 2.843473 -0.029429
v 0.015311 2.843473 0.052722
v 0.049339 2.806223 0.134872
v 0.131489 2.864206 0.168900
v 0.213640 2.864206 0.134872
v 0.213640 2.067082 -0.029429
v 0.247668 2.029831 0.052722
v 0.131489 2.067082 -0.063457
v 0.049339 2.067082 -0.029429
v 0.015311 2.067082 0.052722
v 0.049339 2.029831 0.134872
v 0.131489 2.087814 0.168900
v 0.213640 2.087814 0.134872
v 0.213640 2.454101 -0.029429
v 0.247668 2.416850 0.052722
v 0.131489 2.454101 -0.063457
v 0.049339 2.454101 -0.029429
v 0.015311 2.454101 0.052722
v 0.049339 2.416850 0.134872
v 0.131489 2.474834 0.168900
v 0.213640 2.474834 0.134872
v 0.049339 2.508721 0.134872
v 0.015311 2.545972 0.052722
v 0.049339 2.545972 -0.029429
v 0.131489 2.545972 -0.063457
v 0.213640 2.545972 -0.029429
v 0.247668 2.508721 0.052722
v 0.213640 2.566705 0.134872
v 0.504950 2.539737 0.988427
v 0.506441 2.507117 0.982532
v 0.614264 2.511708 0.937242
v 0.612773 2.544328 0.943136
v 0.131489 2.566705 0.168900
v 0.270755 2.536695 0.398057
v 0.267753 2.589066 0.406073
v 0.355270 2.540295 0.362557
v 0.352270 2.592664 0.370573
v 0.195984 2.468635 0.618576
v 0.190705 2.584162 0.639451
v 0.577846 2.484893 0.458180
v 0.572565 2.600420 0.479055
vt 0.000000 0.125000
vt 0.125000 0.125000
vt 0.125000 0.250000
vt 0.000000 0.250000
vt 0.250000 0.125000
vt 0.250000 0.250000
vt 0.375000 0.125000
vt 0.375000 0.250000
vt 0.500000 0.125000
vt 0.500000 0.250000
vt 0.625000 0.125000
vt 0.625000 0.250000
vt 0.750000 0.125000
vt 0.750000 0.250000
vt 0.875000 0.125000
vt 0.875000 0.250000
vt 1.000000 0.125000
vt 1.000000 0.250000
vt 0.125000 0.375000
vt 0.000000 0.375000
vt 0.250000 0.375000
vt 0.375000 0.375000
vt 0.500000 0.375000
vt 0.625000 0.375000
vt 0.750000 0.375000
vt 0.875000 0.375000
vt 1.000000 0.375000
vt 0.125000 0.500000
vt 0.000000 0.500000
vt 0.250000 0.500000
vt 0.375000 0.500000
vt 0.500000 0.500000
vt 0.625000 0.500000
vt 0.750000 0.500000
vt 0.875000 0.500000
vt 1.000000 0.500000
vt 0.125000 0.625000
vt 0.000000 0.625000
vt 0.250000 0.625000
vt 0.375000 0.625000
vt 0.500000 0.625000
vt 0.625000 0.625000
vt 0.750000 0.625000
vt 0.875000 0.625000
vt 1.000000 0.625000
vt 0.125000 0.750000
vt 0.000000 0.750000
vt 0.250000 0.750000
vt 0.375000 0.750000
vt 0.500000 0.750000
vt 0.625000 0.750000
vt 0.750000 0.750000
vt 0.875000 0.750000
vt 1.000000 0.750000
vt 0.125000 0.875000
vt 0.000000 0.875000
vt 0.250000 0.875000
vt 0.375000 0.875000
vt 0.500000 0.875000
vt 0.625000 0.875000
vt 0.750000 0.875000
vt 0.875000 0.875000
vt 1.000000 0.875000
vt 0.062500 0.000000
vt 0.187500 0.000000
vt 0.312500 0.000000
vt 0.437500 0.000000
vt 0.562500 0.000000
vt 0.687500 0.000000
vt 0.812500 0.000000
vt 0.937500 0.000000
vt 0.968750 0.937500
vt 0.906250 0.937500
vt 0.093750 0.937500
vt 0.031250 0.937500
vt 0.218750 0.937500
vt 0.156250 0.937500
vt 0.343750 0.937500
vt 0.281250 0.937500
vt 0.468750 0.937500
vt 0.406250 0.937500
vt 0.593750 0.937500
vt 0.531250 0.937500
vt 0.718750 0.937500
vt 0.656250 0.937500
vt 0.843750 0.937500
vt 0.781250 0.937500
vt 0.906250 0.937500
vt 0.031250 0.937500
vt 0.156250 0.937500
vt 0.281250 0.937500
vt 0.406250 0.937500
vt 0.531250 0.937500
vt 0.656250 0.937500
vt 0.781250 0.937500
vt 0.781250 0.937500
vt 0.656250 0.937500
vt 0.656250 0.937500
vt 0.781250 0.937500
vt 0.781250 0.937500
vt 0.656250 0.937500
vt 0.656250 0.937500
vt 0.781250 0.937500
vt 0.781250 0.937500
vt 0.656250 0.937500
vt 0.781250 0.937500
vt 0.656250 0.937500
vt 0.781250 0.937500
vt 0.656250 0.937500
vt 0.781250 0.937500
vt 0.656250 0.937500
vt 0.031250 0.937500
vt 0.906250 0.937500
vt 0.156250 0.937500
vt 0.281250 0.937500
vt 0.406250 0.937500
vt 0.531250 0.937500
vt 0.531250 0.937500
vt 0.406250 0.937500
vt 0.281250 0.937500
vt 0.156250 0.937500
vt 0.031250 0.937500
vt 0.906250 0.937500
vn 0.2243 -0.8103 -0.5414
vn -0.2243 -0.8103 -0.5414
vn -0.5414 -0.8103 -0.2243
vn -0.5414 -0.8103 0.2243
vn -0.2243 -0.8103 0.5414
vn 0.2243 -0.8103 0.5414
vn 0.5414 -0.8103 0.2243
vn 0.5414 -0.8103 -0.2243
vn 0.3256 -0.5253 -0.7862
vn -0.3256 -0.5253 -0.7862
vn -0.7862 -0.5253 -0.3256
vn -0.7862 -0.5253 0.3256
vn -0.3256 -0.5253 0.7862
vn 0.3256 -0.5253 0.7862
vn 0.7862 -0.5253 0.3256
vn 0.7862 -0.5253 -0.3256
vn 0.3764 -0.1807 -0.9087
vn -0.3764 -0.1807 -0.9087
vn -0.9087 -0.1807 -0.3764
vn -0.9087 -0.1807 0.3764
vn -0.3764 -0.1807 0.9087
vn 0.3764 -0.1807 0.9087
vn 0.9087 -0.1807 0.3764
vn 0.9087 -0.1807 -0.3764
vn 0.3764 0.1807 -0.9087
vn -0.3764 0.1807 -0.9087
vn -0.9087 0.1807 -0.3764
vn -0.9087 0.1807 0.3764
vn -0.3764 0.1807 0.9087
vn 0.3764 0.1807 0.9087
vn 0.9087 0.1807 0.3764
vn 0.9087 0.1807 -0.3764
vn 0.3492 0.4088 -0.8432
vn -0.3492 0.4088 -0.8432
vn -0.8432 0.4088 -0.3493
vn -0.8018 0.4603 0.3811
vn -0.4054 0.4295 0.8069
vn 0.3567 0.3622 0.8612
vn 0.8572 0.4295 0.2839
vn 0.8364 0.4603 -0.2975
vn 0.1517 0.9181 -0.3663
vn -0.1517 0.9181 -0.3663
vn -0.3663 0.9181 -0.1517
vn -0.2538 0.8863 0.3874
vn -0.4979 0.8463 0.1893
vn 0.1517 0.9181 0.3663
vn 0.4860 0.8463 -0.2182
vn 0.4534 0.8863 0.0944
vn 0.0805 -0.9776 -0.1945
vn -0.0805 -0.9776 -0.1945
vn -0.1945 -0.9776 -0.0805
vn -0.1945 -0.9776 0.0805
vn -0.0805 -0.9776 0.1945
vn 0.0805 -0.9776 0.1945
vn 0.1945 -0.9776 0.0805
vn 0.1945 -0.9776 -0.0805
vn -0.2996 0.8161 0.4942
vn -0.2285 0.8022 0.5517
vn 0.2285 0.8022 0.5517
vn 0.5517 0.8022 0.2285
vn 0.5613 0.8161 0.1376
vn -0.2537 0.7311 -0.6333
vn -0.2617 0.7295 -0.6319
vn -0.2684 0.7311 -0.6272
vn -0.0081 0.9998 -0.0195
vn 0.3827 -0.0000 0.9239
vn 0.3884 -0.1466 0.9098
vn -0.3151 -0.8505 0.4211
vn 0.6855 -0.6915 -0.2276
vn 0.3778 0.8696 -0.3180
vn -0.6520 0.6922 0.3093
vn -0.9487 0.0076 -0.3161
vn -0.0956 -0.9416 -0.3230
vn 0.4275 0.1737 -0.8871
vn -0.0392 0.9992 0.0081
vn -0.7440 -0.1516 0.6507
vn 0.0638 -0.9967 0.0509
vn 0.9951 0.0598 -0.0790
vn 0.0078 0.9928 0.1193
vn 0.9239 0.0000 -0.3827
vn 0.3827 0.0000 -0.9239
vn -0.3827 0.0000 -0.9239
vn -0.9239 0.0000 -0.3827
vn -0.9239 -0.0000 0.3827
vn -0.3827 -0.0000 0.9239
vn 0.9239 -0.0000 0.3827
usemtl Material
s off
f 1/1/1 2/2/1 3/3/1 4/4/1
f 2/2/2 5/5/2 6/6/2 3/3/2
f 5/5/3 7/7/3 8/8/3 6/6/3
f 7/7/4 9/9/4 10/10/4 8/8/4
f 9/9/5 11/11/5 12/12/5 10/10/5
f 11/11/6 13/13/6 14/14/6 12/12/6
f 13/13/7 15/15/7 16/16/7 14/14/7
f 15/15/8 1/17/8 4/18/8 16/16/8
f 4/4/9 3/3/9 17/19/9 18/20/9
f 3/3/10 6/6/10 19/21/10 17/19/10
f 6/6/11 8/8/11 20/22/11 19/21/11
f 8/8/12 10/10/12 21/23/12 20/22/12
f 10/10/13 12/12/13 22/24/13 21/23/13
f 12/12/14 14/14/14 23/25/14 22/24/14
f 14/14/15 16/16/15 24/26/15 23/25/15
f 16/16/16 4/18/16 18/27/16 24/26/16
f 18/20/17 17/19/17 25/28/17 26/29/17
f 17/19/18 19/21/18 27/30/18 25/28/18
f 19/21/19 20/22/19 28/31/19 27/30/19
f 20/22/20 21/23/20 29/32/20 28/31/20
f 21/23/21 22/24/21 30/33/21 29/32/21
f 22/24/22 23/25/22 31/34/22 30/33/22
f 23/25/23 24/26/23 32/35/23 31/34/23
f 24/26/24 18/27/24 26/36/24 32/35/24
f 26/29/25 25/28/25 33/37/25 34/38/25
f 25/28/26 27/30/26 35/39/26 33/37/26
f 27/30/27 28/31/27 36/40/27 35/39/27
f 28/31/28 29/32/28 37/41/28 36/40/28
f 29/32/29 30/33/29 38/42/29 37/41/29
f 30/33/30 31/34/30 39/43/30 38/42/30
f 31/34/31 32/35/31 40/44/31 39/43/31
f 32/35/32 26/36/32 34/45/32 40/44/32
f 34/38/33 33/37/33 41/46/33 42/47/33
f 33/37/34 35/39/34 43/48/34 41/46/34
f 35/39/35 36/40/35 44/49/35 43/48/35
f 36/40/36 37/41/36 45/50/36 44/49/36
f 37/41/37 38/42/37 46/51/37 45/50/37
f 38/42/38 39/43/38 47/52/38 46/51/38
f 39/43/39 40/44/39 48/53/39 47/52/39
f 40/44/40 34/45/40 42/54/40 48/53/40
f 42/47/41 41/46/41 49/55/41 50/56/41
f 41/46/42 43/48/42 51/57/42 49/55/42
f 43/48/43 44/49/43 52/58/43 51/57/43
f 44/49/44 45/50/44 53/59/44 52/58/44
f 45/50/45 46/51/45 54/60/45 53/59/45
f 46/51/46 47/52/46 55/61/46 54/60/46
f 47/52/47 48/53/47 56/62/47 55/61/47
f 48/53/48 42/54/48 50/63/48 56/62/48
f 2/2/49 1/1/49 57/64/49
f 5/5/50 2/2/50 57/65/50
f 7/7/51 5/5/51 57/66/51
f 9/9/52 7/7/52 57/67/52
f 11/11/53 9/9/53 57/68/53
f 13/13/54 11/11/54 57/69/54
f 15/15/55 13/13/55 57/70/55
f 1/17/56 15/15/56 57/71/56
f 56/62/57 50/63/57 66/72/57 67/73/57
f 50/56/58 49/55/58 68/74/58 66/75/58
f 49/55/59 51/57/59 69/76/59 68/77/59
f 51/57/60 52/58/60 70/78/60 69/79/60
f 52/58/61 53/59/61 71/80/61 70/81/61
f 53/59/62 54/60/62 72/82/62 71/83/62
f 54/60/63 55/61/63 73/84/63 72/85/63
f 55/61/64 56/62/64 67/86/64 73/87/64
usemtl Material.001
f 58/88/65 59/89/65 60/90/65 61/91/65 62/92/65 63/93/65 64/94/65 65/95/65
f 72/85/66 73/87/66 81/96/66 80/97/66
f 89/98/67 90/99/67 91/100/67 92/101/67
f 93/102/66 88/103/66 65/95/66 64/94/66
f 80/97/68 81/96/68 94/104/68 95/105/68
f 81/96/69 88/103/69 96/106/69 94/104/69
f 88/103/70 93/102/70 97/107/70 96/106/70
f 93/102/71 80/97/71 95/105/71 97/107/71
f 95/105/72 94/104/72 98/108/72 99/109/72
f 94/104/73 96/106/73 100/110/73 98/108/73
f 96/106/74 97/107/74 101/111/74 100/110/74
f 97/107/75 95/105/75 99/109/75 101/111/75
f 99/109/76 98/108/76 90/99/76 89/98/76
f 98/108/77 100/110/77 91/100/77 90/99/77
f 100/110/78 101/111/78 92/101/78 91/100/78
f 101/111/79 99/109/79 89/98/79 92/101/79
s 1
f 67/73/80 66/75/80 74/112/80 75/113/80
f 66/75/81 68/77/81 76/114/81 74/112/81
f 68/77/82 69/79/82 77/115/82 76/114/82
f 69/79/83 70/81/83 78/116/83 77/115/83
f 70/81/84 71/83/84 79/117/84 78/116/84
f 71/83/85 72/85/85 80/97/85 79/117/85
f 73/87/86 67/73/86 75/113/86 81/96/86
f 78/116/84 79/117/84 82/118/84 83/119/84
f 77/115/83 78/116/83 83/119/83 84/120/83
f 76/114/82 77/115/82 84/120/82 85/121/82
f 74/112/81 76/114/81 85/121/81 86/122/81
f 75/113/80 74/112/80 86/122/80 87/123/80
f 81/96/86 75/113/86 87/123/86 88/103/86
f 79/117/85 80/97/85 93/102/85 82/118/85
f 83/119/84 82/118/84 63/93/84 62/92/84
f 84/120/83 83/119/83 62/92/83 61/91/83
f 85/121/82 84/120/82 61/91/82 60/90/82
f 86/122/81 85/121/81 60/90/81 59/89/81
f 87/123/80 86/122/80 59/89/80 58/88/80
f 88/103/86 87/123/86 58/88/86 65/95/86
f 82/118/85 93/102/85 64/94/85 63/93/85
