# Blender v2.90.0 OBJ File: 'carrots_clr.blend'
# www.blender.org
mtllib bananas_clr.mtl
o Bananas
v -1.497311 -0.089564 0.657056
v -1.755277 0.509482 0.775457
v -1.696145 0.869629 -0.917869
v -1.438179 0.270583 -1.036270
v -1.506199 1.108528 0.911563
v -1.447067 1.468674 -0.781762
v -0.895984 1.356661 0.985647
v -0.836851 1.716808 -0.707679
v -0.282087 1.108528 0.954310
v -0.222955 1.468674 -0.739016
v -0.024121 0.509482 0.835910
v 0.035011 0.869629 -0.857416
v -0.273199 -0.089564 0.699803
v -0.214067 0.270583 -0.993523
v -0.883415 -0.337697 0.625720
v -0.824282 0.022450 -1.067606
v -0.864941 1.732366 4.700549
v -0.781834 1.842836 4.551310
v -0.854328 1.953306 4.396637
v -1.039958 1.999064 4.327136
v -1.229984 1.953306 4.383519
v -1.313091 1.842836 4.532757
v -1.240597 1.732366 4.687430
v -1.054967 1.686608 4.756932
v -0.733572 3.567459 -3.776992
v -0.913471 3.587729 -3.712541
v -0.992924 3.636666 -3.544548
v -0.925384 3.685601 -3.371422
v -0.750418 3.705873 -3.294577
v -0.570519 3.685601 -3.359030
v -0.491068 3.636666 -3.527023
v -0.558607 3.587729 -3.700148
v -0.479487 0.261874 2.930415
v -0.965469 0.071163 2.975448
v -0.273862 0.722293 2.787905
v -0.469038 1.181674 2.631178
v -0.950658 1.367461 2.551308
v -1.436676 1.181674 2.597388
v -1.642309 0.722294 2.740118
v -1.447125 0.261874 2.896625
v -1.242779 1.524758 -2.955084
v -0.753926 1.385461 -3.082348
v -1.455337 1.861053 -2.614052
v -1.267071 2.195373 -2.259443
v -0.788236 2.327832 -2.099841
v -0.299433 2.195374 -2.225652
v -0.086890 1.861053 -2.566266
v -0.275141 1.524758 -2.921293
v -0.936368 2.606992 -3.361341
v -0.756468 2.586721 -3.425792
v -1.015820 2.655928 -3.193348
v -0.948280 2.704865 -3.020222
v -0.773315 2.725136 -2.943378
v -0.593415 2.704865 -3.007831
v -0.513964 2.655928 -3.175823
v -0.581503 2.606992 -3.348948
v 0.452716 -0.032347 0.645011
v 0.207078 0.548660 0.848760
v -0.329446 0.887087 -0.763122
v -0.083808 0.306080 -0.966872
v 0.443829 1.165745 0.899518
v -0.092696 1.504172 -0.712364
v 1.024283 1.457428 0.767551
v 0.487758 1.795855 -0.844331
v 1.608418 1.252844 0.530165
v 1.071894 1.591272 -1.081717
v 1.854056 0.671837 0.326416
v 1.317533 1.010265 -1.285466
v 1.617306 0.054753 0.275658
v 1.080782 0.393180 -1.336225
v 1.036851 -0.236930 0.407624
v 0.500328 0.101497 -1.204258
v 2.269060 1.889099 4.261374
v 2.289344 2.002952 4.094017
v 2.161592 2.105734 3.973607
v 1.960640 2.137235 3.970683
v 1.804203 2.079005 4.086956
v 1.783919 1.965151 4.254313
v 1.911670 1.862370 4.374722
v 2.112623 1.830869 4.377646
v -0.574050 3.603739 -3.753002
v -0.722994 3.612197 -3.631871
v -0.744967 3.657871 -3.446507
v -0.627096 3.714002 -3.305494
v -0.438430 3.747712 -3.291435
v -0.289487 3.739253 -3.412568
v -0.267514 3.693579 -3.597932
v -0.385384 3.637448 -3.738945
v 2.144372 0.423580 2.450022
v 1.716393 0.199700 2.653220
v 2.257016 0.895224 2.251427
v 1.988349 1.337309 2.173547
v 1.495777 1.487414 2.261269
v 1.067762 1.268458 2.465514
v 0.955111 0.797854 2.664330
v 1.223785 0.354729 2.741989
v -0.631616 1.542508 -2.828091
v -0.204848 1.436230 -3.112961
v -0.741339 1.867936 -2.432321
v -0.469728 2.219911 -2.157907
v 0.024141 2.388202 -2.166456
v 0.450860 2.288763 -2.449873
v 0.560567 1.965307 -2.845225
v 0.288971 1.611359 -3.120058
v -0.556932 2.637577 -3.302864
v -0.407988 2.629117 -3.423995
v -0.578905 2.683249 -3.117499
v -0.461034 2.739382 -2.976485
v -0.272368 2.773092 -2.962428
v -0.123425 2.764632 -3.083560
v -0.101452 2.718958 -3.268924
v -0.219322 2.662827 -3.409936
v 2.237114 0.184391 -0.018285
v 2.032896 0.749535 0.261587
v 0.965428 1.025423 -1.074435
v 1.169647 0.460280 -1.354306
v 2.228227 1.382483 0.236223
v 1.160759 1.658371 -1.099799
v 2.708687 1.712463 -0.079519
v 1.641219 1.988351 -1.415541
v 3.192828 1.546177 -0.500681
v 2.125360 1.822065 -1.836702
v 3.397048 0.981033 -0.780552
v 2.329579 1.256921 -2.116574
v 3.201715 0.348085 -0.755188
v 2.134248 0.623973 -2.091210
v 2.721256 0.018105 -0.439446
v 1.653789 0.293994 -1.775468
v 5.016065 2.282434 2.800369
v 4.971011 2.394957 2.636992
v 4.803345 2.486671 2.567287
v 4.611279 2.503853 2.632086
v 4.507326 2.436436 2.793429
v 4.552380 2.323915 2.956805
v 4.720047 2.232199 3.026510
v 4.912111 2.215019 2.961712
v -0.458633 3.673647 -3.783378
v -0.558686 3.673347 -3.619311
v -0.520604 3.720082 -3.436843
v -0.366692 3.786471 -3.342863
v -0.187111 3.833628 -3.392421
v -0.087059 3.833926 -3.556488
v -0.125142 3.787193 -3.738956
v -0.279053 3.720803 -3.832936
v 4.397856 0.785229 1.120937
v 4.079653 0.534696 1.453439
v 4.403565 1.260674 0.900717
v 4.093446 1.681480 0.921559
v 3.649186 1.797692 1.170520
v 3.330947 1.552084 1.504068
v 3.325229 1.077679 1.724508
v 3.635356 0.655832 1.703446
v -0.056019 1.627355 -2.912723
v 0.257336 1.547303 -3.325007
v -0.050024 1.950018 -2.499892
v 0.271823 2.324306 -2.328762
v 0.721018 2.526918 -2.500439
v 1.034322 2.453703 -2.911271
v 1.028312 2.133013 -3.323684
v 0.706481 1.756752 -3.495232
v -0.222920 2.717848 -3.374387
v -0.122866 2.718145 -3.538453
v -0.184837 2.764580 -3.191917
v -0.030925 2.830971 -3.097938
v 0.148655 2.878128 -3.147496
v 0.248708 2.878425 -3.311563
v 0.210625 2.831692 -3.494030
v 0.056714 2.765301 -3.588012
vt 0.375000 0.312500
vt 0.406250 0.312500
vt 0.406250 0.688440
vt 0.375000 0.688440
vt 0.437500 0.312500
vt 0.437500 0.688440
vt 0.468750 0.312500
vt 0.468750 0.688440
vt 0.500000 0.312500
vt 0.500000 0.688440
vt 0.531250 0.312500
vt 0.531250 0.688440
vt 0.562500 0.312500
vt 0.562500 0.688440
vt 0.593750 0.312500
vt 0.593750 0.688440
vt 0.625000 0.312500
vt 0.625000 0.688440
vt 0.555243 0.208368
vt 0.500000 0.231250
vt 0.444757 0.208368
vt 0.421875 0.153125
vt 0.444757 0.097882
vt 0.500000 0.075000
vt 0.555243 0.097882
vt 0.578125 0.153125
vt 0.578125 0.840625
vt 0.555243 0.895868
vt 0.555243 0.895868
vt 0.578125 0.840625
vt 0.500000 0.918750
vt 0.500000 0.918750
vt 0.444757 0.895868
vt 0.444757 0.895868
vt 0.421875 0.840625
vt 0.421875 0.840625
vt 0.444757 0.785382
vt 0.444757 0.785382
vt 0.500000 0.762500
vt 0.500000 0.762500
vt 0.555243 0.785382
vt 0.555243 0.785382
vt 0.555243 0.208368
vt 0.500000 0.231250
vt 0.444757 0.208368
vt 0.421875 0.153125
vt 0.444757 0.097882
vt 0.500000 0.075000
vt 0.555243 0.097882
vt 0.578125 0.153125
vt 0.500000 0.762500
vt 0.444757 0.785382
vt 0.555243 0.785382
vt 0.375000 0.312500
vt 0.406250 0.312500
vt 0.406250 0.688440
vt 0.375000 0.688440
vt 0.437500 0.312500
vt 0.437500 0.688440
vt 0.468750 0.312500
vt 0.468750 0.688440
vt 0.500000 0.312500
vt 0.500000 0.688440
vt 0.531250 0.312500
vt 0.531250 0.688440
vt 0.562500 0.312500
vt 0.562500 0.688440
vt 0.593750 0.312500
vt 0.593750 0.688440
vt 0.625000 0.312500
vt 0.625000 0.688440
vt 0.555243 0.208368
vt 0.500000 0.231250
vt 0.444757 0.208368
vt 0.421875 0.153125
vt 0.444757 0.097882
vt 0.500000 0.075000
vt 0.555243 0.097882
vt 0.578125 0.153125
vt 0.578125 0.840625
vt 0.555243 0.895868
vt 0.555243 0.895868
vt 0.578125 0.840625
vt 0.500000 0.918750
vt 0.500000 0.918750
vt 0.444757 0.895868
vt 0.444757 0.895868
vt 0.421875 0.840625
vt 0.421875 0.840625
vt 0.444757 0.785382
vt 0.444757 0.785382
vt 0.500000 0.762500
vt 0.500000 0.762500
vt 0.555243 0.785382
vt 0.555243 0.785382
vt 0.555243 0.208368
vt 0.500000 0.231250
vt 0.444757 0.208368
vt 0.421875 0.153125
vt 0.444757 0.097882
vt 0.500000 0.075000
vt 0.555243 0.097882
vt 0.578125 0.153125
vt 0.500000 0.762500
vt 0.444757 0.785382
vt 0.555243 0.785382
vt 0.375000 0.312500
vt 0.406250 0.312500
vt 0.406250 0.688440
vt 0.375000 0.688440
vt 0.437500 0.312500
vt 0.437500 0.688440
vt 0.468750 0.312500
vt 0.468750 0.688440
vt 0.500000 0.312500
vt 0.500000 0.688440
vt 0.531250 0.312500
vt 0.531250 0.688440
vt 0.562500 0.312500
vt 0.562500 0.688440
vt 0.593750 0.312500
vt 0.593750 0.688440
vt 0.625000 0.312500
vt 0.625000 0.688440
vt 0.555243 0.208368
vt 0.500000 0.231250
vt 0.444757 0.208368
vt 0.421875 0.153125
vt 0.444757 0.097882
vt 0.500000 0.075000
vt 0.555243 0.097882
vt 0.578125 0.153125
vt 0.578125 0.840625
vt 0.555243 0.895868
vt 0.555243 0.895868
vt 0.578125 0.840625
vt 0.500000 0.918750
vt 0.500000 0.918750
vt 0.444757 0.895868
vt 0.444757 0.895868
vt 0.421875 0.840625
vt 0.421875 0.840625
vt 0.444757 0.785382
vt 0.444757 0.785382
vt 0.500000 0.762500
vt 0.500000 0.762500
vt 0.555243 0.785382
vt 0.555243 0.785382
vt 0.555243 0.208368
vt 0.500000 0.231250
vt 0.444757 0.208368
vt 0.421875 0.153125
vt 0.444757 0.097882
vt 0.500000 0.075000
vt 0.555243 0.097882
vt 0.578125 0.153125
vt 0.656250 0.156250
vt 0.610485 0.266735
vt 0.500000 0.312500
vt 0.389515 0.266735
vt 0.343750 0.156250
vt 0.389515 0.045765
vt 0.500000 0.000000
vt 0.610485 0.045765
vt 0.656250 0.843750
vt 0.610485 0.954235
vt 0.500000 1.000000
vt 0.389515 0.954235
vt 0.343750 0.843750
vt 0.389515 0.733265
vt 0.500000 0.687500
vt 0.610485 0.733265
vt 0.656250 0.156250
vt 0.610485 0.266735
vt 0.500000 0.312500
vt 0.389515 0.266735
vt 0.343750 0.156250
vt 0.389515 0.045765
vt 0.500000 0.000000
vt 0.610485 0.045765
vt 0.656250 0.843750
vt 0.610485 0.954235
vt 0.500000 1.000000
vt 0.389515 0.954235
vt 0.343750 0.843750
vt 0.389515 0.733265
vt 0.500000 0.687500
vt 0.610485 0.733265
vt 0.656250 0.156250
vt 0.610485 0.266735
vt 0.500000 0.312500
vt 0.389515 0.266735
vt 0.343750 0.156250
vt 0.389515 0.045765
vt 0.500000 0.000000
vt 0.610485 0.045765
vt 0.656250 0.843750
vt 0.610485 0.954235
vt 0.500000 1.000000
vt 0.389515 0.954235
vt 0.343750 0.843750
vt 0.389515 0.733265
vt 0.500000 0.687500
vt 0.610485 0.733265
vt 0.578125 0.840625
vt 0.555243 0.895868
vt 0.500000 0.918750
vt 0.444757 0.895868
vt 0.421875 0.840625
vt 0.578125 0.840625
vt 0.555243 0.895868
vt 0.500000 0.918750
vt 0.444757 0.895868
vt 0.421875 0.840625
vt 0.578125 0.840625
vt 0.555243 0.895868
vt 0.500000 0.918750
vt 0.444757 0.895868
vt 0.421875 0.840625
vt 0.444757 0.785382
vt 0.500000 0.762500
vt 0.555243 0.785382
vn -0.9205 -0.3743 -0.1118
vn -0.9261 0.3743 0.0473
vn -0.3892 0.9037 0.1786
vn 0.3757 0.9037 0.2053
vn 0.9205 0.3743 0.1118
vn 0.9261 -0.3743 -0.0473
vn 0.3892 -0.9037 -0.1786
vn -0.3757 -0.9037 -0.2053
vn -0.0205 0.8090 0.5874
vn -0.3224 -0.2563 -0.9113
vn -0.8463 0.0583 -0.5296
vn -0.8502 0.5256 0.0304
vn -0.3447 0.8461 0.4065
vn 0.3141 0.8510 0.4208
vn 0.8377 0.5412 0.0732
vn 0.8743 0.0767 -0.4794
vn 0.3842 -0.2483 -0.8892
vn 0.8836 -0.2420 0.4009
vn 0.9049 0.4256 0.0009
vn 0.3718 0.8790 -0.2985
vn -0.3503 0.8753 -0.3333
vn -0.9056 0.4157 -0.0842
vn -0.9129 -0.2537 0.3199
vn -0.3816 -0.6933 0.6114
vn 0.3371 -0.6879 0.6428
vn 0.9105 0.1204 0.3956
vn 0.9353 -0.1385 -0.3257
vn -0.8756 -0.4400 0.1991
vn -0.8812 0.3086 0.3581
vn -0.3706 0.8765 0.3074
vn 0.3572 0.9309 0.0766
vn 0.8756 0.4400 -0.1991
vn 0.8812 -0.3086 -0.3581
vn 0.3706 -0.8765 -0.3074
vn -0.3572 -0.9309 -0.0766
vn 0.1194 0.8141 0.5683
vn -0.5894 -0.2918 -0.7533
vn -0.9765 -0.0095 -0.2152
vn -0.8263 0.4646 0.3183
vn -0.2484 0.8256 0.5067
vn 0.3750 0.8772 0.2997
vn 0.7730 0.6000 -0.2061
vn 0.6557 0.1312 -0.7435
vn 0.0814 -0.2336 -0.9689
vn 0.9817 -0.1731 0.0797
vn 0.8202 0.4884 -0.2978
vn 0.1867 0.8986 -0.3971
vn -0.5032 0.8434 -0.1883
vn -0.9089 0.3494 0.2278
vn -0.7327 -0.3128 0.6044
vn -0.1045 -0.7094 0.6970
vn 0.5809 -0.6528 0.4862
vn 0.9793 0.1902 0.0692
vn 0.7798 -0.0768 -0.6213
vn -0.7248 -0.4978 0.4763
vn -0.7304 0.2509 0.6353
vn -0.3081 0.8525 0.4222
vn 0.2947 0.9548 -0.0383
vn 0.7248 0.4978 -0.4763
vn 0.7304 -0.2509 -0.6353
vn 0.3081 -0.8525 -0.4222
vn -0.2947 -0.9548 0.0383
vn 0.2440 0.8288 0.5035
vn -0.7849 -0.3438 -0.5154
vn -0.9889 -0.0816 0.1239
vn -0.7032 0.4097 0.5810
vn -0.1230 0.8133 0.5687
vn 0.3900 0.9058 0.1655
vn 0.6145 0.6500 -0.4470
vn 0.3581 0.1662 -0.9188
vn -0.2309 -0.2416 -0.9425
vn 0.9615 -0.1021 -0.2551
vn 0.6362 0.5407 -0.5504
vn -0.0216 0.9036 -0.4279
vn -0.5962 0.8029 -0.0008
vn -0.8029 0.2877 0.5222
vn -0.4640 -0.3548 0.8117
vn 0.1856 -0.7047 0.6848
vn 0.7551 -0.6029 0.2573
vn -0.0061 -0.9847 0.1741
vn 0.6275 -0.7580 0.1782
vn 0.6415 -0.7462 0.1779
vn 0.9850 -0.1073 0.1349
vn 0.9881 -0.0779 0.1325
vn 0.7459 0.6640 0.0518
vn 0.7306 0.6810 0.0496
vn 0.0004 0.9999 -0.0102
vn -0.7477 0.6640 -0.0004
vn -0.7323 0.6810 -0.0015
vn -0.9920 -0.1073 0.0658
vn -0.9950 -0.0779 0.0633
vn -0.6384 -0.7580 0.1340
vn -0.6523 -0.7462 0.1327
vn 0.0196 -0.8271 -0.5618
vn -0.6131 -0.6306 -0.4758
vn -0.6187 -0.6266 -0.4738
vn -0.9835 -0.0583 -0.1714
vn -0.9851 -0.0469 -0.1652
vn -0.7523 0.6219 0.2174
vn -0.7453 0.6289 0.2215
vn -0.0142 0.9133 0.4071
vn 0.7353 0.6219 0.2694
vn 0.7280 0.6289 0.2729
vn 0.9930 -0.0584 -0.1024
vn 0.9943 -0.0469 -0.0961
vn 0.6448 -0.6306 -0.4319
vn 0.6502 -0.6266 -0.4295
vn 0.1229 -0.9800 0.1565
vn 0.7034 -0.7090 -0.0494
vn 0.7157 -0.6963 -0.0543
vn 0.9784 -0.0354 -0.2036
vn 0.9784 -0.0059 -0.2066
vn 0.6708 0.7157 -0.1943
vn 0.6544 0.7316 -0.1911
vn -0.0746 0.9972 0.0000
vn -0.7502 0.6095 0.2564
vn -0.7373 0.6275 0.2503
vn -0.9025 -0.1761 0.3929
vn -0.9082 -0.1470 0.3918
vn -0.5009 -0.7991 0.3325
vn -0.5152 -0.7884 0.3361
vn -0.1103 -0.8318 -0.5440
vn -0.6902 -0.6793 -0.2493
vn -0.6951 -0.6757 -0.2456
vn -0.9773 -0.1302 0.1670
vn -0.9776 -0.1188 0.1735
vn -0.6787 0.5704 0.4627
vn -0.6712 0.5779 0.4643
vn 0.0575 0.9159 0.3973
vn 0.7366 0.6762 0.0138
vn 0.7304 0.6827 0.0197
vn 0.9031 0.0104 -0.4294
vn 0.9055 0.0220 -0.4237
vn 0.5066 -0.5898 -0.6289
vn 0.5122 -0.5854 -0.6285
vn 0.2379 -0.9665 0.0968
vn 0.6952 -0.6582 -0.2889
vn 0.7041 -0.6448 -0.2975
vn 0.8538 0.0308 -0.5196
vn 0.8508 0.0601 -0.5221
vn 0.5142 0.7584 -0.4006
vn 0.4987 0.7731 -0.3919
vn -0.1414 0.9893 0.0347
vn -0.6628 0.5586 0.4986
vn -0.6540 0.5775 0.4887
vn -0.7041 -0.2336 0.6706
vn -0.7119 -0.2050 0.6717
vn -0.3023 -0.8275 0.4731
vn -0.3154 -0.8178 0.4814
vn -0.2262 -0.8454 -0.4838
vn -0.6834 -0.7300 -0.0106
vn -0.6870 -0.7267 -0.0054
vn -0.8532 -0.1964 0.4832
vn -0.8522 -0.1850 0.4895
vn -0.5238 0.5277 0.6687
vn -0.5168 0.5358 0.6677
vn 0.1215 0.9234 0.3641
vn 0.6485 0.7267 -0.2268
vn 0.6442 0.7328 -0.2192
vn 0.7043 0.0679 -0.7067
vn 0.7076 0.0797 -0.7021
vn 0.3079 -0.5617 -0.7679
vn 0.3129 -0.5570 -0.7693
vn 0.0096 0.9613 -0.2755
vn -0.3514 -0.3083 -0.8840
vn -0.9105 -0.1204 -0.3956
vn -0.9353 0.1385 0.3257
vn -0.4120 0.3157 0.8548
vn 0.3514 0.3083 0.8840
vn 0.4120 -0.3157 -0.8548
vn -0.1518 0.9554 -0.2534
vn -0.6038 -0.3454 -0.7184
vn -0.9793 -0.1902 -0.0692
vn -0.7798 0.0768 0.6213
vn -0.1238 0.2984 0.9464
vn 0.6039 0.3454 0.7184
vn 0.1238 -0.2984 -0.9464
vn -0.2957 0.9384 -0.1786
vn -0.7830 -0.3977 -0.4782
vn -0.9298 -0.2599 0.2606
vn -0.5305 0.0307 0.8471
vn 0.1788 0.3028 0.9361
vn 0.7830 0.3977 0.4782
vn 0.9298 0.2599 -0.2606
vn 0.5305 -0.0307 -0.8471
vn -0.1788 -0.3028 -0.9361
usemtl Material
s off
f 1/1/1 2/2/1 3/3/1 4/4/1
f 2/2/2 5/5/2 6/6/2 3/3/2
f 5/5/3 7/7/3 8/8/3 6/6/3
f 7/7/4 9/9/4 10/10/4 8/8/4
f 9/9/5 11/11/5 12/12/5 10/10/5
f 11/11/6 13/13/6 14/14/6 12/12/6
f 13/13/7 15/15/7 16/16/7 14/14/7
f 15/15/8 1/17/8 4/18/8 16/16/8
f 17/19/9 18/20/9 19/21/9 20/22/9 21/23/9 22/24/9 23/25/9 24/26/9
f 42/27/10 41/28/10 49/29/10 50/30/10
f 41/28/11 43/31/11 51/32/11 49/29/11
f 43/31/12 44/33/12 52/34/12 51/32/12
f 44/33/13 45/35/13 53/36/13 52/34/13
f 45/35/14 46/37/14 54/38/14 53/36/14
f 46/37/15 47/39/15 55/40/15 54/38/15
f 47/39/16 48/41/16 56/42/16 55/40/16
f 48/41/17 42/27/17 50/30/17 56/42/17
f 33/43/18 35/44/18 18/20/18 17/19/18
f 35/44/19 36/45/19 19/21/19 18/20/19
f 36/45/20 37/46/20 20/22/20 19/21/20
f 37/46/21 38/47/21 21/23/21 20/22/21
f 38/47/22 39/48/22 22/24/22 21/23/22
f 39/48/23 40/49/23 23/25/23 22/24/23
f 40/49/24 34/50/24 24/26/24 23/25/24
f 34/50/25 33/43/25 17/19/25 24/26/25
f 54/38/26 55/40/26 31/51/26 30/52/26
f 55/40/27 56/42/27 32/53/27 31/51/27
f 57/54/28 58/55/28 59/56/28 60/57/28
f 58/55/29 61/58/29 62/59/29 59/56/29
f 61/58/30 63/60/30 64/61/30 62/59/30
f 63/60/31 65/62/31 66/63/31 64/61/31
f 65/62/32 67/64/32 68/65/32 66/63/32
f 67/64/33 69/66/33 70/67/33 68/65/33
f 69/66/34 71/68/34 72/69/34 70/67/34
f 71/68/35 57/70/35 60/71/35 72/69/35
f 73/72/36 74/73/36 75/74/36 76/75/36 77/76/36 78/77/36 79/78/36 80/79/36
f 98/80/37 97/81/37 105/82/37 106/83/37
f 97/81/38 99/84/38 107/85/38 105/82/38
f 99/84/39 100/86/39 108/87/39 107/85/39
f 100/86/40 101/88/40 109/89/40 108/87/40
f 101/88/41 102/90/41 110/91/41 109/89/41
f 102/90/42 103/92/42 111/93/42 110/91/42
f 103/92/43 104/94/43 112/95/43 111/93/43
f 104/94/44 98/80/44 106/83/44 112/95/44
f 89/96/45 91/97/45 74/73/45 73/72/45
f 91/97/46 92/98/46 75/74/46 74/73/46
f 92/98/47 93/99/47 76/75/47 75/74/47
f 93/99/48 94/100/48 77/76/48 76/75/48
f 94/100/49 95/101/49 78/77/49 77/76/49
f 95/101/50 96/102/50 79/78/50 78/77/50
f 96/102/51 90/103/51 80/79/51 79/78/51
f 90/103/52 89/96/52 73/72/52 80/79/52
f 110/91/53 111/93/53 87/104/53 86/105/53
f 111/93/54 112/95/54 88/106/54 87/104/54
f 113/107/55 114/108/55 115/109/55 116/110/55
f 114/108/56 117/111/56 118/112/56 115/109/56
f 117/111/57 119/113/57 120/114/57 118/112/57
f 119/113/58 121/115/58 122/116/58 120/114/58
f 121/115/59 123/117/59 124/118/59 122/116/59
f 123/117/60 125/119/60 126/120/60 124/118/60
f 125/119/61 127/121/61 128/122/61 126/120/61
f 127/121/62 113/123/62 116/124/62 128/122/62
f 129/125/63 130/126/63 131/127/63 132/128/63 133/129/63 134/130/63 135/131/63 136/132/63
f 154/133/64 153/134/64 161/135/64 162/136/64
f 153/134/65 155/137/65 163/138/65 161/135/65
f 155/137/66 156/139/66 164/140/66 163/138/66
f 156/139/67 157/141/67 165/142/67 164/140/67
f 157/141/68 158/143/68 166/144/68 165/142/68
f 158/143/69 159/145/69 167/146/69 166/144/69
f 159/145/70 160/147/70 168/148/70 167/146/70
f 160/147/71 154/133/71 162/136/71 168/148/71
f 145/149/72 147/150/72 130/126/72 129/125/72
f 147/150/73 148/151/73 131/127/73 130/126/73
f 148/151/74 149/152/74 132/128/74 131/127/74
f 149/152/75 150/153/75 133/129/75 132/128/75
f 150/153/76 151/154/76 134/130/76 133/129/76
f 151/154/77 152/155/77 135/131/77 134/130/77
f 152/155/78 146/156/78 136/132/78 135/131/78
f 146/156/79 145/149/79 129/125/79 136/132/79
s 1
f 15/157/80 13/158/81 33/43/82 34/50/80
f 13/158/81 11/159/83 35/44/84 33/43/82
f 11/159/83 9/160/85 36/45/86 35/44/84
f 9/160/85 7/161/87 37/46/87 36/45/86
f 7/161/87 5/162/88 38/47/89 37/46/87
f 5/162/88 2/163/90 39/48/91 38/47/89
f 2/163/90 1/164/92 40/49/93 39/48/91
f 1/164/92 15/157/80 34/50/80 40/49/93
f 16/165/94 4/166/95 41/28/96 42/27/94
f 4/166/95 3/167/97 43/31/98 41/28/96
f 3/167/97 6/168/99 44/33/100 43/31/98
f 6/168/99 8/169/101 45/35/101 44/33/100
f 8/169/101 10/170/102 46/37/103 45/35/101
f 10/170/102 12/171/104 47/39/105 46/37/103
f 12/171/104 14/172/106 48/41/107 47/39/105
f 14/172/106 16/165/94 42/27/94 48/41/107
f 71/173/108 69/174/109 89/96/110 90/103/108
f 69/174/109 67/175/111 91/97/112 89/96/110
f 67/175/111 65/176/113 92/98/114 91/97/112
f 65/176/113 63/177/115 93/99/115 92/98/114
f 63/177/115 61/178/116 94/100/117 93/99/115
f 61/178/116 58/179/118 95/101/119 94/100/117
f 58/179/118 57/180/120 96/102/121 95/101/119
f 57/180/120 71/173/108 90/103/108 96/102/121
f 72/181/122 60/182/123 97/81/124 98/80/122
f 60/182/123 59/183/125 99/84/126 97/81/124
f 59/183/125 62/184/127 100/86/128 99/84/126
f 62/184/127 64/185/129 101/88/129 100/86/128
f 64/185/129 66/186/130 102/90/131 101/88/129
f 66/186/130 68/187/132 103/92/133 102/90/131
f 68/187/132 70/188/134 104/94/135 103/92/133
f 70/188/134 72/181/122 98/80/122 104/94/135
f 127/189/136 125/190/137 145/149/138 146/156/136
f 125/190/137 123/191/139 147/150/140 145/149/138
f 123/191/139 121/192/141 148/151/142 147/150/140
f 121/192/141 119/193/143 149/152/143 148/151/142
f 119/193/143 117/194/144 150/153/145 149/152/143
f 117/194/144 114/195/146 151/154/147 150/153/145
f 114/195/146 113/196/148 152/155/149 151/154/147
f 113/196/148 127/189/136 146/156/136 152/155/149
f 128/197/150 116/198/151 153/134/152 154/133/150
f 116/198/151 115/199/153 155/137/154 153/134/152
f 115/199/153 118/200/155 156/139/156 155/137/154
f 118/200/155 120/201/157 157/141/157 156/139/156
f 120/201/157 122/202/158 158/143/159 157/141/157
f 122/202/158 124/203/160 159/145/161 158/143/159
f 124/203/160 126/204/162 160/147/163 159/145/161
f 126/204/162 128/197/150 154/133/150 160/147/163
usemtl Material.001
s off
f 25/205/164 26/206/164 27/207/164 28/208/164 29/209/164 30/52/164 31/51/164 32/53/164
f 50/30/165 49/29/165 26/206/165 25/205/165
f 49/29/166 51/32/166 27/207/166 26/206/166
f 51/32/167 52/34/167 28/208/167 27/207/167
f 52/34/168 53/36/168 29/209/168 28/208/168
f 53/36/169 54/38/169 30/52/169 29/209/169
f 56/42/170 50/30/170 25/205/170 32/53/170
f 81/210/171 82/211/171 83/212/171 84/213/171 85/214/171 86/105/171 87/104/171 88/106/171
f 106/83/172 105/82/172 82/211/172 81/210/172
f 105/82/173 107/85/173 83/212/173 82/211/173
f 107/85/174 108/87/174 84/213/174 83/212/174
f 108/87/175 109/89/175 85/214/175 84/213/175
f 109/89/176 110/91/176 86/105/176 85/214/176
f 112/95/177 106/83/177 81/210/177 88/106/177
f 137/215/178 138/216/178 139/217/178 140/218/178 141/219/178 142/220/178 143/221/178 144/222/178
f 162/136/179 161/135/179 138/216/179 137/215/179
f 161/135/180 163/138/180 139/217/180 138/216/180
f 163/138/181 164/140/181 140/218/181 139/217/181
f 164/140/182 165/142/182 141/219/182 140/218/182
f 165/142/183 166/144/183 142/220/183 141/219/183
f 166/144/184 167/146/184 143/221/184 142/220/184
f 167/146/185 168/148/185 144/222/185 143/221/185
f 168/148/186 162/136/186 137/215/186 144/222/186
