# Blender v2.90.0 OBJ File: 'chicken_breast_clr.blend'
# www.blender.org
mtllib carrots_clr.mtl
o Carrots
v -0.441651 0.059455 2.251771
v -0.519822 0.027153 2.249513
v -0.519822 -0.426996 -3.267180
v -0.009348 -0.216066 -3.252431
v -0.597992 0.059455 2.251771
v -1.030297 -0.216066 -3.252431
v -0.630372 0.137437 2.257224
v -1.241740 0.293164 -3.216822
v -0.597992 0.215415 2.262677
v -1.030297 0.802394 -3.181210
v -0.519822 0.247718 2.264936
v -0.519822 1.013324 -3.166461
v -0.441651 0.215420 2.262678
v -0.009348 0.802395 -3.181211
v -0.409272 0.137437 2.257224
v 0.202097 0.293164 -3.216820
v -0.519822 0.137437 2.257224
v -0.397496 0.345071 -3.586155
v -0.433324 0.258784 -3.592189
v -0.519822 0.223043 -3.594688
v -0.606320 0.258784 -3.592189
v -0.642148 0.345071 -3.586155
v -0.606320 0.431357 -3.580121
v -0.519822 0.467099 -3.577622
v -0.433324 0.431358 -3.580121
v -0.154639 -0.037794 -3.479486
v -0.003376 0.326499 -3.454010
v -0.519822 -0.188690 -3.490036
v -0.885005 -0.037794 -3.479486
v -1.036269 0.326499 -3.454010
v -0.885005 0.690792 -3.428535
v -0.519822 0.841688 -3.417985
v -0.154639 0.690792 -3.428537
v -0.217812 0.043796 -3.607222
v -0.092715 0.345071 -3.586154
v -0.519822 -0.080996 -3.615948
v -0.821833 0.043796 -3.607222
v -0.946930 0.345071 -3.586155
v -0.821833 0.646345 -3.565085
v -0.519822 0.771137 -3.556361
v -0.217812 0.646345 -3.565087
v -0.291468 0.117273 -3.602084
v -0.196881 0.345071 -3.586154
v -0.519822 0.022916 -3.608682
v -0.748176 0.117273 -3.602084
v -0.842763 0.345071 -3.586155
v -0.748176 0.572868 -3.570224
v -0.519822 0.667225 -3.563628
v -0.291468 0.572868 -3.570226
v -0.291468 0.010603 -5.062278
v -0.519822 -0.083754 -5.068877
v -0.519822 0.116373 -5.054882
v -0.433324 0.152114 -5.052383
v -0.748176 0.051840 -4.722999
v -0.842763 0.279637 -4.707070
v -0.642148 0.279637 -4.707070
v -0.606320 0.193351 -4.713104
v -0.759701 0.519516 -4.502579
v -0.531347 0.613874 -4.495983
v -0.531347 0.413747 -4.509978
v -0.617845 0.378006 -4.512476
v -0.248986 0.718440 -4.606025
v -0.154398 0.490643 -4.621953
v -0.355014 0.490643 -4.621953
v -0.390842 0.576930 -4.615920
v 0.698604 0.059455 4.282254
v 0.620434 0.027153 4.279995
v 0.620434 -0.426996 -1.236698
v 1.130907 -0.216066 -1.221948
v 0.542263 0.059455 4.282254
v 0.109959 -0.216066 -1.221948
v 0.509883 0.137437 4.287707
v -0.101485 0.293164 -1.186339
v 0.542263 0.215415 4.293160
v 0.109959 0.802394 -1.150727
v 0.620434 0.247718 4.295419
v 0.620434 1.013324 -1.135979
v 0.698604 0.215420 4.293160
v 1.130907 0.802395 -1.150728
v 0.730984 0.137437 4.287707
v 1.342353 0.293164 -1.186337
v 0.620434 0.137437 4.287707
v 0.742760 0.345071 -1.555672
v 0.706931 0.258784 -1.561706
v 0.620434 0.223043 -1.564206
v 0.533936 0.258784 -1.561706
v 0.498107 0.345071 -1.555672
v 0.533936 0.431357 -1.549638
v 0.620434 0.467099 -1.547139
v 0.706931 0.431358 -1.549639
v 0.985616 -0.037794 -1.449003
v 1.136880 0.326499 -1.423527
v 0.620434 -0.188690 -1.459553
v 0.255250 -0.037794 -1.449003
v 0.103986 0.326499 -1.423527
v 0.255250 0.690792 -1.398053
v 0.620434 0.841688 -1.387502
v 0.985616 0.690792 -1.398054
v 0.922444 0.043796 -1.576740
v 1.047541 0.345071 -1.555671
v 0.620434 -0.080996 -1.585465
v 0.318423 0.043796 -1.576740
v 0.193326 0.345071 -1.555672
v 0.318423 0.646345 -1.534603
v 0.620434 0.771137 -1.525878
v 0.922444 0.646345 -1.534604
v 0.848787 0.117273 -1.571602
v 0.943375 0.345071 -1.555671
v 0.620434 0.022916 -1.578200
v 0.392079 0.117273 -1.571602
v 0.297492 0.345071 -1.555672
v 0.392079 0.572868 -1.539741
v 0.620434 0.667225 -1.533145
v 0.848787 0.572868 -1.539743
v 0.848787 0.010603 -3.031796
v 0.620434 -0.083754 -3.038394
v 0.620434 0.116373 -3.024400
v 0.706931 0.152114 -3.021900
v 0.392079 0.051840 -2.692516
v 0.297492 0.279637 -2.676587
v 0.498107 0.279637 -2.676587
v 0.533936 0.193351 -2.682621
v 0.380554 0.519516 -2.472097
v 0.608909 0.613874 -2.465501
v 0.608909 0.413747 -2.479495
v 0.522411 0.378006 -2.481994
v 0.891270 0.718440 -2.575542
v 0.985857 0.490643 -2.591470
v 0.785242 0.490643 -2.591470
v 0.749413 0.576930 -2.585438
v 0.045590 -0.206178 4.277354
v -0.032581 -0.237596 4.269521
v -0.032580 0.273118 -1.242224
v 0.477893 0.478282 -1.191071
v -0.110751 -0.206178 4.277354
v -0.543055 0.478282 -1.191071
v -0.143131 -0.130326 4.296266
v -0.754499 0.973592 -1.067576
v -0.110751 -0.054481 4.315176
v -0.543055 1.468903 -0.944078
v -0.032581 -0.023060 4.323011
v -0.032580 1.674067 -0.892926
v 0.045590 -0.054475 4.315178
v 0.477893 1.468903 -0.944078
v 0.077970 -0.130326 4.296266
v 0.689338 0.973592 -1.067574
v -0.032581 -0.130326 4.296266
v 0.089745 1.088845 -1.422284
v 0.053917 1.004917 -1.443210
v -0.032580 0.970152 -1.451878
v -0.119078 1.004917 -1.443210
v -0.154907 1.088845 -1.422285
v -0.119078 1.172773 -1.401358
v -0.032580 1.207537 -1.392691
v 0.053917 1.172773 -1.401359
v 0.332602 0.693274 -1.383720
v 0.483866 1.047608 -1.295372
v -0.032580 0.546503 -1.420312
v -0.397764 0.693274 -1.383720
v -0.549028 1.047608 -1.295372
v -0.397764 1.401944 -1.207025
v -0.032580 1.548714 -1.170432
v 0.332602 1.401944 -1.207027
v 0.269430 0.795805 -1.495347
v 0.394526 1.088844 -1.422283
v -0.032580 0.674424 -1.525610
v -0.334592 0.795805 -1.495347
v -0.459689 1.088845 -1.422285
v -0.334592 1.381883 -1.349219
v -0.032580 1.503265 -1.318957
v 0.269430 1.381884 -1.349221
v 0.195773 0.867274 -1.477528
v 0.290361 1.088845 -1.422283
v -0.032580 0.775496 -1.500411
v -0.260935 0.867274 -1.477528
v -0.355522 1.088845 -1.422285
v -0.260935 1.310415 -1.367039
v -0.032580 1.402193 -1.344158
v 0.195773 1.310415 -1.367041
v 0.195773 1.015785 -2.934062
v -0.032580 0.924007 -2.956945
v -0.032580 1.118663 -2.908411
v 0.053917 1.153427 -2.899744
v -0.260935 0.997480 -2.592776
v -0.355522 1.219050 -2.537532
v -0.154907 1.219050 -2.537532
v -0.119078 1.135122 -2.558458
v -0.272460 1.419776 -2.294494
v -0.044106 1.511554 -2.271613
v -0.044106 1.316898 -2.320147
v -0.130604 1.282133 -2.328814
v 0.238255 1.633640 -2.361825
v 0.332843 1.412070 -2.417068
v 0.132228 1.412070 -2.417068
v 0.096399 1.495998 -2.396143
vt 0.375000 0.312500
vt 0.406250 0.312500
vt 0.406250 0.688440
vt 0.375000 0.688440
vt 0.437500 0.312500
vt 0.437500 0.688440
vt 0.468750 0.312500
vt 0.468750 0.688440
vt 0.500000 0.312500
vt 0.500000 0.688440
vt 0.531250 0.312500
vt 0.531250 0.688440
vt 0.562500 0.312500
vt 0.562500 0.688440
vt 0.593750 0.312500
vt 0.593750 0.688440
vt 0.625000 0.312500
vt 0.625000 0.688440
vt 0.578125 0.840625
vt 0.555243 0.895868
vt 0.500000 0.918750
vt 0.444757 0.895868
vt 0.421875 0.840625
vt 0.444757 0.785382
vt 0.500000 0.762500
vt 0.555243 0.785382
vt 0.578125 0.840625
vt 0.555243 0.895868
vt 0.555243 0.895868
vt 0.578125 0.840625
vt 0.500000 0.918750
vt 0.500000 0.918750
vt 0.444757 0.895868
vt 0.444757 0.895868
vt 0.421875 0.840625
vt 0.421875 0.840625
vt 0.444757 0.785382
vt 0.444757 0.785382
vt 0.500000 0.762500
vt 0.500000 0.762500
vt 0.555243 0.785382
vt 0.555243 0.785382
vt 0.555243 0.895868
vt 0.578125 0.840625
vt 0.500000 0.918750
vt 0.444757 0.895868
vt 0.421875 0.840625
vt 0.444757 0.785382
vt 0.500000 0.762500
vt 0.555243 0.785382
vt 0.375000 0.312500
vt 0.406250 0.312500
vt 0.406250 0.688440
vt 0.375000 0.688440
vt 0.437500 0.312500
vt 0.437500 0.688440
vt 0.468750 0.312500
vt 0.468750 0.688440
vt 0.500000 0.312500
vt 0.500000 0.688440
vt 0.531250 0.312500
vt 0.531250 0.688440
vt 0.562500 0.312500
vt 0.562500 0.688440
vt 0.593750 0.312500
vt 0.593750 0.688440
vt 0.625000 0.312500
vt 0.625000 0.688440
vt 0.578125 0.840625
vt 0.555243 0.895868
vt 0.500000 0.918750
vt 0.444757 0.895868
vt 0.421875 0.840625
vt 0.444757 0.785382
vt 0.500000 0.762500
vt 0.555243 0.785382
vt 0.578125 0.840625
vt 0.555243 0.895868
vt 0.555243 0.895868
vt 0.578125 0.840625
vt 0.500000 0.918750
vt 0.500000 0.918750
vt 0.444757 0.895868
vt 0.444757 0.895868
vt 0.421875 0.840625
vt 0.421875 0.840625
vt 0.444757 0.785382
vt 0.444757 0.785382
vt 0.500000 0.762500
vt 0.500000 0.762500
vt 0.555243 0.785382
vt 0.555243 0.785382
vt 0.555243 0.895868
vt 0.578125 0.840625
vt 0.500000 0.918750
vt 0.444757 0.895868
vt 0.421875 0.840625
vt 0.444757 0.785382
vt 0.500000 0.762500
vt 0.555243 0.785382
vt 0.375000 0.312500
vt 0.406250 0.312500
vt 0.406250 0.688440
vt 0.375000 0.688440
vt 0.437500 0.312500
vt 0.437500 0.688440
vt 0.468750 0.312500
vt 0.468750 0.688440
vt 0.500000 0.312500
vt 0.500000 0.688440
vt 0.531250 0.312500
vt 0.531250 0.688440
vt 0.562500 0.312500
vt 0.562500 0.688440
vt 0.593750 0.312500
vt 0.593750 0.688440
vt 0.625000 0.312500
vt 0.625000 0.688440
vt 0.578125 0.840625
vt 0.555243 0.895868
vt 0.500000 0.918750
vt 0.444757 0.895868
vt 0.421875 0.840625
vt 0.444757 0.785382
vt 0.500000 0.762500
vt 0.555243 0.785382
vt 0.578125 0.840625
vt 0.555243 0.895868
vt 0.555243 0.895868
vt 0.578125 0.840625
vt 0.500000 0.918750
vt 0.500000 0.918750
vt 0.444757 0.895868
vt 0.444757 0.895868
vt 0.421875 0.840625
vt 0.421875 0.840625
vt 0.444757 0.785382
vt 0.444757 0.785382
vt 0.500000 0.762500
vt 0.500000 0.762500
vt 0.555243 0.785382
vt 0.555243 0.785382
vt 0.555243 0.895868
vt 0.578125 0.840625
vt 0.500000 0.918750
vt 0.444757 0.895868
vt 0.421875 0.840625
vt 0.444757 0.785382
vt 0.500000 0.762500
vt 0.555243 0.785382
vt 0.500000 0.000000
vt 0.610485 0.045765
vt 0.500000 0.150000
vt 0.389515 0.045765
vt 0.343750 0.156250
vt 0.389515 0.266735
vt 0.500000 0.312500
vt 0.610485 0.266735
vt 0.656250 0.156250
vt 0.656250 0.843750
vt 0.610485 0.954235
vt 0.500000 1.000000
vt 0.389515 0.954235
vt 0.343750 0.843750
vt 0.389515 0.733265
vt 0.500000 0.687500
vt 0.610485 0.733265
vt 0.500000 0.000000
vt 0.610485 0.045765
vt 0.500000 0.150000
vt 0.389515 0.045765
vt 0.343750 0.156250
vt 0.389515 0.266735
vt 0.500000 0.312500
vt 0.610485 0.266735
vt 0.656250 0.156250
vt 0.656250 0.843750
vt 0.610485 0.954235
vt 0.500000 1.000000
vt 0.389515 0.954235
vt 0.343750 0.843750
vt 0.389515 0.733265
vt 0.500000 0.687500
vt 0.610485 0.733265
vt 0.500000 0.000000
vt 0.610485 0.045765
vt 0.500000 0.150000
vt 0.389515 0.045765
vt 0.343750 0.156250
vt 0.389515 0.266735
vt 0.500000 0.312500
vt 0.610485 0.266735
vt 0.656250 0.156250
vt 0.656250 0.843750
vt 0.610485 0.954235
vt 0.500000 1.000000
vt 0.389515 0.954235
vt 0.343750 0.843750
vt 0.389515 0.733265
vt 0.500000 0.687500
vt 0.610485 0.733265
vt 0.555243 0.895868
vt 0.500000 0.918750
vt 0.500000 0.918750
vt 0.555243 0.895868
vt 0.444757 0.895868
vt 0.421875 0.840625
vt 0.421875 0.840625
vt 0.444757 0.895868
vt 0.444757 0.785382
vt 0.500000 0.762500
vt 0.500000 0.762500
vt 0.444757 0.785382
vt 0.555243 0.785382
vt 0.578125 0.840625
vt 0.578125 0.840625
vt 0.555243 0.785382
vt 0.555243 0.895868
vt 0.500000 0.918750
vt 0.500000 0.918750
vt 0.555243 0.895868
vt 0.444757 0.895868
vt 0.421875 0.840625
vt 0.421875 0.840625
vt 0.444757 0.895868
vt 0.444757 0.785382
vt 0.500000 0.762500
vt 0.500000 0.762500
vt 0.444757 0.785382
vt 0.555243 0.785382
vt 0.578125 0.840625
vt 0.578125 0.840625
vt 0.555243 0.785382
vt 0.555243 0.895868
vt 0.500000 0.918750
vt 0.500000 0.918750
vt 0.555243 0.895868
vt 0.444757 0.895868
vt 0.421875 0.840625
vt 0.421875 0.840625
vt 0.444757 0.895868
vt 0.444757 0.785382
vt 0.500000 0.762500
vt 0.500000 0.762500
vt 0.444757 0.785382
vt 0.555243 0.785382
vt 0.578125 0.840625
vt 0.578125 0.840625
vt 0.555243 0.785382
vn 0.3789 -0.9223 0.0759
vn -0.3789 -0.9223 0.0759
vn -0.9174 -0.3873 0.0914
vn -0.9204 0.3742 0.1134
vn -0.3819 0.9152 0.1290
vn 0.3819 0.9152 0.1290
vn 0.9204 0.3742 0.1134
vn 0.9174 -0.3873 0.0914
vn -0.0000 0.0698 -0.9976
vn 0.7758 -0.2827 -0.5642
vn 0.3158 -0.7211 -0.6167
vn -0.3158 -0.7211 -0.6167
vn -0.7758 -0.2827 -0.5642
vn -0.7946 0.3639 -0.4860
vn -0.3345 0.8396 -0.4280
vn 0.3345 0.8396 -0.4280
vn 0.7946 0.3639 -0.4860
vn -0.0000 0.0697 -0.9976
vn 0.3789 -0.9215 -0.0854
vn -0.3789 -0.9215 -0.0854
vn -0.9174 -0.3973 0.0228
vn -0.9204 0.3488 0.1767
vn -0.3819 0.8789 0.2860
vn 0.3819 0.8789 0.2860
vn 0.9204 0.3488 0.1767
vn 0.9174 -0.3973 0.0228
vn 0.0000 0.2419 -0.9703
vn 0.7758 -0.1804 -0.6047
vn 0.3158 -0.6030 -0.7326
vn -0.3158 -0.6030 -0.7326
vn -0.7758 -0.1804 -0.6047
vn -0.7946 0.4428 -0.4155
vn -0.3345 0.9011 -0.2758
vn 0.3345 0.9011 -0.2758
vn 0.7946 0.4428 -0.4155
vn -0.0000 -0.0697 0.9976
vn 0.0000 -0.0698 0.9976
vn 0.7573 0.0246 -0.6526
vn 0.5131 -0.4843 -0.7086
vn 0.5292 -0.4692 -0.7070
vn 0.7586 0.0582 -0.6490
vn 0.0000 -0.6830 -0.7304
vn -0.5131 -0.4843 -0.7086
vn -0.5292 -0.4692 -0.7070
vn -0.7573 0.0246 -0.6526
vn -0.7586 0.0582 -0.6490
vn -0.5604 0.5802 -0.5910
vn -0.5426 0.5989 -0.5890
vn -0.0000 0.8260 -0.5637
vn 0.5604 0.5802 -0.5910
vn 0.5425 0.5990 -0.5890
vn -0.5425 0.5990 -0.5890
vn 0.0000 -0.2419 0.9703
vn 0.7573 0.1375 -0.6384
vn 0.5131 -0.3539 -0.7820
vn 0.5294 -0.3391 -0.7777
vn 0.7586 0.1700 -0.6290
vn 0.0000 -0.5458 -0.8379
vn -0.5131 -0.3539 -0.7820
vn -0.5292 -0.3393 -0.7777
vn -0.7573 0.1375 -0.6384
vn -0.7586 0.1700 -0.6290
vn -0.5604 0.6740 -0.4813
vn -0.5424 0.6923 -0.4760
vn 0.0000 0.9113 -0.4117
vn 0.5604 0.6740 -0.4813
vn 0.5426 0.6921 -0.4760
vn 0.3794 -0.9228 0.0674
vn -1.0000 -0.0000 0.0000
vn -0.3794 0.9228 -0.0674
vn 0.7035 0.7088 -0.0518
vn -0.9228 -0.3847 0.0225
vn 0.0000 0.9983 -0.0583
vn 0.9228 0.3847 -0.0225
vn 0.7042 -0.7088 0.0414
vn -0.3803 0.9236 -0.0482
vn 0.9999 0.0009 -0.0124
vn 0.3803 -0.9236 0.0482
vn -0.7037 -0.7088 0.0493
vn 0.9220 0.3765 0.0907
vn 0.0000 -0.9903 -0.1392
vn -0.9220 -0.3765 -0.0907
vn -0.7070 0.7038 0.0699
vn 0.3794 -0.9205 -0.0939
vn -0.3794 0.9205 0.0939
vn 0.7035 0.7070 0.0721
vn -0.9228 -0.3828 -0.0447
vn 0.0000 0.9933 0.1160
vn 0.9228 0.3828 0.0447
vn 0.7042 -0.7052 -0.0823
vn -0.3803 0.9180 0.1130
vn 0.9999 0.0030 -0.0121
vn 0.3803 -0.9180 -0.1130
vn -0.7037 -0.7066 -0.0746
vn 0.9220 0.3550 0.1547
vn 0.0000 -0.9511 -0.3090
vn -0.9220 -0.3550 -0.1547
vn -0.7070 0.6810 0.1911
usemtl Material
s off
f 1/1/1 2/2/1 3/3/1 4/4/1
f 2/2/2 5/5/2 6/6/2 3/3/2
f 5/5/3 7/7/3 8/8/3 6/6/3
f 7/7/4 9/9/4 10/10/4 8/8/4
f 9/9/5 11/11/5 12/12/5 10/10/5
f 11/11/6 13/13/6 14/14/6 12/12/6
f 13/13/7 15/15/7 16/16/7 14/14/7
f 15/15/8 1/17/8 4/18/8 16/16/8
f 18/19/9 19/20/9 20/21/9 21/22/9 22/23/9 23/24/9 24/25/9 25/26/9
f 27/27/10 26/28/10 34/29/10 35/30/10
f 26/28/11 28/31/11 36/32/11 34/29/11
f 28/31/12 29/33/12 37/34/12 36/32/12
f 29/33/13 30/35/13 38/36/13 37/34/13
f 30/35/14 31/37/14 39/38/14 38/36/14
f 31/37/15 32/39/15 40/40/15 39/38/15
f 32/39/16 33/41/16 41/42/16 40/40/16
f 33/41/17 27/27/17 35/30/17 41/42/17
f 35/30/9 34/29/9 42/43/9 43/44/9
f 34/29/9 36/32/9 44/45/9 42/43/9
f 36/32/9 37/34/9 45/46/9 44/45/9
f 37/34/9 38/36/9 46/47/9 45/46/9
f 38/36/9 39/38/9 47/48/9 46/47/9
f 39/38/9 40/40/9 48/49/9 47/48/9
f 40/40/9 41/42/9 49/50/9 48/49/9
f 41/42/9 35/30/9 43/44/9 49/50/9
f 43/44/9 42/43/9 19/20/9 18/19/9
f 44/45/9 45/46/9 21/22/9 20/21/9
f 46/47/9 47/48/9 23/24/9 22/23/9
f 48/49/9 49/50/9 25/26/9 24/25/9
f 66/51/1 67/52/1 68/53/1 69/54/1
f 67/52/2 70/55/2 71/56/2 68/53/2
f 70/55/3 72/57/3 73/58/3 71/56/3
f 72/57/4 74/59/4 75/60/4 73/58/4
f 74/59/5 76/61/5 77/62/5 75/60/5
f 76/61/6 78/63/6 79/64/6 77/62/6
f 78/63/7 80/65/7 81/66/7 79/64/7
f 80/65/8 66/67/8 69/68/8 81/66/8
f 83/69/9 84/70/9 85/71/9 86/72/9 87/73/9 88/74/9 89/75/9 90/76/9
f 92/77/10 91/78/10 99/79/10 100/80/10
f 91/78/11 93/81/11 101/82/11 99/79/11
f 93/81/12 94/83/12 102/84/12 101/82/12
f 94/83/13 95/85/13 103/86/13 102/84/13
f 95/85/14 96/87/14 104/88/14 103/86/14
f 96/87/15 97/89/15 105/90/15 104/88/15
f 97/89/16 98/91/16 106/92/16 105/90/16
f 98/91/17 92/77/17 100/80/17 106/92/17
f 100/80/9 99/79/9 107/93/9 108/94/9
f 99/79/18 101/82/18 109/95/18 107/93/18
f 101/82/18 102/84/18 110/96/18 109/95/18
f 102/84/9 103/86/9 111/97/9 110/96/9
f 103/86/9 104/88/9 112/98/9 111/97/9
f 104/88/9 105/90/9 113/99/9 112/98/9
f 105/90/9 106/92/9 114/100/9 113/99/9
f 106/92/9 100/80/9 108/94/9 114/100/9
f 108/94/9 107/93/9 84/70/9 83/69/9
f 109/95/9 110/96/9 86/72/9 85/71/9
f 111/97/9 112/98/9 88/74/9 87/73/9
f 113/99/9 114/100/9 90/76/9 89/75/9
f 131/101/19 132/102/19 133/103/19 134/104/19
f 132/102/20 135/105/20 136/106/20 133/103/20
f 135/105/21 137/107/21 138/108/21 136/106/21
f 137/107/22 139/109/22 140/110/22 138/108/22
f 139/109/23 141/111/23 142/112/23 140/110/23
f 141/111/24 143/113/24 144/114/24 142/112/24
f 143/113/25 145/115/25 146/116/25 144/114/25
f 145/115/26 131/117/26 134/118/26 146/116/26
f 148/119/27 149/120/27 150/121/27 151/122/27 152/123/27 153/124/27 154/125/27 155/126/27
f 157/127/28 156/128/28 164/129/28 165/130/28
f 156/128/29 158/131/29 166/132/29 164/129/29
f 158/131/30 159/133/30 167/134/30 166/132/30
f 159/133/31 160/135/31 168/136/31 167/134/31
f 160/135/32 161/137/32 169/138/32 168/136/32
f 161/137/33 162/139/33 170/140/33 169/138/33
f 162/139/34 163/141/34 171/142/34 170/140/34
f 163/141/35 157/127/35 165/130/35 171/142/35
f 165/130/27 164/129/27 172/143/27 173/144/27
f 164/129/27 166/132/27 174/145/27 172/143/27
f 166/132/27 167/134/27 175/146/27 174/145/27
f 167/134/27 168/136/27 176/147/27 175/146/27
f 168/136/27 169/138/27 177/148/27 176/147/27
f 169/138/27 170/140/27 178/149/27 177/148/27
f 170/140/27 171/142/27 179/150/27 178/149/27
f 171/142/27 165/130/27 173/144/27 179/150/27
f 173/144/27 172/143/27 149/120/27 148/119/27
f 174/145/27 175/146/27 151/122/27 150/121/27
f 176/147/27 177/148/27 153/124/27 152/123/27
f 178/149/27 179/150/27 155/126/27 154/125/27
s 1
f 2/151/36 1/152/37 17/153/37
f 5/154/37 2/151/36 17/153/37
f 7/155/37 5/154/37 17/153/37
f 9/156/37 7/155/37 17/153/37
f 11/157/37 9/156/37 17/153/37
f 13/158/37 11/157/37 17/153/37
f 15/159/37 13/158/37 17/153/37
f 1/152/37 15/159/37 17/153/37
f 16/160/38 4/161/39 26/28/40 27/27/41
f 4/161/39 3/162/42 28/31/42 26/28/40
f 3/162/42 6/163/43 29/33/44 28/31/42
f 6/163/43 8/164/45 30/35/46 29/33/44
f 8/164/45 10/165/47 31/37/48 30/35/46
f 10/165/47 12/166/49 32/39/49 31/37/48
f 12/166/49 14/167/50 33/41/51 32/39/49
f 14/167/50 16/160/38 27/27/41 33/41/51
f 67/168/37 66/169/37 82/170/37
f 70/171/37 67/168/37 82/170/37
f 72/172/37 70/171/37 82/170/37
f 74/173/37 72/172/37 82/170/37
f 76/174/37 74/173/37 82/170/37
f 78/175/37 76/174/37 82/170/37
f 80/176/37 78/175/37 82/170/37
f 66/169/37 80/176/37 82/170/37
f 81/177/38 69/178/39 91/78/40 92/77/41
f 69/178/39 68/179/42 93/81/42 91/78/40
f 68/179/42 71/180/43 94/83/44 93/81/42
f 71/180/43 73/181/45 95/85/46 94/83/44
f 73/181/45 75/182/47 96/87/52 95/85/46
f 75/182/47 77/183/49 97/89/49 96/87/52
f 77/183/49 79/184/50 98/91/51 97/89/49
f 79/184/50 81/177/38 92/77/41 98/91/51
f 132/185/53 131/186/53 147/187/53
f 135/188/53 132/185/53 147/187/53
f 137/189/53 135/188/53 147/187/53
f 139/190/53 137/189/53 147/187/53
f 141/191/53 139/190/53 147/187/53
f 143/192/53 141/191/53 147/187/53
f 145/193/53 143/192/53 147/187/53
f 131/186/53 145/193/53 147/187/53
f 146/194/54 134/195/55 156/128/56 157/127/57
f 134/195/55 133/196/58 158/131/58 156/128/56
f 133/196/58 136/197/59 159/133/60 158/131/58
f 136/197/59 138/198/61 160/135/62 159/133/60
f 138/198/61 140/199/63 161/137/64 160/135/62
f 140/199/63 142/200/65 162/139/65 161/137/64
f 142/200/65 144/201/66 163/141/67 162/139/65
f 144/201/66 146/194/54 157/127/57 163/141/67
usemtl Material.001
s off
f 50/202/9 51/203/9 52/204/9 53/205/9
f 54/206/9 55/207/9 56/208/9 57/209/9
f 58/210/9 59/211/9 60/212/9 61/213/9
f 62/214/9 63/215/9 64/216/9 65/217/9
f 42/43/68 44/45/68 51/203/68 50/202/68
f 44/45/69 20/21/69 52/204/69 51/203/69
f 20/21/70 19/20/70 53/205/70 52/204/70
f 19/20/71 42/43/71 50/202/71 53/205/71
f 45/46/72 46/47/72 55/207/72 54/206/72
f 46/47/73 22/23/73 56/208/73 55/207/73
f 22/23/74 21/22/74 57/209/74 56/208/74
f 21/22/75 45/46/75 54/206/75 57/209/75
f 47/48/76 48/49/76 59/211/76 58/210/76
f 48/49/77 24/25/77 60/212/77 59/211/77
f 24/25/78 23/24/78 61/213/78 60/212/78
f 23/24/79 47/48/79 58/210/79 61/213/79
f 49/50/80 43/44/80 63/215/80 62/214/80
f 43/44/81 18/19/81 64/216/81 63/215/81
f 18/19/82 25/26/82 65/217/82 64/216/82
f 25/26/83 49/50/83 62/214/83 65/217/83
f 115/218/9 116/219/9 117/220/9 118/221/9
f 119/222/9 120/223/9 121/224/9 122/225/9
f 123/226/9 124/227/9 125/228/9 126/229/9
f 127/230/18 128/231/18 129/232/18 130/233/18
f 107/93/68 109/95/68 116/219/68 115/218/68
f 109/95/69 85/71/69 117/220/69 116/219/69
f 85/71/70 84/70/70 118/221/70 117/220/70
f 84/70/71 107/93/71 115/218/71 118/221/71
f 110/96/72 111/97/72 120/223/72 119/222/72
f 111/97/73 87/73/73 121/224/73 120/223/73
f 87/73/74 86/72/74 122/225/74 121/224/74
f 86/72/75 110/96/75 119/222/75 122/225/75
f 112/98/76 113/99/76 124/227/76 123/226/76
f 113/99/77 89/75/77 125/228/77 124/227/77
f 89/75/78 88/74/78 126/229/78 125/228/78
f 88/74/79 112/98/79 123/226/79 126/229/79
f 114/100/80 108/94/80 128/231/80 127/230/80
f 108/94/81 83/69/81 129/232/81 128/231/81
f 83/69/82 90/76/82 130/233/82 129/232/82
f 90/76/83 114/100/83 127/230/83 130/233/83
f 180/234/27 181/235/27 182/236/27 183/237/27
f 184/238/27 185/239/27 186/240/27 187/241/27
f 188/242/27 189/243/27 190/244/27 191/245/27
f 192/246/27 193/247/27 194/248/27 195/249/27
f 172/143/84 174/145/84 181/235/84 180/234/84
f 174/145/69 150/121/69 182/236/69 181/235/69
f 150/121/85 149/120/85 183/237/85 182/236/85
f 149/120/86 172/143/86 180/234/86 183/237/86
f 175/146/87 176/147/87 185/239/87 184/238/87
f 176/147/88 152/123/88 186/240/88 185/239/88
f 152/123/89 151/122/89 187/241/89 186/240/89
f 151/122/90 175/146/90 184/238/90 187/241/90
f 177/148/91 178/149/91 189/243/91 188/242/91
f 178/149/92 154/125/92 190/244/92 189/243/92
f 154/125/93 153/124/93 191/245/93 190/244/93
f 153/124/94 177/148/94 188/242/94 191/245/94
f 179/150/95 173/144/95 193/247/95 192/246/95
f 173/144/96 148/119/96 194/248/96 193/247/96
f 148/119/97 155/126/97 195/249/97 194/248/97
f 155/126/98 179/150/98 192/246/98 195/249/98
