# Blender v2.90.0 OBJ File: 'onion_clr.blend'
# www.blender.org
mtllib grapefruit_clr.mtl
o Grapefruit
v 0.303617 0.155747 -0.875528
v -0.212996 0.155747 -1.089517
v -0.212996 0.569598 -1.708889
v 0.741578 0.569598 -1.313491
v -0.729609 0.155747 -0.875528
v -1.167571 0.569598 -1.313491
v -0.943598 0.155747 -0.358917
v -1.562968 0.569598 -0.358917
v -0.729609 0.155747 0.157696
v -1.167571 0.569598 0.595658
v -0.212996 0.155747 0.371683
v -0.212996 0.569597 0.991055
v 0.303617 0.155747 0.157696
v 0.741578 0.569598 0.595659
v 0.517604 0.155747 -0.358917
v 1.136975 0.569598 -0.358917
v -0.212996 1.188971 -2.122741
v 1.034214 1.188971 -1.606129
v -1.460209 1.188971 -1.606129
v -1.976822 1.188971 -0.358917
v -1.460209 1.188970 0.888296
v -0.212996 1.188970 1.404908
v 1.034214 1.188970 0.888296
v 1.550827 1.188971 -0.358917
v -0.212996 1.919571 -2.268066
v 1.136975 1.919571 -1.708889
v -1.562968 1.919571 -1.708889
v -2.122147 1.919571 -0.358916
v -1.562968 1.919570 0.991056
v -0.212996 1.919570 1.550233
v 1.136975 1.919570 0.991056
v 1.696153 1.919571 -0.358916
v -0.212996 2.650171 -2.122740
v 1.034214 2.650171 -1.606128
v -1.460209 2.650171 -1.606128
v -1.976822 2.650171 -0.358916
v -1.460209 2.650171 0.888296
v -0.212996 2.650171 1.404908
v 1.034214 2.650171 0.888296
v 1.550827 2.650171 -0.358916
v -0.212996 3.269544 -1.708889
v 0.741578 3.269544 -1.313491
v -1.167571 3.269544 -1.313491
v -1.562968 3.269544 -0.358916
v -1.167571 3.269543 0.595658
v -0.212996 3.269543 0.991056
v 0.741578 3.269543 0.595659
v 1.136975 3.269544 -0.358916
v -0.212996 3.683395 -1.089516
v 0.303617 3.683395 -0.875528
v -0.729609 3.683395 -0.875528
v -0.943598 3.683395 -0.358916
v -0.729609 3.683395 0.157696
v -0.212996 3.683394 0.371684
v 0.303617 3.683395 0.157696
v 0.517604 3.683395 -0.358916
v -0.212996 0.010421 -0.358917
v -0.030348 3.908255 -0.358916
v -0.083843 3.908255 -0.488069
v -0.212996 3.908255 -0.541566
v -0.342151 3.908255 -0.488069
v -0.395646 3.908255 -0.358916
v -0.342151 3.908255 -0.229763
v -0.212996 3.908255 -0.176266
v -0.083843 3.908255 -0.229763
v 0.043605 3.792389 -0.615517
v 0.149891 3.792389 -0.358916
v -0.212996 3.792389 -0.721804
v -0.469599 3.792389 -0.615517
v -0.575885 3.792389 -0.358916
v -0.469599 3.792389 -0.102316
v -0.212996 3.792389 0.003972
v 0.043605 3.792389 -0.102316
vt 0.000000 0.125000
vt 0.125000 0.125000
vt 0.125000 0.250000
vt 0.000000 0.250000
vt 0.250000 0.125000
vt 0.250000 0.250000
vt 0.375000 0.125000
vt 0.375000 0.250000
vt 0.500000 0.125000
vt 0.500000 0.250000
vt 0.625000 0.125000
vt 0.625000 0.250000
vt 0.750000 0.125000
vt 0.750000 0.250000
vt 0.875000 0.125000
vt 0.875000 0.250000
vt 1.000000 0.125000
vt 1.000000 0.250000
vt 0.125000 0.375000
vt 0.000000 0.375000
vt 0.250000 0.375000
vt 0.375000 0.375000
vt 0.500000 0.375000
vt 0.625000 0.375000
vt 0.750000 0.375000
vt 0.875000 0.375000
vt 1.000000 0.375000
vt 0.125000 0.500000
vt 0.000000 0.500000
vt 0.250000 0.500000
vt 0.375000 0.500000
vt 0.500000 0.500000
vt 0.625000 0.500000
vt 0.750000 0.500000
vt 0.875000 0.500000
vt 1.000000 0.500000
vt 0.125000 0.625000
vt 0.000000 0.625000
vt 0.250000 0.625000
vt 0.375000 0.625000
vt 0.500000 0.625000
vt 0.625000 0.625000
vt 0.750000 0.625000
vt 0.875000 0.625000
vt 1.000000 0.625000
vt 0.125000 0.750000
vt 0.000000 0.750000
vt 0.250000 0.750000
vt 0.375000 0.750000
vt 0.500000 0.750000
vt 0.625000 0.750000
vt 0.750000 0.750000
vt 0.875000 0.750000
vt 1.000000 0.750000
vt 0.125000 0.875000
vt 0.000000 0.875000
vt 0.250000 0.875000
vt 0.375000 0.875000
vt 0.500000 0.875000
vt 0.625000 0.875000
vt 0.750000 0.875000
vt 0.875000 0.875000
vt 1.000000 0.875000
vt 0.062500 0.000000
vt 0.187500 0.000000
vt 0.312500 0.000000
vt 0.437500 0.000000
vt 0.562500 0.000000
vt 0.687500 0.000000
vt 0.812500 0.000000
vt 0.937500 0.000000
vt 0.968750 0.937500
vt 0.906250 0.937500
vt 0.093750 0.937500
vt 0.031250 0.937500
vt 0.218750 0.937500
vt 0.156250 0.937500
vt 0.343750 0.937500
vt 0.281250 0.937500
vt 0.468750 0.937500
vt 0.406250 0.937500
vt 0.593750 0.937500
vt 0.531250 0.937500
vt 0.718750 0.937500
vt 0.656250 0.937500
vt 0.843750 0.937500
vt 0.781250 0.937500
vt 0.906250 0.937500
vt 0.031250 0.937500
vt 0.156250 0.937500
vt 0.281250 0.937500
vt 0.406250 0.937500
vt 0.531250 0.937500
vt 0.656250 0.937500
vt 0.781250 0.937500
vn 0.2243 -0.8103 -0.5414
vn -0.2243 -0.8103 -0.5414
vn -0.5414 -0.8103 -0.2243
vn -0.5414 -0.8103 0.2243
vn -0.2243 -0.8103 0.5414
vn 0.2243 -0.8103 0.5414
vn 0.5414 -0.8103 0.2243
vn 0.5414 -0.8103 -0.2243
vn 0.3256 -0.5253 -0.7862
vn -0.3256 -0.5253 -0.7862
vn -0.7862 -0.5253 -0.3256
vn -0.7862 -0.5253 0.3256
vn -0.3256 -0.5253 0.7862
vn 0.3256 -0.5253 0.7862
vn 0.7862 -0.5253 0.3256
vn 0.7862 -0.5253 -0.3256
vn 0.3764 -0.1807 -0.9087
vn -0.3764 -0.1807 -0.9087
vn -0.9087 -0.1807 -0.3764
vn -0.9087 -0.1807 0.3764
vn -0.3764 -0.1807 0.9087
vn 0.3764 -0.1807 0.9087
vn 0.9087 -0.1807 0.3764
vn 0.9087 -0.1807 -0.3764
vn 0.3764 0.1807 -0.9087
vn -0.3764 0.1807 -0.9087
vn -0.9087 0.1807 -0.3764
vn -0.9087 0.1807 0.3764
vn -0.3764 0.1807 0.9087
vn 0.3764 0.1807 0.9087
vn 0.9087 0.1807 0.3764
vn 0.9087 0.1807 -0.3764
vn 0.3256 0.5253 -0.7862
vn -0.3256 0.5253 -0.7862
vn -0.7862 0.5253 -0.3256
vn -0.7862 0.5253 0.3256
vn -0.3256 0.5253 0.7862
vn 0.3256 0.5253 0.7862
vn 0.7862 0.5253 0.3256
vn 0.7862 0.5253 -0.3256
vn 0.2243 0.8103 -0.5414
vn -0.2243 0.8103 -0.5414
vn -0.5414 0.8103 -0.2243
vn -0.5414 0.8103 0.2243
vn -0.2243 0.8103 0.5414
vn 0.2243 0.8103 0.5414
vn 0.5414 0.8103 0.2243
vn 0.5414 0.8103 -0.2243
vn 0.0805 -0.9776 -0.1945
vn -0.0805 -0.9776 -0.1945
vn -0.1945 -0.9776 -0.0805
vn -0.1945 -0.9776 0.0805
vn -0.0805 -0.9776 0.1945
vn 0.0805 -0.9776 0.1945
vn 0.1945 -0.9776 0.0805
vn 0.1945 -0.9776 -0.0805
vn 0.2822 0.9522 -0.1169
vn 0.1169 0.9522 -0.2822
vn -0.1169 0.9522 -0.2822
vn -0.2822 0.9522 -0.1169
vn -0.2822 0.9522 0.1169
vn -0.1169 0.9522 0.2822
vn 0.1169 0.9522 0.2822
vn 0.2822 0.9522 0.1169
vn 0.0000 1.0000 -0.0000
vn 0.5277 0.8208 -0.2186
vn 0.2186 0.8208 -0.5277
vn -0.2186 0.8208 -0.5277
vn -0.5277 0.8208 -0.2186
vn -0.5277 0.8208 0.2186
vn -0.2186 0.8208 0.5277
vn 0.2186 0.8208 0.5277
vn 0.5277 0.8208 0.2186
usemtl Material
s 1
f 1/1/1 2/2/1 3/3/1 4/4/1
f 2/2/2 5/5/2 6/6/2 3/3/2
f 5/5/3 7/7/3 8/8/3 6/6/3
f 7/7/4 9/9/4 10/10/4 8/8/4
f 9/9/5 11/11/5 12/12/5 10/10/5
f 11/11/6 13/13/6 14/14/6 12/12/6
f 13/13/7 15/15/7 16/16/7 14/14/7
f 15/15/8 1/17/8 4/18/8 16/16/8
f 4/4/9 3/3/9 17/19/9 18/20/9
f 3/3/10 6/6/10 19/21/10 17/19/10
f 6/6/11 8/8/11 20/22/11 19/21/11
f 8/8/12 10/10/12 21/23/12 20/22/12
f 10/10/13 12/12/13 22/24/13 21/23/13
f 12/12/14 14/14/14 23/25/14 22/24/14
f 14/14/15 16/16/15 24/26/15 23/25/15
f 16/16/16 4/18/16 18/27/16 24/26/16
f 18/20/17 17/19/17 25/28/17 26/29/17
f 17/19/18 19/21/18 27/30/18 25/28/18
f 19/21/19 20/22/19 28/31/19 27/30/19
f 20/22/20 21/23/20 29/32/20 28/31/20
f 21/23/21 22/24/21 30/33/21 29/32/21
f 22/24/22 23/25/22 31/34/22 30/33/22
f 23/25/23 24/26/23 32/35/23 31/34/23
f 24/26/24 18/27/24 26/36/24 32/35/24
f 26/29/25 25/28/25 33/37/25 34/38/25
f 25/28/26 27/30/26 35/39/26 33/37/26
f 27/30/27 28/31/27 36/40/27 35/39/27
f 28/31/28 29/32/28 37/41/28 36/40/28
f 29/32/29 30/33/29 38/42/29 37/41/29
f 30/33/30 31/34/30 39/43/30 38/42/30
f 31/34/31 32/35/31 40/44/31 39/43/31
f 32/35/32 26/36/32 34/45/32 40/44/32
f 34/38/33 33/37/33 41/46/33 42/47/33
f 33/37/34 35/39/34 43/48/34 41/46/34
f 35/39/35 36/40/35 44/49/35 43/48/35
f 36/40/36 37/41/36 45/50/36 44/49/36
f 37/41/37 38/42/37 46/51/37 45/50/37
f 38/42/38 39/43/38 47/52/38 46/51/38
f 39/43/39 40/44/39 48/53/39 47/52/39
f 40/44/40 34/45/40 42/54/40 48/53/40
f 42/47/41 41/46/41 49/55/41 50/56/41
f 41/46/42 43/48/42 51/57/42 49/55/42
f 43/48/43 44/49/43 52/58/43 51/57/43
f 44/49/44 45/50/44 53/59/44 52/58/44
f 45/50/45 46/51/45 54/60/45 53/59/45
f 46/51/46 47/52/46 55/61/46 54/60/46
f 47/52/47 48/53/47 56/62/47 55/61/47
f 48/53/48 42/54/48 50/63/48 56/62/48
f 2/2/49 1/1/49 57/64/49
f 5/5/50 2/2/50 57/65/50
f 7/7/51 5/5/51 57/66/51
f 9/9/52 7/7/52 57/67/52
f 11/11/53 9/9/53 57/68/53
f 13/13/54 11/11/54 57/69/54
f 15/15/55 13/13/55 57/70/55
f 1/17/56 15/15/56 57/71/56
f 56/62/57 50/63/57 66/72/57 67/73/57
f 50/56/58 49/55/58 68/74/58 66/75/58
f 49/55/59 51/57/59 69/76/59 68/77/59
f 51/57/60 52/58/60 70/78/60 69/79/60
f 52/58/61 53/59/61 71/80/61 70/81/61
f 53/59/62 54/60/62 72/82/62 71/83/62
f 54/60/63 55/61/63 73/84/63 72/85/63
f 55/61/64 56/62/64 67/86/64 73/87/64
usemtl Material.001
f 58/88/65 59/89/65 60/90/65 61/91/65 62/92/65 63/93/65 64/94/65 65/95/65
f 67/73/66 66/75/66 59/89/66 58/88/66
f 66/75/67 68/77/67 60/90/67 59/89/67
f 68/77/68 69/79/68 61/91/68 60/90/68
f 69/79/69 70/81/69 62/92/69 61/91/69
f 70/81/70 71/83/70 63/93/70 62/92/70
f 71/83/71 72/85/71 64/94/71 63/93/71
f 72/85/72 73/87/72 65/95/72 64/94/72
f 73/87/73 67/73/73 58/88/73 65/95/73
