# Blender v2.90.0 OBJ File: 'onion_clr.blend'
# www.blender.org
mtllib onion_clr.mtl
o Onion
v 0.324777 0.206460 -0.890543
v -0.219444 0.206460 -1.097322
v -0.219444 0.528463 -1.695827
v 0.786145 0.528463 -1.313751
v -0.763664 0.206460 -0.890543
v -1.225033 0.528463 -1.313751
v -0.989088 0.206460 -0.391336
v -1.641561 0.528463 -0.391336
v -0.763664 0.206460 0.107871
v -1.225033 0.528463 0.531079
v -0.219444 0.206460 0.314650
v -0.219444 0.528463 0.913155
v 0.324777 0.206460 0.107871
v 0.786145 0.528463 0.531079
v 0.550201 0.206460 -0.391336
v 1.202674 0.528463 -0.391336
v -0.219444 1.010373 -2.095736
v 1.094421 1.010373 -1.596529
v -1.533309 1.010373 -1.596529
v -2.077529 1.010373 -0.391336
v -1.533309 1.010373 0.813857
v -0.219444 1.010373 1.313064
v 1.094422 1.010373 0.813857
v 1.638643 1.010373 -0.391336
v -0.219444 1.578825 -2.236165
v 1.202674 1.578825 -1.695827
v -1.641561 1.578825 -1.695827
v -2.230622 1.578825 -0.391336
v -1.641561 1.578825 0.913155
v -0.219444 1.578825 1.453493
v 1.202674 1.578825 0.913155
v 1.791734 1.578825 -0.391336
v -0.219444 2.147278 -2.095736
v 1.094421 2.147278 -1.596529
v -1.533309 2.147278 -1.596529
v -2.077529 2.147278 -0.391336
v -1.533309 2.147278 0.813857
v -0.219444 2.147278 1.313064
v 1.094422 2.147278 0.813857
v 1.638643 2.147278 -0.391336
v -0.219444 2.629188 -1.695827
v 0.786145 2.629188 -1.313751
v -1.225033 2.629188 -1.313751
v -1.641561 2.629188 -0.391336
v -1.225033 2.629188 0.531079
v -0.219444 2.629188 0.913155
v 0.786145 2.629188 0.531079
v 1.202674 2.629188 -0.391336
v -0.219444 2.951191 -1.097322
v 0.324777 2.951191 -0.890543
v -0.763664 2.951191 -0.890543
v -0.989088 2.951191 -0.391336
v -0.763664 2.951191 0.107871
v -0.219444 2.951191 0.314650
v 0.324777 2.951191 0.107871
v 0.550201 2.951191 -0.391336
v -0.083389 0.004743 -0.266534
v -0.219444 0.004743 -0.214840
v -0.355498 0.004743 -0.266534
v -0.411854 0.004743 -0.391336
v -0.355498 0.004743 -0.516138
v -0.219444 0.004743 -0.567833
v -0.083389 0.004743 -0.516138
v -0.027033 0.004743 -0.391336
v -0.027033 3.528118 -0.391335
v -0.083389 3.528118 -0.516137
v -0.219444 3.528118 -0.567832
v -0.355499 3.528118 -0.516137
v -0.411855 3.528118 -0.391335
v -0.355499 3.528118 -0.266533
v -0.219444 3.528118 -0.214839
v -0.083389 3.528118 -0.266533
v 0.147845 3.035995 -0.728245
v 0.299981 3.035995 -0.391335
v -0.219443 3.035995 -0.867797
v -0.586733 3.035995 -0.728245
v -0.738869 3.035995 -0.391335
v -0.586733 3.035995 -0.054426
v -0.219443 3.035995 0.085126
v 0.147845 3.035995 -0.054426
v 0.550201 0.089547 -0.391336
v 0.324777 0.089547 0.107871
v -0.219444 0.089547 0.314650
v -0.763664 0.089547 0.107871
v -0.989088 0.089547 -0.391336
v -0.763664 0.089547 -0.890543
v -0.219444 0.089547 -1.097322
v 0.324777 0.089547 -0.890543
vt 0.000000 0.125000
vt 0.125000 0.125000
vt 0.125000 0.250000
vt 0.000000 0.250000
vt 0.250000 0.125000
vt 0.250000 0.250000
vt 0.375000 0.125000
vt 0.375000 0.250000
vt 0.500000 0.125000
vt 0.500000 0.250000
vt 0.625000 0.125000
vt 0.625000 0.250000
vt 0.750000 0.125000
vt 0.750000 0.250000
vt 0.875000 0.125000
vt 0.875000 0.250000
vt 1.000000 0.125000
vt 1.000000 0.250000
vt 0.125000 0.375000
vt 0.000000 0.375000
vt 0.250000 0.375000
vt 0.375000 0.375000
vt 0.500000 0.375000
vt 0.625000 0.375000
vt 0.750000 0.375000
vt 0.875000 0.375000
vt 1.000000 0.375000
vt 0.125000 0.500000
vt 0.000000 0.500000
vt 0.250000 0.500000
vt 0.375000 0.500000
vt 0.500000 0.500000
vt 0.625000 0.500000
vt 0.750000 0.500000
vt 0.875000 0.500000
vt 1.000000 0.500000
vt 0.125000 0.625000
vt 0.000000 0.625000
vt 0.250000 0.625000
vt 0.375000 0.625000
vt 0.500000 0.625000
vt 0.625000 0.625000
vt 0.750000 0.625000
vt 0.875000 0.625000
vt 1.000000 0.625000
vt 0.125000 0.750000
vt 0.000000 0.750000
vt 0.250000 0.750000
vt 0.375000 0.750000
vt 0.500000 0.750000
vt 0.625000 0.750000
vt 0.750000 0.750000
vt 0.875000 0.750000
vt 1.000000 0.750000
vt 0.125000 0.875000
vt 0.000000 0.875000
vt 0.250000 0.875000
vt 0.375000 0.875000
vt 0.500000 0.875000
vt 0.625000 0.875000
vt 0.750000 0.875000
vt 0.875000 0.875000
vt 1.000000 0.875000
vt 0.968750 0.937500
vt 0.906250 0.937500
vt 0.093750 0.937500
vt 0.031250 0.937500
vt 0.218750 0.937500
vt 0.156250 0.937500
vt 0.343750 0.937500
vt 0.281250 0.937500
vt 0.468750 0.937500
vt 0.406250 0.937500
vt 0.593750 0.937500
vt 0.531250 0.937500
vt 0.718750 0.937500
vt 0.656250 0.937500
vt 0.843750 0.937500
vt 0.781250 0.937500
vt 0.906250 0.937500
vt 0.031250 0.937500
vt 0.156250 0.937500
vt 0.281250 0.937500
vt 0.406250 0.937500
vt 0.531250 0.937500
vt 0.656250 0.937500
vt 0.781250 0.937500
vt 0.750000 0.125000
vt 0.875000 0.125000
vt 0.625000 0.125000
vt 0.500000 0.125000
vt 0.375000 0.125000
vt 0.250000 0.125000
vt 0.125000 0.125000
vt 0.000000 0.125000
vt 1.000000 0.125000
vt 0.718750 0.062500
vt 0.593750 0.062500
vt 0.468750 0.062500
vt 0.343750 0.062500
vt 0.218750 0.062500
vt 0.093750 0.062500
vt 0.968750 0.062500
vt 0.843750 0.062500
vt 0.781250 0.062500
vt 0.656250 0.062500
vt 0.531250 0.062500
vt 0.406250 0.062500
vt 0.281250 0.062500
vt 0.156250 0.062500
vt 0.031250 0.062500
vt 0.906250 0.062500
vn 0.1772 -0.8667 -0.4663
vn -0.1772 -0.8667 -0.4663
vn -0.4340 -0.8794 -0.1960
vn -0.4340 -0.8794 0.1960
vn -0.1772 -0.8667 0.4663
vn 0.1772 -0.8667 0.4663
vn 0.4340 -0.8794 0.1960
vn 0.4340 -0.8794 -0.1960
vn 0.2806 -0.6129 -0.7386
vn -0.2806 -0.6129 -0.7386
vn -0.7032 -0.6362 -0.3175
vn -0.7032 -0.6362 0.3175
vn -0.2806 -0.6129 0.7386
vn 0.2806 -0.6129 0.7386
vn 0.7032 -0.6362 0.3175
vn 0.7032 -0.6362 -0.3175
vn 0.3461 -0.2250 -0.9108
vn -0.3461 -0.2250 -0.9108
vn -0.8851 -0.2384 -0.3997
vn -0.8851 -0.2384 0.3997
vn -0.3461 -0.2250 0.9108
vn 0.3461 -0.2250 0.9108
vn 0.8851 -0.2384 0.3997
vn 0.8851 -0.2384 -0.3997
vn 0.3461 0.2250 -0.9108
vn -0.3461 0.2250 -0.9108
vn -0.8851 0.2384 -0.3997
vn -0.8851 0.2384 0.3997
vn -0.3461 0.2250 0.9108
vn 0.3461 0.2250 0.9108
vn 0.8851 0.2384 0.3997
vn 0.8851 0.2384 -0.3997
vn 0.2806 0.6129 -0.7386
vn -0.2806 0.6129 -0.7386
vn -0.7032 0.6362 -0.3175
vn -0.7032 0.6362 0.3175
vn -0.2806 0.6129 0.7386
vn 0.2806 0.6129 0.7386
vn 0.7032 0.6362 0.3175
vn 0.7032 0.6362 -0.3175
vn 0.1772 0.8667 -0.4663
vn -0.1772 0.8667 -0.4663
vn -0.4340 0.8794 -0.1960
vn -0.4340 0.8794 0.1960
vn -0.1772 0.8667 0.4663
vn 0.1772 0.8667 0.4663
vn 0.4340 0.8794 0.1960
vn 0.4340 0.8794 -0.1960
vn 0.3177 0.9373 -0.1434
vn 0.1306 0.9300 -0.3436
vn -0.1306 0.9300 -0.3436
vn -0.3177 0.9373 -0.1434
vn -0.3177 0.9373 0.1434
vn -0.1306 0.9300 0.3436
vn 0.1306 0.9300 0.3436
vn 0.3177 0.9373 0.1434
vn 0.0000 1.0000 0.0000
vn 0.7796 0.5180 -0.3520
vn 0.3086 0.4951 -0.8122
vn -0.3086 0.4951 -0.8122
vn -0.7796 0.5180 -0.3520
vn -0.7796 0.5180 0.3520
vn -0.3086 0.4951 0.8122
vn 0.3086 0.4951 0.8122
vn 0.7796 0.5180 0.3520
vn 0.9114 -0.0000 0.4115
vn 0.3552 -0.0000 0.9348
vn -0.3552 -0.0000 0.9348
vn -0.9114 0.0000 0.4115
vn -0.9114 0.0000 -0.4115
vn -0.3552 0.0000 -0.9348
vn 0.3552 0.0000 -0.9348
vn 0.9114 0.0000 -0.4115
vn 0.0781 -0.9933 0.0851
vn -0.0000 -0.9927 0.1204
vn -0.0781 -0.9933 0.0851
vn -0.1105 -0.9939 -0.0000
vn -0.0781 -0.9933 -0.0851
vn -0.0000 -0.9927 -0.1204
vn 0.0781 -0.9933 -0.0851
vn 0.1105 -0.9939 -0.0000
vn 0.1450 -0.9873 0.0655
vn 0.0600 -0.9856 0.1579
vn -0.0600 -0.9856 0.1579
vn -0.1450 -0.9873 0.0655
vn -0.1450 -0.9873 -0.0655
vn -0.0600 -0.9856 -0.1579
vn 0.0600 -0.9856 -0.1579
vn 0.1450 -0.9873 -0.0655
usemtl Material
s off
f 1/1/1 2/2/1 3/3/1 4/4/1
f 2/2/2 5/5/2 6/6/2 3/3/2
f 5/5/3 7/7/3 8/8/3 6/6/3
f 7/7/4 9/9/4 10/10/4 8/8/4
f 9/9/5 11/11/5 12/12/5 10/10/5
f 11/11/6 13/13/6 14/14/6 12/12/6
f 13/13/7 15/15/7 16/16/7 14/14/7
f 15/15/8 1/17/8 4/18/8 16/16/8
f 4/4/9 3/3/9 17/19/9 18/20/9
f 3/3/10 6/6/10 19/21/10 17/19/10
f 6/6/11 8/8/11 20/22/11 19/21/11
f 8/8/12 10/10/12 21/23/12 20/22/12
f 10/10/13 12/12/13 22/24/13 21/23/13
f 12/12/14 14/14/14 23/25/14 22/24/14
f 14/14/15 16/16/15 24/26/15 23/25/15
f 16/16/16 4/18/16 18/27/16 24/26/16
f 18/20/17 17/19/17 25/28/17 26/29/17
f 17/19/18 19/21/18 27/30/18 25/28/18
f 19/21/19 20/22/19 28/31/19 27/30/19
f 20/22/20 21/23/20 29/32/20 28/31/20
f 21/23/21 22/24/21 30/33/21 29/32/21
f 22/24/22 23/25/22 31/34/22 30/33/22
f 23/25/23 24/26/23 32/35/23 31/34/23
f 24/26/24 18/27/24 26/36/24 32/35/24
f 26/29/25 25/28/25 33/37/25 34/38/25
f 25/28/26 27/30/26 35/39/26 33/37/26
f 27/30/27 28/31/27 36/40/27 35/39/27
f 28/31/28 29/32/28 37/41/28 36/40/28
f 29/32/29 30/33/29 38/42/29 37/41/29
f 30/33/30 31/34/30 39/43/30 38/42/30
f 31/34/31 32/35/31 40/44/31 39/43/31
f 32/35/32 26/36/32 34/45/32 40/44/32
f 34/38/33 33/37/33 41/46/33 42/47/33
f 33/37/34 35/39/34 43/48/34 41/46/34
f 35/39/35 36/40/35 44/49/35 43/48/35
f 36/40/36 37/41/36 45/50/36 44/49/36
f 37/41/37 38/42/37 46/51/37 45/50/37
f 38/42/38 39/43/38 47/52/38 46/51/38
f 39/43/39 40/44/39 48/53/39 47/52/39
f 40/44/40 34/45/40 42/54/40 48/53/40
f 42/47/41 41/46/41 49/55/41 50/56/41
f 41/46/42 43/48/42 51/57/42 49/55/42
f 43/48/43 44/49/43 52/58/43 51/57/43
f 44/49/44 45/50/44 53/59/44 52/58/44
f 45/50/45 46/51/45 54/60/45 53/59/45
f 46/51/46 47/52/46 55/61/46 54/60/46
f 47/52/47 48/53/47 56/62/47 55/61/47
f 48/53/48 42/54/48 50/63/48 56/62/48
f 56/62/49 50/63/49 73/64/49 74/65/49
f 50/56/50 49/55/50 75/66/50 73/67/50
f 49/55/51 51/57/51 76/68/51 75/69/51
f 51/57/52 52/58/52 77/70/52 76/71/52
f 52/58/53 53/59/53 78/72/53 77/73/53
f 53/59/54 54/60/54 79/74/54 78/75/54
f 54/60/55 55/61/55 80/76/55 79/77/55
f 55/61/56 56/62/56 74/78/56 80/79/56
usemtl Material.001
f 65/80/57 66/81/57 67/82/57 68/83/57 69/84/57 70/85/57 71/86/57 72/87/57
f 74/65/58 73/67/58 66/81/58 65/80/58
f 73/67/59 75/69/59 67/82/59 66/81/59
f 75/69/60 76/71/60 68/83/60 67/82/60
f 76/71/61 77/73/61 69/84/61 68/83/61
f 77/73/62 78/75/62 70/85/62 69/84/62
f 78/75/63 79/77/63 71/86/63 70/85/63
f 79/77/64 80/79/64 72/87/64 71/86/64
f 80/79/65 74/65/65 65/80/65 72/87/65
f 15/15/66 13/13/66 82/88/66 81/89/66
f 13/13/67 11/11/67 83/90/67 82/88/67
f 11/11/68 9/9/68 84/91/68 83/90/68
f 9/9/69 7/7/69 85/92/69 84/91/69
f 7/7/70 5/5/70 86/93/70 85/92/70
f 5/5/71 2/2/71 87/94/71 86/93/71
f 2/2/72 1/1/72 88/95/72 87/94/72
f 1/17/73 15/15/73 81/89/73 88/96/73
s 1
f 57/97/74 58/98/75 59/99/76 60/100/77 61/101/78 62/102/79 63/103/80 64/104/81
f 81/89/82 82/88/82 57/105/74 64/104/81
f 82/88/83 83/90/83 58/106/75 57/97/74
f 83/90/84 84/91/84 59/107/76 58/98/75
f 84/91/85 85/92/85 60/108/77 59/99/76
f 85/92/86 86/93/86 61/109/78 60/100/77
f 86/93/87 87/94/87 62/110/79 61/101/78
f 87/94/88 88/95/88 63/111/80 62/102/79
f 88/96/89 81/89/89 64/112/81 63/103/80
