# Blender v2.90.0 OBJ File: 'salmon_clr.blend'
# www.blender.org
mtllib salmon_clr.mtl
o Salmon.001
v -2.019283 0.454067 3.902647
v -0.931260 0.454067 3.902647
v -0.931260 0.693518 3.902647
v -1.941523 0.693518 3.902647
v -0.939672 2.533521 0.286190
v -2.234867 2.488593 0.286190
v -2.215829 2.868335 -4.654685
v -0.939672 2.868335 -5.002790
v -0.939672 1.741108 -5.002790
v -2.487376 1.741108 -4.654685
v -2.086132 0.207016 0.286190
v -0.939672 0.036040 0.286190
v -0.931260 0.188110 3.902647
v -1.924829 0.188110 3.801091
v 0.206333 0.454067 3.902647
v 0.710361 1.407633 0.286190
v 0.421918 2.488593 0.286190
v 0.128572 0.693518 3.902647
v -2.523312 1.407633 0.286190
v -2.523312 1.712810 -2.323621
v -2.361563 2.992799 -2.323621
v -2.199087 0.489102 -4.654686
v -0.939672 0.489102 -5.002791
v -0.939672 0.120157 -2.323621
v -2.184417 0.291132 -2.323621
v 0.548614 2.992799 -2.323621
v 0.710361 1.712810 -2.323621
v 0.674427 1.741108 -4.654685
v 0.402880 2.868335 -4.654685
v -0.939672 3.015944 -2.323621
v 0.386137 0.489102 -4.654686
v 0.371467 0.291132 -2.323621
v 0.273183 0.207016 0.286190
v 0.111877 0.188110 3.801091
vt 0.375000 0.131556
vt 0.497433 0.131556
vt 0.497433 0.250000
vt 0.375000 0.250000
vt 0.497433 0.384079
vt 0.375000 0.384079
vt 0.375000 0.500000
vt 0.497433 0.500000
vt 0.497433 0.618444
vt 0.375000 0.618444
vt 0.375000 0.865921
vt 0.497433 0.865921
vt 0.497433 1.000000
vt 0.375000 1.000000
vt 0.625000 0.131556
vt 0.759079 0.131556
vt 0.759079 0.250000
vt 0.625000 0.250000
vt 0.240921 0.131556
vt 0.240921 0.250000
vt 0.125000 0.131556
vt 0.174859 0.131556
vt 0.174859 0.250000
vt 0.125000 0.250000
vt 0.375000 0.750000
vt 0.497433 0.750000
vt 0.497433 0.799859
vt 0.375000 0.799859
vt 0.825141 0.250000
vt 0.825141 0.131556
vt 0.875000 0.131556
vt 0.875000 0.250000
vt 0.375000 0.450141
vt 0.497433 0.450141
vt 0.625000 0.384079
vt 0.625000 0.450141
vt 0.625000 0.500000
vt 0.625000 0.618444
vt 0.625000 0.750000
vt 0.625000 0.799859
vt 0.625000 0.865921
vt 0.625000 1.000000
vt 0.125000 0.000000
vt 0.174859 0.000000
vt 0.240921 0.000000
vt 0.375000 0.000000
vt 0.497433 0.000000
vt 0.625000 0.000000
vt 0.759079 0.000000
vt 0.825141 0.000000
vt 0.875000 0.000000
vn -0.0253 -0.1036 0.9943
vn 0.0000 -0.1040 0.9946
vn 0.0000 0.0000 1.0000
vn -0.0174 0.8931 0.4496
vn -0.0004 0.8932 0.4496
vn -0.0000 0.9429 0.3330
vn -0.0208 0.9413 0.3369
vn -0.2393 0.0288 -0.9705
vn -0.0000 0.0291 -0.9996
vn -0.0000 -0.0008 -1.0000
vn -0.2401 -0.0009 -0.9708
vn -0.1106 -0.9939 -0.0039
vn -0.0000 -1.0000 -0.0022
vn 0.0003 -0.9998 0.0204
vn -0.0806 -0.9965 0.0205
vn 0.9711 -0.2260 0.0767
vn 0.9962 -0.0287 0.0824
vn 0.9779 0.1966 0.0716
vn 0.9435 0.2617 0.2034
vn -0.9962 -0.0287 0.0824
vn -0.9711 -0.2260 0.0767
vn -0.9435 0.2617 0.2034
vn -0.9779 0.1966 0.0716
vn -0.9991 -0.0298 -0.0291
vn -0.9999 -0.0113 0.0041
vn -0.9834 0.1812 -0.0042
vn -0.9833 0.1770 -0.0420
vn -0.0832 -0.9902 -0.1118
vn 0.0000 -0.9937 -0.1122
vn 0.0001 -0.9977 -0.0682
vn -0.1100 -0.9912 -0.0742
vn 0.9834 0.1812 -0.0042
vn 0.9999 -0.0113 0.0041
vn 0.9991 -0.0298 -0.0291
vn 0.9833 0.1770 -0.0420
vn -0.0205 0.9971 0.0736
vn 0.0000 0.9976 0.0698
vn -0.0003 0.9985 -0.0547
vn -0.0156 0.9984 -0.0547
vn 0.0166 0.8931 0.4495
vn 0.0198 0.9414 0.3367
vn 0.0196 0.9971 0.0735
vn 0.0149 0.9984 -0.0546
vn 0.2299 -0.0008 -0.9732
vn 0.2291 0.0276 -0.9730
vn 0.0790 -0.9906 -0.1119
vn 0.1044 -0.9918 -0.0742
vn 0.1049 -0.9945 -0.0042
vn 0.0765 -0.9969 0.0203
vn 0.0242 -0.1033 0.9944
vn 0.0000 -0.0279 -0.9996
vn -0.2406 -0.0277 -0.9702
vn -0.9735 -0.2283 -0.0155
vn -0.9647 -0.2633 -0.0077
vn -0.9498 -0.3123 0.0179
vn -0.9384 -0.3430 0.0408
vn -0.0478 -0.1955 0.9795
vn -0.0000 -0.1955 0.9807
vn 0.0456 -0.1952 0.9797
vn 0.9384 -0.3430 0.0408
vn 0.9498 -0.3123 0.0179
vn 0.9647 -0.2633 -0.0077
vn 0.9735 -0.2284 -0.0155
vn 0.2304 -0.0265 -0.9727
usemtl Material
s 1
f 1/1/1 2/2/2 3/3/3 4/4/3
f 4/4/4 3/3/5 5/5/6 6/6/7
f 7/7/8 8/8/9 9/9/10 10/10/11
f 11/11/12 12/12/13 13/13/14 14/14/15
f 15/15/16 16/16/17 17/17/18 18/18/19
f 19/19/20 1/1/21 4/4/22 6/20/23
f 10/21/24 20/22/25 21/23/26 7/24/27
f 22/25/28 23/26/29 24/27/30 25/28/31
f 26/29/32 27/30/33 28/31/34 29/32/35
f 21/33/36 30/34/37 8/8/38 7/7/39
f 6/6/7 5/5/6 30/34/37 21/33/36
f 20/22/25 19/19/20 6/20/23 21/23/26
f 25/28/31 24/27/30 12/12/13 11/11/12
f 17/17/18 16/16/17 27/30/33 26/29/32
f 3/3/5 18/18/40 17/35/41 5/5/6
f 30/34/37 5/5/6 17/35/41 26/36/42
f 8/8/38 30/34/37 26/36/42 29/37/43
f 28/38/44 9/9/10 8/8/9 29/37/45
f 24/27/30 23/26/29 31/39/46 32/40/47
f 12/12/13 24/27/30 32/40/47 33/41/48
f 13/13/14 12/12/13 33/41/48 34/42/49
f 3/3/3 2/2/2 15/15/50 18/18/3
f 10/10/11 9/9/10 23/26/51 22/25/52
f 22/43/53 25/44/54 20/22/25 10/21/24
f 25/44/54 11/45/55 19/19/20 20/22/25
f 11/45/55 14/46/56 1/1/21 19/19/20
f 14/46/57 13/47/58 2/2/2 1/1/1
f 15/15/50 2/2/2 13/47/58 34/48/59
f 34/48/60 33/49/61 16/16/17 15/15/16
f 27/30/33 16/16/17 33/49/61 32/50/62
f 28/31/34 27/30/33 32/50/62 31/51/63
f 23/26/51 9/9/10 28/38/44 31/39/64
