# Blender v2.90.0 OBJ File: 'tomato_clr.blend'
# www.blender.org
mtllib tomato_clr.mtl
o Tomato.001
v 0.094335 0.049104 -0.227050
v -0.332574 0.049104 -0.389255
v -0.332574 0.326766 -0.858748
v 0.456252 0.326766 -0.559031
v -0.759483 0.049104 -0.227050
v -1.121400 0.326766 -0.559031
v -0.936315 0.049104 0.164549
v -1.448142 0.326766 0.164549
v -0.759483 0.049103 0.556148
v -1.121400 0.326765 0.888130
v -0.332574 0.049103 0.718354
v -0.332574 0.326765 1.187847
v 0.094335 0.049103 0.556148
v 0.456252 0.326765 0.888130
v 0.271167 0.049104 0.164549
v 0.782994 0.326766 0.164549
v -0.332574 0.742315 -1.172453
v 0.698076 0.742315 -0.780854
v -1.363225 0.742315 -0.780854
v -1.790134 0.742315 0.164550
v -1.363225 0.742314 1.109954
v -0.332574 0.742314 1.501552
v 0.698077 0.742314 1.109954
v 1.124986 0.742315 0.164550
v -0.332574 1.232490 -1.282610
v 0.782994 1.232490 -0.858747
v -1.448142 1.232490 -0.858747
v -1.910226 1.232489 0.164550
v -1.448142 1.232489 1.187847
v -0.332574 1.232489 1.611710
v 0.782994 1.232489 1.187847
v 1.245078 1.232489 0.164550
v -0.332574 1.722664 -1.172452
v 0.698076 1.722664 -0.780854
v -1.363225 1.722664 -0.780854
v -1.790134 1.722664 0.164550
v -1.363225 1.722663 1.109954
v -0.332574 1.722663 1.501553
v 0.698077 1.722663 1.109954
v 1.124986 1.722664 0.164550
v -0.332574 2.138214 -0.858747
v 0.456252 2.138214 -0.559031
v -1.121400 2.138214 -0.559031
v -1.448142 2.138214 0.164550
v -1.121400 2.138213 0.888131
v -0.332574 2.138213 1.187848
v 0.456252 2.138213 0.888131
v 0.782994 2.138214 0.164550
v -0.332574 2.433119 -0.128070
v -0.107003 2.433119 -0.042364
v -0.558145 2.433119 -0.042364
v -0.651580 2.433119 0.164550
v -0.558145 2.433119 0.371464
v -0.332574 2.433119 0.457171
v -0.107003 2.433119 0.371464
v -0.013568 2.433119 0.164550
v -0.271374 2.926325 0.164550
v -0.289287 2.926325 0.124881
v -0.332534 2.926325 0.108449
v -0.375781 2.926325 0.124881
v -0.393694 2.926325 0.164550
v -0.375781 2.926325 0.204220
v -0.332534 2.926325 0.220652
v -0.289287 2.926325 0.204220
v -0.180338 2.471756 0.024906
v -0.117280 2.471756 0.164550
v -0.332573 2.471756 -0.032936
v -0.484810 2.471756 0.024906
v -0.547868 2.471756 0.164550
v -0.484810 2.471756 0.304194
v -0.332573 2.471756 0.362037
v -0.180338 2.471756 0.304194
v 0.673887 2.187122 -0.258896
v 0.652063 2.187122 -0.307226
v 0.648200 2.224605 -0.303682
v 0.668424 2.224605 -0.258896
v 0.042842 2.167611 -0.816833
v -0.000881 2.167611 -0.833446
v -0.000881 2.198717 -0.829286
v 0.039637 2.198717 -0.813892
v -0.817794 2.221961 -0.833994
v -0.871746 2.221961 -0.813494
v -0.867791 2.260344 -0.809866
v -0.817794 2.260344 -0.828862
v -1.282204 2.209949 -0.176755
v -1.296343 2.209949 -0.145444
v -1.292803 2.234234 -0.145444
v -1.279701 2.234234 -0.174460
v -1.197756 2.235950 0.419643
v -1.171226 2.230686 0.477759
v -1.166507 2.276484 0.473430
v -1.191082 2.281747 0.419643
v -0.808936 2.264542 1.035832
v -0.763505 2.264542 1.053093
v -0.763505 2.296863 1.048773
v -0.805605 2.296863 1.032777
v 0.115089 2.268576 1.123373
v 0.162538 2.268576 1.105344
v 0.159060 2.302333 1.102153
v 0.115089 2.302333 1.118861
v 0.646481 2.222724 0.643902
v 0.671349 2.222724 0.588831
v 0.665124 2.265435 0.588831
v 0.642080 2.265435 0.639864
v -0.413377 2.538247 0.164550
v -0.389699 2.538247 0.216987
v -0.389699 2.538247 0.112114
v -0.332534 2.538247 0.090394
v -0.275370 2.538247 0.112114
v -0.251691 2.538247 0.164550
v -0.275370 2.538247 0.216987
v -0.332534 2.538247 0.238707
v -0.095332 2.441519 -0.053069
v 0.002937 2.441519 0.164550
v -0.206550 2.550498 0.164550
v -0.243450 2.550498 0.082834
v -0.332573 2.441519 -0.143210
v -0.332534 2.550498 0.048986
v -0.569817 2.441519 -0.053069
v -0.421619 2.550498 0.082834
v -0.667951 2.446783 0.165483
v -0.458464 2.552632 0.164928
v -0.569817 2.441519 0.382170
v -0.421619 2.550498 0.246267
v -0.332573 2.441519 0.472311
v -0.332534 2.550498 0.280115
v -0.095332 2.441519 0.382170
v -0.243450 2.550498 0.246267
vt 0.000000 0.125000
vt 0.125000 0.125000
vt 0.125000 0.250000
vt 0.000000 0.250000
vt 0.250000 0.125000
vt 0.250000 0.250000
vt 0.375000 0.125000
vt 0.375000 0.250000
vt 0.500000 0.125000
vt 0.500000 0.250000
vt 0.625000 0.125000
vt 0.625000 0.250000
vt 0.750000 0.125000
vt 0.750000 0.250000
vt 0.875000 0.125000
vt 0.875000 0.250000
vt 1.000000 0.125000
vt 1.000000 0.250000
vt 0.125000 0.375000
vt 0.000000 0.375000
vt 0.250000 0.375000
vt 0.375000 0.375000
vt 0.500000 0.375000
vt 0.625000 0.375000
vt 0.750000 0.375000
vt 0.875000 0.375000
vt 1.000000 0.375000
vt 0.125000 0.500000
vt 0.000000 0.500000
vt 0.250000 0.500000
vt 0.375000 0.500000
vt 0.500000 0.500000
vt 0.625000 0.500000
vt 0.750000 0.500000
vt 0.875000 0.500000
vt 1.000000 0.500000
vt 0.125000 0.625000
vt 0.000000 0.625000
vt 0.250000 0.625000
vt 0.375000 0.625000
vt 0.500000 0.625000
vt 0.625000 0.625000
vt 0.750000 0.625000
vt 0.875000 0.625000
vt 1.000000 0.625000
vt 0.125000 0.750000
vt 0.000000 0.750000
vt 0.250000 0.750000
vt 0.375000 0.750000
vt 0.500000 0.750000
vt 0.625000 0.750000
vt 0.750000 0.750000
vt 0.875000 0.750000
vt 1.000000 0.750000
vt 0.125000 0.875000
vt 0.000000 0.875000
vt 0.250000 0.875000
vt 0.375000 0.875000
vt 0.500000 0.875000
vt 0.625000 0.875000
vt 0.750000 0.875000
vt 0.875000 0.875000
vt 1.000000 0.875000
vt 0.968750 0.937500
vt 0.906250 0.937500
vt 0.093750 0.937500
vt 0.031250 0.937500
vt 0.218750 0.937500
vt 0.156250 0.937500
vt 0.343750 0.937500
vt 0.281250 0.937500
vt 0.468750 0.937500
vt 0.406250 0.937500
vt 0.593750 0.937500
vt 0.531250 0.937500
vt 0.718750 0.937500
vt 0.656250 0.937500
vt 0.843750 0.937500
vt 0.781250 0.937500
vt 0.031250 0.937500
vt 0.906250 0.937500
vt 0.156250 0.937500
vt 0.281250 0.937500
vt 0.406250 0.937500
vt 0.531250 0.937500
vt 0.656250 0.937500
vt 0.781250 0.937500
vt 0.906250 0.937500
vt 0.031250 0.937500
vt 0.156250 0.937500
vt 0.281250 0.937500
vt 0.406250 0.937500
vt 0.531250 0.937500
vt 0.656250 0.937500
vt 0.781250 0.937500
vt 0.906250 0.937500
vt 0.031250 0.937500
vt 0.031250 0.937500
vt 0.906250 0.937500
vt 0.031250 0.937500
vt 0.156250 0.937500
vt 0.156250 0.937500
vt 0.031250 0.937500
vt 0.156250 0.937500
vt 0.281250 0.937500
vt 0.281250 0.937500
vt 0.156250 0.937500
vt 0.281250 0.937500
vt 0.406250 0.937500
vt 0.406250 0.937500
vt 0.281250 0.937500
vt 0.406250 0.937500
vt 0.531250 0.937500
vt 0.531250 0.937500
vt 0.406250 0.937500
vt 0.531250 0.937500
vt 0.656250 0.937500
vt 0.656250 0.937500
vt 0.531250 0.937500
vt 0.656250 0.937500
vt 0.781250 0.937500
vt 0.781250 0.937500
vt 0.656250 0.937500
vt 0.781250 0.937500
vt 0.906250 0.937500
vt 0.906250 0.937500
vt 0.781250 0.937500
vt 0.406250 0.937500
vt 0.531250 0.937500
vt 0.281250 0.937500
vt 0.156250 0.937500
vt 0.031250 0.937500
vt 0.906250 0.937500
vt 0.781250 0.937500
vt 0.656250 0.937500
vt 0.906250 0.937500
vt 0.031250 0.937500
vt 0.156250 0.937500
vt 0.281250 0.937500
vt 0.406250 0.937500
vt 0.531250 0.937500
vt 0.656250 0.937500
vt 0.781250 0.937500
vn 0.1899 -0.8451 -0.4998
vn -0.1899 -0.8451 -0.4998
vn -0.4662 -0.8593 -0.2105
vn -0.4662 -0.8593 0.2105
vn -0.1899 -0.8451 0.4998
vn 0.1899 -0.8451 0.4998
vn 0.4662 -0.8593 0.2105
vn 0.4662 -0.8593 -0.2105
vn 0.2902 -0.5766 -0.7638
vn -0.2902 -0.5766 -0.7638
vn -0.7291 -0.6000 -0.3292
vn -0.7291 -0.6000 0.3292
vn -0.2902 -0.5766 0.7638
vn 0.2902 -0.5766 0.7638
vn 0.7291 -0.6000 0.3292
vn 0.7291 -0.6000 -0.3292
vn 0.3476 -0.2056 -0.9148
vn -0.3476 -0.2056 -0.9148
vn -0.8895 -0.2179 -0.4017
vn -0.8895 -0.2179 0.4017
vn -0.3476 -0.2056 0.9148
vn 0.3476 -0.2056 0.9148
vn 0.8895 -0.2179 0.4017
vn 0.8895 -0.2179 -0.4017
vn 0.3476 0.2056 -0.9148
vn -0.3476 0.2056 -0.9148
vn -0.8895 0.2179 -0.4017
vn -0.8895 0.2179 0.4017
vn -0.3476 0.2056 0.9148
vn 0.3476 0.2056 0.9148
vn 0.8895 0.2179 0.4017
vn 0.8895 0.2179 -0.4017
vn 0.2902 0.5766 -0.7638
vn -0.2902 0.5766 -0.7638
vn -0.7291 0.6000 -0.3292
vn -0.7291 0.6000 0.3292
vn -0.2902 0.5766 0.7638
vn 0.2902 0.5766 0.7638
vn 0.7291 0.6000 0.3292
vn 0.7291 0.6000 -0.3292
vn 0.1408 0.9181 -0.3705
vn 0.1415 0.9172 -0.3723
vn 0.1414 0.9173 -0.3722
vn -0.1408 0.9181 -0.3705
vn -0.1414 0.9173 -0.3723
vn -0.1415 0.9173 -0.3723
vn -0.3430 0.9265 -0.1549
vn -0.3447 0.9257 -0.1557
vn -0.3446 0.9258 -0.1556
vn -0.3430 0.9265 0.1549
vn -0.3447 0.9257 0.1557
vn -0.1408 0.9181 0.3705
vn -0.1415 0.9172 0.3723
vn -0.1414 0.9173 0.3723
vn 0.1408 0.9181 0.3705
vn 0.1415 0.9173 0.3723
vn 0.1415 0.9172 0.3724
vn 0.3430 0.9265 0.1549
vn 0.3446 0.9258 0.1556
vn 0.3447 0.9257 0.1557
vn 0.3430 0.9265 -0.1549
vn 0.3447 0.9257 -0.1556
vn 0.3449 0.9257 -0.1557
vn 0.1415 0.9172 -0.3725
vn -0.1415 0.9172 -0.3725
vn -0.3449 0.9257 -0.1557
vn -0.3449 0.9257 0.1557
vn -0.1415 0.9172 0.3725
vn 0.1415 0.9172 0.3725
vn 0.3449 0.9257 0.1557
vn 0.0000 -1.0000 -0.0000
vn -0.2425 -0.9640 0.1095
vn -0.1000 -0.9596 0.2631
vn 0.1000 -0.9596 0.2631
vn 0.2186 -0.9693 0.1126
vn 0.2176 -0.9695 -0.1128
vn 0.1000 -0.9596 -0.2631
vn -0.1000 -0.9596 -0.2631
vn -0.2425 -0.9640 -0.1095
vn -0.2426 -0.9639 -0.1095
vn 0.0000 1.0000 0.0000
vn 0.9034 0.1317 -0.4080
vn 0.3524 0.1240 -0.9276
vn -0.3524 0.1240 -0.9276
vn -0.9035 0.1317 -0.4080
vn -0.8970 0.1315 0.4220
vn -0.3524 0.1240 0.9276
vn 0.3525 0.1240 0.9276
vn 0.9035 0.1317 0.4080
vn -0.9104 0.0462 0.4111
vn -0.9104 0.0462 -0.4111
vn -0.3548 0.0434 -0.9339
vn 0.3548 0.0434 -0.9339
vn 0.9104 0.0462 -0.4111
vn 0.9104 0.0462 0.4111
vn 0.3548 0.0434 0.9339
vn -0.3548 0.0434 0.9339
vn -0.2601 0.9584 0.1175
vn -0.1072 0.9534 0.2821
vn 0.1072 0.9534 0.2821
vn 0.2864 0.9513 0.1138
vn 0.2853 0.9516 -0.1139
vn 0.1072 0.9534 -0.2821
vn -0.1072 0.9534 -0.2821
vn -0.2601 0.9584 -0.1175
vn -0.0781 -0.9755 -0.2055
vn 0.7422 0.6564 -0.1354
vn 0.0904 0.9671 0.2379
vn -0.5123 0.6952 0.5043
vn 0.0875 -0.9692 -0.2304
vn 0.4533 0.7237 0.5204
vn -0.0992 0.9602 0.2612
vn -0.7323 0.6710 -0.1162
vn -0.2450 -0.9632 -0.1107
vn 0.5023 0.7142 -0.4875
vn 0.2572 0.9594 0.1161
vn -0.1346 0.5954 0.7921
vn -0.2807 -0.9514 0.1268
vn -0.0642 0.6524 -0.7552
vn 0.2898 0.9481 -0.1309
vn 0.5112 0.7503 0.4191
vn -0.1200 -0.9412 0.3158
vn -0.5177 0.6965 -0.4968
vn 0.1246 0.9364 -0.3280
vn 0.5966 0.7892 -0.1460
vn 0.0921 -0.9658 0.2423
vn -0.7530 0.6424 0.1427
vn -0.0996 0.9599 -0.2622
vn 0.4795 0.7031 -0.5251
vn 0.2833 -0.9476 0.1473
vn -0.4724 0.7751 0.4195
vn -0.3014 0.9411 -0.1536
vn -0.1215 0.7774 -0.6172
vn 0.2973 -0.9394 -0.1709
vn -0.0928 0.7173 0.6905
vn -0.2874 0.9403 0.1821
vn -0.4817 0.6847 -0.5470
usemtl Material
s 1
f 1/1/1 2/2/1 3/3/1 4/4/1
f 2/2/2 5/5/2 6/6/2 3/3/2
f 5/5/3 7/7/3 8/8/3 6/6/3
f 7/7/4 9/9/4 10/10/4 8/8/4
f 9/9/5 11/11/5 12/12/5 10/10/5
f 11/11/6 13/13/6 14/14/6 12/12/6
f 13/13/7 15/15/7 16/16/7 14/14/7
f 15/15/8 1/17/8 4/18/8 16/16/8
f 4/4/9 3/3/9 17/19/9 18/20/9
f 3/3/10 6/6/10 19/21/10 17/19/10
f 6/6/11 8/8/11 20/22/11 19/21/11
f 8/8/12 10/10/12 21/23/12 20/22/12
f 10/10/13 12/12/13 22/24/13 21/23/13
f 12/12/14 14/14/14 23/25/14 22/24/14
f 14/14/15 16/16/15 24/26/15 23/25/15
f 16/16/16 4/18/16 18/27/16 24/26/16
f 18/20/17 17/19/17 25/28/17 26/29/17
f 17/19/18 19/21/18 27/30/18 25/28/18
f 19/21/19 20/22/19 28/31/19 27/30/19
f 20/22/20 21/23/20 29/32/20 28/31/20
f 21/23/21 22/24/21 30/33/21 29/32/21
f 22/24/22 23/25/22 31/34/22 30/33/22
f 23/25/23 24/26/23 32/35/23 31/34/23
f 24/26/24 18/27/24 26/36/24 32/35/24
f 26/29/25 25/28/25 33/37/25 34/38/25
f 25/28/26 27/30/26 35/39/26 33/37/26
f 27/30/27 28/31/27 36/40/27 35/39/27
f 28/31/28 29/32/28 37/41/28 36/40/28
f 29/32/29 30/33/29 38/42/29 37/41/29
f 30/33/30 31/34/30 39/43/30 38/42/30
f 31/34/31 32/35/31 40/44/31 39/43/31
f 32/35/32 26/36/32 34/45/32 40/44/32
f 34/38/33 33/37/33 41/46/33 42/47/33
f 33/37/34 35/39/34 43/48/34 41/46/34
f 35/39/35 36/40/35 44/49/35 43/48/35
f 36/40/36 37/41/36 45/50/36 44/49/36
f 37/41/37 38/42/37 46/51/37 45/50/37
f 38/42/38 39/43/38 47/52/38 46/51/38
f 39/43/39 40/44/39 48/53/39 47/52/39
f 40/44/40 34/45/40 42/54/40 48/53/40
f 42/47/41 41/46/41 49/55/42 50/56/43
f 41/46/44 43/48/44 51/57/45 49/55/46
f 43/48/47 44/49/47 52/58/48 51/57/49
f 44/49/50 45/50/50 53/59/51 52/58/51
f 45/50/52 46/51/52 54/60/53 53/59/54
f 46/51/55 47/52/55 55/61/56 54/60/57
f 47/52/58 48/53/58 56/62/59 55/61/60
f 48/53/61 42/54/61 50/63/62 56/62/62
f 56/62/62 50/63/62 65/64/63 66/65/63
f 50/56/43 49/55/42 67/66/64 65/67/64
f 49/55/46 51/57/45 68/68/65 67/69/65
f 51/57/49 52/58/48 69/70/66 68/71/66
f 52/58/51 53/59/51 70/72/67 69/73/67
f 53/59/54 54/60/53 71/74/68 70/75/68
f 54/60/57 55/61/56 72/76/69 71/77/69
f 55/61/60 56/62/59 66/78/70 72/79/70
f 2/2/71 1/17/71 15/15/71 13/13/71 11/11/71 9/9/71 7/7/71 5/5/71
f 66/65/72 65/67/72 113/80/72 114/81/72
f 65/67/73 67/69/73 117/82/73 113/80/73
f 67/69/74 68/71/74 119/83/74 117/82/74
f 68/71/75 69/73/75 121/84/75 119/83/75
f 69/73/76 70/75/76 123/85/76 121/84/76
f 70/75/77 71/77/77 125/86/77 123/85/77
f 71/77/78 72/79/78 127/87/78 125/86/78
f 72/79/79 66/65/79 114/81/80 127/87/80
usemtl Material.001
f 57/88/81 58/89/81 59/90/81 60/91/81 61/92/81 62/93/81 63/94/81 64/95/81
f 73/96/82 74/97/82 75/98/82 76/99/82
f 77/100/83 78/101/83 79/102/83 80/103/83
f 81/104/84 82/105/84 83/106/84 84/107/84
f 85/108/85 86/109/85 87/110/85 88/111/85
f 89/112/86 90/113/86 91/114/86 92/115/86
f 93/116/87 94/117/87 95/118/87 96/119/87
f 97/120/88 98/121/88 99/122/88 100/123/88
f 101/124/89 102/125/89 103/126/89 104/127/89
f 105/128/90 106/129/90 62/93/90 61/92/90
f 107/130/91 105/128/91 61/92/91 60/91/91
f 108/131/92 107/130/92 60/91/92 59/90/92
f 109/132/93 108/131/93 59/90/93 58/89/93
f 110/133/94 109/132/94 58/89/94 57/88/94
f 111/134/95 110/133/95 57/88/95 64/95/95
f 112/135/96 111/134/96 64/95/96 63/94/96
f 106/129/97 112/135/97 63/94/97 62/93/97
f 109/132/98 110/133/98 115/136/98 116/137/98
f 108/131/99 109/132/99 116/137/99 118/138/99
f 107/130/100 108/131/100 118/138/100 120/139/100
f 105/128/101 107/130/101 120/139/101 122/140/101
f 106/129/102 105/128/102 122/140/102 124/141/102
f 112/135/103 106/129/103 124/141/103 126/142/103
f 111/134/104 112/135/104 126/142/104 128/143/104
f 110/133/105 111/134/105 128/143/105 115/136/105
f 125/86/106 127/87/106 98/121/106 97/120/106
f 127/87/107 128/143/107 99/122/107 98/121/107
f 128/143/108 126/142/108 100/123/108 99/122/108
f 126/142/109 125/86/109 97/120/109 100/123/109
f 123/85/110 125/86/110 94/117/110 93/116/110
f 125/86/111 126/142/111 95/118/111 94/117/111
f 126/142/112 124/141/112 96/119/112 95/118/112
f 124/141/113 123/85/113 93/116/113 96/119/113
f 127/87/80 114/81/80 102/125/114 101/124/114
f 114/81/115 115/136/115 103/126/115 102/125/115
f 115/136/116 128/143/116 104/127/116 103/126/116
f 128/143/117 127/87/117 101/124/117 104/127/117
f 114/81/118 113/80/118 74/97/118 73/96/118
f 113/80/119 116/137/119 75/98/119 74/97/119
f 116/137/120 115/136/120 76/99/120 75/98/120
f 115/136/121 114/81/121 73/96/121 76/99/121
f 113/80/122 117/82/122 78/101/122 77/100/122
f 117/82/123 118/138/123 79/102/123 78/101/123
f 118/138/124 116/137/124 80/103/124 79/102/124
f 116/137/125 113/80/125 77/100/125 80/103/125
f 117/82/126 119/83/126 82/105/126 81/104/126
f 119/83/127 120/139/127 83/106/127 82/105/127
f 120/139/128 118/138/128 84/107/128 83/106/128
f 118/138/129 117/82/129 81/104/129 84/107/129
f 119/83/130 121/84/130 86/109/130 85/108/130
f 121/84/131 122/140/131 87/110/131 86/109/131
f 122/140/132 120/139/132 88/111/132 87/110/132
f 120/139/133 119/83/133 85/108/133 88/111/133
f 121/84/134 123/85/134 90/113/134 89/112/134
f 123/85/135 124/141/135 91/114/135 90/113/135
f 124/141/136 122/140/136 92/115/136 91/114/136
f 122/140/137 121/84/137 89/112/137 92/115/137
