# This file uses centimeters as units for non-parametric coordinates.

mtllib Apple.mtl
g default
v 7.296627 -0.027693 -4.270866
v 6.968025 -0.027693 -4.406978
v 6.639423 -0.027693 -4.270866
v 6.503312 -0.027693 -3.942264
v 6.639423 -0.027693 -3.613662
v 6.968025 -0.027693 -3.477551
v 7.296627 -0.027693 -3.613662
v 7.432739 -0.027693 -3.942264
v 7.575203 0.235546 -4.549442
v 6.968025 0.235546 -4.800943
v 6.360848 0.235546 -4.549442
v 6.109346 0.235546 -3.942264
v 6.360848 0.235546 -3.335087
v 6.968025 0.235546 -3.083586
v 7.575203 0.235546 -3.335087
v 7.826704 0.235546 -3.942264
v 7.761341 0.629512 -4.735580
v 6.968025 0.629512 -5.064182
v 6.174709 0.629512 -4.735580
v 5.846107 0.629512 -3.942264
v 6.174709 0.629512 -3.148949
v 6.968025 0.629512 -2.820346
v 7.761341 0.629512 -3.148949
v 8.089943 0.629512 -3.942264
v 7.826704 1.094225 -4.800943
v 6.968025 1.094225 -5.156620
v 6.109346 1.094225 -4.800943
v 5.753670 1.094225 -3.942264
v 6.109346 1.094225 -3.083586
v 6.968025 1.094225 -2.727909
v 7.826704 1.094225 -3.083586
v 8.182380 1.094225 -3.942264
v 7.761341 1.558939 -4.735580
v 6.968025 1.558939 -5.064182
v 6.174709 1.558939 -4.735580
v 5.846107 1.558939 -3.942264
v 6.174709 1.558939 -3.148949
v 6.968025 1.558939 -2.820346
v 7.761341 1.558939 -3.148949
v 8.089943 1.558939 -3.942264
v 7.575203 2.101908 -4.549442
v 6.968025 2.101908 -4.800943
v 6.360848 2.101908 -4.549442
v 6.109346 2.101908 -3.942264
v 6.360848 1.952904 -3.335087
v 6.968025 2.184840 -3.083586
v 7.575203 2.184840 -3.335087
v 7.826704 1.952904 -3.942264
v 7.296627 2.259087 -4.270866
v 6.968025 2.259087 -4.406978
v 6.639423 2.259087 -4.270866
v 6.503312 2.259087 -3.942264
v 6.639423 2.110083 -3.613662
v 6.968025 2.342019 -3.477551
v 7.296627 2.342019 -3.613662
v 7.432739 2.110083 -3.942264
v 6.968025 -0.120130 -3.942264
v 7.050176 2.019394 -4.024415
v 6.968025 2.019394 -4.058443
v 6.885875 2.019394 -4.024415
v 6.851847 2.019394 -3.942264
v 6.885875 1.982143 -3.860114
v 6.968025 2.040126 -3.826086
v 7.050176 2.040126 -3.860114
v 7.084204 1.982143 -3.942264
v 7.084204 2.758535 -3.942264
v 7.050176 2.795785 -4.024415
v 6.968025 2.795785 -4.058443
v 6.885875 2.795785 -4.024415
v 6.851847 2.795785 -3.942264
v 6.885875 2.758535 -3.860114
v 6.968025 2.816518 -3.826086
v 7.050176 2.816518 -3.860114
v 6.885875 2.369162 -3.860114
v 6.851847 2.406413 -3.942264
v 6.885875 2.406413 -4.024415
v 6.968025 2.406413 -4.058443
v 7.050176 2.406413 -4.024415
v 7.084204 2.369162 -3.942264
v 7.050176 2.427146 -3.860114
v 6.968025 2.427146 -3.826086
v 6.885875 2.461033 -3.860114
v 6.851847 2.498284 -3.942264
v 6.885875 2.498284 -4.024415
v 6.968025 2.498284 -4.058443
v 7.050176 2.498284 -4.024415
v 7.084204 2.461033 -3.942264
v 7.050176 2.519017 -3.860114
v 6.968025 2.519017 -3.826086
v 7.107291 2.489008 -3.596929
v 7.104289 2.541378 -3.588913
v 7.191807 2.492607 -3.632429
v 7.188806 2.544976 -3.624413
v 7.032521 2.420947 -3.376410
v 7.027241 2.536475 -3.355535
v 7.414382 2.437205 -3.536806
v 7.409101 2.552733 -3.515931
v 7.342977 2.459429 -3.012454
v 7.341486 2.492050 -3.006559
v 7.450801 2.464020 -3.057744
v 7.449310 2.496641 -3.051850
vt 0.000000 0.125000
vt 0.125000 0.125000
vt 0.250000 0.125000
vt 0.375000 0.125000
vt 0.500000 0.125000
vt 0.625000 0.125000
vt 0.750000 0.125000
vt 0.875000 0.125000
vt 1.000000 0.125000
vt 0.000000 0.250000
vt 0.125000 0.250000
vt 0.250000 0.250000
vt 0.375000 0.250000
vt 0.500000 0.250000
vt 0.625000 0.250000
vt 0.750000 0.250000
vt 0.875000 0.250000
vt 1.000000 0.250000
vt 0.000000 0.375000
vt 0.125000 0.375000
vt 0.250000 0.375000
vt 0.375000 0.375000
vt 0.500000 0.375000
vt 0.625000 0.375000
vt 0.750000 0.375000
vt 0.875000 0.375000
vt 1.000000 0.375000
vt 0.000000 0.500000
vt 0.125000 0.500000
vt 0.250000 0.500000
vt 0.375000 0.500000
vt 0.500000 0.500000
vt 0.625000 0.500000
vt 0.750000 0.500000
vt 0.875000 0.500000
vt 1.000000 0.500000
vt 0.000000 0.625000
vt 0.125000 0.625000
vt 0.250000 0.625000
vt 0.375000 0.625000
vt 0.500000 0.625000
vt 0.625000 0.625000
vt 0.750000 0.625000
vt 0.875000 0.625000
vt 1.000000 0.625000
vt 0.000000 0.750000
vt 0.125000 0.750000
vt 0.250000 0.750000
vt 0.375000 0.750000
vt 0.500000 0.750000
vt 0.625000 0.750000
vt 0.750000 0.750000
vt 0.875000 0.750000
vt 1.000000 0.750000
vt 0.000000 0.875000
vt 0.125000 0.875000
vt 0.250000 0.875000
vt 0.375000 0.875000
vt 0.500000 0.875000
vt 0.625000 0.875000
vt 0.750000 0.875000
vt 0.875000 0.875000
vt 1.000000 0.875000
vt 0.062500 0.000000
vt 0.187500 0.000000
vt 0.312500 0.000000
vt 0.437500 0.000000
vt 0.562500 0.000000
vt 0.687500 0.000000
vt 0.812500 0.000000
vt 0.937500 0.000000
vt 0.968750 0.937500
vt 0.031250 0.937500
vt 0.093750 0.937500
vt 0.156250 0.937500
vt 0.218750 0.937500
vt 0.281250 0.937500
vt 0.343750 0.937500
vt 0.406250 0.937500
vt 0.468750 0.937500
vt 0.531250 0.937500
vt 0.593750 0.937500
vt 0.656250 0.937500
vt 0.718750 0.937500
vt 0.781250 0.937500
vt 0.843750 0.937500
vt 0.906250 0.937500
vt 0.906250 0.937500
vt 0.031250 0.937500
vt 0.156250 0.937500
vt 0.281250 0.937500
vt 0.406250 0.937500
vt 0.531250 0.937500
vt 0.656250 0.937500
vt 0.781250 0.937500
vt 0.531250 0.937500
vt 0.406250 0.937500
vt 0.281250 0.937500
vt 0.156250 0.937500
vt 0.031250 0.937500
vt 0.906250 0.937500
vt 0.781250 0.937500
vt 0.656250 0.937500
vt 0.531250 0.937500
vt 0.406250 0.937500
vt 0.281250 0.937500
vt 0.156250 0.937500
vt 0.031250 0.937500
vt 0.906250 0.937500
vt 0.781250 0.937500
vt 0.656250 0.937500
vt 0.656250 0.937500
vt 0.781250 0.937500
vt 0.781250 0.937500
vt 0.656250 0.937500
vt 0.656250 0.937500
vt 0.781250 0.937500
vt 0.781250 0.937500
vt 0.656250 0.937500
vt 0.656250 0.937500
vt 0.781250 0.937500
vt 0.781250 0.937500
vt 0.656250 0.937500
vn 0.224263 -0.810291 -0.541419
vn 0.224263 -0.810291 -0.541419
vn 0.224263 -0.810291 -0.541419
vn 0.224263 -0.810291 -0.541419
vn -0.224263 -0.810291 -0.541419
vn -0.224263 -0.810291 -0.541419
vn -0.224263 -0.810291 -0.541419
vn -0.224263 -0.810291 -0.541419
vn -0.541419 -0.810291 -0.224263
vn -0.541419 -0.810291 -0.224263
vn -0.541419 -0.810291 -0.224263
vn -0.541419 -0.810291 -0.224263
vn -0.541419 -0.810291 0.224263
vn -0.541419 -0.810291 0.224263
vn -0.541419 -0.810291 0.224263
vn -0.541419 -0.810291 0.224263
vn -0.224263 -0.810291 0.541419
vn -0.224263 -0.810291 0.541419
vn -0.224263 -0.810291 0.541419
vn -0.224263 -0.810291 0.541419
vn 0.224263 -0.810291 0.541419
vn 0.224263 -0.810291 0.541419
vn 0.224263 -0.810291 0.541419
vn 0.224263 -0.810291 0.541419
vn 0.541419 -0.810291 0.224263
vn 0.541419 -0.810291 0.224263
vn 0.541419 -0.810291 0.224263
vn 0.541419 -0.810291 0.224263
vn 0.541419 -0.810291 -0.224263
vn 0.541419 -0.810291 -0.224263
vn 0.541419 -0.810291 -0.224263
vn 0.541419 -0.810291 -0.224263
vn 0.325634 -0.525289 -0.786151
vn 0.325634 -0.525289 -0.786151
vn 0.325634 -0.525289 -0.786151
vn 0.325634 -0.525289 -0.786151
vn -0.325634 -0.525289 -0.786151
vn -0.325634 -0.525289 -0.786151
vn -0.325634 -0.525289 -0.786151
vn -0.325634 -0.525289 -0.786151
vn -0.786151 -0.525289 -0.325634
vn -0.786151 -0.525289 -0.325634
vn -0.786151 -0.525289 -0.325634
vn -0.786151 -0.525289 -0.325634
vn -0.786151 -0.525289 0.325634
vn -0.786151 -0.525289 0.325634
vn -0.786151 -0.525289 0.325634
vn -0.786151 -0.525289 0.325634
vn -0.325634 -0.525289 0.786151
vn -0.325634 -0.525289 0.786151
vn -0.325634 -0.525289 0.786151
vn -0.325634 -0.525289 0.786151
vn 0.325634 -0.525289 0.786151
vn 0.325634 -0.525289 0.786151
vn 0.325634 -0.525289 0.786151
vn 0.325634 -0.525289 0.786151
vn 0.786151 -0.525289 0.325635
vn 0.786151 -0.525289 0.325635
vn 0.786151 -0.525289 0.325635
vn 0.786151 -0.525289 0.325635
vn 0.786151 -0.525289 -0.325635
vn 0.786151 -0.525289 -0.325635
vn 0.786151 -0.525289 -0.325635
vn 0.786151 -0.525289 -0.325635
vn 0.376381 -0.180744 -0.908663
vn 0.376381 -0.180744 -0.908663
vn 0.376381 -0.180744 -0.908663
vn 0.376381 -0.180744 -0.908663
vn -0.376381 -0.180744 -0.908663
vn -0.376381 -0.180744 -0.908663
vn -0.376381 -0.180744 -0.908663
vn -0.376381 -0.180744 -0.908663
vn -0.908663 -0.180744 -0.376381
vn -0.908663 -0.180744 -0.376381
vn -0.908663 -0.180744 -0.376381
vn -0.908663 -0.180744 -0.376381
vn -0.908663 -0.180744 0.376381
vn -0.908663 -0.180744 0.376381
vn -0.908663 -0.180744 0.376381
vn -0.908663 -0.180744 0.376381
vn -0.376381 -0.180744 0.908663
vn -0.376381 -0.180744 0.908663
vn -0.376381 -0.180744 0.908663
vn -0.376381 -0.180744 0.908663
vn 0.376381 -0.180744 0.908663
vn 0.376381 -0.180744 0.908663
vn 0.376381 -0.180744 0.908663
vn 0.376381 -0.180744 0.908663
vn 0.908663 -0.180744 0.376381
vn 0.908663 -0.180744 0.376381
vn 0.908663 -0.180744 0.376381
vn 0.908663 -0.180744 0.376381
vn 0.908663 -0.180744 -0.376381
vn 0.908663 -0.180744 -0.376381
vn 0.908663 -0.180744 -0.376381
vn 0.908663 -0.180744 -0.376381
vn 0.376381 0.180744 -0.908663
vn 0.376381 0.180744 -0.908663
vn 0.376381 0.180744 -0.908663
vn 0.376381 0.180744 -0.908663
vn -0.376381 0.180744 -0.908663
vn -0.376381 0.180744 -0.908663
vn -0.376381 0.180744 -0.908663
vn -0.376381 0.180744 -0.908663
vn -0.908663 0.180744 -0.376381
vn -0.908663 0.180744 -0.376381
vn -0.908663 0.180744 -0.376381
vn -0.908663 0.180744 -0.376381
vn -0.908663 0.180744 0.376381
vn -0.908663 0.180744 0.376381
vn -0.908663 0.180744 0.376381
vn -0.908663 0.180744 0.376381
vn -0.376381 0.180744 0.908663
vn -0.376381 0.180744 0.908663
vn -0.376381 0.180744 0.908663
vn -0.376381 0.180744 0.908663
vn 0.376381 0.180744 0.908663
vn 0.376381 0.180744 0.908663
vn 0.376381 0.180744 0.908663
vn 0.376381 0.180744 0.908663
vn 0.908663 0.180744 0.376381
vn 0.908663 0.180744 0.376381
vn 0.908663 0.180744 0.376381
vn 0.908663 0.180744 0.376381
vn 0.908663 0.180744 -0.376381
vn 0.908663 0.180744 -0.376381
vn 0.908663 0.180744 -0.376381
vn 0.908663 0.180744 -0.376381
vn 0.349250 0.408778 -0.843164
vn 0.349250 0.408778 -0.843164
vn 0.349250 0.408778 -0.843164
vn 0.349250 0.408778 -0.843164
vn -0.349250 0.408778 -0.843164
vn -0.349250 0.408778 -0.843164
vn -0.349250 0.408778 -0.843164
vn -0.349250 0.408778 -0.843164
vn -0.843164 0.408778 -0.349250
vn -0.843164 0.408778 -0.349250
vn -0.843164 0.408778 -0.349250
vn -0.843164 0.408778 -0.349250
vn -0.801816 0.460282 0.381094
vn -0.801816 0.460282 0.381094
vn -0.801816 0.460282 0.381094
vn -0.801816 0.460282 0.381094
vn -0.405383 0.429545 0.806942
vn -0.405383 0.429545 0.806942
vn -0.405383 0.429545 0.806942
vn -0.405383 0.429545 0.806942
vn 0.356702 0.362182 0.861155
vn 0.356702 0.362182 0.861155
vn 0.356702 0.362182 0.861155
vn 0.356702 0.362182 0.861155
vn 0.857243 0.429545 0.283945
vn 0.857243 0.429545 0.283945
vn 0.857243 0.429545 0.283945
vn 0.857243 0.429545 0.283945
vn 0.836443 0.460282 -0.297495
vn 0.836443 0.460282 -0.297495
vn 0.836443 0.460282 -0.297495
vn 0.836443 0.460282 -0.297495
vn 0.151715 0.918056 -0.366273
vn 0.151715 0.918056 -0.366273
vn 0.151715 0.918056 -0.366273
vn 0.151715 0.918056 -0.366273
vn -0.151715 0.918056 -0.366273
vn -0.151715 0.918056 -0.366273
vn -0.151715 0.918056 -0.366273
vn -0.151715 0.918056 -0.366273
vn -0.366273 0.918056 -0.151715
vn -0.366273 0.918056 -0.151715
vn -0.366273 0.918056 -0.151715
vn -0.366273 0.918056 -0.151715
vn -0.253811 0.886294 0.387380
vn -0.253811 0.886293 0.387380
vn -0.253811 0.886294 0.387380
vn -0.253811 0.886293 0.387380
vn -0.497934 0.846297 0.189323
vn -0.497934 0.846297 0.189323
vn -0.497934 0.846297 0.189323
vn -0.497934 0.846297 0.189323
vn 0.151715 0.918056 0.366273
vn 0.151715 0.918056 0.366273
vn 0.151715 0.918056 0.366273
vn 0.151715 0.918056 0.366273
vn 0.485964 0.846297 -0.218221
vn 0.485964 0.846297 -0.218221
vn 0.485964 0.846297 -0.218221
vn 0.485964 0.846297 -0.218221
vn 0.453391 0.886294 0.094447
vn 0.453391 0.886294 0.094447
vn 0.453391 0.886294 0.094447
vn 0.453391 0.886294 0.094447
vn 0.080547 -0.977599 -0.194457
vn 0.080547 -0.977599 -0.194457
vn 0.080547 -0.977599 -0.194457
vn -0.080547 -0.977599 -0.194457
vn -0.080547 -0.977599 -0.194457
vn -0.080547 -0.977599 -0.194457
vn -0.194457 -0.977599 -0.080547
vn -0.194457 -0.977599 -0.080547
vn -0.194457 -0.977599 -0.080547
vn -0.194457 -0.977599 0.080547
vn -0.194457 -0.977599 0.080547
vn -0.194457 -0.977599 0.080547
vn -0.080547 -0.977599 0.194457
vn -0.080547 -0.977599 0.194457
vn -0.080547 -0.977599 0.194457
vn 0.080547 -0.977599 0.194457
vn 0.080547 -0.977599 0.194457
vn 0.080547 -0.977599 0.194457
vn 0.194456 -0.977599 0.080547
vn 0.194456 -0.977599 0.080547
vn 0.194456 -0.977599 0.080547
vn 0.194456 -0.977599 -0.080547
vn 0.194456 -0.977599 -0.080547
vn 0.194456 -0.977599 -0.080547
vn -0.008067 0.999778 -0.019476
vn -0.008067 0.999778 -0.019476
vn -0.008067 0.999778 -0.019476
vn -0.008067 0.999778 -0.019476
vn -0.008067 0.999778 -0.019476
vn -0.008067 0.999778 -0.019476
vn -0.008067 0.999778 -0.019476
vn -0.008067 0.999778 -0.019476
vn -0.299582 0.816123 0.494160
vn -0.299582 0.816123 0.494160
vn -0.299582 0.816123 0.494160
vn -0.299582 0.816123 0.494160
vn -0.228504 0.802159 0.551658
vn -0.228504 0.802159 0.551658
vn -0.228504 0.802159 0.551658
vn -0.228504 0.802159 0.551658
vn 0.228504 0.802159 0.551658
vn 0.228504 0.802159 0.551658
vn 0.228504 0.802159 0.551658
vn 0.228504 0.802159 0.551658
vn 0.551658 0.802159 0.228504
vn 0.551658 0.802159 0.228504
vn 0.551658 0.802159 0.228504
vn 0.551658 0.802159 0.228504
vn 0.561261 0.816122 0.137587
vn 0.561261 0.816122 0.137587
vn 0.561261 0.816122 0.137587
vn 0.561261 0.816122 0.137587
vn -0.253736 0.731136 -0.633291
vn -0.253736 0.731136 -0.633291
vn -0.253737 0.731136 -0.633291
vn -0.253737 0.731136 -0.633291
vn -0.261739 0.729523 -0.631893
vn -0.261739 0.729523 -0.631893
vn -0.261739 0.729523 -0.631893
vn -0.261739 0.729523 -0.631893
vn -0.268385 0.731136 -0.627223
vn -0.268385 0.731136 -0.627223
vn -0.268385 0.731136 -0.627223
vn -0.268385 0.731136 -0.627223
vn 0.923879 0.000000 -0.382684
vn 0.923879 0.000000 -0.382684
vn 0.923879 0.000000 -0.382684
vn 0.923879 0.000000 -0.382684
vn 0.382683 0.000000 -0.923880
vn 0.382683 0.000000 -0.923880
vn 0.382683 0.000000 -0.923880
vn 0.382683 0.000000 -0.923880
vn -0.382683 0.000000 -0.923880
vn -0.382683 0.000000 -0.923880
vn -0.382683 0.000000 -0.923880
vn -0.382683 0.000000 -0.923880
vn -0.923879 0.000000 -0.382684
vn -0.923879 0.000000 -0.382684
vn -0.923879 0.000000 -0.382684
vn -0.923879 0.000000 -0.382684
vn -0.923879 0.000000 0.382684
vn -0.923879 0.000000 0.382684
vn -0.923879 0.000000 0.382684
vn -0.923879 0.000000 0.382684
vn -0.382683 0.000000 0.923880
vn -0.382683 0.000000 0.923880
vn -0.382683 0.000000 0.923880
vn -0.382683 0.000000 0.923880
vn 0.382683 0.000000 0.923880
vn 0.382683 0.000000 0.923880
vn 0.382683 0.000000 0.923880
vn 0.382683 0.000000 0.923880
vn 0.923879 0.000000 0.382684
vn 0.923879 0.000000 0.382684
vn 0.923879 0.000000 0.382684
vn 0.923879 0.000000 0.382684
vn -0.923879 0.000000 0.382684
vn -0.923879 0.000000 0.382684
vn -0.923879 0.000000 -0.382684
vn -0.923879 0.000000 -0.382684
vn -0.382683 0.000000 -0.923880
vn -0.382683 0.000000 -0.923880
vn 0.382683 0.000000 -0.923880
vn 0.382683 0.000000 -0.923880
vn 0.923879 0.000000 -0.382684
vn 0.923879 0.000000 -0.382684
vn 0.923879 0.000000 0.382684
vn 0.923879 0.000000 0.382684
vn 0.388379 -0.146636 0.909758
vn 0.388379 -0.146636 0.909758
vn 0.388379 -0.146636 0.909758
vn 0.388379 -0.146636 0.909758
vn -0.382683 0.000000 0.923880
vn -0.382683 0.000000 0.923880
vn -0.923879 0.000000 0.382684
vn -0.923879 0.000000 0.382684
vn -0.923879 0.000000 -0.382684
vn -0.923879 0.000000 -0.382684
vn -0.382683 0.000000 -0.923880
vn -0.382683 0.000000 -0.923880
vn 0.382683 0.000000 -0.923880
vn 0.382683 0.000000 -0.923880
vn 0.923879 0.000000 -0.382684
vn 0.923879 0.000000 -0.382684
vn 0.923879 0.000000 0.382684
vn 0.923879 0.000000 0.382684
vn 0.382683 0.000000 0.923880
vn 0.382683 0.000000 0.923880
vn 0.382683 0.000000 0.923880
vn 0.382683 0.000000 0.923880
vn -0.382683 0.000000 0.923880
vn -0.382683 0.000000 0.923880
vn -0.315139 -0.850500 0.421115
vn -0.315139 -0.850500 0.421115
vn -0.315139 -0.850500 0.421115
vn -0.315139 -0.850500 0.421115
vn 0.685543 -0.691534 -0.227623
vn 0.685543 -0.691534 -0.227623
vn 0.685543 -0.691534 -0.227623
vn 0.685543 -0.691534 -0.227623
vn 0.377797 0.869576 -0.317975
vn 0.377797 0.869576 -0.317975
vn 0.377797 0.869576 -0.317975
vn 0.377797 0.869576 -0.317975
vn -0.652011 0.692236 0.309340
vn -0.652011 0.692236 0.309340
vn -0.652011 0.692236 0.309340
vn -0.652011 0.692236 0.309340
vn -0.948697 0.007595 -0.316097
vn -0.948697 0.007595 -0.316097
vn -0.948697 0.007595 -0.316097
vn -0.948697 0.007595 -0.316097
vn -0.095591 -0.941554 -0.323014
vn -0.095591 -0.941554 -0.323014
vn -0.095591 -0.941554 -0.323014
vn -0.095591 -0.941554 -0.323014
vn 0.427546 0.173744 -0.887140
vn 0.427546 0.173744 -0.887140
vn 0.427546 0.173744 -0.887140
vn 0.427546 0.173744 -0.887140
vn -0.039156 0.999201 0.008061
vn -0.039156 0.999201 0.008061
vn -0.039156 0.999201 0.008061
vn -0.039156 0.999201 0.008061
vn -0.744048 -0.151587 0.650703
vn -0.744048 -0.151587 0.650703
vn -0.744048 -0.151587 0.650703
vn -0.744048 -0.151587 0.650703
vn 0.063828 -0.996660 0.050935
vn 0.063828 -0.996660 0.050935
vn 0.063828 -0.996660 0.050935
vn 0.063828 -0.996660 0.050935
vn 0.995082 0.059757 -0.078994
vn 0.995082 0.059757 -0.078994
vn 0.995082 0.059757 -0.078994
vn 0.995082 0.059757 -0.078994
vn 0.007849 0.992825 0.119320
vn 0.007849 0.992825 0.119320
vn 0.007849 0.992825 0.119320
vn 0.007849 0.992825 0.119320
s off
g pSphere4
usemtl initialShadingGroup
f 1/1/1 2/2/2 10/11/3 9/10/4
f 2/2/5 3/3/6 11/12/7 10/11/8
f 3/3/9 4/4/10 12/13/11 11/12/12
f 4/4/13 5/5/14 13/14/15 12/13/16
f 5/5/17 6/6/18 14/15/19 13/14/20
f 6/6/21 7/7/22 15/16/23 14/15/24
f 7/7/25 8/8/26 16/17/27 15/16/28
f 8/8/29 1/9/30 9/18/31 16/17/32
f 9/10/33 10/11/34 18/20/35 17/19/36
f 10/11/37 11/12/38 19/21/39 18/20/40
f 11/12/41 12/13/42 20/22/43 19/21/44
f 12/13/45 13/14/46 21/23/47 20/22/48
f 13/14/49 14/15/50 22/24/51 21/23/52
f 14/15/53 15/16/54 23/25/55 22/24/56
f 15/16/57 16/17/58 24/26/59 23/25/60
f 16/17/61 9/18/62 17/27/63 24/26/64
f 17/19/65 18/20/66 26/29/67 25/28/68
f 18/20/69 19/21/70 27/30/71 26/29/72
f 19/21/73 20/22/74 28/31/75 27/30/76
f 20/22/77 21/23/78 29/32/79 28/31/80
f 21/23/81 22/24/82 30/33/83 29/32/84
f 22/24/85 23/25/86 31/34/87 30/33/88
f 23/25/89 24/26/90 32/35/91 31/34/92
f 24/26/93 17/27/94 25/36/95 32/35/96
f 25/28/97 26/29/98 34/38/99 33/37/100
f 26/29/101 27/30/102 35/39/103 34/38/104
f 27/30/105 28/31/106 36/40/107 35/39/108
f 28/31/109 29/32/110 37/41/111 36/40/112
f 29/32/113 30/33/114 38/42/115 37/41/116
f 30/33/117 31/34/118 39/43/119 38/42/120
f 31/34/121 32/35/122 40/44/123 39/43/124
f 32/35/125 25/36/126 33/45/127 40/44/128
f 33/37/129 34/38/130 42/47/131 41/46/132
f 34/38/133 35/39/134 43/48/135 42/47/136
f 35/39/137 36/40/138 44/49/139 43/48/140
f 36/40/141 37/41/142 45/50/143 44/49/144
f 37/41/145 38/42/146 46/51/147 45/50/148
f 38/42/149 39/43/150 47/52/151 46/51/152
f 39/43/153 40/44/154 48/53/155 47/52/156
f 40/44/157 33/45/158 41/54/159 48/53/160
f 41/46/161 42/47/162 50/56/163 49/55/164
f 42/47/165 43/48/166 51/57/167 50/56/168
f 43/48/169 44/49/170 52/58/171 51/57/172
f 44/49/173 45/50/174 53/59/175 52/58/176
f 45/50/177 46/51/178 54/60/179 53/59/180
f 46/51/181 47/52/182 55/61/183 54/60/184
f 47/52/185 48/53/186 56/62/187 55/61/188
f 48/53/189 41/54/190 49/63/191 56/62/192
f 2/2/193 1/1/194 57/64/195
f 3/3/196 2/2/197 57/65/198
f 4/4/199 3/3/200 57/66/201
f 5/5/202 4/4/203 57/67/204
f 6/6/205 5/5/206 57/68/207
f 7/7/208 6/6/209 57/69/210
f 8/8/211 7/7/212 57/70/213
f 1/9/214 8/8/215 57/71/216
f 66/88/217 67/89/218 68/90/219 69/91/220 70/92/221 71/93/222 72/94/223 73/95/224
f 56/62/225 49/63/226 58/72/227 65/87/228
f 49/55/229 50/56/230 59/74/231 58/73/232
f 50/56/233 51/57/234 60/76/235 59/75/236
f 51/57/237 52/58/238 61/78/239 60/77/240
f 52/58/241 53/59/242 62/80/243 61/79/244
f 53/59/245 54/60/246 63/82/247 62/81/248
f 54/60/249 55/61/250 64/84/251 63/83/252
f 55/61/253 56/62/254 65/86/255 64/85/256
s 1
f 65/87/257 58/73/258 78/100/259 79/101/260
s 2
f 58/73/261 59/75/262 77/99/263 78/100/264
s 3
f 59/75/265 60/77/266 76/98/267 77/99/268
s 4
f 60/77/269 61/79/270 75/97/271 76/98/272
s 5
f 61/79/273 62/81/274 74/96/275 75/97/276
s 6
f 62/81/277 63/83/278 81/103/279 74/96/280
s off
f 63/83/281 64/85/282 80/102/283 81/103/284
s 7
f 64/85/285 65/87/286 79/101/287 80/102/288
s 5
f 75/97/276 74/96/275 82/104/289 83/105/290
s 4
f 76/98/272 75/97/271 83/105/291 84/106/292
s 3
f 77/99/268 76/98/267 84/106/293 85/107/294
s 2
f 78/100/264 77/99/263 85/107/295 86/108/296
s 1
f 79/101/260 78/100/259 86/108/297 87/109/298
s 7
f 80/102/288 79/101/287 87/109/299 88/110/300
s off
f 99/120/301 98/121/302 100/122/303 101/123/304
s 6
f 74/96/280 81/103/279 89/111/305 82/104/306
s 5
f 83/105/290 82/104/289 71/93/307 70/92/308
s 4
f 84/106/292 83/105/291 70/92/309 69/91/310
s 3
f 85/107/294 84/106/293 69/91/311 68/90/312
s 2
f 86/108/296 85/107/295 68/90/313 67/89/314
s 1
f 87/109/298 86/108/297 67/89/315 66/88/316
s 7
f 88/110/300 87/109/299 66/88/317 73/95/318
s off
f 89/111/319 88/110/320 73/95/321 72/94/322
s 6
f 82/104/306 89/111/305 72/94/323 71/93/324
s off
f 81/103/325 80/102/326 90/113/327 91/112/328
f 80/102/329 88/110/330 92/114/331 90/113/332
f 88/110/333 89/111/334 93/115/335 92/114/336
f 89/111/337 81/103/338 91/112/339 93/115/340
f 91/112/341 90/113/342 94/117/343 95/116/344
f 90/113/345 92/114/346 96/118/347 94/117/348
f 92/114/349 93/115/350 97/119/351 96/118/352
f 93/115/353 91/112/354 95/116/355 97/119/356
f 95/116/357 94/117/358 98/121/359 99/120/360
f 94/117/361 96/118/362 100/122/363 98/121/364
f 96/118/365 97/119/366 101/123/367 100/122/368
f 97/119/369 95/116/370 99/120/371 101/123/372
