# This file uses centimeters as units for non-parametric coordinates.

mtllib ChineseSpoon.mtl
g default
v 1.524781 3.679024 0.618677
v -0.040536 3.296375 1.564622
v -0.259702 3.246851 1.659134
v -0.553991 3.256442 1.841170
v -0.604557 3.253156 1.955400
v -0.574227 3.253156 2.055707
v -0.494093 3.253156 2.123235
v -0.369178 3.256442 2.121969
v -0.085594 3.246851 1.923668
v 0.087890 3.296375 1.759750
v 1.578185 3.679024 0.699817
v 1.557265 3.679024 0.655441
v 1.533832 3.692305 0.563427
v -0.079659 3.392855 1.427615
v -0.580785 3.352679 1.640996
v -0.730243 3.352679 1.787852
v -0.788741 3.352679 1.972714
v -0.731804 3.352679 2.159419
v -0.582839 3.352679 2.285555
v -0.389914 3.352679 2.304938
v -0.195921 3.352679 2.225746
v 0.198254 3.392855 1.849868
v 1.632510 3.692305 0.713355
v 1.593855 3.692305 0.631359
v 1.539879 3.712181 0.526510
v -0.259443 3.522713 1.365320
v -0.639777 3.501625 1.551365
v -0.838068 3.501625 1.738661
v -0.915515 3.501625 1.978652
v -0.837093 3.501625 2.228717
v -0.638432 3.501625 2.399644
v -0.387378 3.501625 2.423427
v -0.136929 3.501625 2.315377
v 0.184367 3.522713 2.039632
v 1.668808 3.712181 0.722401
v 1.618304 3.712181 0.615268
v -0.112788 3.233248 1.752003
v 0.594159 3.660663 1.489944
v 0.559602 3.613164 1.437437
v 0.524342 3.584447 1.383862
v 0.513339 3.579775 1.367145
v 0.503882 3.578216 1.352777
v 0.494277 3.581102 1.338182
v 0.483932 3.586901 1.322464
v 0.452658 3.619224 1.274947
v 0.424376 3.670165 1.231977
v 1.155978 3.708584 1.075981
v 1.129688 3.688665 1.036037
v 1.103050 3.676207 0.995564
v 1.098217 3.675552 0.988220
v 1.084385 3.675118 0.967203
v 1.070416 3.675948 0.945980
v 1.066085 3.676766 0.939399
v 1.041979 3.689967 0.902774
v 1.019093 3.710420 0.868002
v 1.525690 3.623505 0.609193
v 1.060638 3.622548 0.925124
v 1.029909 3.639997 0.879744
v 1.537284 3.640039 0.542702
v -0.031631 3.246166 1.540687
v -0.265849 3.194752 1.638617
v -0.601274 3.310866 1.609295
v -0.082487 3.353887 1.387036
v -0.567902 3.203087 1.829646
v -0.761520 3.310502 1.767458
v -0.621727 3.199521 1.954151
v -0.825185 3.309729 1.972218
v -0.588105 3.199331 2.064841
v -0.762148 3.309628 2.179391
v -0.499737 3.199521 2.139499
v -0.596798 3.309729 2.319223
v -0.364096 3.203087 2.139303
v -0.383552 3.310502 2.341730
v -0.069181 3.194752 1.937427
v -0.174908 3.310866 2.257102
v 0.113019 3.245972 1.760823
v 0.233271 3.352753 1.868275
v 1.144813 3.637199 1.053229
v 1.112850 3.621364 1.003888
v 1.586999 3.623438 0.702194
v 1.652432 3.639767 0.717351
v 1.564865 3.623441 0.650357
v 1.614643 3.641770 0.617677
v 1.003690 3.663823 0.840673
v 1.543959 3.664635 0.504126
v -0.663532 3.467251 1.514636
v -0.268380 3.489852 1.321226
v -0.874880 3.467590 1.715490
v -0.957335 3.466263 1.978381
v -0.872065 3.465938 2.251734
v -0.654722 3.466263 2.438161
v -0.380655 3.467590 2.466401
v -0.112590 3.467251 2.351720
v 0.220297 3.488438 2.065227
v 1.173663 3.659711 1.097480
v 1.690602 3.664022 0.726429
v 1.644653 3.665729 0.597925
v 1.070166 3.620092 0.938692
v -0.104314 3.177843 1.746388
v 1.103888 3.619528 0.989686
v 1.087393 3.618935 0.964467
v 0.588466 3.567233 1.452612
v 0.624909 3.620304 1.510896
v 0.545096 3.532094 1.385098
v 0.528623 3.525921 1.360881
v 0.516542 3.524273 1.342627
v 0.504753 3.527414 1.324731
v 0.489850 3.535164 1.300986
v 0.448767 3.575395 1.239776
v 0.415843 3.632884 1.192668
vt 0.000000 0.125000
vt 0.083333 0.125000
vt 0.166667 0.125000
vt 0.250000 0.125000
vt 0.333333 0.125000
vt 0.416667 0.125000
vt 0.500000 0.125000
vt 0.583333 0.125000
vt 0.666667 0.125000
vt 0.750000 0.125000
vt 0.833333 0.125000
vt 0.916667 0.125000
vt 1.000000 0.125000
vt 0.000000 0.250000
vt 0.083333 0.250000
vt 0.166667 0.250000
vt 0.250000 0.250000
vt 0.333333 0.250000
vt 0.416667 0.250000
vt 0.500000 0.250000
vt 0.583333 0.250000
vt 0.666667 0.250000
vt 0.750000 0.250000
vt 0.833333 0.250000
vt 0.916667 0.250000
vt 1.000000 0.250000
vt 0.000000 0.375000
vt 0.083333 0.375000
vt 0.166667 0.375000
vt 0.250000 0.375000
vt 0.333333 0.375000
vt 0.416667 0.375000
vt 0.500000 0.375000
vt 0.583333 0.375000
vt 0.666667 0.375000
vt 0.750000 0.375000
vt 0.833333 0.375000
vt 0.916667 0.375000
vt 1.000000 0.375000
vt 0.041667 0.000000
vt 0.125000 0.000000
vt 0.208333 0.000000
vt 0.291667 0.000000
vt 0.375000 0.000000
vt 0.458333 0.000000
vt 0.541667 0.000000
vt 0.625000 0.000000
vt 0.708333 0.000000
vt 0.791667 0.000000
vt 0.875000 0.000000
vt 0.958333 0.000000
vt 0.791274 0.375000
vt 0.796833 0.250000
vt 0.805213 0.125000
vt 0.820592 0.086775
vt 0.846075 0.086775
vt 0.903359 0.085077
vt 0.929974 0.085077
vt 0.987704 0.088114
vt 0.012295 0.088114
vt 0.026009 0.125000
vt 0.031098 0.250000
vt 0.034133 0.375000
vt 0.811559 0.375000
vt 0.816264 0.250000
vt 0.822583 0.125000
vt 0.828473 0.110421
vt 0.838193 0.110421
vt 0.911405 0.109216
vt 0.921928 0.109216
vt 0.995503 0.111509
vt 0.004497 0.111509
vt 0.009443 0.125000
vt 0.014047 0.250000
vt 0.017713 0.375000
vt 0.000000 0.125000
vt 0.009443 0.125000
vt 0.014047 0.250000
vt 0.000000 0.250000
vt 0.083333 0.125000
vt 0.166667 0.125000
vt 0.166667 0.250000
vt 0.083333 0.250000
vt 0.250000 0.125000
vt 0.250000 0.250000
vt 0.333333 0.125000
vt 0.333333 0.250000
vt 0.416667 0.125000
vt 0.416667 0.250000
vt 0.500000 0.125000
vt 0.500000 0.250000
vt 0.583333 0.125000
vt 0.583333 0.250000
vt 0.666667 0.125000
vt 0.666667 0.250000
vt 0.750000 0.125000
vt 0.750000 0.250000
vt 0.816264 0.250000
vt 0.822583 0.125000
vt 0.833333 0.125000
vt 0.833333 0.250000
vt 0.916667 0.125000
vt 0.916667 0.250000
vt 1.000000 0.125000
vt 1.000000 0.250000
vt 0.017713 0.375000
vt 0.000000 0.375000
vt 0.166667 0.375000
vt 0.083333 0.375000
vt 0.250000 0.375000
vt 0.333333 0.375000
vt 0.416667 0.375000
vt 0.500000 0.375000
vt 0.583333 0.375000
vt 0.666667 0.375000
vt 0.750000 0.375000
vt 0.811559 0.375000
vt 0.833333 0.375000
vt 0.916667 0.375000
vt 1.000000 0.375000
vt 0.004497 0.111509
vt 0.125000 0.000000
vt 0.208333 0.000000
vt 0.291667 0.000000
vt 0.375000 0.000000
vt 0.458333 0.000000
vt 0.541667 0.000000
vt 0.625000 0.000000
vt 0.708333 0.000000
vt 0.828473 0.110421
vt 0.838193 0.110421
vt 0.911405 0.109216
vt 0.921928 0.109216
vt 0.995503 0.111509
vt 0.796833 0.250000
vt 0.791274 0.375000
vt 0.805213 0.125000
vt 0.820592 0.086775
vt 0.791667 0.000000
vt 0.903359 0.085077
vt 0.846075 0.086775
vt 0.875000 0.000000
vt 0.987704 0.088114
vt 0.929974 0.085077
vt 0.958333 0.000000
vt 0.026009 0.125000
vt 0.012295 0.088114
vt 0.041667 0.000000
vt 0.031098 0.250000
vt 0.034133 0.375000
vt 0.017713 0.375000
vt 0.000000 0.375000
vt 0.166667 0.375000
vt 0.083333 0.375000
vt 0.250000 0.375000
vt 0.333333 0.375000
vt 0.416667 0.375000
vt 0.500000 0.375000
vt 0.583333 0.375000
vt 0.666667 0.375000
vt 0.750000 0.375000
vt 0.833333 0.375000
vt 0.811559 0.375000
vt 0.916667 0.375000
vt 1.000000 0.375000
vt 0.791274 0.375000
vt 0.034133 0.375000
vn -0.172986 -0.950241 -0.259071
vn -0.150521 -0.926213 -0.345647
vn -0.150800 -0.926551 -0.344620
vn -0.172986 -0.950241 -0.259071
vn -0.161547 -0.776577 -0.608959
vn -0.161547 -0.776577 -0.608959
vn -0.161547 -0.776577 -0.608959
vn -0.161547 -0.776577 -0.608959
vn -0.303060 -0.873369 -0.381288
vn -0.303060 -0.873369 -0.381288
vn -0.303060 -0.873369 -0.381288
vn -0.303060 -0.873369 -0.381288
vn -0.458178 -0.871469 -0.174972
vn -0.458178 -0.871469 -0.174972
vn -0.458178 -0.871469 -0.174972
vn -0.458178 -0.871469 -0.174972
vn -0.462347 -0.875610 0.139792
vn -0.462347 -0.875610 0.139792
vn -0.462347 -0.875610 0.139792
vn -0.462347 -0.875610 0.139792
vn -0.311250 -0.875610 0.369364
vn -0.311250 -0.875610 0.369364
vn -0.311250 -0.875610 0.369364
vn -0.311250 -0.875610 0.369364
vn -0.020500 -0.871469 0.490023
vn -0.020500 -0.871469 0.490023
vn -0.020500 -0.871469 0.490023
vn -0.020500 -0.871469 0.490023
vn 0.230343 -0.873370 0.429148
vn 0.230343 -0.873370 0.429148
vn 0.230343 -0.873370 0.429148
vn 0.230343 -0.873370 0.429148
vn 0.494872 -0.777165 0.388736
vn 0.494872 -0.777165 0.388736
vn 0.494872 -0.777165 0.388736
vn 0.494872 -0.777165 0.388736
vn 0.237189 -0.944171 0.228653
vn 0.237864 -0.944022 0.228566
vn 0.158963 -0.958217 0.237803
vn 0.158963 -0.958217 0.237803
vn 0.269348 -0.955640 -0.119179
vn 0.269348 -0.955640 -0.119179
vn 0.269348 -0.955640 -0.119179
vn 0.269348 -0.955640 -0.119179
vn 0.215462 -0.955287 -0.202492
vn 0.215462 -0.955287 -0.202492
vn 0.215462 -0.955287 -0.202492
vn 0.215462 -0.955287 -0.202492
vn -0.290360 -0.843078 -0.452671
vn -0.280208 -0.808966 -0.516776
vn -0.280180 -0.808872 -0.516939
vn -0.290360 -0.843078 -0.452671
vn -0.281843 -0.634348 -0.719838
vn -0.281843 -0.634348 -0.719838
vn -0.281843 -0.634348 -0.719838
vn -0.281843 -0.634348 -0.719838
vn -0.562346 -0.587316 -0.582089
vn -0.562346 -0.587316 -0.582089
vn -0.562346 -0.587316 -0.582089
vn -0.562346 -0.587316 -0.582089
vn -0.748019 -0.620106 -0.236506
vn -0.748019 -0.620106 -0.236506
vn -0.748019 -0.620106 -0.236506
vn -0.748019 -0.620106 -0.236506
vn -0.741448 -0.630987 0.228276
vn -0.741448 -0.630987 0.228276
vn -0.741448 -0.630987 0.228276
vn -0.741449 -0.630987 0.228276
vn -0.502902 -0.630987 0.590715
vn -0.502902 -0.630987 0.590715
vn -0.502902 -0.630987 0.590715
vn -0.502902 -0.630987 0.590715
vn -0.078613 -0.620106 0.780569
vn -0.078613 -0.620106 0.780569
vn -0.078613 -0.620106 0.780569
vn -0.078613 -0.620106 0.780569
vn 0.312226 -0.587314 0.746710
vn 0.312226 -0.587314 0.746710
vn 0.312226 -0.587314 0.746711
vn 0.312226 -0.587314 0.746710
vn 0.549112 -0.635098 0.543255
vn 0.549112 -0.635098 0.543255
vn 0.549112 -0.635098 0.543255
vn 0.549112 -0.635098 0.543255
vn 0.338524 -0.854413 0.394183
vn 0.337998 -0.854572 0.394289
vn 0.284795 -0.869157 0.404300
vn 0.284795 -0.869157 0.404300
vn 0.541892 -0.813248 -0.212089
vn 0.541892 -0.813248 -0.212089
vn 0.541892 -0.813248 -0.212089
vn 0.541892 -0.813248 -0.212089
vn 0.409052 -0.811159 -0.417969
vn 0.409052 -0.811159 -0.417969
vn 0.409052 -0.811159 -0.417969
vn 0.409052 -0.811159 -0.417969
vn -0.031342 -0.974025 -0.224262
vn -0.031480 -0.974084 -0.223984
vn -0.080970 -0.989199 -0.122187
vn 0.090288 -0.954250 -0.285052
vn 0.090288 -0.954250 -0.285052
vn 0.090288 -0.954250 -0.285052
vn -0.064857 -0.996144 -0.059086
vn -0.064857 -0.996144 -0.059086
vn -0.064857 -0.996144 -0.059086
vn -0.064379 -0.996332 -0.056367
vn -0.064379 -0.996332 -0.056367
vn -0.064379 -0.996332 -0.056367
vn -0.037929 -0.999232 0.009806
vn -0.037929 -0.999232 0.009806
vn -0.037929 -0.999232 0.009806
vn -0.024006 -0.999232 0.030957
vn -0.024006 -0.999232 0.030957
vn -0.024006 -0.999232 0.030957
vn 0.026309 -0.996334 0.081409
vn 0.026309 -0.996334 0.081409
vn 0.026309 -0.996334 0.081409
vn 0.028601 -0.996146 0.082912
vn 0.028601 -0.996146 0.082912
vn 0.028601 -0.996146 0.082912
vn 0.297189 -0.954353 0.029819
vn 0.297189 -0.954353 0.029819
vn 0.297189 -0.954353 0.029819
vn 0.061443 -0.994069 0.089729
vn 0.170649 -0.982518 0.074411
vn 0.171153 -0.982436 0.074337
vn 0.010321 -0.999944 0.002491
vn 0.010321 -0.999944 0.002491
vn 0.063324 -0.997882 -0.014873
vn 0.064282 -0.997816 -0.015187
vn -0.002593 -0.999868 -0.016062
vn -0.002593 -0.999868 -0.016062
vn 0.027102 -0.997209 -0.069563
vn 0.026537 -0.997295 -0.068544
vn 0.728282 -0.581289 0.362916
vn 0.625953 -0.681398 0.379314
vn 0.623151 -0.683785 0.379631
vn 0.728282 -0.581289 0.362916
vn 0.596620 -0.797574 0.089002
vn 0.496199 -0.857278 0.137336
vn 0.486442 -0.862142 0.141726
vn 0.596620 -0.797574 0.089002
vn 0.311975 -0.924134 -0.220563
vn 0.308059 -0.928122 -0.209020
vn 0.332710 -0.899323 -0.283765
vn 0.332710 -0.899323 -0.283765
vn 0.225921 -0.970256 -0.086966
vn 0.219349 -0.972074 -0.083411
vn 0.389712 -0.903903 -0.176304
vn 0.133129 -0.969727 -0.204710
vn 0.141679 -0.966765 -0.212819
vn 0.278914 -0.897624 -0.341289
vn 0.390840 -0.898579 -0.199501
vn 0.305862 -0.927575 -0.214600
vn 0.323327 -0.922308 -0.211678
vn 0.390840 -0.898579 -0.199501
vn 0.047531 -0.842480 -0.536627
vn 0.061905 -0.835366 -0.546198
vn 0.156434 -0.780945 -0.604693
vn 0.156434 -0.780945 -0.604693
vn -0.112732 -0.627658 -0.770283
vn -0.106689 -0.620744 -0.776720
vn -0.032784 -0.531235 -0.846590
vn -0.032784 -0.531235 -0.846590
vn 0.167353 0.954288 0.247645
vn 0.167353 0.954288 0.247645
vn 0.148360 0.928506 0.340391
vn 0.147678 0.927456 0.343536
vn 0.167291 0.770021 0.615696
vn 0.167291 0.770021 0.615696
vn 0.167291 0.770021 0.615696
vn 0.167291 0.770021 0.615696
vn 0.300726 0.874632 0.380240
vn 0.300726 0.874632 0.380240
vn 0.300726 0.874632 0.380240
vn 0.300726 0.874632 0.380240
vn 0.456196 0.872314 0.175937
vn 0.456196 0.872314 0.175937
vn 0.456196 0.872314 0.175937
vn 0.456196 0.872314 0.175937
vn 0.460798 0.876376 -0.140106
vn 0.460798 0.876376 -0.140106
vn 0.460798 0.876376 -0.140106
vn 0.460798 0.876376 -0.140106
vn 0.310926 0.876376 -0.367818
vn 0.310926 0.876376 -0.367818
vn 0.310926 0.876376 -0.367818
vn 0.310926 0.876376 -0.367818
vn 0.018830 0.872314 -0.488584
vn 0.018830 0.872314 -0.488584
vn 0.018830 0.872314 -0.488584
vn 0.018830 0.872314 -0.488584
vn -0.230303 0.874632 -0.426590
vn -0.230303 0.874632 -0.426590
vn -0.230303 0.874632 -0.426590
vn -0.230303 0.874632 -0.426590
vn -0.499334 0.770021 -0.397155
vn -0.499334 0.770021 -0.397155
vn -0.499334 0.770021 -0.397155
vn -0.499334 0.770021 -0.397155
vn -0.234325 0.945933 -0.224284
vn -0.151962 0.961188 -0.230271
vn -0.151962 0.961188 -0.230271
vn -0.236236 0.945495 -0.224125
vn -0.264875 0.956164 0.124866
vn -0.264875 0.956164 0.124866
vn -0.264875 0.956164 0.124866
vn -0.264875 0.956164 0.124866
vn -0.219443 0.956164 0.193896
vn -0.219443 0.956164 0.193896
vn -0.219443 0.956164 0.193896
vn -0.219443 0.956164 0.193896
vn 0.279030 0.863462 0.420210
vn 0.279030 0.863462 0.420210
vn 0.272751 0.820236 0.502811
vn 0.272603 0.819311 0.504397
vn 0.282193 0.634017 0.719992
vn 0.282193 0.634017 0.719993
vn 0.282193 0.634017 0.719992
vn 0.282193 0.634017 0.719993
vn 0.561214 0.586451 0.584050
vn 0.561214 0.586451 0.584050
vn 0.561214 0.586451 0.584050
vn 0.561214 0.586451 0.584050
vn 0.745786 0.621977 0.238638
vn 0.745786 0.621977 0.238638
vn 0.745786 0.621977 0.238638
vn 0.745786 0.621977 0.238638
vn 0.739022 0.633555 -0.229030
vn 0.739022 0.633555 -0.229030
vn 0.739022 0.633555 -0.229030
vn 0.739022 0.633555 -0.229030
vn 0.502635 0.633555 -0.588189
vn 0.502635 0.633555 -0.588189
vn 0.502635 0.633555 -0.588189
vn 0.502635 0.633555 -0.588189
vn 0.075772 0.621978 -0.779360
vn 0.075772 0.621978 -0.779360
vn 0.075772 0.621978 -0.779360
vn 0.075772 0.621978 -0.779360
vn -0.314475 0.586451 -0.746446
vn -0.314475 0.586451 -0.746446
vn -0.314475 0.586451 -0.746446
vn -0.314475 0.586451 -0.746446
vn -0.549685 0.634017 -0.543938
vn -0.549685 0.634017 -0.543938
vn -0.549685 0.634017 -0.543938
vn -0.549685 0.634017 -0.543938
vn -0.328802 0.863921 -0.381482
vn -0.262131 0.885251 -0.384212
vn -0.262131 0.885251 -0.384212
vn -0.329218 0.863773 -0.381459
vn -0.511658 0.824637 0.241204
vn -0.511658 0.824637 0.241204
vn -0.511658 0.824637 0.241204
vn -0.511658 0.824637 0.241204
vn -0.423896 0.824637 0.374547
vn -0.423896 0.824637 0.374547
vn -0.423896 0.824637 0.374547
vn -0.423896 0.824637 0.374547
vn 0.031538 0.971098 0.236587
vn 0.055808 0.994660 0.086819
vn 0.031912 0.971628 0.234354
vn -0.092308 0.953848 0.285750
vn -0.092308 0.953848 0.285750
vn -0.092308 0.953848 0.285750
vn 0.062076 0.996925 0.047831
vn 0.062077 0.996925 0.047831
vn 0.062076 0.996925 0.047831
vn 0.063888 0.996331 0.056946
vn 0.063888 0.996331 0.056946
vn 0.063888 0.996331 0.056946
vn 0.035958 0.999294 -0.010872
vn 0.035958 0.999294 -0.010872
vn 0.035958 0.999294 -0.010872
vn 0.024207 0.999294 -0.028726
vn 0.024207 0.999294 -0.028726
vn 0.024207 0.999294 -0.028726
vn -0.027036 0.996331 -0.081201
vn -0.027036 0.996331 -0.081201
vn -0.027036 0.996331 -0.081201
vn -0.019381 0.996925 -0.075932
vn -0.019381 0.996925 -0.075932
vn -0.019381 0.996925 -0.075932
vn -0.298960 0.953848 -0.028230
vn -0.298960 0.953848 -0.028230
vn -0.298960 0.953848 -0.028230
vn -0.043417 0.997238 -0.060254
vn -0.178258 0.981112 -0.075128
vn -0.176680 0.981410 -0.074960
vn -0.008938 0.999958 -0.001899
vn -0.063737 0.997868 0.014065
vn -0.062710 0.997937 0.013766
vn -0.008938 0.999958 -0.001899
vn 0.001509 0.999913 0.013113
vn -0.026143 0.997363 0.067709
vn -0.026944 0.997233 0.069291
vn 0.001509 0.999913 0.013113
vn -0.725999 0.582951 -0.364819
vn -0.725999 0.582951 -0.364819
vn -0.620358 0.687163 -0.378104
vn -0.628241 0.680331 -0.377444
vn -0.596837 0.797318 -0.089830
vn -0.596837 0.797318 -0.089830
vn -0.487339 0.861754 -0.140999
vn -0.500434 0.855148 -0.135233
vn -0.308718 0.918727 0.246238
vn -0.322237 0.898154 0.299136
vn -0.322237 0.898154 0.299136
vn -0.306178 0.922092 0.236644
vn -0.227591 0.970517 0.079370
vn -0.398431 0.902365 0.164284
vn -0.220540 0.972421 0.075894
vn -0.128027 0.969247 0.210167
vn -0.270650 0.894787 0.355113
vn -0.136963 0.965983 0.219356
vn -0.400700 0.897837 0.182561
vn -0.400700 0.897837 0.182561
vn -0.347457 0.916921 0.196290
vn -0.334034 0.921184 0.199600
vn -0.049749 0.840995 0.538751
vn -0.156080 0.781005 0.604707
vn -0.156080 0.781005 0.604707
vn -0.066931 0.832432 0.550070
vn 0.111971 0.629559 0.768842
vn 0.035113 0.532713 0.845567
vn 0.035113 0.532713 0.845567
vn 0.102723 0.618460 0.779073
vn -0.455467 0.552358 -0.698176
vn -0.480559 0.454001 -0.750297
vn -0.480559 0.454001 -0.750297
vn -0.455143 0.553453 -0.697521
vn -0.355425 0.787410 -0.503645
vn -0.285888 0.773505 -0.565649
vn -0.286271 0.773822 -0.565021
vn -0.355370 0.787414 -0.503678
vn -0.526144 0.781948 -0.334260
vn -0.526095 0.781952 -0.334329
vn -0.637245 0.770638 0.006032
vn -0.637232 0.770651 0.005715
vn -0.542132 0.760774 0.356814
vn -0.542132 0.760774 0.356814
vn -0.257567 0.770638 0.582904
vn -0.257270 0.770651 0.583018
vn 0.098921 0.781947 0.615445
vn 0.099003 0.781951 0.615428
vn 0.327404 0.782380 0.529799
vn 0.327495 0.782380 0.529744
vn 0.426344 0.748273 0.508250
vn 0.425605 0.748792 0.508106
vn 0.522928 0.409442 0.747599
vn 0.492120 0.497645 0.714260
vn 0.491528 0.499169 0.713604
vn 0.522928 0.409442 0.747599
vn 0.736514 0.472538 -0.483999
vn 0.820765 0.464460 -0.332597
vn 0.820765 0.464460 -0.332597
vn 0.736683 0.472536 -0.483743
vn 0.630010 0.466388 -0.620942
vn 0.630010 0.466388 -0.620942
vn 0.460857 0.652933 0.601074
vn 0.460780 0.655326 0.598523
vn -0.353527 0.702191 -0.618018
vn -0.350998 0.704315 -0.617042
s 1
g pSphere13
usemtl initialShadingGroup
f 56/1/1 57/73/2 58/74/3 59/14/4
s off
f 60/2/5 61/3/6 62/16/7 63/15/8
f 61/3/9 64/4/10 65/17/11 62/16/12
f 64/4/13 66/5/14 67/18/15 65/17/16
f 66/5/17 68/6/18 69/19/19 67/18/20
f 68/6/21 70/7/22 71/20/23 69/19/24
f 70/7/25 72/8/26 73/21/27 71/20/28
f 72/8/29 74/9/30 75/22/31 73/21/32
f 74/9/33 76/10/34 77/23/35 75/22/36
s 2
f 78/65/37 79/66/38 80/11/39 81/24/40
s off
f 80/11/41 82/12/42 83/25/43 81/24/44
f 82/12/45 56/13/46 59/26/47 83/25/48
s 3
f 59/14/49 58/74/50 84/151/51 85/152/52
s off
f 63/15/53 62/16/54 86/153/55 87/154/56
f 62/16/57 65/17/58 88/155/59 86/153/60
f 65/17/61 67/18/62 89/156/63 88/155/64
f 67/18/65 69/19/66 90/157/67 89/156/68
f 69/19/69 71/20/70 91/158/71 90/157/72
f 71/20/73 73/21/74 92/159/75 91/158/76
f 73/21/77 75/22/78 93/160/79 92/159/80
f 75/22/81 77/23/82 94/161/83 93/160/84
s 4
f 95/163/85 78/65/86 81/24/87 96/162/88
s off
f 81/24/89 83/25/90 97/164/91 96/162/92
f 83/25/93 59/26/94 85/165/95 97/164/96
s 5
f 98/72/97 57/73/98 56/1/99
s off
f 61/3/100 60/2/101 99/41/102
f 64/4/103 61/3/104 99/42/105
f 66/5/106 64/4/107 99/43/108
f 68/6/109 66/5/110 99/44/111
f 70/7/112 68/6/113 99/45/114
f 72/8/115 70/7/116 99/46/117
f 74/9/118 72/8/119 99/47/120
f 76/10/121 74/9/122 99/48/123
s 6
f 80/11/124 79/66/125 100/67/126
s 7
f 82/12/127 80/11/128 100/68/129 101/69/130
s 8
f 56/13/131 82/12/132 101/70/133 98/71/134
s 4
f 77/23/135 102/53/136 103/166/137 94/161/138
s 2
f 76/10/139 104/54/140 102/53/141 77/23/142
s 6
f 105/55/143 104/54/144 76/10/145 99/49/146
s 7
f 106/57/147 105/56/148 99/50/149
s 8
f 107/59/150 106/58/151 99/51/152
s 5
f 60/2/153 108/61/154 107/60/155 99/40/156
s 1
f 109/62/157 108/61/158 60/2/159 63/15/160
s 3
f 110/167/161 109/62/162 63/15/163 87/154/164
s 4
f 103/166/137 102/53/136 78/65/86 95/163/85
s 2
f 102/53/141 104/54/140 79/66/38 78/65/37
s 6
f 100/67/126 79/66/125 104/54/144 105/55/143
s 7
f 101/69/130 100/68/129 105/56/148 106/57/147
s 8
f 98/71/134 101/70/133 106/58/151 107/59/150
s 5
f 107/60/155 108/61/154 57/73/98 98/72/97
s 1
f 58/74/3 57/73/2 108/61/158 109/62/157
s 3
f 84/151/51 58/74/50 109/62/162 110/167/161
s 9
f 1/76/165 13/79/166 54/78/167 53/77/168
s off
f 2/80/169 14/83/170 15/82/171 3/81/172
f 3/81/173 15/82/174 16/85/175 4/84/176
f 4/84/177 16/85/178 17/87/179 5/86/180
f 5/86/181 17/87/182 18/89/183 6/88/184
f 6/88/185 18/89/186 19/91/187 7/90/188
f 7/90/189 19/91/190 20/93/191 8/92/192
f 8/92/193 20/93/194 21/95/195 9/94/196
f 9/94/197 21/95/198 22/97/199 10/96/200
s 10
f 48/98/201 23/101/202 11/100/203 49/99/204
s off
f 11/100/205 23/101/206 24/103/207 12/102/208
f 12/102/209 24/103/210 13/105/211 1/104/212
s 11
f 13/79/213 25/107/214 55/106/215 54/78/216
s off
f 14/83/217 26/109/218 27/108/219 15/82/220
f 15/82/221 27/108/222 28/110/223 16/85/224
f 16/85/225 28/110/226 29/111/227 17/87/228
f 17/87/229 29/111/230 30/112/231 18/89/232
f 18/89/233 30/112/234 31/113/235 19/91/236
f 19/91/237 31/113/238 32/114/239 20/93/240
f 20/93/241 32/114/242 33/115/243 21/95/244
f 21/95/245 33/115/246 34/116/247 22/97/248
s 12
f 47/117/249 35/118/250 23/101/251 48/98/252
s off
f 23/101/253 35/118/254 36/119/255 24/103/256
f 24/103/257 36/119/258 25/120/259 13/105/260
s 13
f 52/121/261 1/76/262 53/77/263
s off
f 3/81/264 37/122/265 2/80/266
f 4/84/267 37/123/268 3/81/269
f 5/86/270 37/124/271 4/84/272
f 6/88/273 37/125/274 5/86/275
f 7/90/276 37/126/277 6/88/278
f 8/92/279 37/127/280 7/90/281
f 9/94/282 37/128/283 8/92/284
f 10/96/285 37/129/286 9/94/287
s 14
f 11/100/288 50/130/289 49/99/290
s 15
f 12/102/291 51/132/292 50/131/293 11/100/294
s 16
f 1/104/295 52/134/296 51/133/297 12/102/298
s 12
f 22/97/299 34/116/300 38/136/301 39/135/302
s 10
f 10/96/303 22/97/304 39/135/305 40/137/306
s 14
f 41/138/307 37/139/308 10/96/309 40/137/310
s 15
f 42/140/311 37/142/312 41/141/313
s 16
f 43/143/314 37/145/315 42/144/316
s 13
f 2/80/317 37/148/318 43/147/319 44/146/320
s 9
f 45/149/321 14/83/322 2/80/323 44/146/324
s 11
f 46/150/325 26/109/326 14/83/327 45/149/328
s 12
f 38/136/301 47/117/249 48/98/252 39/135/302
s 10
f 39/135/305 48/98/201 49/99/204 40/137/306
s 14
f 50/130/289 41/138/307 40/137/310 49/99/290
s 15
f 51/132/292 42/140/311 41/141/313 50/131/293
s 16
f 52/134/296 43/143/314 42/144/316 51/133/297
s 13
f 43/147/319 52/121/261 53/77/263 44/146/320
s 9
f 54/78/167 45/149/321 44/146/324 53/77/168
s 11
f 55/106/215 46/150/325 45/149/328 54/78/216
s 17
f 55/75/329 25/27/330 85/152/331 84/151/332
f 27/29/333 26/28/334 87/154/335 86/153/336
f 28/30/337 27/29/333 86/153/336 88/155/338
f 29/31/339 28/30/337 88/155/338 89/156/340
f 30/32/341 29/31/339 89/156/340 90/157/342
f 31/33/343 30/32/341 90/157/342 91/158/344
f 32/34/345 31/33/343 91/158/344 92/159/346
f 33/35/347 32/34/345 92/159/346 93/160/348
f 34/36/349 33/35/347 93/160/348 94/161/350
f 35/37/351 47/64/352 95/163/353 96/162/354
s 20
f 36/38/355 35/37/356 96/162/357 97/164/358
f 25/39/359 36/38/355 97/164/358 85/165/360
s 17
f 38/52/361 34/36/349 94/161/350 103/166/362
f 26/28/334 46/63/363 110/167/364 87/154/335
f 47/64/352 38/52/361 103/166/362 95/163/353
f 46/63/363 55/75/329 84/151/332 110/167/364
