# Blender v2.90.0 OBJ File: 'cutting_board.blend'
# www.blender.org
mtllib cutting_board.mtl
o Cube
v 3.387089 0.227346 -2.126935
v 3.387089 0.319154 -2.035128
v 3.478896 0.227346 -2.035128
v 3.387089 0.135539 -2.035128
v 3.387089 0.227346 -2.126935
v 3.478896 0.227346 -2.035128
v 3.478896 0.227346 2.035128
v 3.387089 0.319154 2.035128
v 3.387089 0.227346 2.126935
v 3.478896 0.227346 2.035128
v 3.387089 0.227346 2.126935
v 3.387089 0.135539 2.035128
v -3.387089 0.227346 -2.126935
v -3.478896 0.227346 -2.035128
v -3.387089 0.319154 -2.035128
v -3.478896 0.227346 -2.035128
v -3.387089 0.227346 -2.126935
v -3.387089 0.135539 -2.035128
v -3.478896 0.227346 2.035128
v -3.387089 0.227346 2.126935
v -3.387089 0.319154 2.035128
v -3.387089 0.135539 2.035128
v -3.387089 0.227346 2.126935
v -3.478896 0.227346 2.035128
vt 0.128299 0.505395
vt 0.371701 0.505396
vt 0.371701 0.744605
vt 0.128299 0.744604
vt 0.500000 0.005396
vt 0.500000 0.005396
vt 0.500000 0.244604
vt 0.500000 0.244604
vt 0.500000 0.753299
vt 0.500000 0.753299
vt 0.500000 0.996701
vt 0.500000 0.996701
vt 0.628299 0.505395
vt 0.871701 0.505396
vt 0.871701 0.744605
vt 0.628299 0.744604
vt 0.500000 0.505396
vt 0.500000 0.505396
vt 0.500000 0.744605
vt 0.500000 0.744605
vt 0.628299 0.500000
vt 0.625000 0.505396
vt 0.625000 0.505396
vt 0.375000 0.496701
vt 0.375000 0.496701
vt 0.500000 0.500000
vt 0.625000 0.744605
vt 0.625000 0.744605
vt 0.628299 0.750000
vt 0.500000 0.750000
vt 0.375000 0.753299
vt 0.375000 0.753299
vt 0.500000 0.250000
vt 0.625000 0.244605
vt 0.625000 0.244605
vt 0.500000 0.250000
vt 0.375000 0.244604
vt 0.500000 0.000000
vt 0.625000 0.005396
vt 0.375000 0.005396
vt 0.500000 0.000000
vt 0.375000 0.005395
vt 0.125000 0.744605
vt 0.125000 0.505396
vt 0.128299 0.500000
vt 0.371701 0.500000
vt 0.500000 0.496701
vt 0.500000 0.496701
vt 0.500000 0.253299
vt 0.500000 0.253299
vt 0.871701 0.750000
vt 0.371701 0.750000
vt 0.128299 0.750000
vt 0.875000 0.505396
vt 0.875000 0.744605
vt 0.871701 0.500000
vn 0.0000 -1.0000 0.0000
vn 0.0000 0.0000 1.0000
vn 0.0000 1.0000 0.0000
vn 0.5773 0.5773 -0.5774
vn 0.5773 -0.5773 -0.5774
vn 0.5773 0.5773 0.5774
vn 0.5773 -0.5773 0.5774
vn -0.5773 0.5773 -0.5774
vn -0.5773 -0.5773 -0.5774
vn -0.5773 0.5773 0.5774
vn -0.5773 -0.5773 0.5774
vn -0.7071 -0.7071 0.0000
vn 0.0000 -0.7071 -0.7071
vn 0.0000 0.7071 0.7071
vn 0.7071 0.7071 0.0000
vn 0.0000 -0.7071 0.7071
vn -0.7071 0.7071 0.0000
vn 0.0000 0.7071 -0.7071
vn 0.7071 -0.7071 0.0000
usemtl Material
s off
f 18/1/1 4/2/1 12/3/1 22/4/1
f 24/5/2 19/6/2 14/7/2 16/8/2
f 11/9/2 9/10/2 20/11/2 23/12/2
f 2/13/3 15/14/3 21/15/3 8/16/3
f 6/17/2 3/18/2 7/19/2 10/20/2
f 1/21/4 2/22/4 3/23/4
f 4/24/5 5/25/5 6/26/5
f 7/27/6 8/28/6 9/29/6
f 10/30/7 11/31/7 12/32/7
f 13/33/8 14/34/8 15/35/8
f 16/8/9 17/36/9 18/37/9
f 19/6/10 20/38/10 21/39/10
f 22/40/11 23/41/11 24/42/11
f 18/1/12 22/4/12 24/43/12 16/44/12
f 4/2/13 18/1/13 17/45/13 5/46/13
f 3/18/2 6/17/2 5/47/2 1/48/2
f 23/41/2 20/38/2 19/6/2 24/5/2
f 9/10/2 11/9/2 10/20/2 7/19/2
f 13/49/2 17/50/2 16/8/2 14/7/2
f 8/16/14 21/15/14 20/51/14 9/29/14
f 2/13/15 8/16/15 7/19/15 3/18/15
f 22/4/16 12/3/16 11/52/16 23/53/16
f 21/15/17 15/14/17 14/54/17 19/55/17
f 15/14/18 2/13/18 1/21/18 13/56/18
f 12/3/19 4/2/19 6/17/19 10/20/19
f 17/50/2 13/49/2 1/48/2 5/47/2
