# This file uses centimeters as units for non-parametric coordinates.

mtllib Kitchen_rack.mtl
g default
v -2.217452 4.735974 0.993707
v -2.217452 4.518952 0.993707
v 2.205555 4.735974 0.993707
v 2.205555 4.518952 0.993707
v 2.205555 4.735974 -0.999656
v 2.205555 4.518952 -0.999656
v -2.217452 4.735974 -0.999656
v -2.217452 4.518952 -0.999656
v -1.999028 4.735974 -0.999656
v -1.999028 4.735974 0.993707
v -1.999028 4.518952 0.993707
v -1.999028 4.518952 -0.999656
v 2.000737 4.735974 -0.999656
v 2.000737 4.735974 0.993707
v 2.000737 4.518952 0.993707
v 2.000737 4.518952 -0.999656
v 2.000737 4.735974 -0.814751
v 2.205555 4.735974 -0.814751
v 2.205555 4.518952 -0.814751
v 2.000737 4.518952 -0.814751
v -1.999028 4.518952 -0.814751
v -2.217452 4.518952 -0.814751
v -2.217452 4.735974 -0.814751
v -1.999028 4.735974 -0.814751
v 2.000737 4.735974 0.800970
v 2.205555 4.735974 0.800970
v 2.205555 4.518952 0.800970
v 2.000737 4.518952 0.800970
v -1.999028 4.518952 0.800970
v -2.217452 4.518952 0.800970
v -2.217452 4.735974 0.800970
v -1.999028 4.735974 0.800970
v -2.216419 2.198354 0.994444
v -2.216419 1.987243 0.994444
v 2.210137 2.198354 0.994444
v 2.210137 1.987243 0.994444
v 2.210137 2.198354 -0.994444
v 2.210137 1.987243 -0.994444
v -2.216419 2.198354 -0.994444
v -2.216419 1.987243 -0.994444
v -2.216419 2.198354 -0.812519
v 2.210137 2.198354 -0.812519
v 2.210137 1.987243 -0.812519
v -2.216419 1.987243 -0.812519
v -2.216419 2.198354 0.801698
v 2.210137 2.198354 0.801698
v 2.210137 1.987243 0.801698
v -2.216419 1.987243 0.801698
v -2.002314 2.198354 -0.994444
v -2.002314 2.198354 -0.812519
v -2.002314 2.198354 0.801698
v -2.002314 2.198354 0.994444
v -2.002314 1.987243 0.994444
v -2.002314 1.987243 0.801698
v -2.002314 1.987243 -0.812519
v -2.002314 1.987243 -0.994444
v 2.004962 2.198354 -0.812519
v 2.004962 2.198354 -0.994444
v 2.004962 1.987243 -0.994444
v 2.004962 1.987243 -0.812519
v 2.004962 1.987243 0.801698
v 2.004962 1.987243 0.994444
v 2.004962 2.198354 0.994444
v 2.004962 2.198354 0.801698
v -2.216419 1.005289 -0.994444
v -2.216419 1.005289 -0.812519
v -2.002314 1.005289 -0.994444
v -2.002314 1.005289 -0.812519
v 2.004962 1.005289 -0.994444
v 2.004962 1.005289 -0.812519
v 2.210137 1.005289 -0.994444
v 2.210137 1.005289 -0.812519
v -2.002314 2.198354 2.676387
v -2.002314 1.987243 2.676387
v 2.004962 1.987243 2.676387
v 2.004962 2.198354 2.676387
v -2.216419 2.198354 2.676387
v -2.216419 1.987243 2.676387
v 2.210137 1.987243 2.676387
v 2.210137 2.198354 2.676387
v -2.002314 2.198354 2.466059
v 2.004962 2.198354 2.466059
v 2.210137 2.198354 2.466059
v 2.210137 1.987243 2.466059
v 2.004962 1.987243 2.466059
v -2.002314 1.987243 2.466059
v -2.216419 1.987243 2.466059
v -2.216419 2.198354 2.466059
v 2.210137 1.009994 2.466059
v 2.004962 1.009994 2.466059
v 2.210137 1.009994 2.676387
v 2.004962 1.009994 2.676387
v -2.002314 1.009994 2.466059
v -2.216419 1.009994 2.466059
v -2.002314 1.009994 2.676387
v -2.216419 1.009994 2.676387
v 2.000737 5.997923 -0.999656
v 2.000737 5.997923 -0.814751
v 2.205555 5.997923 -0.814751
v 2.205555 5.997923 -0.999656
v -2.217452 5.997923 -0.999656
v -2.217452 5.997923 -0.814751
v -1.999028 5.997923 -0.814751
v -1.999028 5.997923 -0.999656
v 2.000737 5.997923 0.800970
v 2.000737 5.997923 0.993707
v 2.205555 5.997923 0.993707
v 2.205555 5.997923 0.800970
v -2.217452 5.997923 0.800970
v -1.999028 5.997923 0.800970
v -2.217452 5.997923 0.993707
v -1.999028 5.997923 0.993707
vt 0.375000 0.000000
vt 0.625000 0.000000
vt 0.375000 0.250000
vt 0.625000 0.250000
vt 0.375000 0.500000
vt 0.625000 0.500000
vt 0.375000 0.750000
vt 0.625000 0.750000
vt 0.375000 1.000000
vt 0.625000 1.000000
vt 0.125000 0.000000
vt 0.125000 0.250000
vt 0.125000 0.012346
vt 0.375000 0.737654
vt 0.375000 0.012346
vt 0.625000 0.012346
vt 0.625000 0.737654
vt 0.875000 0.012346
vt 0.125000 0.238423
vt 0.375000 0.511577
vt 0.375000 0.238423
vt 0.625000 0.238423
vt 0.625000 0.511577
vt 0.875000 0.238423
vt 0.148190 0.238423
vt 0.148190 0.250000
vt 0.375000 0.476810
vt 0.625000 0.476810
vt 0.851810 0.250000
vt 0.851810 0.238423
vt 0.851810 0.012346
vt 0.625000 0.773190
vt 0.851810 0.000000
vt 0.148190 0.000000
vt 0.375000 0.773190
vt 0.148190 0.012346
vt 0.350828 0.238423
vt 0.350828 0.250000
vt 0.375000 0.274172
vt 0.625000 0.274172
vt 0.649172 0.250000
vt 0.649172 0.238423
vt 0.649172 0.012346
vt 0.625000 0.975828
vt 0.649172 0.000000
vt 0.350828 0.000000
vt 0.375000 0.975828
vt 0.350828 0.012346
vt 0.375000 0.014578
vt 0.625000 0.014578
vt 0.625000 0.235568
vt 0.375000 0.235568
vt 0.375000 0.477132
vt 0.625000 0.477132
vt 0.625000 0.500000
vt 0.375000 0.500000
vt 0.375000 0.514432
vt 0.625000 0.514432
vt 0.625000 0.735422
vt 0.375000 0.735422
vt 0.375000 0.750000
vt 0.625000 0.750000
vt 0.625000 0.772868
vt 0.375000 0.772868
vt 0.852132 0.014578
vt 0.875000 0.014578
vt 0.875000 0.235568
vt 0.852132 0.235568
vt 0.125000 0.014578
vt 0.147868 0.014578
vt 0.147868 0.235568
vt 0.125000 0.235568
vt 0.350772 0.014578
vt 0.350772 0.235568
vt 0.375000 0.274228
vt 0.625000 0.274228
vt 0.649228 0.014578
vt 0.649228 0.235568
vt 0.625000 0.975772
vt 0.375000 0.975772
vt 0.375000 0.250000
vt 0.625000 0.250000
vt 0.625000 1.000000
vt 0.375000 1.000000
vt 0.147868 0.000000
vt 0.350772 0.000000
vt 0.375000 0.000000
vt 0.625000 0.000000
vt 0.649228 0.000000
vt 0.852132 0.000000
vt 0.852132 0.000000
vt 0.875000 0.000000
vt 0.875000 0.014578
vt 0.852132 0.014578
vt 0.852132 0.235568
vt 0.875000 0.235568
vt 0.875000 0.250000
vt 0.852132 0.250000
vt 0.852132 0.250000
vt 0.649228 0.250000
vt 0.350772 0.250000
vt 0.147868 0.250000
vt 0.875000 0.000000
vt 0.875000 0.250000
vt 0.125000 0.000000
vt 0.125000 0.250000
vt 0.625000 0.014578
vt 0.625000 0.235568
vt 0.375000 0.235568
vt 0.375000 0.014578
vt 0.375000 0.000000
vt 0.625000 0.000000
vt 0.625000 0.250000
vt 0.375000 0.250000
vt 0.375000 0.014578
vt 0.375000 0.235568
vt 0.375000 0.250000
vt 0.625000 0.250000
vt 0.625000 0.235568
vt 0.625000 0.014578
vt 0.625000 0.000000
vt 0.375000 0.000000
vt 0.625000 0.235568
vt 0.625000 0.250000
vt 0.625000 0.250000
vt 0.625000 0.235568
vt 0.625000 0.000000
vt 0.625000 0.014578
vt 0.625000 0.014578
vt 0.625000 0.000000
vt 0.125000 0.238423
vt 0.148190 0.238423
vt 0.148190 0.250000
vt 0.125000 0.250000
vt 0.125000 0.000000
vt 0.148190 0.000000
vt 0.148190 0.012346
vt 0.125000 0.012346
vt 0.350828 0.238423
vt 0.375000 0.238423
vt 0.375000 0.250000
vt 0.350828 0.250000
vt 0.350828 0.012346
vt 0.350828 0.000000
vt 0.375000 0.000000
vt 0.375000 0.012346
vn 0.000000 0.000000 1.000000
vn 0.000000 0.000000 1.000000
vn 0.000000 0.000000 1.000000
vn 0.000000 0.000000 1.000000
vn 1.000000 0.000000 0.000000
vn 1.000000 0.000000 0.000000
vn 1.000000 0.000000 0.000000
vn 1.000000 0.000000 0.000000
vn 0.000000 0.000000 -1.000000
vn 0.000000 0.000000 -1.000000
vn 0.000000 0.000000 -1.000000
vn 0.000000 0.000000 -1.000000
vn -1.000000 0.000000 0.000000
vn -1.000000 0.000000 0.000000
vn -1.000000 0.000000 0.000000
vn -1.000000 0.000000 0.000000
vn 0.000000 1.000000 0.000000
vn 0.000000 1.000000 0.000000
vn 0.000000 1.000000 0.000000
vn 0.000000 1.000000 0.000000
vn 0.000000 1.000000 0.000000
vn 0.000000 1.000000 0.000000
vn 0.000000 1.000000 0.000000
vn 0.000000 1.000000 0.000000
vn 0.000000 0.000000 1.000000
vn 0.000000 0.000000 1.000000
vn 0.000000 0.000000 1.000000
vn 0.000000 0.000000 1.000000
vn 0.000000 0.000000 -1.000000
vn 0.000000 0.000000 -1.000000
vn 0.000000 0.000000 -1.000000
vn 0.000000 0.000000 -1.000000
vn 0.000000 1.000000 0.000000
vn 0.000000 1.000000 -0.000000
vn 0.000000 1.000000 -0.000000
vn 0.000000 1.000000 0.000000
vn 0.000000 -1.000000 0.000000
vn 0.000000 -1.000000 0.000000
vn 0.000000 -1.000000 0.000000
vn 0.000000 -1.000000 0.000000
vn 0.000000 1.000000 -0.000000
vn 0.000000 1.000000 0.000000
vn 0.000000 1.000000 0.000000
vn 1.000000 0.000000 0.000000
vn 1.000000 0.000000 0.000000
vn 0.000000 -1.000000 0.000000
vn 0.000000 -1.000000 0.000000
vn 0.000000 -1.000000 0.000000
vn 0.000000 -1.000000 0.000000
vn 0.000000 -1.000000 0.000000
vn 0.000000 -1.000000 0.000000
vn -1.000000 0.000000 0.000000
vn -1.000000 0.000000 0.000000
vn 0.000000 1.000000 -0.000000
vn 0.000000 1.000000 -0.000000
vn 0.000000 1.000000 -0.000000
vn 0.000000 1.000000 0.000000
vn 0.000000 1.000000 0.000000
vn 0.000000 1.000000 0.000000
vn 0.000000 1.000000 0.000000
vn 1.000000 0.000000 0.000000
vn 1.000000 0.000000 0.000000
vn 0.000000 -1.000000 0.000000
vn 0.000000 -1.000000 0.000000
vn -1.000000 0.000000 0.000000
vn -1.000000 0.000000 0.000000
vn 0.000000 1.000000 -0.000000
vn 0.000000 1.000000 -0.000000
vn 0.000000 1.000000 -0.000000
vn 0.000000 1.000000 -0.000000
vn 0.000000 1.000000 0.000000
vn 0.000000 1.000000 0.000000
vn 0.000000 0.000000 1.000000
vn 0.000000 0.000000 1.000000
vn 0.000000 0.000000 1.000000
vn 0.000000 0.000000 1.000000
vn 1.000000 0.000000 0.000000
vn 1.000000 0.000000 0.000000
vn 1.000000 0.000000 0.000000
vn 1.000000 0.000000 0.000000
vn 0.000000 0.000000 -1.000000
vn 0.000000 0.000000 -1.000000
vn 0.000000 0.000000 -1.000000
vn 0.000000 0.000000 -1.000000
vn -1.000000 0.000000 0.000000
vn -1.000000 0.000000 0.000000
vn -1.000000 0.000000 0.000000
vn -1.000000 0.000000 0.000000
vn 0.000000 -1.000000 0.000000
vn 0.000000 -1.000000 0.000000
vn 0.000000 -1.000000 0.000000
vn 0.000000 -1.000000 0.000000
vn 0.000000 1.000000 0.000000
vn 0.000000 1.000000 0.000000
vn 0.000000 1.000000 0.000000
vn 0.000000 1.000000 0.000000
vn 0.000000 1.000000 0.000000
vn 0.000000 1.000000 0.000000
vn 1.000000 0.000000 0.000000
vn 1.000000 0.000000 0.000000
vn 0.000000 -1.000000 0.000000
vn 0.000000 -1.000000 0.000000
vn -1.000000 0.000000 0.000000
vn -1.000000 0.000000 0.000000
vn 0.000000 1.000000 0.000000
vn 0.000000 1.000000 0.000000
vn 1.000000 0.000000 0.000000
vn 1.000000 0.000000 0.000000
vn 0.000000 -1.000000 0.000000
vn 0.000000 -1.000000 0.000000
vn -1.000000 0.000000 0.000000
vn -1.000000 0.000000 0.000000
vn 0.000000 1.000000 0.000000
vn 0.000000 1.000000 0.000000
vn 0.000000 0.000000 1.000000
vn 0.000000 0.000000 1.000000
vn 0.000000 -1.000000 0.000000
vn 0.000000 -1.000000 0.000000
vn 0.000000 -1.000000 0.000000
vn 0.000000 -1.000000 0.000000
vn 0.000000 -1.000000 0.000000
vn 0.000000 -1.000000 0.000000
vn 0.000000 0.000000 -1.000000
vn 0.000000 0.000000 -1.000000
vn 0.000000 0.000000 -1.000000
vn 0.000000 0.000000 -1.000000
vn 0.000000 -1.000000 0.000000
vn 0.000000 -1.000000 0.000000
vn 0.000000 -1.000000 0.000000
vn 0.000000 -1.000000 0.000000
vn 0.000000 -1.000000 0.000000
vn 0.000000 -1.000000 0.000000
vn 0.000000 0.000000 1.000000
vn 0.000000 0.000000 1.000000
vn 0.000000 1.000000 0.000000
vn 0.000000 1.000000 0.000000
vn -1.000000 0.000000 0.000000
vn -1.000000 0.000000 0.000000
vn -1.000000 0.000000 0.000000
vn -1.000000 0.000000 0.000000
vn 0.000000 0.000000 -1.000000
vn 0.000000 0.000000 -1.000000
vn 0.000000 0.000000 -1.000000
vn 0.000000 0.000000 -1.000000
vn 1.000000 0.000000 0.000000
vn 1.000000 0.000000 0.000000
vn 1.000000 0.000000 0.000000
vn 1.000000 0.000000 0.000000
vn 0.000000 0.000000 1.000000
vn 0.000000 0.000000 1.000000
vn 0.000000 0.000000 1.000000
vn 0.000000 0.000000 1.000000
vn -1.000000 0.000000 0.000000
vn -1.000000 0.000000 0.000000
vn -1.000000 0.000000 0.000000
vn -1.000000 0.000000 0.000000
vn 0.000000 0.000000 -1.000000
vn 0.000000 0.000000 -1.000000
vn 0.000000 0.000000 -1.000000
vn 0.000000 0.000000 -1.000000
vn 1.000000 0.000000 0.000000
vn 1.000000 0.000000 0.000000
vn 1.000000 0.000000 0.000000
vn 1.000000 0.000000 0.000000
vn 0.000000 0.000000 1.000000
vn 0.000000 0.000000 1.000000
vn 0.000000 0.000000 1.000000
vn 0.000000 0.000000 1.000000
vn 0.999999 -0.001416 0.000000
vn 0.999999 -0.001416 0.000000
vn 0.999999 -0.001416 0.000000
vn 0.999999 -0.001416 0.000000
vn 0.999999 -0.001416 -0.000000
vn 0.999999 -0.001416 -0.000000
vn 0.999999 -0.001416 -0.000000
vn 0.999999 -0.001416 -0.000000
vn 0.000000 -0.000314 -1.000000
vn 0.000000 -0.000314 -1.000000
vn 0.000000 -0.000314 -1.000000
vn 0.000000 -0.000314 -1.000000
vn -0.999998 -0.001821 0.000000
vn -0.999998 -0.001821 0.000000
vn -0.999998 -0.001821 0.000000
vn -0.999998 -0.001821 0.000000
vn -0.999998 -0.001821 0.000000
vn -0.999998 -0.001821 0.000000
vn -0.999998 -0.001821 0.000000
vn -0.999998 -0.001821 0.000000
vn 0.000000 -0.000314 -1.000000
vn 0.000000 -0.000314 -1.000000
vn 0.000000 -0.000314 -1.000000
vn 0.000000 -0.000314 -1.000000
vn 0.999998 0.001974 0.000000
vn 0.999998 0.001974 0.000000
vn 0.999998 0.001974 0.000000
vn 0.999998 0.001974 0.000000
vn 0.000000 0.000318 1.000000
vn 0.000000 0.000318 1.000000
vn 0.000000 0.000318 1.000000
vn 0.000000 0.000318 1.000000
vn 0.000000 -0.002246 -0.999998
vn 0.000000 -0.002246 -0.999997
vn 0.000000 -0.002246 -0.999997
vn 0.000000 -0.002246 -0.999998
vn 0.999998 0.001974 0.000000
vn 0.999998 0.001974 0.000000
vn 0.999998 0.001974 0.000000
vn 0.999998 0.001974 0.000000
vn 0.000000 0.000962 1.000000
vn 0.000000 0.000962 1.000000
vn 0.000000 0.000962 1.000000
vn 0.000000 0.000962 1.000000
vn -1.000000 -0.000446 0.000000
vn -1.000000 -0.000446 0.000000
vn -1.000000 -0.000446 0.000000
vn -1.000000 -0.000446 0.000000
vn 0.000000 -0.002246 -0.999998
vn 0.000000 -0.002246 -0.999998
vn 0.000000 -0.002246 -0.999998
vn 0.000000 -0.002246 -0.999997
vn 0.000000 0.000962 1.000000
vn 0.000000 0.000962 1.000000
vn 0.000000 0.000962 1.000000
vn 0.000000 0.000962 1.000000
vn 0.000000 0.000318 1.000000
vn 0.000000 0.000318 1.000000
vn 0.000000 0.000318 1.000000
vn 0.000000 0.000318 1.000000
vn -1.000000 -0.000445 0.000000
vn -1.000000 -0.000445 0.000000
vn -1.000000 -0.000445 0.000000
vn -1.000000 -0.000445 0.000000
vn 0.000000 -1.000000 0.000000
vn 0.000000 -1.000000 0.000000
vn 0.000000 -1.000000 0.000000
vn 0.000000 -1.000000 0.000000
vn 0.000000 -1.000000 0.000000
vn 0.000000 -1.000000 0.000000
vn 0.000000 -1.000000 0.000000
vn 0.000000 -1.000000 0.000000
vn 0.000000 -1.000000 0.000000
vn 0.000000 -1.000000 0.000000
vn 0.000000 -1.000000 0.000000
vn 0.000000 -1.000000 0.000000
vn 0.000000 1.000000 0.000000
vn 0.000000 1.000000 0.000000
vn 0.000000 1.000000 0.000000
vn 0.000000 1.000000 0.000000
vn -1.000000 0.000000 0.000000
vn -1.000000 0.000000 0.000000
vn -1.000000 0.000000 0.000000
vn -1.000000 0.000000 0.000000
vn 0.000000 -1.000000 0.000000
vn 0.000000 -1.000000 0.000000
vn 0.000000 -1.000000 0.000000
vn 0.000000 -1.000000 0.000000
vn 0.000000 1.000000 0.000000
vn 0.000000 1.000000 0.000000
vn 0.000000 1.000000 0.000000
vn 0.000000 1.000000 0.000000
vn 0.000000 -1.000000 0.000000
vn 0.000000 -1.000000 0.000000
vn 0.000000 -1.000000 0.000000
vn 0.000000 -1.000000 0.000000
vn 1.000000 0.000000 0.000000
vn 1.000000 0.000000 0.000000
vn 1.000000 0.000000 0.000000
vn 1.000000 0.000000 0.000000
vn 0.000000 1.000000 0.000000
vn 0.000000 1.000000 0.000000
vn 0.000000 1.000000 0.000000
vn 0.000000 1.000000 0.000000
vn 0.000000 1.000000 0.000000
vn 0.000000 1.000000 0.000000
vn 0.000000 1.000000 0.000000
vn 0.000000 1.000000 0.000000
vn 1.000000 0.000000 0.000000
vn 1.000000 0.000000 0.000000
vn 0.000000 -1.000000 0.000000
vn 0.000000 -1.000000 0.000000
vn 0.000000 -1.000000 0.000000
vn 0.000000 -1.000000 0.000000
vn 0.000000 -1.000000 0.000000
vn 0.000000 -1.000000 0.000000
vn 0.000000 -1.000000 0.000000
vn 0.000000 -1.000000 0.000000
vn 0.000000 -1.000000 0.000000
vn 0.000000 -1.000000 0.000000
vn -1.000000 0.000000 0.000000
vn -1.000000 0.000000 0.000000
vn 0.000000 1.000000 0.000000
vn 0.000000 1.000000 0.000000
vn 0.000000 0.000000 -1.000000
vn 0.000000 0.000000 -1.000000
vn 0.000000 0.000000 -1.000000
vn 0.000000 0.000000 -1.000000
vn 1.000000 0.000000 0.000000
vn 1.000000 0.000000 0.000000
vn 1.000000 0.000000 0.000000
vn 1.000000 0.000000 0.000000
vn 0.000000 0.000000 1.000000
vn 0.000000 0.000000 1.000000
vn 0.000000 0.000000 1.000000
vn 0.000000 0.000000 1.000000
vn -1.000000 0.000000 0.000000
vn -1.000000 0.000000 0.000000
vn -1.000000 0.000000 0.000000
vn -1.000000 0.000000 0.000000
vn 0.000000 0.000000 -1.000000
vn 0.000000 0.000000 -1.000000
vn 0.000000 0.000000 -1.000000
vn 0.000000 0.000000 -1.000000
vn 1.000000 0.000000 0.000000
vn 1.000000 0.000000 0.000000
vn 1.000000 0.000000 0.000000
vn 1.000000 0.000000 0.000000
vn 0.000000 0.000000 1.000000
vn 0.000000 0.000000 1.000000
vn 0.000000 0.000000 1.000000
vn 0.000000 0.000000 1.000000
vn -1.000000 0.000000 0.000000
vn -1.000000 0.000000 0.000000
vn -1.000000 0.000000 0.000000
vn -1.000000 0.000000 0.000000
vn -1.000000 0.000000 0.000000
vn -1.000000 0.000000 0.000000
vn -1.000000 0.000000 0.000000
vn -1.000000 0.000000 0.000000
vn 0.000000 0.000000 1.000000
vn 0.000000 0.000000 1.000000
vn 0.000000 0.000000 1.000000
vn 0.000000 0.000000 1.000000
vn 1.000000 0.000000 0.000000
vn 1.000000 0.000000 0.000000
vn 1.000000 0.000000 0.000000
vn 1.000000 0.000000 0.000000
vn 0.000000 0.000000 -1.000000
vn 0.000000 0.000000 -1.000000
vn 0.000000 0.000000 -1.000000
vn 0.000000 0.000000 -1.000000
vn -1.000000 0.000000 0.000000
vn -1.000000 0.000000 0.000000
vn -1.000000 0.000000 0.000000
vn -1.000000 0.000000 0.000000
vn 0.000000 0.000000 1.000000
vn 0.000000 0.000000 1.000000
vn 0.000000 0.000000 1.000000
vn 0.000000 0.000000 1.000000
vn 1.000000 0.000000 0.000000
vn 1.000000 0.000000 0.000000
vn 1.000000 0.000000 0.000000
vn 1.000000 0.000000 0.000000
vn 0.000000 0.000000 -1.000000
vn 0.000000 0.000000 -1.000000
vn 0.000000 0.000000 -1.000000
vn 0.000000 0.000000 -1.000000
vn -1.000000 0.000000 0.000000
vn -1.000000 0.000000 0.000000
vn -1.000000 0.000000 0.000000
vn -1.000000 0.000000 0.000000
vn 0.000000 0.000000 1.000000
vn 0.000000 0.000000 1.000000
vn 0.000000 0.000000 1.000000
vn 0.000000 0.000000 1.000000
vn 1.000000 0.000000 0.000000
vn 1.000000 0.000000 0.000000
vn 1.000000 0.000000 0.000000
vn 1.000000 0.000000 0.000000
vn 0.000000 0.000000 -1.000000
vn 0.000000 0.000000 -1.000000
vn 0.000000 0.000000 -1.000000
vn 0.000000 0.000000 -1.000000
vn 0.000000 0.000000 -1.000000
vn 0.000000 0.000000 -1.000000
vn 0.000000 0.000000 -1.000000
vn 0.000000 0.000000 -1.000000
vn -1.000000 0.000000 0.000000
vn -1.000000 0.000000 0.000000
vn -1.000000 0.000000 0.000000
vn -1.000000 0.000000 0.000000
vn 0.000000 0.000000 1.000000
vn 0.000000 0.000000 1.000000
vn 0.000000 0.000000 1.000000
vn 0.000000 0.000000 1.000000
vn 1.000000 0.000000 -0.000001
vn 1.000000 0.000000 -0.000001
vn 1.000000 0.000000 -0.000001
vn 1.000000 0.000000 -0.000001
s 1
g pCube9
usemtl initialShadingGroup
f 14/21/1 15/22/2 4/4/3 3/3/4
s 2
f 18/27/5 19/28/6 6/6/7 5/5/8
s 3
f 5/5/9 6/6/10 16/23/11 13/20/12
s 4
f 7/7/13 8/8/14 22/32/15 23/35/16
s off
f 97/131/17 98/132/18 99/133/19 100/134/20
f 101/135/21 102/136/22 103/137/23 104/138/24
s 1
f 1/1/25 2/2/26 11/16/27 10/15/28
s 3
f 9/14/29 12/17/30 8/8/31 7/7/32
s 5
f 9/13/33 24/36/34 17/25/35 13/19/36
s 1
f 10/15/28 11/16/27 15/22/2 14/21/1
s 6
f 21/31/37 12/18/38 16/24/39 20/30/40
s 3
f 13/20/12 16/23/11 12/17/30 9/14/29
s 5
f 17/25/35 25/37/41 26/38/42 18/26/43
s 2
f 26/39/44 27/40/45 19/28/6 18/27/5
s 6
f 28/42/46 20/30/40 19/29/47 27/41/48
f 29/43/49 21/31/37 20/30/40 28/42/46
f 30/45/50 22/33/51 21/31/37 29/43/49
s 4
f 23/35/16 22/32/15 30/44/52 31/47/53
s 5
f 24/36/34 23/34/54 31/46/55 32/48/56
f 17/25/35 24/36/34 32/48/56 25/37/41
s off
f 105/139/57 106/140/58 107/141/59 108/142/60
s 2
f 3/3/61 4/4/62 27/40/45 26/39/44
s 6
f 11/16/63 29/43/49 28/42/46 15/22/64
s 4
f 31/47/53 30/44/52 2/10/65 1/9/66
s off
f 110/143/67 109/144/68 111/145/69 112/146/70
s 5
f 25/37/41 32/48/56 10/15/71 14/21/72
s 7
f 73/110/73 74/107/74 75/108/75 76/109/76
s 8
f 42/53/77 43/54/78 38/55/79 37/56/80
s 9
f 58/57/81 59/58/82 56/59/83 49/60/84
s 10
f 39/61/85 40/62/86 44/63/87 41/64/88
s 11
f 55/65/89 56/66/90 59/67/91 60/68/92
s 12
f 49/69/93 50/70/94 57/71/95 58/72/96
f 50/70/94 51/73/97 64/74/98 57/71/95
s 8
f 46/75/99 47/76/100 43/54/78 42/53/77
s 11
f 54/77/101 55/65/89 60/68/92 61/78/102
s 10
f 41/64/88 44/63/87 48/79/103 45/80/104
s 12
f 51/73/97 52/49/105 63/52/106 64/74/98
s 8
f 35/81/107 36/82/108 47/76/100 46/75/99
s 11
f 53/50/109 54/77/101 61/78/102 62/51/110
s 10
f 45/80/104 48/79/103 34/83/111 33/84/112
s 12
f 41/85/113 45/86/114 51/73/97 50/70/94
s 7
f 77/111/115 78/112/116 74/107/74 73/110/73
s 11
f 48/89/117 44/90/118 55/65/89 54/77/101
s off
f 66/91/119 65/92/120 67/93/121 68/94/122
s 9
f 49/60/84 56/59/83 40/62/123 39/61/124
f 37/56/125 38/55/126 59/58/82 58/57/81
s off
f 70/95/127 69/96/128 71/97/129 72/98/130
s 11
f 61/78/102 60/68/92 43/99/131 47/100/132
s 7
f 76/109/76 75/108/75 79/113/133 80/114/134
s 12
f 57/71/95 64/74/98 46/101/135 42/102/136
s off
f 44/90/137 40/103/138 65/92/139 66/91/140
f 40/103/141 56/66/142 67/93/143 65/92/144
f 56/66/145 55/65/146 68/94/147 67/93/148
f 55/65/149 44/90/150 66/91/151 68/94/152
f 60/68/153 59/67/154 69/96/155 70/95/156
f 59/67/157 38/104/158 71/97/159 69/96/160
f 38/104/161 43/99/162 72/98/163 71/97/164
f 43/99/165 60/68/166 70/95/167 72/98/168
f 50/70/169 49/69/170 12/18/171 21/31/172
f 52/49/173 51/73/174 29/43/175 11/16/176
f 51/73/177 45/86/178 30/45/179 29/43/180
f 58/72/181 57/71/182 20/30/183 16/24/184
f 64/74/185 63/52/186 15/22/187 28/42/188
f 46/101/189 64/74/190 28/42/191 27/41/192
f 46/101/193 27/40/194 4/4/195 35/81/196
f 35/81/197 4/4/198 15/22/199 63/52/200
f 58/72/201 16/23/202 6/6/203 37/106/204
f 37/106/205 6/6/206 19/28/207 42/102/208
f 42/102/209 19/29/210 20/30/211 57/71/212
f 41/85/213 22/32/214 8/8/215 39/105/216
f 39/105/217 8/8/218 12/17/219 49/69/220
f 50/70/221 21/31/222 22/33/223 41/85/224
f 52/49/225 11/16/226 2/2/227 33/87/228
f 33/87/229 2/10/230 30/44/231 45/86/232
f 47/76/233 36/82/234 62/51/235 61/78/236
f 53/50/237 34/83/238 48/89/239 54/77/240
s 13
f 53/50/241 62/51/242 85/119/243 86/120/244
s 14
f 63/52/245 52/49/246 81/115/247 82/116/248
s 15
f 33/87/249 34/88/250 87/121/251 88/122/252
s off
f 34/88/253 53/50/254 86/120/255 87/121/256
s 16
f 52/49/257 33/87/258 88/122/259 81/115/260
s off
f 62/51/261 36/82/262 84/118/263 85/119/264
s 17
f 36/82/265 35/81/266 83/117/267 84/118/268
s 18
f 35/81/269 63/52/270 82/116/271 83/117/272
s 14
f 82/116/248 81/115/247 73/110/273 76/109/274
s 18
f 83/117/272 82/116/271 76/109/275 80/114/276
s 17
f 84/118/268 83/117/267 80/114/277 79/113/278
s off
f 90/123/279 89/124/280 91/125/281 92/126/282
s 13
f 86/120/244 85/119/243 75/108/283 74/107/284
s off
f 94/127/285 93/128/286 95/129/287 96/130/288
s 15
f 88/122/252 87/121/251 78/112/289 77/111/290
s 16
f 81/115/260 88/122/259 77/111/291 73/110/292
s off
f 85/119/293 84/118/294 89/124/295 90/123/296
f 84/118/297 79/113/298 91/125/299 89/124/300
f 79/113/301 75/108/302 92/126/303 91/125/304
f 75/108/305 85/119/306 90/123/307 92/126/308
f 87/121/309 86/120/310 93/128/311 94/127/312
f 86/120/313 74/107/314 95/129/315 93/128/316
f 74/107/317 78/112/318 96/130/319 95/129/320
f 78/112/321 87/121/322 94/127/323 96/130/324
f 13/19/325 17/25/326 98/132/327 97/131/328
f 17/25/329 18/26/330 99/133/331 98/132/332
f 18/26/333 5/12/334 100/134/335 99/133/336
f 5/12/337 13/19/338 97/131/339 100/134/340
f 7/11/341 23/34/342 102/136/343 101/135/344
f 23/34/345 24/36/346 103/137/347 102/136/348
f 24/36/349 9/13/350 104/138/351 103/137/352
f 9/13/353 7/11/354 101/135/355 104/138/356
f 25/37/357 14/21/358 106/140/359 105/139/360
f 14/21/361 3/3/362 107/141/363 106/140/364
f 3/3/365 26/38/366 108/142/367 107/141/368
f 26/38/369 25/37/370 105/139/371 108/142/372
f 32/48/373 31/46/374 109/144/375 110/143/376
f 31/46/377 1/1/378 111/145/379 109/144/380
f 1/1/381 10/15/382 112/146/383 111/145/384
f 10/15/385 32/48/386 110/143/387 112/146/388
