# This file uses centimeters as units for non-parametric coordinates.

mtllib Kitchen_smoke_dector.mtl
g default
v 6.093024 -0.769138 -3.517809
v 3.517809 -0.769138 -6.093024
v 0.000000 -0.769138 -7.035619
v -3.517809 -0.769138 -6.093024
v -6.093024 -0.769138 -3.517809
v -7.035619 -0.769138 0.000000
v -6.093024 -0.769138 3.517809
v -3.517809 -0.769138 6.093024
v 0.000000 -0.769138 7.035619
v 3.517809 -0.769138 6.093024
v 6.093024 -0.769138 3.517809
v 7.035619 -0.769138 0.000000
v 6.093024 0.942111 -3.517809
v 3.517809 0.942111 -6.093024
v 0.000000 0.942111 -7.035619
v -3.517809 0.942111 -6.093024
v -6.093024 0.942111 -3.517809
v -7.035619 0.942111 0.000000
v -6.093024 0.942111 3.517809
v -3.517809 0.942111 6.093024
v 0.000000 0.942111 7.035619
v 3.517809 0.942111 6.093024
v 6.093024 0.942111 3.517809
v 7.035619 0.942111 0.000000
v 0.000000 -0.769138 0.000000
v 4.922447 0.942111 -2.841976
v 2.841976 0.942111 -4.922447
v 0.000000 0.942111 -5.683952
v -2.841976 0.942111 -4.922447
v -4.922447 0.942111 -2.841976
v -5.683952 0.942111 0.000000
v -4.922447 0.942111 2.841976
v -2.841976 0.942111 4.922447
v 0.000000 0.942111 5.683952
v 2.841976 0.942111 4.922447
v 4.922447 0.942111 2.841976
v 5.683952 0.942111 0.000000
v 4.922447 2.989583 -2.841976
v 2.841976 2.989583 -4.922447
v 0.000000 2.989583 -5.683952
v -2.841976 2.989583 -4.922447
v -4.922447 2.989583 -2.841976
v -5.683952 2.989583 0.000000
v -4.922447 2.989583 2.841976
v -2.841976 2.989583 4.922447
v 0.000000 2.989583 5.683952
v 2.841976 2.989583 4.922447
v 4.922447 2.989583 2.841976
v 5.683952 2.989583 0.000000
v 4.074178 5.011336 -2.352227
v 2.352227 5.011336 -4.074178
v 0.000000 5.011336 -4.704455
v -2.352227 5.011336 -4.074178
v -4.074178 5.011336 -2.352227
v -4.704455 5.011336 0.000000
v -4.074178 5.011336 2.352227
v -2.352227 5.011336 4.074178
v 0.000000 5.011336 4.704455
v 2.352227 5.011336 4.074178
v 4.074178 5.011336 2.352227
v 4.704455 5.011336 0.000000
v 2.669485 5.011336 -1.541227
v 1.541227 5.011336 -2.669485
v 0.000000 5.011336 -3.082455
v -1.541227 5.011336 -2.669485
v -2.669485 5.011336 -1.541227
v -3.082455 5.011336 0.000000
v -2.669485 5.011336 1.541227
v -1.541227 5.011336 2.669485
v 0.000000 5.011336 3.082455
v 1.541227 5.011336 2.669485
v 2.669485 5.011336 1.541227
v 3.082455 5.011336 0.000000
v 2.213587 4.666400 -1.278015
v 1.278015 4.666400 -2.213587
v 0.000000 4.666400 0.000000
v 0.000000 4.666400 -2.556030
v -1.278015 4.666400 -2.213587
v -2.213587 4.666400 -1.278015
v -2.556030 4.666400 0.000000
v -2.213587 4.666400 1.278015
v -1.278015 4.666400 2.213587
v 0.000000 4.666400 2.556030
v 1.278015 4.666400 2.213587
v 2.213587 4.666400 1.278015
v 2.556030 4.666400 0.000000
vt 0.374421 0.339882
vt 0.374421 0.235456
vt 0.425219 0.235456
vt 0.425219 0.339882
vt 0.374421 0.131029
vt 0.425219 0.131029
vt 0.374421 0.416328
vt 0.425219 0.416327
vt 0.374421 0.054584
vt 0.425219 0.054584
vt 0.434930 0.340732
vt 0.434930 0.236305
vt 0.485728 0.236305
vt 0.485728 0.340732
vt 0.434930 0.131879
vt 0.485728 0.131879
vt 0.434930 0.417177
vt 0.485728 0.417177
vt 0.434930 0.055433
vt 0.485728 0.055433
vt 0.197065 0.606716
vt 0.197065 0.486274
vt 0.283836 0.486274
vt 0.283836 0.606716
vt 0.197065 0.365833
vt 0.283836 0.365833
vt 0.369517 0.486274
vt 0.369517 0.585960
vt 0.197065 0.694885
vt 0.283836 0.694885
vt 0.197065 0.277663
vt 0.283836 0.277663
vt 0.369517 0.386588
vt 0.369517 0.658936
vt 0.369517 0.313612
vt 0.012837 0.608832
vt 0.012837 0.488390
vt 0.099608 0.488390
vt 0.099608 0.608832
vt 0.012837 0.367949
vt 0.099608 0.367949
vt 0.185289 0.488390
vt 0.185289 0.588076
vt 0.014310 0.703995
vt 0.098764 0.690007
vt 0.014310 0.272786
vt 0.098764 0.286773
vt 0.185289 0.388704
vt 0.185503 0.668044
vt 0.185503 0.308735
vt 0.890241 0.062368
vt 0.966686 0.138813
vt 0.785814 0.243240
vt 0.994667 0.243240
vt 0.785814 0.034387
vt 0.966686 0.347666
vt 0.681388 0.062368
vt 0.890241 0.424112
vt 0.604943 0.138813
vt 0.785814 0.452093
vt 0.576962 0.243240
vt 0.681388 0.424112
vt 0.604943 0.347666
vt 0.800921 0.811775
vt 0.751059 0.840922
vt 0.721601 0.733305
vt 0.817257 0.827937
vt 0.757126 0.863087
vt 0.693304 0.841234
vt 0.829529 0.761602
vt 0.867592 0.877732
vt 0.775820 0.931378
vt 0.687476 0.863462
vt 0.851758 0.767430
vt 0.643130 0.812625
vt 0.829218 0.703847
vt 0.669519 0.931951
vt 0.920247 0.785387
vt 0.626969 0.828962
vt 0.851382 0.697780
vt 0.613983 0.762764
vt 0.800071 0.653985
vt 0.577174 0.879297
vt 0.919674 0.679086
vt 0.591819 0.768831
vt 0.816232 0.637648
vt 0.613672 0.705008
vt 0.749898 0.625377
vt 0.523527 0.787524
vt 0.866028 0.587313
vt 0.591444 0.699180
vt 0.755725 0.603148
vt 0.642280 0.654835
vt 0.692142 0.625688
vt 0.522955 0.681224
vt 0.773682 0.534659
vt 0.625944 0.638673
vt 0.686075 0.603523
vt 0.575609 0.588878
vt 0.667382 0.535232
vt 0.911543 0.919395
vt 0.792229 0.989141
vt 0.778686 0.939667
vt 0.875078 0.883321
vt 0.654027 0.989885
vt 0.667036 0.940269
vt 0.979999 0.799337
vt 0.930382 0.786328
vt 0.533969 0.921430
vt 0.570043 0.884965
vt 0.979254 0.661135
vt 0.929780 0.674678
vt 0.464223 0.802116
vt 0.513697 0.788573
vt 0.909508 0.541821
vt 0.873434 0.578286
vt 0.463479 0.663914
vt 0.513095 0.676923
vt 0.789450 0.473366
vt 0.776441 0.522982
vt 0.531935 0.543856
vt 0.568399 0.579930
vt 0.651248 0.474110
vt 0.664791 0.523584
vt 0.374423 0.625181
vt 0.374422 0.520754
vt 0.425221 0.520754
vt 0.425222 0.625180
vt 0.434929 0.626030
vt 0.434929 0.521604
vt 0.485728 0.521604
vt 0.485727 0.626030
vt 0.054612 0.151781
vt 0.136750 0.179756
vt 0.093442 0.037771
vt 0.175580 0.065745
vt 0.217856 0.207379
vt 0.249994 0.113015
vt 0.093445 0.939010
vt 0.054614 0.825000
vt 0.136751 0.797024
vt 0.175582 0.911034
vt 0.217857 0.769400
vt 0.249997 0.863763
vn 0.707107 0.000000 -0.707107
vn 0.707107 0.000000 -0.707107
vn 0.707107 0.000000 -0.707107
vn 0.707107 0.000000 -0.707107
vn 0.258819 0.000000 -0.965926
vn 0.258819 0.000000 -0.965926
vn 0.258819 0.000000 -0.965926
vn 0.258819 0.000000 -0.965926
vn -0.258819 0.000000 -0.965926
vn -0.258819 0.000000 -0.965926
vn -0.258819 0.000000 -0.965926
vn -0.258819 0.000000 -0.965926
vn -0.707107 0.000000 -0.707107
vn -0.707107 0.000000 -0.707107
vn -0.707107 0.000000 -0.707107
vn -0.707107 0.000000 -0.707107
vn -0.965926 0.000000 -0.258819
vn -0.965926 0.000000 -0.258819
vn -0.965926 0.000000 -0.258819
vn -0.965926 0.000000 -0.258819
vn -0.965926 0.000000 0.258819
vn -0.965926 0.000000 0.258819
vn -0.965926 0.000000 0.258819
vn -0.965926 0.000000 0.258819
vn -0.707107 0.000000 0.707107
vn -0.707107 0.000000 0.707107
vn -0.707107 0.000000 0.707107
vn -0.707107 0.000000 0.707107
vn -0.258819 0.000000 0.965926
vn -0.258819 0.000000 0.965926
vn -0.258819 0.000000 0.965926
vn -0.258819 0.000000 0.965926
vn 0.258819 0.000000 0.965926
vn 0.258819 0.000000 0.965926
vn 0.258819 0.000000 0.965926
vn 0.258819 0.000000 0.965926
vn 0.707107 0.000000 0.707107
vn 0.707107 0.000000 0.707107
vn 0.707107 0.000000 0.707107
vn 0.707107 0.000000 0.707107
vn 0.965926 0.000000 0.258819
vn 0.965926 0.000000 0.258819
vn 0.965926 0.000000 0.258819
vn 0.965926 0.000000 0.258819
vn 0.965926 0.000000 -0.258819
vn 0.965926 0.000000 -0.258819
vn 0.965926 0.000000 -0.258819
vn 0.965926 0.000000 -0.258819
vn 0.000000 -1.000000 0.000000
vn 0.000000 -1.000000 0.000000
vn 0.000000 -1.000000 0.000000
vn 0.000000 -1.000000 0.000000
vn 0.000000 -1.000000 0.000000
vn 0.000000 -1.000000 0.000000
vn 0.000000 -1.000000 0.000000
vn 0.000000 -1.000000 0.000000
vn 0.000000 -1.000000 0.000000
vn 0.000000 -1.000000 0.000000
vn 0.000000 -1.000000 0.000000
vn 0.000000 -1.000000 0.000000
vn 0.000000 -1.000000 0.000000
vn 0.000000 1.000000 0.000000
vn 0.000000 1.000000 0.000000
vn 0.000000 1.000000 0.000000
vn 0.000000 1.000000 0.000000
vn 0.000000 1.000000 0.000000
vn 0.000000 1.000000 0.000000
vn 0.000000 1.000000 0.000000
vn 0.000000 1.000000 0.000000
vn 0.000000 1.000000 0.000000
vn 0.000000 1.000000 0.000000
vn 0.000000 1.000000 0.000000
vn 0.000000 1.000000 0.000000
vn 0.000000 1.000000 0.000000
vn -0.000000 1.000000 0.000000
vn -0.000000 1.000000 0.000000
vn -0.000000 1.000000 0.000000
vn -0.000000 1.000000 0.000000
vn -0.000000 1.000000 0.000000
vn -0.000000 1.000000 0.000000
vn -0.000000 1.000000 0.000000
vn -0.000000 1.000000 0.000000
vn 0.000000 1.000000 0.000000
vn 0.000000 1.000000 0.000000
vn 0.000000 1.000000 0.000000
vn 0.000000 1.000000 0.000000
vn 0.000000 1.000000 0.000000
vn 0.000000 1.000000 0.000000
vn 0.000000 1.000000 0.000000
vn 0.000000 1.000000 0.000000
vn 0.000000 1.000000 0.000000
vn 0.000000 1.000000 0.000000
vn 0.000000 1.000000 0.000000
vn 0.000000 1.000000 0.000000
vn 0.000000 1.000000 -0.000000
vn 0.000000 1.000000 -0.000000
vn 0.000000 1.000000 -0.000000
vn 0.000000 1.000000 -0.000000
vn 0.000000 1.000000 -0.000000
vn 0.000000 1.000000 -0.000000
vn 0.000000 1.000000 -0.000000
vn 0.000000 1.000000 -0.000000
vn 0.000000 1.000000 -0.000000
vn 0.000000 1.000000 -0.000000
vn 0.000000 1.000000 -0.000000
vn 0.000000 1.000000 -0.000000
vn -0.000000 1.000000 -0.000000
vn -0.000000 1.000000 -0.000000
vn -0.000000 1.000000 -0.000000
vn -0.000000 1.000000 -0.000000
vn -0.000000 1.000000 -0.000000
vn -0.000000 1.000000 -0.000000
vn -0.000000 1.000000 -0.000000
vn -0.000000 1.000000 -0.000000
vn -0.000000 1.000000 -0.000000
vn -0.000000 1.000000 -0.000000
vn -0.000000 1.000000 -0.000000
vn -0.000000 1.000000 -0.000000
vn -0.000000 1.000000 0.000000
vn -0.000000 1.000000 0.000000
vn -0.000000 1.000000 0.000000
vn -0.000000 1.000000 0.000000
vn 0.707107 0.000000 -0.707107
vn 0.707107 0.000000 -0.707107
vn 0.707107 0.000000 -0.707107
vn 0.707107 0.000000 -0.707107
vn 0.258819 0.000000 -0.965926
vn 0.258819 0.000000 -0.965926
vn 0.258819 0.000000 -0.965926
vn 0.258819 0.000000 -0.965926
vn -0.258819 0.000000 -0.965926
vn -0.258819 0.000000 -0.965926
vn -0.258819 0.000000 -0.965926
vn -0.258819 0.000000 -0.965926
vn -0.707107 0.000000 -0.707107
vn -0.707107 0.000000 -0.707107
vn -0.707107 0.000000 -0.707107
vn -0.707107 0.000000 -0.707107
vn -0.965926 0.000000 -0.258819
vn -0.965926 0.000000 -0.258819
vn -0.965926 0.000000 -0.258819
vn -0.965926 0.000000 -0.258819
vn -0.965926 0.000000 0.258819
vn -0.965926 0.000000 0.258819
vn -0.965926 0.000000 0.258819
vn -0.965926 0.000000 0.258819
vn -0.707107 0.000000 0.707107
vn -0.707107 0.000000 0.707107
vn -0.707107 0.000000 0.707107
vn -0.707107 0.000000 0.707107
vn -0.258819 0.000000 0.965926
vn -0.258819 0.000000 0.965926
vn -0.258819 0.000000 0.965926
vn -0.258819 0.000000 0.965926
vn 0.258819 0.000000 0.965926
vn 0.258819 0.000000 0.965926
vn 0.258819 0.000000 0.965926
vn 0.258819 0.000000 0.965926
vn 0.707107 0.000000 0.707107
vn 0.707107 0.000000 0.707107
vn 0.707107 0.000000 0.707107
vn 0.707107 0.000000 0.707107
vn 0.965926 0.000000 0.258819
vn 0.965926 0.000000 0.258819
vn 0.965926 0.000000 0.258819
vn 0.965926 0.000000 0.258819
vn 0.965926 0.000000 -0.258819
vn 0.965926 0.000000 -0.258819
vn 0.965926 0.000000 -0.258819
vn 0.965926 0.000000 -0.258819
vn 0.640448 0.423855 -0.640448
vn 0.640448 0.423855 -0.640448
vn 0.640448 0.423855 -0.640448
vn 0.640448 0.423855 -0.640448
vn 0.234420 0.423855 -0.874868
vn 0.234420 0.423855 -0.874868
vn 0.234420 0.423855 -0.874868
vn 0.234420 0.423855 -0.874868
vn -0.234420 0.423855 -0.874868
vn -0.234420 0.423855 -0.874868
vn -0.234420 0.423855 -0.874868
vn -0.234420 0.423855 -0.874868
vn -0.640448 0.423855 -0.640448
vn -0.640448 0.423855 -0.640448
vn -0.640448 0.423855 -0.640448
vn -0.640448 0.423855 -0.640448
vn -0.874868 0.423855 -0.234420
vn -0.874868 0.423855 -0.234420
vn -0.874868 0.423855 -0.234420
vn -0.874868 0.423855 -0.234420
vn -0.874868 0.423855 0.234420
vn -0.874868 0.423855 0.234420
vn -0.874868 0.423855 0.234420
vn -0.874868 0.423855 0.234420
vn -0.640448 0.423855 0.640448
vn -0.640448 0.423855 0.640448
vn -0.640448 0.423855 0.640448
vn -0.640448 0.423855 0.640448
vn -0.234420 0.423855 0.874868
vn -0.234420 0.423855 0.874868
vn -0.234420 0.423855 0.874868
vn -0.234420 0.423855 0.874868
vn 0.234420 0.423855 0.874868
vn 0.234420 0.423855 0.874868
vn 0.234420 0.423855 0.874868
vn 0.234420 0.423855 0.874868
vn 0.640448 0.423855 0.640448
vn 0.640448 0.423855 0.640448
vn 0.640448 0.423855 0.640448
vn 0.640448 0.423855 0.640448
vn 0.874868 0.423855 0.234420
vn 0.874868 0.423855 0.234420
vn 0.874868 0.423855 0.234420
vn 0.874868 0.423855 0.234420
vn 0.874868 0.423855 -0.234420
vn 0.874868 0.423855 -0.234420
vn 0.874868 0.423855 -0.234420
vn 0.874868 0.423855 -0.234420
vn 0.000000 1.000000 -0.000000
vn 0.000000 1.000000 -0.000000
vn 0.000000 1.000000 -0.000000
vn 0.000000 1.000000 -0.000000
vn 0.000000 1.000000 0.000000
vn 0.000000 1.000000 0.000000
vn 0.000000 1.000000 0.000000
vn 0.000000 1.000000 0.000000
vn 0.000000 1.000000 0.000000
vn 0.000000 1.000000 0.000000
vn 0.000000 1.000000 0.000000
vn 0.000000 1.000000 0.000000
vn 0.000000 1.000000 -0.000000
vn 0.000000 1.000000 -0.000000
vn 0.000000 1.000000 -0.000000
vn 0.000000 1.000000 -0.000000
vn 0.000000 1.000000 0.000000
vn 0.000000 1.000000 0.000000
vn 0.000000 1.000000 0.000000
vn 0.000000 1.000000 0.000000
vn 0.000000 1.000000 -0.000000
vn 0.000000 1.000000 -0.000000
vn 0.000000 1.000000 -0.000000
vn 0.000000 1.000000 -0.000000
vn 0.000000 1.000000 0.000000
vn 0.000000 1.000000 0.000000
vn 0.000000 1.000000 0.000000
vn 0.000000 1.000000 0.000000
vn 0.000000 1.000000 0.000000
vn 0.000000 1.000000 0.000000
vn 0.000000 1.000000 0.000000
vn 0.000000 1.000000 0.000000
vn 0.000000 1.000000 0.000000
vn 0.000000 1.000000 0.000000
vn 0.000000 1.000000 0.000000
vn 0.000000 1.000000 0.000000
vn 0.000000 1.000000 0.000000
vn 0.000000 1.000000 0.000000
vn 0.000000 1.000000 0.000000
vn 0.000000 1.000000 0.000000
vn 0.000000 1.000000 -0.000000
vn 0.000000 1.000000 -0.000000
vn 0.000000 1.000000 -0.000000
vn 0.000000 1.000000 -0.000000
vn 0.000000 1.000000 0.000000
vn 0.000000 1.000000 0.000000
vn 0.000000 1.000000 0.000000
vn 0.000000 1.000000 0.000000
vn -0.396955 0.827559 0.396955
vn -0.396955 0.827559 0.396955
vn -0.396955 0.827559 0.396955
vn -0.396955 0.827559 0.396955
vn -0.145295 0.827559 0.542251
vn -0.145295 0.827559 0.542251
vn -0.145295 0.827558 0.542251
vn -0.145295 0.827559 0.542251
vn 0.145295 0.827559 0.542251
vn 0.145295 0.827558 0.542251
vn 0.145295 0.827558 0.542251
vn 0.145295 0.827558 0.542251
vn 0.396955 0.827558 0.396955
vn 0.396955 0.827558 0.396955
vn 0.396955 0.827558 0.396955
vn 0.396955 0.827558 0.396955
vn 0.542251 0.827558 0.145296
vn 0.542251 0.827558 0.145296
vn 0.542251 0.827558 0.145296
vn 0.542251 0.827558 0.145296
vn 0.542251 0.827558 -0.145295
vn 0.542251 0.827558 -0.145295
vn 0.542251 0.827558 -0.145295
vn 0.542251 0.827558 -0.145295
vn 0.396955 0.827559 -0.396955
vn 0.396955 0.827559 -0.396955
vn 0.396955 0.827559 -0.396955
vn 0.396955 0.827559 -0.396955
vn 0.145295 0.827559 -0.542251
vn 0.145295 0.827559 -0.542251
vn 0.145295 0.827558 -0.542251
vn 0.145295 0.827559 -0.542251
vn -0.145295 0.827559 -0.542251
vn -0.145295 0.827558 -0.542251
vn -0.145295 0.827558 -0.542251
vn -0.145295 0.827558 -0.542251
vn -0.396955 0.827558 -0.396955
vn -0.396955 0.827558 -0.396955
vn -0.396955 0.827558 -0.396955
vn -0.396955 0.827558 -0.396955
vn -0.542251 0.827558 -0.145296
vn -0.542251 0.827558 -0.145296
vn -0.542251 0.827558 -0.145296
vn -0.542251 0.827558 -0.145296
vn -0.542251 0.827558 0.145295
vn -0.542251 0.827558 0.145295
vn -0.542251 0.827558 0.145295
vn -0.542251 0.827558 0.145295
s off
g pCylinder1
usemtl initialShadingGroup
f 1/15/1 2/19/2 14/20/3 13/16/4
f 2/125/5 3/126/6 15/127/7 14/128/8
f 3/126/9 4/7/10 16/8/11 15/127/12
f 4/7/13 5/1/14 17/4/15 16/8/16
f 5/1/17 6/2/18 18/3/19 17/4/20
f 6/2/21 7/5/22 19/6/23 18/3/24
f 7/5/25 8/9/26 20/10/27 19/6/28
f 8/129/29 9/130/30 21/131/31 20/132/32
f 9/130/33 10/17/34 22/18/35 21/131/36
f 10/17/37 11/11/38 23/14/39 22/18/40
f 11/11/41 12/12/42 24/13/43 23/14/44
f 12/12/45 1/15/46 13/16/47 24/13/48
s 1
f 2/51/49 1/52/50 25/53/51
f 3/55/52 2/51/49 25/53/51
f 4/57/53 3/55/52 25/53/51
f 5/59/54 4/57/53 25/53/51
f 6/61/55 5/59/54 25/53/51
f 7/63/56 6/61/55 25/53/51
f 8/62/57 7/63/56 25/53/51
f 9/60/58 8/62/57 25/53/51
f 10/58/59 9/60/58 25/53/51
f 11/56/60 10/58/59 25/53/51
f 12/54/61 11/56/60 25/53/51
f 1/52/50 12/54/61 25/53/51
s 2
f 74/64/62 75/65/63 76/66/64
f 75/65/63 77/69/65 76/66/64
f 77/69/65 78/75/66 76/66/64
f 78/75/66 79/81/67 76/66/64
f 79/81/67 80/87/68 76/66/64
f 80/87/68 81/93/69 76/66/64
f 81/93/69 82/94/70 76/66/64
f 82/94/70 83/88/71 76/66/64
f 83/88/71 84/82/72 76/66/64
f 84/82/72 85/76/73 76/66/64
f 85/76/73 86/70/74 76/66/64
f 86/70/74 74/64/62 76/66/64
s off
f 13/101/75 14/102/76 27/103/77 26/104/78
f 14/102/79 15/105/80 28/106/81 27/103/82
f 15/105/83 16/109/84 29/110/85 28/106/86
f 16/109/87 17/113/88 30/114/89 29/110/90
f 17/113/91 18/117/92 31/118/93 30/114/94
f 18/117/95 19/121/96 32/122/97 31/118/98
f 19/121/99 20/123/100 33/124/101 32/122/102
f 20/123/103 21/119/104 34/120/105 33/124/106
f 21/119/107 22/115/108 35/116/109 34/120/110
f 22/115/111 23/111/112 36/112/113 35/116/114
f 23/111/115 24/107/116 37/108/117 36/112/118
f 24/107/119 13/101/120 26/104/121 37/108/122
f 26/40/123 27/46/124 39/47/125 38/41/126
f 27/46/127 28/133/128 40/134/129 39/47/130
f 28/133/131 29/135/132 41/136/133 40/134/134
f 29/29/135 30/21/136 42/24/137 41/30/138
f 30/21/139 31/22/140 43/23/141 42/24/142
f 31/22/143 32/25/144 44/26/145 43/23/146
f 32/25/147 33/31/148 45/32/149 44/26/150
f 33/139/151 34/140/152 46/141/153 45/142/154
f 34/140/155 35/44/156 47/45/157 46/141/158
f 35/44/159 36/36/160 48/39/161 47/45/162
f 36/36/163 37/37/164 49/38/165 48/39/166
f 37/37/167 26/40/168 38/41/169 49/38/170
f 38/41/171 39/47/172 51/50/173 50/48/174
f 39/47/175 40/134/176 52/137/177 51/50/178
f 40/134/179 41/136/180 53/138/181 52/137/182
f 41/30/183 42/24/184 54/28/185 53/34/186
f 42/24/187 43/23/188 55/27/189 54/28/190
f 43/23/191 44/26/192 56/33/193 55/27/194
f 44/26/195 45/32/196 57/35/197 56/33/198
f 45/142/199 46/141/200 58/143/201 57/144/202
f 46/141/203 47/45/204 59/49/205 58/143/206
f 47/45/207 48/39/208 60/43/209 59/49/210
f 48/39/211 49/38/212 61/42/213 60/43/214
f 49/38/215 38/41/216 50/48/217 61/42/218
f 50/71/219 51/72/220 63/68/221 62/67/222
f 51/72/223 52/77/224 64/73/225 63/68/226
f 52/77/227 53/83/228 65/79/229 64/73/230
f 53/83/231 54/89/232 66/85/233 65/79/234
f 54/89/235 55/95/236 67/91/237 66/85/238
f 55/95/239 56/99/240 68/97/241 67/91/242
f 56/99/243 57/100/244 69/98/245 68/97/246
f 57/100/247 58/96/248 70/92/249 69/98/250
f 58/96/251 59/90/252 71/86/253 70/92/254
f 59/90/255 60/84/256 72/80/257 71/86/258
f 60/84/259 61/78/260 73/74/261 72/80/262
f 61/78/263 50/71/264 62/67/265 73/74/266
f 62/67/267 63/68/268 75/65/269 74/64/270
f 63/68/271 64/73/272 77/69/273 75/65/274
f 64/73/275 65/79/276 78/75/277 77/69/278
f 65/79/279 66/85/280 79/81/281 78/75/282
f 66/85/283 67/91/284 80/87/285 79/81/286
f 67/91/287 68/97/288 81/93/289 80/87/290
f 68/97/291 69/98/292 82/94/293 81/93/294
f 69/98/295 70/92/296 83/88/297 82/94/298
f 70/92/299 71/86/300 84/82/301 83/88/302
f 71/86/303 72/80/304 85/76/305 84/82/306
f 72/80/307 73/74/308 86/70/309 85/76/310
f 73/74/311 62/67/312 74/64/313 86/70/314
