# This file uses centimeters as units for non-parametric coordinates.

mtllib Kitchen_fire_alarm.mtl
g default
v 3.457515 1.422107 -1.996197
v 1.996197 1.422107 -3.457515
v 0.000000 1.422107 -3.992394
v -1.996197 1.422107 -3.457515
v -3.457515 1.422107 -1.996197
v -3.992394 1.422107 0.000000
v -3.457515 1.422107 1.996197
v -1.996197 1.422107 3.457515
v 0.000000 1.422107 3.992394
v 1.996197 1.422107 3.457515
v 3.457515 1.422107 1.996197
v 3.992394 1.422107 0.000000
v 3.457515 2.331904 -1.996197
v 1.996197 2.331904 -3.457515
v 0.000000 2.331904 -3.992394
v -1.996197 2.331904 -3.457515
v -3.457515 2.331904 -1.996197
v -3.992394 2.331904 0.000000
v -3.457515 2.331904 1.996197
v -1.996197 2.331904 3.457515
v 0.000000 2.331904 3.992394
v 1.996197 2.331904 3.457515
v 3.457515 2.331904 1.996197
v 3.992394 2.331904 0.000000
v 0.000000 1.422107 0.000000
v 3.192590 2.854873 -1.843244
v 1.843244 2.854873 -3.192590
v 0.000000 2.854873 -3.686487
v -1.843244 2.854873 -3.192590
v -3.192590 2.854873 -1.843244
v -3.686487 2.854873 0.000000
v -3.192590 2.854873 1.843244
v -1.843244 2.854873 3.192590
v 0.000000 2.854873 3.686487
v 1.843244 2.854873 3.192590
v 3.192590 2.854873 1.843244
v 3.686487 2.854873 0.000000
v 2.768576 3.379210 -1.598438
v 1.598438 3.379210 -2.768576
v 0.000000 3.379210 -3.196876
v -1.598438 3.379210 -2.768576
v -2.768576 3.379210 -1.598438
v -3.196876 3.379210 0.000000
v -2.768576 3.379210 1.598438
v -1.598438 3.379210 2.768576
v 0.000000 3.379210 3.196876
v 1.598438 3.379210 2.768576
v 2.768576 3.379210 1.598438
v 3.196876 3.379210 0.000000
v 2.181747 3.856158 -1.259632
v 1.259632 3.856158 -2.181747
v 0.000000 3.856158 -2.519263
v -1.259632 3.856158 -2.181747
v -2.181747 3.856158 -1.259632
v -2.519263 3.856158 0.000000
v -2.181747 3.856158 1.259632
v -1.259632 3.856158 2.181747
v 0.000000 3.856158 2.519263
v 1.259632 3.856158 2.181747
v 2.181747 3.856158 1.259632
v 2.519263 3.856158 0.000000
v 1.577605 4.234769 -0.910831
v 0.910831 4.234769 -1.577605
v 0.000000 4.234769 -1.821662
v -0.910831 4.234769 -1.577605
v -1.577605 4.234769 -0.910831
v -1.821662 4.234769 0.000000
v -1.577605 4.234769 0.910831
v -0.910831 4.234769 1.577605
v 0.000000 4.234769 1.821662
v 0.910831 4.234769 1.577605
v 1.577605 4.234769 0.910831
v 1.821662 4.234769 0.000000
v 0.857850 4.234769 -0.495280
v 0.495280 4.234769 -0.857850
v 0.000000 4.234769 -0.990560
v -0.495280 4.234769 -0.857850
v -0.857850 4.234769 -0.495280
v -0.990560 4.234769 -0.000000
v -0.857850 4.234769 0.495280
v -0.495280 4.234769 0.857850
v 0.000000 4.234769 0.990560
v 0.495280 4.234769 0.857850
v 0.857850 4.234769 0.495280
v 0.990560 4.234769 -0.000000
v 0.857850 4.712885 -0.495280
v 0.495280 4.712885 -0.857850
v 0.000000 4.712885 -0.000000
v 0.000000 4.712885 -0.990560
v -0.495280 4.712885 -0.857850
v -0.857850 4.712885 -0.495280
v -0.990560 4.712885 -0.000000
v -0.857850 4.712885 0.495280
v -0.495280 4.712885 0.857850
v 0.000000 4.712885 0.990560
v 0.495280 4.712885 0.857850
v 0.857850 4.712885 0.495280
v 0.990560 4.712885 -0.000000
v 5.538514 1.422107 1.996197
v 6.001310 1.422107 0.000000
v 6.001310 2.331904 0.000000
v 5.538514 2.331904 1.996197
v 5.538514 1.422107 -1.996197
v 5.538514 2.331904 -1.996197
vt 0.107703 0.830964
vt 0.233382 0.830965
vt 0.233382 0.888244
vt 0.107703 0.888244
vt 0.359060 0.830965
vt 0.359060 0.888244
vt 0.233382 0.921170
vt 0.117333 0.921170
vt 0.015700 0.830964
vt 0.015700 0.888244
vt 0.451063 0.830965
vt 0.451063 0.888244
vt 0.349431 0.921170
vt 0.233382 0.954182
vt 0.132746 0.954182
vt 0.032380 0.921170
vt 0.434384 0.921170
vt 0.334018 0.954182
vt 0.233382 0.984210
vt 0.154077 0.984210
vt 0.059075 0.954182
vt 0.407688 0.954182
vt 0.312687 0.984210
vt 0.593243 0.697152
vt 0.718921 0.697153
vt 0.718921 0.747149
vt 0.593242 0.761717
vt 0.844600 0.697154
vt 0.844599 0.761718
vt 0.593241 0.891600
vt 0.718920 0.874763
vt 0.718920 0.916107
vt 0.602871 0.916107
vt 0.844598 0.891601
vt 0.834968 0.916107
vt 0.718920 0.949119
vt 0.618284 0.949119
vt 0.501238 0.883182
vt 0.517917 0.916107
vt 0.936601 0.883182
vt 0.919922 0.916107
vt 0.819556 0.949119
vt 0.718920 0.979147
vt 0.639615 0.979147
vt 0.544613 0.949119
vt 0.501238 0.825902
vt 0.593241 0.825902
vt 0.844598 0.825902
vt 0.936601 0.825902
vt 0.893227 0.949119
vt 0.798225 0.979147
vt 0.424880 0.818610
vt 0.384535 0.818611
vt 0.384535 0.779665
vt 0.424879 0.779664
vt 0.344191 0.818612
vt 0.344190 0.779666
vt 0.454414 0.818610
vt 0.454413 0.779663
vt 0.314656 0.818613
vt 0.314656 0.779666
vt 0.204433 0.818614
vt 0.164088 0.818614
vt 0.164088 0.779668
vt 0.204433 0.779668
vt 0.123744 0.818614
vt 0.123744 0.779668
vt 0.233967 0.818614
vt 0.233967 0.779668
vt 0.094209 0.818614
vt 0.094210 0.779668
vt 0.063979 0.311040
vt 0.155982 0.219037
vt 0.281661 0.436719
vt 0.281661 0.185362
vt 0.030304 0.436719
vt 0.155982 0.088020
vt 0.281661 0.058882
vt 0.407339 0.219037
vt 0.063979 0.562397
vt 0.407339 0.088020
vt 0.499342 0.311040
vt 0.155982 0.654400
vt 0.533018 0.436719
vt 0.281661 0.688076
vt 0.499342 0.562397
vt 0.407339 0.654400
vt 0.804692 0.383874
vt 0.781865 0.406701
vt 0.750682 0.352691
vt 0.750682 0.415056
vt 0.813047 0.352691
vt 0.719500 0.406701
vt 0.804692 0.321509
vt 0.696673 0.383874
vt 0.781865 0.298682
vt 0.688318 0.352691
vt 0.750682 0.290327
vt 0.696673 0.321509
vt 0.719500 0.298682
vt 0.937470 0.459400
vt 0.858468 0.538403
vt 0.835593 0.498782
vt 0.897850 0.436525
vt 0.750548 0.567319
vt 0.750548 0.521570
vt 0.812043 0.457993
vt 0.857061 0.412976
vt 0.874996 0.575367
vt 0.750548 0.592039
vt 0.642629 0.538403
vt 0.665504 0.498782
vt 0.750548 0.474471
vt 0.783987 0.409399
vt 0.808466 0.384920
vt 0.920638 0.351481
vt 0.873539 0.351481
vt 0.626101 0.575366
vt 0.563626 0.459400
vt 0.603247 0.436525
vt 0.689053 0.457993
vt 0.750548 0.418359
vt 0.817426 0.351481
vt 0.897850 0.266436
vt 0.857061 0.289985
vt 0.644035 0.412976
vt 0.717109 0.409399
vt 0.808466 0.318042
vt 0.835593 0.204179
vt 0.812043 0.244968
vt 0.580459 0.351481
vt 0.627558 0.351481
vt 0.692630 0.384920
vt 0.783987 0.293562
vt 0.858468 0.164559
vt 0.937470 0.243561
vt 0.750548 0.181391
vt 0.750548 0.228490
vt 0.603247 0.266436
vt 0.644035 0.289985
vt 0.683670 0.351481
vt 0.750548 0.284602
vt 0.750548 0.135642
vt 0.665504 0.204179
vt 0.689053 0.244968
vt 0.692630 0.318042
vt 0.717109 0.293562
vt 0.750548 0.110922
vt 0.874996 0.127595
vt 0.642629 0.164559
vt 0.563626 0.243561
vt 0.626101 0.127595
vt 0.885322 0.680438
vt 0.750548 0.680437
vt 0.750548 0.619011
vt 0.885322 0.619012
vt 0.615774 0.680436
vt 0.615774 0.619011
vt 0.615774 0.022524
vt 0.750548 0.022524
vt 0.750548 0.083950
vt 0.615774 0.083950
vt 0.885323 0.022524
vt 0.885323 0.083950
vt 0.053864 0.818612
vt 0.053866 0.779666
vt 0.013519 0.818610
vt 0.013521 0.779664
vt 0.274312 0.818614
vt 0.274311 0.779667
vt 0.462224 0.754429
vt 0.462226 0.697149
vt 0.975617 0.697156
vt 0.975616 0.754436
vn 0.707107 0.000000 -0.707107
vn 0.707107 0.000000 -0.707107
vn 0.707107 0.000000 -0.707107
vn 0.707107 0.000000 -0.707107
vn 0.258819 0.000000 -0.965926
vn 0.258819 0.000000 -0.965926
vn 0.258819 0.000000 -0.965926
vn 0.258819 0.000000 -0.965926
vn -0.258819 0.000000 -0.965926
vn -0.258819 0.000000 -0.965926
vn -0.258819 0.000000 -0.965926
vn -0.258819 0.000000 -0.965926
vn -0.707107 0.000000 -0.707107
vn -0.707107 0.000000 -0.707107
vn -0.707107 0.000000 -0.707107
vn -0.707107 0.000000 -0.707107
vn -0.965926 0.000000 -0.258819
vn -0.965926 0.000000 -0.258819
vn -0.965926 0.000000 -0.258819
vn -0.965926 0.000000 -0.258819
vn -0.965926 0.000000 0.258819
vn -0.965926 0.000000 0.258819
vn -0.965926 0.000000 0.258819
vn -0.965926 0.000000 0.258819
vn -0.707107 0.000000 0.707107
vn -0.707107 0.000000 0.707107
vn -0.707107 0.000000 0.707107
vn -0.707107 0.000000 0.707107
vn -0.258819 0.000000 0.965926
vn -0.258819 0.000000 0.965926
vn -0.258819 0.000000 0.965926
vn -0.258819 0.000000 0.965926
vn 0.258819 0.000000 0.965926
vn 0.258819 0.000000 0.965926
vn 0.258819 0.000000 0.965926
vn 0.258819 0.000000 0.965926
vn 0.707107 0.000000 0.707107
vn 0.707107 0.000000 0.707107
vn 0.707107 0.000000 0.707107
vn 0.707107 0.000000 0.707107
vn 0.974162 0.000000 0.225849
vn 0.974162 0.000000 0.225849
vn 0.974162 0.000000 0.225849
vn 0.974162 0.000000 0.225849
vn 0.974162 0.000000 -0.225849
vn 0.974162 0.000000 -0.225849
vn 0.974162 0.000000 -0.225849
vn 0.974162 0.000000 -0.225849
vn 0.000000 -1.000000 -0.000000
vn 0.000000 -1.000000 0.000000
vn 0.000000 -1.000000 0.000000
vn 0.000000 -1.000000 0.000000
vn 0.000000 -1.000000 -0.000000
vn 0.000000 -1.000000 0.000000
vn 0.000000 -1.000000 0.000000
vn 0.000000 -1.000000 -0.000000
vn 0.000000 -1.000000 0.000000
vn 0.000000 -1.000000 0.000000
vn 0.000000 -1.000000 0.000000
vn 0.000000 -1.000000 0.000000
vn 0.000000 -1.000000 0.000000
vn 0.000000 1.000000 -0.000001
vn 0.000000 1.000000 -0.000001
vn 0.000000 1.000000 -0.000000
vn 0.000000 1.000000 0.000000
vn 0.000000 1.000000 0.000000
vn 0.000000 1.000000 0.000000
vn 0.000000 1.000000 0.000000
vn 0.000000 1.000000 0.000000
vn 0.000000 1.000000 0.000000
vn 0.000000 1.000000 0.000000
vn 0.000000 1.000000 0.000000
vn 0.000000 1.000000 0.000000
vn 0.000000 1.000000 0.000000
vn 0.615635 0.491923 -0.615635
vn 0.615635 0.491923 -0.615635
vn 0.615635 0.491923 -0.615635
vn 0.615635 0.491923 -0.615635
vn 0.225338 0.491922 -0.840973
vn 0.225338 0.491922 -0.840973
vn 0.225338 0.491922 -0.840973
vn 0.225338 0.491922 -0.840973
vn -0.225338 0.491922 -0.840973
vn -0.225338 0.491922 -0.840973
vn -0.225338 0.491922 -0.840973
vn -0.225338 0.491922 -0.840973
vn -0.615635 0.491923 -0.615635
vn -0.615635 0.491923 -0.615635
vn -0.615635 0.491923 -0.615635
vn -0.615635 0.491923 -0.615635
vn -0.840972 0.491923 -0.225338
vn -0.840973 0.491923 -0.225338
vn -0.840973 0.491923 -0.225338
vn -0.840973 0.491923 -0.225338
vn -0.840972 0.491923 0.225338
vn -0.840973 0.491923 0.225338
vn -0.840973 0.491923 0.225338
vn -0.840973 0.491923 0.225338
vn -0.615635 0.491923 0.615635
vn -0.615635 0.491923 0.615635
vn -0.615635 0.491923 0.615635
vn -0.615635 0.491923 0.615635
vn -0.225338 0.491922 0.840973
vn -0.225338 0.491922 0.840973
vn -0.225338 0.491922 0.840973
vn -0.225338 0.491922 0.840973
vn 0.225338 0.491922 0.840973
vn 0.225338 0.491922 0.840973
vn 0.225338 0.491922 0.840973
vn 0.225338 0.491922 0.840973
vn 0.615635 0.491923 0.615635
vn 0.615635 0.491923 0.615635
vn 0.615635 0.491923 0.615635
vn 0.615635 0.491923 0.615635
vn 0.840972 0.491923 0.225338
vn 0.840973 0.491923 0.225338
vn 0.840973 0.491923 0.225338
vn 0.840973 0.491923 0.225338
vn 0.840972 0.491923 -0.225338
vn 0.840973 0.491923 -0.225338
vn 0.840973 0.491923 -0.225338
vn 0.840973 0.491923 -0.225338
vn 0.525079 0.669765 -0.525079
vn 0.525079 0.669765 -0.525079
vn 0.525079 0.669765 -0.525079
vn 0.525079 0.669765 -0.525079
vn 0.192192 0.669765 -0.717270
vn 0.192192 0.669765 -0.717270
vn 0.192192 0.669765 -0.717270
vn 0.192192 0.669765 -0.717270
vn -0.192192 0.669765 -0.717270
vn -0.192192 0.669765 -0.717270
vn -0.192192 0.669765 -0.717270
vn -0.192192 0.669765 -0.717270
vn -0.525079 0.669765 -0.525078
vn -0.525079 0.669765 -0.525078
vn -0.525079 0.669765 -0.525078
vn -0.525079 0.669765 -0.525078
vn -0.717270 0.669765 -0.192192
vn -0.717270 0.669765 -0.192192
vn -0.717270 0.669765 -0.192192
vn -0.717270 0.669765 -0.192192
vn -0.717271 0.669765 0.192192
vn -0.717271 0.669765 0.192192
vn -0.717270 0.669765 0.192192
vn -0.717271 0.669765 0.192192
vn -0.525079 0.669765 0.525079
vn -0.525079 0.669765 0.525079
vn -0.525079 0.669765 0.525079
vn -0.525079 0.669765 0.525079
vn -0.192192 0.669765 0.717270
vn -0.192192 0.669765 0.717270
vn -0.192192 0.669765 0.717270
vn -0.192192 0.669765 0.717270
vn 0.192192 0.669765 0.717270
vn 0.192192 0.669765 0.717270
vn 0.192192 0.669765 0.717270
vn 0.192192 0.669765 0.717270
vn 0.525079 0.669765 0.525078
vn 0.525079 0.669765 0.525078
vn 0.525079 0.669765 0.525078
vn 0.525079 0.669765 0.525078
vn 0.717270 0.669765 0.192192
vn 0.717270 0.669765 0.192192
vn 0.717270 0.669765 0.192192
vn 0.717270 0.669765 0.192192
vn 0.717271 0.669765 -0.192192
vn 0.717271 0.669765 -0.192192
vn 0.717270 0.669765 -0.192192
vn 0.717271 0.669765 -0.192192
vn 0.416432 0.808189 -0.416432
vn 0.416432 0.808189 -0.416432
vn 0.416432 0.808189 -0.416432
vn 0.416432 0.808189 -0.416432
vn 0.152424 0.808189 -0.568857
vn 0.152424 0.808189 -0.568857
vn 0.152424 0.808189 -0.568857
vn 0.152424 0.808189 -0.568857
vn -0.152424 0.808189 -0.568857
vn -0.152424 0.808189 -0.568857
vn -0.152424 0.808189 -0.568857
vn -0.152424 0.808189 -0.568857
vn -0.416432 0.808189 -0.416432
vn -0.416432 0.808189 -0.416432
vn -0.416432 0.808189 -0.416432
vn -0.416432 0.808189 -0.416432
vn -0.568857 0.808189 -0.152424
vn -0.568857 0.808189 -0.152424
vn -0.568857 0.808189 -0.152424
vn -0.568857 0.808189 -0.152424
vn -0.568857 0.808189 0.152424
vn -0.568857 0.808189 0.152424
vn -0.568857 0.808189 0.152424
vn -0.568856 0.808189 0.152424
vn -0.416432 0.808189 0.416432
vn -0.416432 0.808189 0.416432
vn -0.416432 0.808189 0.416432
vn -0.416432 0.808189 0.416432
vn -0.152424 0.808189 0.568857
vn -0.152424 0.808189 0.568857
vn -0.152424 0.808189 0.568857
vn -0.152424 0.808189 0.568857
vn 0.152424 0.808189 0.568857
vn 0.152424 0.808189 0.568857
vn 0.152424 0.808189 0.568857
vn 0.152424 0.808189 0.568857
vn 0.416432 0.808189 0.416432
vn 0.416432 0.808189 0.416432
vn 0.416432 0.808189 0.416432
vn 0.416432 0.808189 0.416432
vn 0.568857 0.808189 0.152424
vn 0.568857 0.808189 0.152424
vn 0.568857 0.808189 0.152424
vn 0.568857 0.808189 0.152424
vn 0.568857 0.808189 -0.152424
vn 0.568857 0.808189 -0.152424
vn 0.568857 0.808189 -0.152424
vn 0.568856 0.808189 -0.152424
vn 0.346375 0.871807 -0.346375
vn 0.346375 0.871807 -0.346375
vn 0.346375 0.871807 -0.346375
vn 0.346375 0.871807 -0.346375
vn 0.126782 0.871807 -0.473158
vn 0.126782 0.871807 -0.473158
vn 0.126782 0.871807 -0.473158
vn 0.126782 0.871807 -0.473158
vn -0.126782 0.871807 -0.473158
vn -0.126782 0.871807 -0.473158
vn -0.126782 0.871807 -0.473158
vn -0.126782 0.871807 -0.473158
vn -0.346375 0.871808 -0.346375
vn -0.346375 0.871808 -0.346375
vn -0.346375 0.871807 -0.346375
vn -0.346375 0.871807 -0.346375
vn -0.473158 0.871807 -0.126782
vn -0.473158 0.871807 -0.126782
vn -0.473158 0.871807 -0.126782
vn -0.473158 0.871807 -0.126782
vn -0.473158 0.871807 0.126782
vn -0.473158 0.871807 0.126782
vn -0.473158 0.871807 0.126782
vn -0.473158 0.871807 0.126782
vn -0.346375 0.871807 0.346375
vn -0.346375 0.871807 0.346375
vn -0.346375 0.871807 0.346375
vn -0.346375 0.871807 0.346375
vn -0.126782 0.871807 0.473158
vn -0.126782 0.871807 0.473158
vn -0.126782 0.871807 0.473158
vn -0.126782 0.871807 0.473158
vn 0.126782 0.871807 0.473158
vn 0.126782 0.871807 0.473158
vn 0.126782 0.871807 0.473158
vn 0.126782 0.871807 0.473158
vn 0.346375 0.871808 0.346375
vn 0.346375 0.871808 0.346375
vn 0.346375 0.871807 0.346375
vn 0.346375 0.871807 0.346375
vn 0.473158 0.871807 0.126782
vn 0.473158 0.871807 0.126782
vn 0.473158 0.871807 0.126782
vn 0.473158 0.871807 0.126782
vn 0.473158 0.871807 -0.126782
vn 0.473158 0.871807 -0.126782
vn 0.473158 0.871807 -0.126782
vn 0.473158 0.871807 -0.126782
vn 0.000000 1.000000 0.000000
vn 0.000000 1.000000 0.000000
vn 0.000000 1.000000 0.000000
vn 0.000000 1.000000 0.000000
vn 0.000000 1.000000 0.000000
vn 0.000000 1.000000 0.000000
vn 0.000000 1.000000 0.000000
vn 0.000000 1.000000 0.000000
vn 0.000000 1.000000 0.000000
vn 0.000000 1.000000 0.000000
vn 0.000000 1.000000 0.000000
vn 0.000000 1.000000 0.000000
vn 0.000000 1.000000 -0.000000
vn 0.000000 1.000000 -0.000000
vn 0.000000 1.000000 -0.000000
vn 0.000000 1.000000 -0.000000
vn 0.000000 1.000000 0.000000
vn 0.000000 1.000000 0.000000
vn 0.000000 1.000000 0.000000
vn 0.000000 1.000000 0.000000
vn 0.000000 1.000000 0.000000
vn 0.000000 1.000000 0.000000
vn 0.000000 1.000000 0.000000
vn 0.000000 1.000000 0.000000
vn 0.000000 1.000000 0.000001
vn 0.000000 1.000000 0.000001
vn 0.000000 1.000000 0.000001
vn 0.000000 1.000000 0.000001
vn 0.000000 1.000000 0.000000
vn 0.000000 1.000000 0.000000
vn 0.000000 1.000000 0.000000
vn 0.000000 1.000000 0.000000
vn 0.000000 1.000000 -0.000000
vn 0.000000 1.000000 -0.000000
vn 0.000000 1.000000 -0.000000
vn 0.000000 1.000000 -0.000000
vn 0.000000 1.000000 0.000000
vn 0.000000 1.000000 0.000000
vn 0.000000 1.000000 0.000000
vn 0.000000 1.000000 0.000000
vn 0.000000 1.000000 0.000000
vn 0.000000 1.000000 0.000000
vn 0.000000 1.000000 0.000000
vn 0.000000 1.000000 0.000000
vn 0.000000 1.000000 0.000000
vn 0.000000 1.000000 0.000000
vn 0.000000 1.000000 0.000000
vn 0.000000 1.000000 0.000000
vn 0.707107 0.000000 -0.707107
vn 0.707107 0.000000 -0.707107
vn 0.707107 0.000000 -0.707107
vn 0.707107 0.000000 -0.707107
vn 0.258819 0.000000 -0.965926
vn 0.258819 0.000000 -0.965926
vn 0.258819 0.000000 -0.965926
vn 0.258819 0.000000 -0.965926
vn -0.258819 0.000000 -0.965926
vn -0.258819 0.000000 -0.965926
vn -0.258819 0.000000 -0.965926
vn -0.258819 0.000000 -0.965926
vn -0.707107 0.000000 -0.707107
vn -0.707107 0.000000 -0.707107
vn -0.707107 0.000000 -0.707107
vn -0.707107 0.000000 -0.707107
vn -0.965926 0.000000 -0.258819
vn -0.965926 0.000000 -0.258819
vn -0.965926 0.000000 -0.258819
vn -0.965926 0.000000 -0.258819
vn -0.965926 0.000000 0.258819
vn -0.965926 0.000000 0.258819
vn -0.965926 0.000000 0.258819
vn -0.965926 0.000000 0.258819
vn -0.707107 0.000000 0.707107
vn -0.707107 0.000000 0.707107
vn -0.707107 0.000000 0.707107
vn -0.707107 0.000000 0.707107
vn -0.258819 0.000000 0.965926
vn -0.258819 0.000000 0.965926
vn -0.258819 0.000000 0.965926
vn -0.258819 0.000000 0.965926
vn 0.258819 0.000000 0.965926
vn 0.258819 0.000000 0.965926
vn 0.258819 0.000000 0.965926
vn 0.258819 0.000000 0.965926
vn 0.707107 0.000000 0.707107
vn 0.707107 0.000000 0.707107
vn 0.707107 0.000000 0.707107
vn 0.707107 0.000000 0.707107
vn 0.965926 0.000000 0.258819
vn 0.965926 0.000000 0.258819
vn 0.965926 0.000000 0.258819
vn 0.965926 0.000000 0.258819
vn 0.965926 0.000000 -0.258819
vn 0.965926 0.000000 -0.258819
vn 0.965926 0.000000 -0.258819
vn 0.965926 0.000000 -0.258819
vn 0.000000 -1.000000 0.000000
vn 0.000000 -1.000000 0.000000
vn 0.000000 -1.000000 0.000000
vn 0.000000 -1.000000 0.000000
vn 0.000000 1.000000 0.000000
vn 0.000000 1.000000 0.000000
vn 0.000000 1.000000 0.000000
vn 0.000000 1.000000 0.000000
vn 0.000000 0.000000 1.000000
vn 0.000000 0.000000 1.000000
vn 0.000000 0.000000 1.000000
vn 0.000000 0.000000 1.000000
vn 0.000000 -1.000000 0.000000
vn 0.000000 -1.000000 0.000000
vn 0.000000 -1.000000 0.000000
vn 0.000000 -1.000000 0.000000
vn 0.000000 0.000000 -1.000000
vn 0.000000 0.000000 -1.000000
vn 0.000000 0.000000 -1.000000
vn 0.000000 0.000000 -1.000000
vn 0.000000 1.000000 0.000000
vn 0.000000 1.000000 0.000000
vn 0.000000 1.000000 0.000000
vn 0.000000 1.000000 0.000000
s off
g pCylinder1
usemtl initialShadingGroup
f 1/48/1 2/49/2 14/40/3 13/34/4
f 2/153/5 3/154/6 15/155/7 14/156/8
f 3/154/9 4/157/10 16/158/11 15/155/12
f 4/9/13 5/1/14 17/4/15 16/10/16
f 5/1/17 6/2/18 18/3/19 17/4/20
f 6/2/21 7/5/22 19/6/23 18/3/24
f 7/5/25 8/11/26 20/12/27 19/6/28
f 8/159/29 9/160/30 21/161/31 20/162/32
f 9/160/33 10/163/34 22/164/35 21/161/36
f 10/46/37 11/47/38 23/30/39 22/38/40
f 99/24/41 100/25/42 101/26/43 102/27/44
f 100/25/45 103/28/46 104/29/47 101/26/48
s 1
f 2/72/49 1/73/50 25/74/51
f 3/76/52 2/72/49 25/74/51
f 4/80/53 3/76/52 25/74/51
f 5/83/54 4/80/53 25/74/51
f 6/85/55 5/83/54 25/74/51
f 7/87/56 6/85/55 25/74/51
f 8/86/57 7/87/56 25/74/51
f 9/84/58 8/86/57 25/74/51
f 10/82/59 9/84/58 25/74/51
f 11/79/60 10/82/59 25/74/51
f 12/75/61 11/79/60 25/74/51
f 1/73/50 12/75/61 25/74/51
s 2
f 86/88/62 87/89/63 88/90/64
f 87/89/63 89/91/65 88/90/64
f 89/91/65 90/93/66 88/90/64
f 90/93/66 91/95/67 88/90/64
f 91/95/67 92/97/68 88/90/64
f 92/97/68 93/99/69 88/90/64
f 93/99/69 94/100/70 88/90/64
f 94/100/70 95/98/71 88/90/64
f 95/98/71 96/96/72 88/90/64
f 96/96/72 97/94/73 88/90/64
f 97/94/73 98/92/74 88/90/64
f 98/92/74 86/88/62 88/90/64
s off
f 13/34/75 14/40/76 27/41/77 26/35/78
f 14/156/79 15/155/80 28/110/81 27/109/82
f 15/155/83 16/158/84 29/118/85 28/110/86
f 16/10/87 17/4/88 30/8/89 29/16/90
f 17/4/91 18/3/92 31/7/93 30/8/94
f 18/3/95 19/6/96 32/13/97 31/7/98
f 19/6/99 20/12/100 33/17/101 32/13/102
f 20/162/103 21/161/104 34/148/105 33/152/106
f 21/161/107 22/164/108 35/149/109 34/148/110
f 22/38/111 23/30/112 36/33/113 35/39/114
f 23/30/115 24/31/116 37/32/117 36/33/118
f 24/31/119 13/34/120 26/35/121 37/32/122
f 26/35/123 27/41/124 39/50/125 38/42/126
f 27/109/127 28/110/128 40/105/129 39/102/130
f 28/110/131 29/118/132 41/111/133 40/105/134
f 29/16/135 30/8/136 42/15/137 41/21/138
f 30/8/139 31/7/140 43/14/141 42/15/142
f 31/7/143 32/13/144 44/18/145 43/14/146
f 32/13/147 33/17/148 45/22/149 44/18/150
f 33/152/151 34/148/152 46/143/153 45/150/154
f 34/148/155 35/149/156 47/135/157 46/143/158
f 35/39/159 36/33/160 48/37/161 47/45/162
f 36/33/163 37/32/164 49/36/165 48/37/166
f 37/32/167 26/35/168 38/42/169 49/36/170
f 38/101/171 39/102/172 51/103/173 50/104/174
f 39/102/175 40/105/176 52/106/177 51/103/178
f 40/105/179 41/111/180 53/112/181 52/106/182
f 41/111/183 42/119/184 54/120/185 53/112/186
f 42/15/187 43/14/188 55/19/189 54/20/190
f 43/14/191 44/18/192 56/23/193 55/19/194
f 44/151/195 45/150/196 57/144/197 56/139/198
f 45/150/199 46/143/200 58/137/201 57/144/202
f 46/143/203 47/135/204 59/129/205 58/137/206
f 47/135/207 48/136/208 60/124/209 59/129/210
f 48/37/211 49/36/212 61/43/213 60/44/214
f 49/36/215 38/42/216 50/51/217 61/43/218
f 50/104/219 51/103/220 63/107/221 62/108/222
f 51/103/223 52/106/224 64/113/225 63/107/226
f 52/106/227 53/112/228 65/121/229 64/113/230
f 53/112/231 54/120/232 66/126/233 65/121/234
f 54/120/235 55/131/236 67/132/237 66/126/238
f 55/131/239 56/139/240 68/140/241 67/132/242
f 56/139/243 57/144/244 69/145/245 68/140/246
f 57/144/247 58/137/248 70/138/249 69/145/250
f 58/137/251 59/129/252 71/130/253 70/138/254
f 59/129/255 60/124/256 72/125/257 71/130/258
f 60/124/259 61/116/260 73/117/261 72/125/262
f 61/116/263 50/104/264 62/108/265 73/117/266
f 62/108/267 63/107/268 75/114/269 74/115/270
f 63/107/271 64/113/272 76/122/273 75/114/274
f 64/113/275 65/121/276 77/127/277 76/122/278
f 65/121/279 66/126/280 78/133/281 77/127/282
f 66/126/283 67/132/284 79/141/285 78/133/286
f 67/132/287 68/140/288 80/146/289 79/141/290
f 68/140/291 69/145/292 81/147/293 80/146/294
f 69/145/295 70/138/296 82/142/297 81/147/298
f 70/138/299 71/130/300 83/134/301 82/142/302
f 71/130/303 72/125/304 84/128/305 83/134/306
f 72/125/307 73/117/308 85/123/309 84/128/310
f 73/117/311 62/108/312 74/115/313 85/123/314
f 74/66/315 75/70/316 87/71/317 86/67/318
f 75/70/319 76/165/320 89/166/321 87/71/322
f 76/165/323 77/167/324 90/168/325 89/166/326
f 77/58/327 78/52/328 91/55/329 90/59/330
f 78/52/331 79/53/332 92/54/333 91/55/334
f 79/53/335 80/56/336 93/57/337 92/54/338
f 80/56/339 81/60/340 94/61/341 93/57/342
f 81/60/343 82/169/344 95/170/345 94/61/346
f 82/169/347 83/68/348 96/69/349 95/170/350
f 83/68/351 84/62/352 97/65/353 96/69/354
f 84/62/355 85/63/356 98/64/357 97/65/358
f 85/63/359 74/66/360 86/67/361 98/64/362
f 11/79/363 12/75/364 100/78/365 99/81/366
f 24/31/367 23/30/368 102/27/369 101/26/370
f 23/171/371 11/172/372 99/24/373 102/27/374
f 12/75/375 1/73/376 103/77/377 100/78/378
f 1/173/379 13/174/380 104/29/381 103/28/382
f 13/34/383 24/31/384 101/26/385 104/29/386
