# This file uses centimeters as units for non-parametric coordinates.

mtllib Lemon.mtl
g default
v 9.402489 0.653804 -0.391823
v 9.383613 0.923743 -0.503909
v 9.364738 1.193682 -0.391823
v 9.356919 1.305495 -0.121225
v 9.364738 1.193682 0.149373
v 9.383613 0.923743 0.261458
v 9.402489 0.653804 0.149373
v 9.410309 0.541992 -0.121225
v 9.670116 0.442557 -0.621225
v 9.635239 0.941339 -0.828332
v 9.600359 1.440121 -0.621225
v 9.585913 1.646723 -0.121225
v 9.600359 1.440121 0.378775
v 9.635239 0.941339 0.585881
v 9.670116 0.442557 0.378775
v 9.684564 0.235954 -0.121225
v 10.057392 0.315982 -0.774507
v 10.011819 0.967672 -1.045105
v 9.966250 1.619362 -0.774507
v 9.947373 1.889301 -0.121225
v 9.966250 1.619362 0.532056
v 10.011819 0.967672 0.802654
v 10.057392 0.315982 0.532056
v 10.076266 0.046043 -0.121225
v 10.505355 0.293350 -0.828332
v 10.456029 0.998734 -1.121225
v 10.406706 1.704118 -0.828332
v 10.386273 1.996298 -0.121225
v 10.406706 1.704118 0.585881
v 10.456029 0.998734 0.878775
v 10.505355 0.293350 0.585882
v 10.525787 0.001170 -0.121225
v 10.945809 0.378106 -0.774507
v 10.900240 1.029796 -1.045105
v 10.854668 1.681486 -0.774507
v 10.835793 1.951425 -0.121225
v 10.854668 1.681486 0.532056
v 10.900240 1.029796 0.802654
v 10.945809 0.378106 0.532056
v 10.964687 0.108167 -0.121225
v 11.311699 0.557347 -0.621225
v 11.276821 1.056129 -0.828332
v 11.241945 1.554911 -0.621225
v 11.227497 1.761514 -0.121225
v 11.241945 1.554911 0.378775
v 11.276821 1.056129 0.585881
v 11.311699 0.557347 0.378775
v 11.326146 0.350745 -0.121225
v 11.547320 0.803786 -0.391823
v 11.528446 1.073725 -0.503909
v 11.509570 1.343663 -0.391823
v 11.501751 1.455476 -0.121225
v 11.509570 1.343663 0.149373
v 11.528446 1.073725 0.261458
v 11.547320 0.803786 0.149373
v 11.555140 0.691973 -0.121225
v 11.650270 0.849727 -0.345770
v 11.634608 1.073725 -0.438780
v 11.707928 1.078852 -0.121225
v 11.618944 1.297723 -0.345770
v 11.612456 1.390506 -0.121225
v 11.618944 1.297723 0.103320
v 11.634608 1.073725 0.196329
v 11.650270 0.849727 0.103320
v 11.656759 0.756944 -0.121225
v 9.322064 0.851625 -0.188875
v 9.317345 0.919109 -0.216896
v 9.312627 0.986594 -0.188875
v 9.310672 1.014547 -0.121225
v 9.312627 0.986594 -0.053576
v 9.317345 0.919109 -0.025554
v 9.322064 0.851625 -0.053576
v 9.324019 0.823672 -0.121225
v 9.134255 0.851625 -0.053576
v 9.129537 0.919109 -0.025554
v 9.124818 0.986594 -0.053576
v 9.122863 1.014547 -0.121225
v 9.124818 0.986594 -0.188875
v 9.129537 0.919109 -0.216896
v 9.134255 0.851625 -0.188875
v 9.136211 0.823672 -0.121225
vt 0.000000 0.125000
vt 0.125000 0.125000
vt 0.250000 0.125000
vt 0.375000 0.125000
vt 0.500000 0.125000
vt 0.625000 0.125000
vt 0.750000 0.125000
vt 0.875000 0.125000
vt 1.000000 0.125000
vt 0.000000 0.250000
vt 0.125000 0.250000
vt 0.250000 0.250000
vt 0.375000 0.250000
vt 0.500000 0.250000
vt 0.625000 0.250000
vt 0.750000 0.250000
vt 0.875000 0.250000
vt 1.000000 0.250000
vt 0.000000 0.375000
vt 0.125000 0.375000
vt 0.250000 0.375000
vt 0.375000 0.375000
vt 0.500000 0.375000
vt 0.625000 0.375000
vt 0.750000 0.375000
vt 0.875000 0.375000
vt 1.000000 0.375000
vt 0.000000 0.500000
vt 0.125000 0.500000
vt 0.250000 0.500000
vt 0.375000 0.500000
vt 0.500000 0.500000
vt 0.625000 0.500000
vt 0.750000 0.500000
vt 0.875000 0.500000
vt 1.000000 0.500000
vt 0.000000 0.625000
vt 0.125000 0.625000
vt 0.250000 0.625000
vt 0.375000 0.625000
vt 0.500000 0.625000
vt 0.625000 0.625000
vt 0.750000 0.625000
vt 0.875000 0.625000
vt 1.000000 0.625000
vt 0.000000 0.750000
vt 0.125000 0.750000
vt 0.250000 0.750000
vt 0.375000 0.750000
vt 0.500000 0.750000
vt 0.625000 0.750000
vt 0.750000 0.750000
vt 0.875000 0.750000
vt 1.000000 0.750000
vt 0.000000 0.875000
vt 0.125000 0.875000
vt 0.250000 0.875000
vt 0.375000 0.875000
vt 0.500000 0.875000
vt 0.625000 0.875000
vt 0.750000 0.875000
vt 0.875000 0.875000
vt 1.000000 0.875000
vt 0.062500 1.000000
vt 0.187500 1.000000
vt 0.312500 1.000000
vt 0.437500 1.000000
vt 0.562500 1.000000
vt 0.687500 1.000000
vt 0.812500 1.000000
vt 0.937500 1.000000
vt 0.000000 0.875000
vt 0.125000 0.875000
vt 0.250000 0.875000
vt 0.375000 0.875000
vt 0.500000 0.875000
vt 0.625000 0.875000
vt 0.750000 0.875000
vt 0.875000 0.875000
vt 1.000000 0.875000
vt 0.968750 0.062500
vt 0.031250 0.062500
vt 0.093750 0.062500
vt 0.156250 0.062500
vt 0.218750 0.062500
vt 0.281250 0.062500
vt 0.343750 0.062500
vt 0.406250 0.062500
vt 0.468750 0.062500
vt 0.531250 0.062500
vt 0.593750 0.062500
vt 0.656250 0.062500
vt 0.718750 0.062500
vt 0.781250 0.062500
vt 0.843750 0.062500
vt 0.906250 0.062500
vt 0.718750 0.062500
vt 0.593750 0.062500
vt 0.468750 0.062500
vt 0.343750 0.062500
vt 0.218750 0.062500
vt 0.093750 0.062500
vt 0.968750 0.062500
vt 0.843750 0.062500
vn -0.746064 -0.299178 -0.594879
vn -0.746064 -0.299178 -0.594879
vn -0.746064 -0.299178 -0.594879
vn -0.746064 -0.299178 -0.594879
vn -0.780442 0.192434 -0.594877
vn -0.780442 0.192434 -0.594878
vn -0.780442 0.192434 -0.594878
vn -0.780442 0.192434 -0.594878
vn -0.804751 0.540056 -0.246406
vn -0.804751 0.540056 -0.246406
vn -0.804751 0.540055 -0.246406
vn -0.804751 0.540056 -0.246406
vn -0.804751 0.540055 0.246406
vn -0.804751 0.540055 0.246406
vn -0.804751 0.540056 0.246406
vn -0.804751 0.540055 0.246406
vn -0.780442 0.192434 0.594878
vn -0.780442 0.192434 0.594878
vn -0.780442 0.192434 0.594878
vn -0.780442 0.192434 0.594878
vn -0.746064 -0.299178 0.594879
vn -0.746064 -0.299178 0.594879
vn -0.746064 -0.299178 0.594879
vn -0.746064 -0.299178 0.594879
vn -0.721756 -0.646802 0.246405
vn -0.721756 -0.646802 0.246405
vn -0.721756 -0.646802 0.246405
vn -0.721756 -0.646802 0.246405
vn -0.721756 -0.646802 -0.246405
vn -0.721756 -0.646802 -0.246405
vn -0.721756 -0.646802 -0.246405
vn -0.721756 -0.646802 -0.246405
vn -0.443929 -0.369925 -0.816139
vn -0.443929 -0.369925 -0.816139
vn -0.443929 -0.369925 -0.816139
vn -0.443929 -0.369925 -0.816139
vn -0.491092 0.304541 -0.816139
vn -0.491092 0.304541 -0.816139
vn -0.491092 0.304541 -0.816139
vn -0.491092 0.304541 -0.816139
vn -0.524440 0.781460 -0.338056
vn -0.524440 0.781460 -0.338056
vn -0.524440 0.781460 -0.338056
vn -0.524440 0.781460 -0.338056
vn -0.524440 0.781460 0.338056
vn -0.524440 0.781460 0.338056
vn -0.524440 0.781460 0.338056
vn -0.524440 0.781460 0.338056
vn -0.491092 0.304541 0.816139
vn -0.491092 0.304541 0.816139
vn -0.491092 0.304541 0.816139
vn -0.491092 0.304541 0.816139
vn -0.443929 -0.369925 0.816139
vn -0.443929 -0.369925 0.816139
vn -0.443929 -0.369925 0.816139
vn -0.443929 -0.369925 0.816139
vn -0.410579 -0.846843 0.338056
vn -0.410579 -0.846843 0.338056
vn -0.410579 -0.846843 0.338056
vn -0.410579 -0.846843 0.338056
vn -0.410579 -0.846843 -0.338056
vn -0.410579 -0.846843 -0.338056
vn -0.410579 -0.846843 -0.338056
vn -0.410579 -0.846843 -0.338056
vn -0.129251 -0.387960 -0.912569
vn -0.129251 -0.387960 -0.912569
vn -0.129250 -0.387960 -0.912569
vn -0.129250 -0.387960 -0.912569
vn -0.181986 0.366196 -0.912569
vn -0.181986 0.366196 -0.912569
vn -0.181986 0.366196 -0.912569
vn -0.181986 0.366196 -0.912569
vn -0.219276 0.899464 -0.377999
vn -0.219276 0.899464 -0.377999
vn -0.219276 0.899464 -0.377999
vn -0.219276 0.899464 -0.377999
vn -0.219276 0.899464 0.377999
vn -0.219276 0.899464 0.377999
vn -0.219276 0.899464 0.377999
vn -0.219276 0.899464 0.377999
vn -0.181986 0.366196 0.912569
vn -0.181986 0.366196 0.912569
vn -0.181986 0.366196 0.912569
vn -0.181986 0.366196 0.912569
vn -0.129251 -0.387960 0.912569
vn -0.129251 -0.387960 0.912569
vn -0.129251 -0.387960 0.912569
vn -0.129251 -0.387960 0.912569
vn -0.091961 -0.921228 0.377999
vn -0.091961 -0.921228 0.377998
vn -0.091961 -0.921228 0.377998
vn -0.091961 -0.921228 0.377998
vn -0.091961 -0.921228 -0.377999
vn -0.091961 -0.921228 -0.377999
vn -0.091961 -0.921228 -0.377999
vn -0.091961 -0.921228 -0.377999
vn 0.181986 -0.366196 -0.912569
vn 0.181986 -0.366196 -0.912569
vn 0.181986 -0.366196 -0.912569
vn 0.181986 -0.366196 -0.912569
vn 0.129251 0.387959 -0.912569
vn 0.129251 0.387959 -0.912569
vn 0.129251 0.387959 -0.912569
vn 0.129251 0.387959 -0.912569
vn 0.091961 0.921228 -0.377998
vn 0.091961 0.921228 -0.377998
vn 0.091961 0.921228 -0.377998
vn 0.091961 0.921228 -0.377998
vn 0.091961 0.921228 0.377998
vn 0.091961 0.921228 0.377998
vn 0.091961 0.921228 0.377998
vn 0.091961 0.921228 0.377998
vn 0.129251 0.387959 0.912569
vn 0.129251 0.387959 0.912569
vn 0.129251 0.387959 0.912569
vn 0.129251 0.387959 0.912569
vn 0.181986 -0.366196 0.912569
vn 0.181986 -0.366196 0.912569
vn 0.181986 -0.366196 0.912569
vn 0.181986 -0.366196 0.912569
vn 0.219276 -0.899464 0.377999
vn 0.219276 -0.899464 0.377999
vn 0.219276 -0.899464 0.377999
vn 0.219276 -0.899464 0.377999
vn 0.219276 -0.899464 -0.377999
vn 0.219276 -0.899464 -0.377999
vn 0.219276 -0.899464 -0.377999
vn 0.219276 -0.899464 -0.377999
vn 0.491092 -0.304542 -0.816139
vn 0.491092 -0.304542 -0.816139
vn 0.491092 -0.304542 -0.816139
vn 0.491092 -0.304542 -0.816139
vn 0.443928 0.369924 -0.816140
vn 0.443928 0.369924 -0.816140
vn 0.443928 0.369924 -0.816140
vn 0.443928 0.369924 -0.816140
vn 0.410578 0.846844 -0.338056
vn 0.410578 0.846844 -0.338056
vn 0.410578 0.846844 -0.338056
vn 0.410577 0.846844 -0.338056
vn 0.410577 0.846844 0.338056
vn 0.410577 0.846844 0.338056
vn 0.410577 0.846844 0.338056
vn 0.410577 0.846844 0.338056
vn 0.443928 0.369924 0.816140
vn 0.443928 0.369924 0.816140
vn 0.443928 0.369924 0.816140
vn 0.443928 0.369924 0.816140
vn 0.491092 -0.304542 0.816139
vn 0.491092 -0.304542 0.816139
vn 0.491092 -0.304542 0.816139
vn 0.491092 -0.304542 0.816139
vn 0.524441 -0.781460 0.338057
vn 0.524441 -0.781460 0.338057
vn 0.524441 -0.781460 0.338057
vn 0.524441 -0.781460 0.338057
vn 0.524441 -0.781459 -0.338057
vn 0.524441 -0.781459 -0.338057
vn 0.524441 -0.781459 -0.338057
vn 0.524441 -0.781459 -0.338057
vn 0.780442 -0.192435 -0.594877
vn 0.780442 -0.192435 -0.594877
vn 0.780442 -0.192435 -0.594877
vn 0.780442 -0.192435 -0.594877
vn 0.746066 0.299176 -0.594877
vn 0.746066 0.299176 -0.594877
vn 0.746066 0.299176 -0.594877
vn 0.746066 0.299176 -0.594878
vn 0.721759 0.646799 -0.246405
vn 0.721759 0.646799 -0.246405
vn 0.721759 0.646799 -0.246405
vn 0.721759 0.646799 -0.246405
vn 0.721759 0.646799 0.246405
vn 0.721759 0.646799 0.246405
vn 0.721759 0.646799 0.246405
vn 0.721759 0.646799 0.246405
vn 0.746066 0.299176 0.594878
vn 0.746066 0.299176 0.594877
vn 0.746066 0.299176 0.594878
vn 0.746066 0.299176 0.594878
vn 0.780442 -0.192435 0.594877
vn 0.780442 -0.192435 0.594877
vn 0.780442 -0.192435 0.594877
vn 0.780442 -0.192435 0.594877
vn 0.804750 -0.540056 0.246407
vn 0.804750 -0.540056 0.246407
vn 0.804750 -0.540056 0.246407
vn 0.804750 -0.540056 0.246407
vn 0.804750 -0.540056 -0.246407
vn 0.804750 -0.540056 -0.246407
vn 0.804750 -0.540056 -0.246407
vn 0.804750 -0.540056 -0.246407
vn -0.997564 -0.069754 -0.000000
vn -0.997564 -0.069754 -0.000000
vn -0.997564 -0.069754 -0.000000
vn -0.997564 -0.069754 -0.000000
vn -0.997564 -0.069754 -0.000000
vn -0.997564 -0.069754 -0.000000
vn -0.997564 -0.069754 -0.000000
vn -0.997564 -0.069754 -0.000000
vn 0.974147 -0.025110 -0.224515
vn 0.974147 -0.025110 -0.224515
vn 0.974147 -0.025110 -0.224515
vn 0.961173 0.160436 -0.224515
vn 0.961173 0.160436 -0.224515
vn 0.961173 0.160436 -0.224515
vn 0.951999 0.291634 -0.092997
vn 0.951999 0.291634 -0.092997
vn 0.951999 0.291634 -0.092997
vn 0.951999 0.291634 0.092997
vn 0.951999 0.291633 0.092997
vn 0.951999 0.291634 0.092997
vn 0.961173 0.160436 0.224515
vn 0.961173 0.160436 0.224515
vn 0.961173 0.160436 0.224515
vn 0.974147 -0.025110 0.224515
vn 0.974147 -0.025110 0.224515
vn 0.974147 -0.025110 0.224515
vn 0.983321 -0.156303 0.093002
vn 0.983321 -0.156303 0.093002
vn 0.983321 -0.156303 0.093002
vn 0.983321 -0.156303 -0.093001
vn 0.983321 -0.156303 -0.093001
vn 0.983321 -0.156303 -0.093001
vn 0.498425 -0.302497 -0.812446
vn 0.498425 -0.302497 -0.812446
vn 0.498425 -0.302497 -0.812446
vn 0.498425 -0.302497 -0.812446
vn 0.487102 0.363746 -0.793990
vn 0.487102 0.363746 -0.793990
vn 0.487102 0.363746 -0.793990
vn 0.487102 0.363746 -0.793990
vn 0.478953 0.816106 -0.323380
vn 0.478953 0.816106 -0.323380
vn 0.478953 0.816106 -0.323380
vn 0.478953 0.816106 -0.323380
vn 0.478953 0.816106 0.323380
vn 0.478953 0.816106 0.323380
vn 0.478953 0.816106 0.323380
vn 0.478953 0.816106 0.323380
vn 0.487102 0.363746 0.793990
vn 0.487102 0.363746 0.793990
vn 0.487102 0.363746 0.793990
vn 0.487102 0.363746 0.793990
vn 0.498425 -0.302497 0.812446
vn 0.498425 -0.302497 0.812446
vn 0.498425 -0.302497 0.812446
vn 0.498425 -0.302497 0.812446
vn 0.506226 -0.791778 0.341795
vn 0.506226 -0.791777 0.341795
vn 0.506226 -0.791777 0.341795
vn 0.506226 -0.791777 0.341795
vn 0.506226 -0.791777 -0.341795
vn 0.506226 -0.791777 -0.341795
vn 0.506226 -0.791777 -0.341795
vn 0.506226 -0.791777 -0.341795
vn -0.951998 -0.291635 0.092995
vn -0.951998 -0.291635 0.092995
vn -0.951998 -0.291635 0.092995
vn -0.951998 -0.291635 0.092995
vn -0.961173 -0.160435 0.224515
vn -0.961173 -0.160435 0.224515
vn -0.961173 -0.160435 0.224515
vn -0.961173 -0.160435 0.224515
vn -0.974147 0.025108 0.224515
vn -0.974147 0.025108 0.224515
vn -0.974147 0.025108 0.224514
vn -0.974147 0.025108 0.224515
vn -0.983321 0.156304 0.092999
vn -0.983321 0.156304 0.092999
vn -0.983321 0.156304 0.092999
vn -0.983321 0.156304 0.092999
vn -0.983321 0.156304 -0.092999
vn -0.983321 0.156304 -0.092999
vn -0.983321 0.156304 -0.092999
vn -0.983321 0.156304 -0.092999
vn -0.974147 0.025108 -0.224515
vn -0.974147 0.025108 -0.224515
vn -0.974147 0.025108 -0.224515
vn -0.974147 0.025108 -0.224515
vn -0.961173 -0.160435 -0.224515
vn -0.961173 -0.160435 -0.224515
vn -0.961173 -0.160435 -0.224515
vn -0.961173 -0.160435 -0.224515
vn -0.951998 -0.291635 -0.092995
vn -0.951998 -0.291635 -0.092995
vn -0.951998 -0.291635 -0.092995
vn -0.951998 -0.291635 -0.092995
vn -0.000000 -0.383481 0.923549
vn -0.000000 -0.383481 0.923549
vn -0.000000 -0.383481 0.923549
vn -0.000000 -0.383481 0.923549
vn 0.000000 0.383481 0.923549
vn 0.000000 0.383481 0.923549
vn 0.000000 0.383481 0.923549
vn 0.000000 0.383481 0.923549
vn 0.000000 0.924209 0.381888
vn 0.000000 0.924209 0.381888
vn 0.000000 0.924209 0.381888
vn 0.000000 0.924209 0.381888
vn 0.000000 0.924209 -0.381888
vn 0.000000 0.924209 -0.381888
vn 0.000000 0.924209 -0.381888
vn 0.000000 0.924209 -0.381888
vn 0.000000 0.383480 -0.923549
vn 0.000000 0.383480 -0.923549
vn 0.000000 0.383480 -0.923549
vn 0.000000 0.383480 -0.923549
vn -0.000000 -0.383481 -0.923549
vn -0.000000 -0.383481 -0.923549
vn -0.000000 -0.383481 -0.923549
vn -0.000000 -0.383481 -0.923549
vn -0.000000 -0.924209 -0.381887
vn -0.000000 -0.924209 -0.381887
vn -0.000000 -0.924209 -0.381887
vn -0.000000 -0.924209 -0.381887
vn -0.000000 -0.924209 0.381887
vn -0.000000 -0.924209 0.381887
vn -0.000000 -0.924209 0.381887
vn -0.000000 -0.924209 0.381887
s off
g pSphere7
usemtl initialShadingGroup
f 1/1/1 2/2/2 10/11/3 9/10/4
f 2/2/5 3/3/6 11/12/7 10/11/8
f 3/3/9 4/4/10 12/13/11 11/12/12
f 4/4/13 5/5/14 13/14/15 12/13/16
f 5/5/17 6/6/18 14/15/19 13/14/20
f 6/6/21 7/7/22 15/16/23 14/15/24
f 7/7/25 8/8/26 16/17/27 15/16/28
f 8/8/29 1/9/30 9/18/31 16/17/32
f 9/10/33 10/11/34 18/20/35 17/19/36
f 10/11/37 11/12/38 19/21/39 18/20/40
f 11/12/41 12/13/42 20/22/43 19/21/44
f 12/13/45 13/14/46 21/23/47 20/22/48
f 13/14/49 14/15/50 22/24/51 21/23/52
f 14/15/53 15/16/54 23/25/55 22/24/56
f 15/16/57 16/17/58 24/26/59 23/25/60
f 16/17/61 9/18/62 17/27/63 24/26/64
f 17/19/65 18/20/66 26/29/67 25/28/68
f 18/20/69 19/21/70 27/30/71 26/29/72
f 19/21/73 20/22/74 28/31/75 27/30/76
f 20/22/77 21/23/78 29/32/79 28/31/80
f 21/23/81 22/24/82 30/33/83 29/32/84
f 22/24/85 23/25/86 31/34/87 30/33/88
f 23/25/89 24/26/90 32/35/91 31/34/92
f 24/26/93 17/27/94 25/36/95 32/35/96
f 25/28/97 26/29/98 34/38/99 33/37/100
f 26/29/101 27/30/102 35/39/103 34/38/104
f 27/30/105 28/31/106 36/40/107 35/39/108
f 28/31/109 29/32/110 37/41/111 36/40/112
f 29/32/113 30/33/114 38/42/115 37/41/116
f 30/33/117 31/34/118 39/43/119 38/42/120
f 31/34/121 32/35/122 40/44/123 39/43/124
f 32/35/125 25/36/126 33/45/127 40/44/128
f 33/37/129 34/38/130 42/47/131 41/46/132
f 34/38/133 35/39/134 43/48/135 42/47/136
f 35/39/137 36/40/138 44/49/139 43/48/140
f 36/40/141 37/41/142 45/50/143 44/49/144
f 37/41/145 38/42/146 46/51/147 45/50/148
f 38/42/149 39/43/150 47/52/151 46/51/152
f 39/43/153 40/44/154 48/53/155 47/52/156
f 40/44/157 33/45/158 41/54/159 48/53/160
f 41/46/161 42/47/162 50/56/163 49/55/164
f 42/47/165 43/48/166 51/57/167 50/56/168
f 43/48/169 44/49/170 52/58/171 51/57/172
f 44/49/173 45/50/174 53/59/175 52/58/176
f 45/50/177 46/51/178 54/60/179 53/59/180
f 46/51/181 47/52/182 55/61/183 54/60/184
f 47/52/185 48/53/186 56/62/187 55/61/188
f 48/53/189 41/54/190 49/63/191 56/62/192
f 74/97/193 75/98/194 76/99/195 77/100/196 78/101/197 79/102/198 80/103/199 81/104/200
f 57/72/201 58/73/202 59/64/203
f 58/73/204 60/74/205 59/65/206
f 60/74/207 61/75/208 59/66/209
f 61/75/210 62/76/211 59/67/212
f 62/76/213 63/77/214 59/68/215
f 63/77/216 64/78/217 59/69/218
f 64/78/219 65/79/220 59/70/221
f 65/79/222 57/80/223 59/71/224
f 49/55/225 50/56/226 58/73/227 57/72/228
f 50/56/229 51/57/230 60/74/231 58/73/232
f 51/57/233 52/58/234 61/75/235 60/74/236
f 52/58/237 53/59/238 62/76/239 61/75/240
f 53/59/241 54/60/242 63/77/243 62/76/244
f 54/60/245 55/61/246 64/78/247 63/77/248
f 55/61/249 56/62/250 65/79/251 64/78/252
f 56/62/253 49/63/254 57/80/255 65/79/256
f 8/8/257 7/7/258 72/94/259 73/95/260
f 7/7/261 6/6/262 71/92/263 72/93/264
f 6/6/265 5/5/266 70/90/267 71/91/268
f 5/5/269 4/4/270 69/88/271 70/89/272
f 4/4/273 3/3/274 68/86/275 69/87/276
f 3/3/277 2/2/278 67/84/279 68/85/280
f 2/2/281 1/1/282 66/82/283 67/83/284
f 1/9/285 8/8/286 73/96/287 66/81/288
f 72/93/289 71/91/290 75/98/291 74/97/292
f 71/91/293 70/89/294 76/99/295 75/98/296
f 70/89/297 69/87/298 77/100/299 76/99/300
f 69/87/301 68/85/302 78/101/303 77/100/304
f 68/85/305 67/83/306 79/102/307 78/101/308
f 67/83/309 66/81/310 80/103/311 79/102/312
f 66/81/313 73/95/314 81/104/315 80/103/316
f 73/95/317 72/93/318 74/97/319 81/104/320
