# This file uses centimeters as units for non-parametric coordinates.

mtllib Orange.mtl
g default
v 8.536648 0.393137 -2.007327
v 8.192630 0.393137 -2.149824
v 7.848611 0.393137 -2.007327
v 7.706115 0.393137 -1.663309
v 7.848611 0.393137 -1.319291
v 8.192630 0.393137 -1.176794
v 8.536648 0.393137 -1.319291
v 8.679145 0.393137 -1.663309
v 8.828292 0.668725 -2.298972
v 8.192630 0.668725 -2.562272
v 7.556967 0.668725 -2.298972
v 7.293668 0.668725 -1.663309
v 7.556967 0.668725 -1.027647
v 8.192630 0.668725 -0.764347
v 8.828292 0.668725 -1.027647
v 9.091592 0.668725 -1.663309
v 9.023163 1.081173 -2.493842
v 8.192630 1.081173 -2.837860
v 7.362097 1.081173 -2.493842
v 7.018079 1.081173 -1.663309
v 7.362097 1.081173 -0.832776
v 8.192630 1.081173 -0.488758
v 9.023163 1.081173 -0.832776
v 9.367181 1.081173 -1.663309
v 9.091592 1.567688 -2.562272
v 8.192630 1.567688 -2.934634
v 7.293668 1.567688 -2.562272
v 6.921305 1.567688 -1.663309
v 7.293668 1.567688 -0.764347
v 8.192630 1.567688 -0.391984
v 9.091592 1.567688 -0.764347
v 9.463955 1.567688 -1.663309
v 9.023163 2.054203 -2.493842
v 8.192630 2.054203 -2.837860
v 7.362097 2.054203 -2.493842
v 7.018079 2.054203 -1.663309
v 7.362097 2.054203 -0.832776
v 8.192630 2.054203 -0.488758
v 9.023163 2.054203 -0.832776
v 9.367181 2.054203 -1.663309
v 8.828292 2.466651 -2.298972
v 8.192630 2.466651 -2.562272
v 7.556967 2.466651 -2.298972
v 7.293668 2.466651 -1.663309
v 7.556967 2.466651 -1.027647
v 8.192630 2.466651 -0.764347
v 8.828292 2.466651 -1.027647
v 9.091592 2.466651 -1.663309
v 8.536648 2.742239 -2.007327
v 8.192630 2.742239 -2.149824
v 7.848611 2.742239 -2.007327
v 7.706115 2.742239 -1.663309
v 7.848611 2.742239 -1.319291
v 8.192630 2.742239 -1.176794
v 8.536648 2.742239 -1.319291
v 8.679145 2.742239 -1.663309
v 8.192630 0.296363 -1.663309
v 8.363504 2.814820 -1.834182
v 8.192630 2.814820 -1.904961
v 8.021756 2.814820 -1.834182
v 7.950979 2.814820 -1.663309
v 8.021756 2.814820 -1.492436
v 8.192630 2.814820 -1.421658
v 8.363504 2.814820 -1.492436
v 8.434281 2.814820 -1.663309
v 8.314259 2.891976 -1.663309
v 8.278635 2.891976 -1.749314
v 8.192630 2.891976 -1.784938
v 8.106625 2.891976 -1.749314
v 8.071001 2.891976 -1.663309
v 8.106625 2.891976 -1.577305
v 8.192630 2.891976 -1.541680
v 8.278635 2.891976 -1.577305
vt 0.000000 0.125000
vt 0.125000 0.125000
vt 0.250000 0.125000
vt 0.375000 0.125000
vt 0.500000 0.125000
vt 0.625000 0.125000
vt 0.750000 0.125000
vt 0.875000 0.125000
vt 1.000000 0.125000
vt 0.000000 0.250000
vt 0.125000 0.250000
vt 0.250000 0.250000
vt 0.375000 0.250000
vt 0.500000 0.250000
vt 0.625000 0.250000
vt 0.750000 0.250000
vt 0.875000 0.250000
vt 1.000000 0.250000
vt 0.000000 0.375000
vt 0.125000 0.375000
vt 0.250000 0.375000
vt 0.375000 0.375000
vt 0.500000 0.375000
vt 0.625000 0.375000
vt 0.750000 0.375000
vt 0.875000 0.375000
vt 1.000000 0.375000
vt 0.000000 0.500000
vt 0.125000 0.500000
vt 0.250000 0.500000
vt 0.375000 0.500000
vt 0.500000 0.500000
vt 0.625000 0.500000
vt 0.750000 0.500000
vt 0.875000 0.500000
vt 1.000000 0.500000
vt 0.000000 0.625000
vt 0.125000 0.625000
vt 0.250000 0.625000
vt 0.375000 0.625000
vt 0.500000 0.625000
vt 0.625000 0.625000
vt 0.750000 0.625000
vt 0.875000 0.625000
vt 1.000000 0.625000
vt 0.000000 0.750000
vt 0.125000 0.750000
vt 0.250000 0.750000
vt 0.375000 0.750000
vt 0.500000 0.750000
vt 0.625000 0.750000
vt 0.750000 0.750000
vt 0.875000 0.750000
vt 1.000000 0.750000
vt 0.000000 0.875000
vt 0.125000 0.875000
vt 0.250000 0.875000
vt 0.375000 0.875000
vt 0.500000 0.875000
vt 0.625000 0.875000
vt 0.750000 0.875000
vt 0.875000 0.875000
vt 1.000000 0.875000
vt 0.062500 0.000000
vt 0.187500 0.000000
vt 0.312500 0.000000
vt 0.437500 0.000000
vt 0.562500 0.000000
vt 0.687500 0.000000
vt 0.812500 0.000000
vt 0.937500 0.000000
vt 0.968750 0.937500
vt 0.031250 0.937500
vt 0.093750 0.937500
vt 0.156250 0.937500
vt 0.218750 0.937500
vt 0.281250 0.937500
vt 0.343750 0.937500
vt 0.406250 0.937500
vt 0.468750 0.937500
vt 0.531250 0.937500
vt 0.593750 0.937500
vt 0.656250 0.937500
vt 0.718750 0.937500
vt 0.781250 0.937500
vt 0.843750 0.937500
vt 0.906250 0.937500
vt 0.906250 0.937500
vt 0.031250 0.937500
vt 0.156250 0.937500
vt 0.281250 0.937500
vt 0.406250 0.937500
vt 0.531250 0.937500
vt 0.656250 0.937500
vt 0.781250 0.937500
vn 0.224263 -0.810291 -0.541419
vn 0.224263 -0.810291 -0.541419
vn 0.224263 -0.810291 -0.541419
vn 0.224263 -0.810291 -0.541419
vn -0.224263 -0.810291 -0.541419
vn -0.224263 -0.810291 -0.541419
vn -0.224263 -0.810291 -0.541419
vn -0.224263 -0.810291 -0.541419
vn -0.541420 -0.810291 -0.224263
vn -0.541420 -0.810291 -0.224263
vn -0.541420 -0.810291 -0.224263
vn -0.541420 -0.810291 -0.224263
vn -0.541420 -0.810291 0.224263
vn -0.541420 -0.810291 0.224263
vn -0.541420 -0.810291 0.224263
vn -0.541420 -0.810291 0.224263
vn -0.224263 -0.810291 0.541419
vn -0.224263 -0.810291 0.541419
vn -0.224263 -0.810291 0.541419
vn -0.224263 -0.810291 0.541419
vn 0.224263 -0.810291 0.541419
vn 0.224263 -0.810291 0.541419
vn 0.224263 -0.810291 0.541419
vn 0.224263 -0.810291 0.541419
vn 0.541420 -0.810291 0.224263
vn 0.541420 -0.810291 0.224263
vn 0.541420 -0.810291 0.224263
vn 0.541420 -0.810291 0.224263
vn 0.541420 -0.810291 -0.224263
vn 0.541420 -0.810291 -0.224263
vn 0.541420 -0.810291 -0.224263
vn 0.541420 -0.810291 -0.224263
vn 0.325634 -0.525289 -0.786151
vn 0.325634 -0.525289 -0.786151
vn 0.325634 -0.525289 -0.786151
vn 0.325634 -0.525289 -0.786151
vn -0.325634 -0.525289 -0.786151
vn -0.325634 -0.525289 -0.786151
vn -0.325634 -0.525289 -0.786151
vn -0.325634 -0.525289 -0.786151
vn -0.786151 -0.525289 -0.325635
vn -0.786151 -0.525289 -0.325635
vn -0.786151 -0.525289 -0.325635
vn -0.786151 -0.525289 -0.325635
vn -0.786151 -0.525289 0.325635
vn -0.786151 -0.525289 0.325635
vn -0.786151 -0.525289 0.325635
vn -0.786151 -0.525289 0.325635
vn -0.325635 -0.525289 0.786151
vn -0.325635 -0.525289 0.786151
vn -0.325635 -0.525289 0.786151
vn -0.325635 -0.525289 0.786151
vn 0.325634 -0.525289 0.786151
vn 0.325634 -0.525289 0.786151
vn 0.325634 -0.525289 0.786151
vn 0.325634 -0.525289 0.786151
vn 0.786151 -0.525289 0.325634
vn 0.786151 -0.525289 0.325634
vn 0.786151 -0.525289 0.325634
vn 0.786151 -0.525289 0.325635
vn 0.786151 -0.525289 -0.325635
vn 0.786151 -0.525289 -0.325635
vn 0.786151 -0.525289 -0.325635
vn 0.786151 -0.525289 -0.325635
vn 0.376381 -0.180744 -0.908663
vn 0.376381 -0.180744 -0.908663
vn 0.376381 -0.180744 -0.908663
vn 0.376381 -0.180744 -0.908663
vn -0.376381 -0.180744 -0.908663
vn -0.376381 -0.180744 -0.908663
vn -0.376381 -0.180744 -0.908663
vn -0.376381 -0.180744 -0.908663
vn -0.908663 -0.180744 -0.376381
vn -0.908663 -0.180744 -0.376381
vn -0.908663 -0.180744 -0.376381
vn -0.908663 -0.180744 -0.376381
vn -0.908663 -0.180744 0.376381
vn -0.908663 -0.180744 0.376381
vn -0.908663 -0.180744 0.376381
vn -0.908663 -0.180744 0.376381
vn -0.376381 -0.180745 0.908663
vn -0.376381 -0.180745 0.908663
vn -0.376381 -0.180745 0.908663
vn -0.376381 -0.180745 0.908663
vn 0.376381 -0.180744 0.908663
vn 0.376381 -0.180744 0.908663
vn 0.376381 -0.180744 0.908663
vn 0.376381 -0.180744 0.908663
vn 0.908663 -0.180744 0.376381
vn 0.908663 -0.180744 0.376381
vn 0.908663 -0.180744 0.376381
vn 0.908663 -0.180744 0.376381
vn 0.908663 -0.180744 -0.376381
vn 0.908663 -0.180744 -0.376381
vn 0.908663 -0.180744 -0.376381
vn 0.908663 -0.180744 -0.376381
vn 0.376381 0.180744 -0.908663
vn 0.376381 0.180744 -0.908663
vn 0.376381 0.180744 -0.908663
vn 0.376381 0.180744 -0.908663
vn -0.376381 0.180744 -0.908663
vn -0.376381 0.180744 -0.908663
vn -0.376381 0.180744 -0.908663
vn -0.376381 0.180744 -0.908663
vn -0.908663 0.180744 -0.376381
vn -0.908663 0.180744 -0.376381
vn -0.908663 0.180744 -0.376381
vn -0.908663 0.180744 -0.376381
vn -0.908663 0.180744 0.376381
vn -0.908663 0.180744 0.376381
vn -0.908663 0.180744 0.376381
vn -0.908663 0.180744 0.376381
vn -0.376381 0.180745 0.908663
vn -0.376381 0.180745 0.908663
vn -0.376381 0.180745 0.908663
vn -0.376381 0.180745 0.908663
vn 0.376381 0.180744 0.908663
vn 0.376381 0.180744 0.908663
vn 0.376381 0.180744 0.908663
vn 0.376381 0.180744 0.908663
vn 0.908663 0.180744 0.376381
vn 0.908663 0.180744 0.376381
vn 0.908663 0.180744 0.376381
vn 0.908663 0.180744 0.376381
vn 0.908663 0.180744 -0.376381
vn 0.908663 0.180744 -0.376381
vn 0.908663 0.180744 -0.376381
vn 0.908663 0.180744 -0.376381
vn 0.325634 0.525289 -0.786151
vn 0.325634 0.525289 -0.786151
vn 0.325634 0.525289 -0.786151
vn 0.325634 0.525289 -0.786151
vn -0.325634 0.525289 -0.786151
vn -0.325634 0.525289 -0.786151
vn -0.325634 0.525289 -0.786151
vn -0.325634 0.525289 -0.786151
vn -0.786151 0.525289 -0.325635
vn -0.786151 0.525289 -0.325635
vn -0.786151 0.525289 -0.325635
vn -0.786151 0.525289 -0.325635
vn -0.786151 0.525289 0.325635
vn -0.786151 0.525289 0.325635
vn -0.786151 0.525289 0.325635
vn -0.786151 0.525289 0.325635
vn -0.325635 0.525289 0.786151
vn -0.325635 0.525289 0.786151
vn -0.325635 0.525289 0.786151
vn -0.325635 0.525289 0.786151
vn 0.325635 0.525289 0.786151
vn 0.325634 0.525289 0.786151
vn 0.325634 0.525289 0.786151
vn 0.325634 0.525289 0.786151
vn 0.786151 0.525289 0.325634
vn 0.786151 0.525289 0.325635
vn 0.786151 0.525289 0.325635
vn 0.786151 0.525289 0.325635
vn 0.786151 0.525289 -0.325635
vn 0.786151 0.525289 -0.325635
vn 0.786151 0.525289 -0.325635
vn 0.786151 0.525289 -0.325635
vn 0.224263 0.810291 -0.541419
vn 0.224263 0.810291 -0.541419
vn 0.224263 0.810291 -0.541419
vn 0.224263 0.810291 -0.541419
vn -0.224263 0.810291 -0.541419
vn -0.224263 0.810291 -0.541419
vn -0.224263 0.810291 -0.541419
vn -0.224263 0.810291 -0.541419
vn -0.541420 0.810290 -0.224263
vn -0.541420 0.810290 -0.224263
vn -0.541420 0.810290 -0.224263
vn -0.541420 0.810290 -0.224263
vn -0.541420 0.810291 0.224263
vn -0.541420 0.810291 0.224263
vn -0.541420 0.810291 0.224263
vn -0.541420 0.810291 0.224263
vn -0.224263 0.810291 0.541419
vn -0.224263 0.810291 0.541419
vn -0.224263 0.810291 0.541419
vn -0.224263 0.810291 0.541419
vn 0.224263 0.810291 0.541419
vn 0.224263 0.810291 0.541419
vn 0.224263 0.810291 0.541419
vn 0.224263 0.810291 0.541419
vn 0.541420 0.810290 0.224263
vn 0.541420 0.810290 0.224263
vn 0.541420 0.810290 0.224263
vn 0.541420 0.810290 0.224263
vn 0.541420 0.810291 -0.224263
vn 0.541420 0.810291 -0.224263
vn 0.541420 0.810291 -0.224263
vn 0.541420 0.810291 -0.224263
vn 0.080546 -0.977599 -0.194456
vn 0.080546 -0.977599 -0.194456
vn 0.080546 -0.977599 -0.194456
vn -0.080546 -0.977599 -0.194456
vn -0.080546 -0.977599 -0.194456
vn -0.080546 -0.977599 -0.194456
vn -0.194456 -0.977599 -0.080546
vn -0.194456 -0.977599 -0.080546
vn -0.194456 -0.977599 -0.080546
vn -0.194456 -0.977599 0.080546
vn -0.194456 -0.977599 0.080546
vn -0.194456 -0.977599 0.080546
vn -0.080546 -0.977599 0.194456
vn -0.080546 -0.977599 0.194456
vn -0.080546 -0.977599 0.194456
vn 0.080546 -0.977599 0.194456
vn 0.080546 -0.977599 0.194456
vn 0.080546 -0.977599 0.194456
vn 0.194456 -0.977599 0.080546
vn 0.194456 -0.977599 0.080546
vn 0.194456 -0.977599 0.080546
vn 0.194456 -0.977599 -0.080546
vn 0.194456 -0.977599 -0.080546
vn 0.194456 -0.977599 -0.080546
vn 0.000000 1.000000 0.000000
vn 0.000000 1.000000 0.000000
vn 0.000000 1.000000 0.000000
vn 0.000000 1.000000 0.000000
vn 0.000000 1.000000 0.000000
vn 0.000000 1.000000 0.000000
vn 0.000000 1.000000 0.000000
vn 0.000000 1.000000 0.000000
vn 0.282241 0.952194 -0.116907
vn 0.282241 0.952194 -0.116907
vn 0.282241 0.952194 -0.116907
vn 0.282241 0.952194 -0.116907
vn 0.116908 0.952194 -0.282241
vn 0.116908 0.952194 -0.282241
vn 0.116908 0.952194 -0.282241
vn 0.116908 0.952194 -0.282241
vn -0.116908 0.952194 -0.282241
vn -0.116908 0.952194 -0.282241
vn -0.116908 0.952194 -0.282241
vn -0.116908 0.952194 -0.282241
vn -0.282241 0.952194 -0.116907
vn -0.282241 0.952194 -0.116907
vn -0.282241 0.952194 -0.116907
vn -0.282241 0.952194 -0.116907
vn -0.282241 0.952194 0.116907
vn -0.282241 0.952194 0.116907
vn -0.282241 0.952194 0.116907
vn -0.282241 0.952194 0.116907
vn -0.116908 0.952194 0.282241
vn -0.116908 0.952194 0.282241
vn -0.116908 0.952194 0.282241
vn -0.116908 0.952194 0.282241
vn 0.116908 0.952194 0.282241
vn 0.116908 0.952194 0.282241
vn 0.116908 0.952194 0.282241
vn 0.116908 0.952194 0.282241
vn 0.282241 0.952194 0.116907
vn 0.282241 0.952194 0.116907
vn 0.282241 0.952194 0.116907
vn 0.282241 0.952194 0.116907
vn 0.527677 0.820844 -0.218567
vn 0.527677 0.820844 -0.218567
vn 0.527677 0.820844 -0.218567
vn 0.527677 0.820844 -0.218567
vn 0.218570 0.820844 -0.527677
vn 0.218570 0.820844 -0.527677
vn 0.218570 0.820844 -0.527677
vn 0.218570 0.820844 -0.527677
vn -0.218570 0.820844 -0.527677
vn -0.218570 0.820844 -0.527677
vn -0.218570 0.820844 -0.527677
vn -0.218570 0.820844 -0.527677
vn -0.527677 0.820844 -0.218567
vn -0.527677 0.820844 -0.218567
vn -0.527677 0.820844 -0.218567
vn -0.527677 0.820844 -0.218567
vn -0.527677 0.820844 0.218567
vn -0.527677 0.820844 0.218567
vn -0.527677 0.820844 0.218567
vn -0.527677 0.820844 0.218567
vn -0.218570 0.820844 0.527677
vn -0.218570 0.820844 0.527677
vn -0.218570 0.820844 0.527677
vn -0.218570 0.820844 0.527677
vn 0.218570 0.820844 0.527677
vn 0.218570 0.820844 0.527677
vn 0.218570 0.820844 0.527677
vn 0.218570 0.820844 0.527677
vn 0.527677 0.820844 0.218567
vn 0.527677 0.820844 0.218567
vn 0.527677 0.820844 0.218567
vn 0.527677 0.820844 0.218567
s off
g pSphere5
usemtl initialShadingGroup
f 1/1/1 2/2/2 10/11/3 9/10/4
f 2/2/5 3/3/6 11/12/7 10/11/8
f 3/3/9 4/4/10 12/13/11 11/12/12
f 4/4/13 5/5/14 13/14/15 12/13/16
f 5/5/17 6/6/18 14/15/19 13/14/20
f 6/6/21 7/7/22 15/16/23 14/15/24
f 7/7/25 8/8/26 16/17/27 15/16/28
f 8/8/29 1/9/30 9/18/31 16/17/32
f 9/10/33 10/11/34 18/20/35 17/19/36
f 10/11/37 11/12/38 19/21/39 18/20/40
f 11/12/41 12/13/42 20/22/43 19/21/44
f 12/13/45 13/14/46 21/23/47 20/22/48
f 13/14/49 14/15/50 22/24/51 21/23/52
f 14/15/53 15/16/54 23/25/55 22/24/56
f 15/16/57 16/17/58 24/26/59 23/25/60
f 16/17/61 9/18/62 17/27/63 24/26/64
f 17/19/65 18/20/66 26/29/67 25/28/68
f 18/20/69 19/21/70 27/30/71 26/29/72
f 19/21/73 20/22/74 28/31/75 27/30/76
f 20/22/77 21/23/78 29/32/79 28/31/80
f 21/23/81 22/24/82 30/33/83 29/32/84
f 22/24/85 23/25/86 31/34/87 30/33/88
f 23/25/89 24/26/90 32/35/91 31/34/92
f 24/26/93 17/27/94 25/36/95 32/35/96
f 25/28/97 26/29/98 34/38/99 33/37/100
f 26/29/101 27/30/102 35/39/103 34/38/104
f 27/30/105 28/31/106 36/40/107 35/39/108
f 28/31/109 29/32/110 37/41/111 36/40/112
f 29/32/113 30/33/114 38/42/115 37/41/116
f 30/33/117 31/34/118 39/43/119 38/42/120
f 31/34/121 32/35/122 40/44/123 39/43/124
f 32/35/125 25/36/126 33/45/127 40/44/128
f 33/37/129 34/38/130 42/47/131 41/46/132
f 34/38/133 35/39/134 43/48/135 42/47/136
f 35/39/137 36/40/138 44/49/139 43/48/140
f 36/40/141 37/41/142 45/50/143 44/49/144
f 37/41/145 38/42/146 46/51/147 45/50/148
f 38/42/149 39/43/150 47/52/151 46/51/152
f 39/43/153 40/44/154 48/53/155 47/52/156
f 40/44/157 33/45/158 41/54/159 48/53/160
f 41/46/161 42/47/162 50/56/163 49/55/164
f 42/47/165 43/48/166 51/57/167 50/56/168
f 43/48/169 44/49/170 52/58/171 51/57/172
f 44/49/173 45/50/174 53/59/175 52/58/176
f 45/50/177 46/51/178 54/60/179 53/59/180
f 46/51/181 47/52/182 55/61/183 54/60/184
f 47/52/185 48/53/186 56/62/187 55/61/188
f 48/53/189 41/54/190 49/63/191 56/62/192
f 2/2/193 1/1/194 57/64/195
f 3/3/196 2/2/197 57/65/198
f 4/4/199 3/3/200 57/66/201
f 5/5/202 4/4/203 57/67/204
f 6/6/205 5/5/206 57/68/207
f 7/7/208 6/6/209 57/69/210
f 8/8/211 7/7/212 57/70/213
f 1/9/214 8/8/215 57/71/216
f 66/88/217 67/89/218 68/90/219 69/91/220 70/92/221 71/93/222 72/94/223 73/95/224
f 56/62/225 49/63/226 58/72/227 65/87/228
f 49/55/229 50/56/230 59/74/231 58/73/232
f 50/56/233 51/57/234 60/76/235 59/75/236
f 51/57/237 52/58/238 61/78/239 60/77/240
f 52/58/241 53/59/242 62/80/243 61/79/244
f 53/59/245 54/60/246 63/82/247 62/81/248
f 54/60/249 55/61/250 64/84/251 63/83/252
f 55/61/253 56/62/254 65/86/255 64/85/256
f 65/87/257 58/73/258 67/89/259 66/88/260
f 58/73/261 59/75/262 68/90/263 67/89/264
f 59/75/265 60/77/266 69/91/267 68/90/268
f 60/77/269 61/79/270 70/92/271 69/91/272
f 61/79/273 62/81/274 71/93/275 70/92/276
f 62/81/277 63/83/278 72/94/279 71/93/280
f 63/83/281 64/85/282 73/95/283 72/94/284
f 64/85/285 65/87/286 66/88/287 73/95/288
