# This file uses centimeters as units for non-parametric coordinates.

mtllib Salmon.mtl
g default
v -11.271319 0.188111 3.801091
v -9.234613 0.188111 3.801091
v -11.288013 0.693519 3.902647
v -9.217918 0.693519 3.902647
v -11.562320 2.868334 -4.654686
v -8.943611 2.868334 -4.654686
v -11.545578 0.489101 -4.654686
v -8.960354 0.489101 -4.654686
v -11.708054 2.992798 -2.323621
v -11.530908 0.291132 -2.323621
v -8.975024 0.291132 -2.323621
v -8.797877 2.992798 -2.323621
v -8.924573 2.488593 0.286190
v -11.581358 2.488593 0.286190
v -11.432623 0.207016 0.286190
v -9.073308 0.207016 0.286190
v -10.277751 0.693519 3.902647
v -10.286163 2.533521 0.286190
v -10.286163 3.015943 -2.323621
v -10.286163 2.868334 -5.002791
v -10.286163 0.489101 -5.002791
v -10.286163 0.120157 -2.323621
v -10.286163 0.036040 0.286190
v -10.277751 0.188111 3.902647
v -10.286163 1.741107 -5.002791
v -11.833867 1.741107 -4.654686
v -11.869802 1.712810 -2.323621
v -11.869802 1.407633 0.286190
v -11.365774 0.454068 3.902647
v -10.277751 0.454068 3.902647
v -9.140158 0.454068 3.902647
v -8.636129 1.407633 0.286190
v -8.636129 1.712810 -2.323621
v -8.672064 1.741107 -4.654686
vt 0.375000 0.000000
vt 0.625000 0.000000
vt 0.375000 0.250000
vt 0.625000 0.250000
vt 0.375000 0.500000
vt 0.625000 0.500000
vt 0.375000 0.750000
vt 0.625000 0.750000
vt 0.375000 1.000000
vt 0.625000 1.000000
vt 0.875000 0.000000
vt 0.875000 0.250000
vt 0.125000 0.000000
vt 0.125000 0.250000
vt 0.174859 0.250000
vt 0.375000 0.450141
vt 0.174859 0.000000
vt 0.375000 0.799859
vt 0.625000 0.799859
vt 0.825141 0.000000
vt 0.625000 0.450141
vt 0.825141 0.250000
vt 0.625000 0.384079
vt 0.759079 0.250000
vt 0.240921 0.250000
vt 0.375000 0.384079
vt 0.240921 0.000000
vt 0.375000 0.865921
vt 0.625000 0.865921
vt 0.759079 0.000000
vt 0.497433 0.250000
vt 0.497433 0.384079
vt 0.497433 0.450141
vt 0.497433 0.500000
vt 0.497433 0.750000
vt 0.497433 0.799859
vt 0.497433 0.865921
vt 0.497433 0.000000
vt 0.497433 1.000000
vt 0.497433 0.618444
vt 0.125000 0.131556
vt 0.375000 0.618444
vt 0.174859 0.131556
vt 0.240921 0.131556
vt 0.375000 0.131556
vt 0.497433 0.131556
vt 0.625000 0.131556
vt 0.759079 0.131556
vt 0.825141 0.131556
vt 0.625000 0.618444
vt 0.875000 0.131556
vn -0.025318 -0.103576 0.994299
vn -0.000000 -0.103967 0.994581
vn 0.000000 0.000000 1.000000
vn 0.000000 0.000000 1.000000
vn -0.017404 0.893078 0.449564
vn 0.000021 0.893229 0.449602
vn -0.000010 0.942930 0.332990
vn -0.020773 0.941306 0.336913
vn -0.239278 0.028821 -0.970523
vn 0.000000 0.029002 -0.999579
vn -0.000000 -0.000850 -1.000000
vn -0.240085 -0.000891 -0.970752
vn -0.110608 -0.993856 -0.003925
vn -0.000047 -0.999998 -0.002214
vn 0.000331 -0.999791 0.020449
vn -0.080592 -0.996536 0.020527
vn 0.971098 -0.226008 0.076733
vn 0.996188 -0.028661 0.082383
vn 0.977866 0.196604 0.071585
vn 0.943473 0.261664 0.203448
vn -0.996188 -0.028661 0.082383
vn -0.971098 -0.226008 0.076733
vn -0.943473 0.261664 0.203448
vn -0.977866 0.196604 0.071585
vn -0.999133 -0.029759 -0.029127
vn -0.999927 -0.011332 0.004114
vn -0.983438 0.181198 -0.004201
vn -0.983316 0.176995 -0.041968
vn -0.083153 -0.990245 -0.111804
vn 0.000126 -0.993686 -0.112198
vn 0.000057 -0.997668 -0.068248
vn -0.109930 -0.991166 -0.074201
vn 0.983438 0.181198 -0.004201
vn 0.999927 -0.011332 0.004114
vn 0.999133 -0.029759 -0.029127
vn 0.983316 0.176995 -0.041968
vn -0.020534 0.997076 0.073602
vn 0.000006 0.997559 0.069833
vn 0.000028 0.998505 -0.054666
vn -0.015618 0.998382 -0.054670
vn 0.016571 0.893120 0.449512
vn 0.019797 0.941400 0.336710
vn 0.019572 0.997100 0.073541
vn 0.014883 0.998395 -0.054649
vn 0.229854 -0.000853 -0.973225
vn 0.229117 0.027597 -0.973008
vn 0.078994 -0.990580 -0.111854
vn 0.104408 -0.991765 -0.074174
vn 0.104896 -0.994475 -0.004137
vn 0.076462 -0.996867 0.020254
vn 0.024172 -0.103394 0.994347
vn 0.000000 0.000000 1.000000
vn -0.000000 -0.027884 -0.999611
vn -0.240631 -0.027704 -0.970221
vn -0.973455 -0.228350 -0.015522
vn -0.964681 -0.263307 -0.007722
vn -0.949805 -0.312332 0.017889
vn -0.938446 -0.343011 0.040779
vn -0.047789 -0.195504 0.979538
vn -0.000000 -0.195538 0.980696
vn 0.045625 -0.195153 0.979711
vn 0.938446 -0.343011 0.040779
vn 0.949805 -0.312332 0.017889
vn 0.964681 -0.263307 -0.007722
vn 0.973455 -0.228350 -0.015522
vn 0.230359 -0.026522 -0.972744
s 1
g pCube2
usemtl initialShadingGroup
f 29/45/1 30/46/2 17/31/3 3/3/4
s 2
f 3/3/5 17/31/6 18/32/7 14/26/8
s 3
f 5/5/9 20/34/10 25/40/11 26/42/12
s 4
f 15/28/13 23/37/14 24/39/15 1/9/16
s 5
f 31/47/17 32/48/18 13/24/19 4/4/20
s 6
f 28/44/21 29/45/22 3/3/23 14/25/24
f 26/41/25 27/43/26 9/15/27 5/14/28
s 4
f 7/7/29 21/35/30 22/36/31 10/18/32
s 5
f 12/22/33 33/49/34 34/51/35 6/12/36
s 2
f 9/16/37 19/33/38 20/34/39 5/5/40
f 14/26/8 18/32/7 19/33/38 9/16/37
s 6
f 27/43/26 28/44/21 14/25/24 9/15/27
s 4
f 10/18/32 22/36/31 23/37/14 15/28/13
s 5
f 13/24/19 32/48/18 33/49/34 12/22/33
s 2
f 17/31/6 4/4/41 13/23/42 18/32/7
f 19/33/38 18/32/7 13/23/42 12/21/43
f 20/34/39 19/33/38 12/21/43 6/6/44
s 3
f 34/50/45 25/40/11 20/34/10 6/6/46
s 4
f 22/36/31 21/35/30 8/8/47 11/19/48
f 23/37/14 22/36/31 11/19/48 16/29/49
f 24/39/15 23/37/14 16/29/49 2/10/50
s 1
f 17/31/3 30/46/2 31/47/51 4/4/52
s 3
f 26/42/12 25/40/11 21/35/53 7/7/54
s 6
f 7/13/55 10/17/56 27/43/26 26/41/25
f 10/17/56 15/27/57 28/44/21 27/43/26
f 15/27/57 1/1/58 29/45/22 28/44/21
s 1
f 1/1/59 24/38/60 30/46/2 29/45/1
f 31/47/51 30/46/2 24/38/60 2/2/61
s 5
f 2/2/62 16/30/63 32/48/18 31/47/17
f 33/49/34 32/48/18 16/30/63 11/20/64
f 34/51/35 33/49/34 11/20/64 8/11/65
s 3
f 21/35/53 25/40/11 34/50/45 8/8/66
