# This file uses centimeters as units for non-parametric coordinates.

mtllib WokSpatula.mtl
g default
v -4.411019 3.627067 9.441867
v -2.748778 3.627067 9.217637
v -4.411019 3.704106 9.441867
v -2.748778 3.704106 9.217637
v -4.411019 3.704106 7.695329
v -2.748778 3.704106 7.919559
v -4.411019 3.627067 7.695329
v -2.748778 3.627067 7.919559
v -3.537750 3.704106 9.360809
v -3.537750 3.704106 7.776386
v -3.537750 3.627067 7.776386
v -3.537750 3.627067 9.360809
v -4.538513 3.704106 8.049083
v -4.538513 3.627067 8.049083
v -3.537750 3.627067 8.145254
v -2.681618 3.627067 8.247793
v -2.681618 3.704106 8.247793
v -3.537750 3.704106 8.145254
v -4.538513 3.704106 9.088112
v -4.538513 3.627067 9.088112
v -3.537750 3.627067 8.991941
v -2.681618 3.627067 8.889403
v -2.681618 3.704106 8.889403
v -3.537750 3.704106 8.991941
v -2.609641 3.627067 8.889403
v -2.609641 3.704106 8.889403
v -2.609641 3.627067 8.247793
v -2.609641 3.704106 8.247793
v -2.636896 3.862010 8.757313
v -2.636896 3.862010 8.379882
v -2.578066 3.844953 8.757313
v -2.578066 3.844953 8.379882
v -2.553779 3.958627 8.697799
v -2.553779 3.958627 8.439397
v -2.527114 3.903963 8.697799
v -2.527114 3.903963 8.439397
v -2.413037 4.071423 8.678679
v -2.413037 4.071423 8.458516
v -2.382205 3.983537 8.678679
v -2.382205 3.983537 8.458516
v -2.413037 4.071423 8.531904
v -2.553779 3.958627 8.525531
v -2.636896 3.862010 8.505693
v -2.681618 3.704106 8.461663
v -3.537750 3.704106 8.471568
v -4.605942 3.704106 8.410576
v -4.605942 3.627067 8.410576
v -3.537750 3.627067 8.471568
v -2.681618 3.627067 8.461663
v -2.609641 3.627067 8.461663
v -2.609641 3.704106 8.461663
v -2.578066 3.844953 8.505693
v -2.527114 3.903963 8.525531
v -2.382205 3.983537 8.531904
v -2.413037 4.071423 8.605292
v -2.553779 3.958627 8.611665
v -2.636896 3.862010 8.631503
v -2.681618 3.704106 8.675533
v -3.537750 3.704106 8.665628
v -4.605942 3.704106 8.726620
v -4.605942 3.627067 8.726620
v -3.537750 3.627067 8.665628
v -2.681618 3.627067 8.675533
v -2.609641 3.627067 8.675533
v -2.609641 3.704106 8.675533
v -2.578066 3.844953 8.631503
v -2.527114 3.903963 8.611665
v -2.382205 3.983537 8.605292
v -2.143320 4.019902 8.605292
v -2.202476 4.192729 8.605292
v -2.183985 4.138706 8.678679
v -2.161811 4.073925 8.678679
v -2.202476 4.192729 8.531904
v -2.183985 4.138706 8.458516
v -2.143320 4.019902 8.531904
v -2.161811 4.073925 8.458516
v 0.783824 4.955407 8.617989
v 0.702554 5.222840 8.617989
v 0.727958 5.139248 8.716776
v 0.758421 5.038999 8.716776
v 0.702553 5.222840 8.519207
v 0.727957 5.139248 8.420420
v 0.783824 4.955407 8.519207
v 0.758420 5.038999 8.420420
v 0.769198 5.003536 8.600210
v 0.717180 5.174710 8.600210
v 0.733440 5.121205 8.663439
v 0.752939 5.057041 8.663439
v 0.717180 5.174710 8.536985
v 0.733440 5.121205 8.473756
v 0.769198 5.003536 8.536985
v 0.752938 5.057041 8.473756
v 0.790239 5.008563 8.600210
v 0.738222 5.179736 8.600210
v 0.754481 5.126229 8.663439
v 0.773980 5.062067 8.663439
v 0.738221 5.179736 8.536985
v 0.754481 5.126229 8.473757
v 0.790239 5.008563 8.536985
v 0.773979 5.062067 8.473757
v 0.776305 4.966523 8.614331
v 0.701053 5.214154 8.614331
v 0.724575 5.136748 8.705802
v 0.752783 5.043925 8.705802
v 0.701052 5.214154 8.522864
v 0.724575 5.136748 8.431393
v 0.776305 4.966523 8.522864
v 0.752782 5.043925 8.431393
v 1.702208 5.161505 8.624268
v 1.610611 5.462917 8.624268
v 1.639243 5.368696 8.735611
v 1.673578 5.255713 8.735611
v 1.610610 5.462917 8.512924
v 1.639243 5.368700 8.401577
v 1.702208 5.161505 8.512924
v 1.673576 5.255717 8.401577
v 2.215568 5.301396 8.616439
v 2.136854 5.560414 8.616439
v 2.161459 5.479446 8.712123
v 2.190964 5.382353 8.712123
v 2.136854 5.560414 8.520752
v 2.161458 5.479448 8.425064
v 2.215568 5.301396 8.520752
v 2.190963 5.382357 8.425064
v 2.298350 5.374071 8.600074
v 2.246560 5.544495 8.600074
v 2.262749 5.491221 8.663030
v 2.282162 5.427338 8.663030
v 2.246559 5.544495 8.537115
v 2.262748 5.491223 8.474156
v 2.298350 5.374071 8.537115
v 2.282161 5.427340 8.474156
vt 0.375000 0.000000
vt 0.625000 0.000000
vt 0.375000 0.250000
vt 0.625000 0.250000
vt 0.375000 0.500000
vt 0.625000 0.500000
vt 0.375000 0.750000
vt 0.625000 0.750000
vt 0.375000 1.000000
vt 0.625000 1.000000
vt 0.875000 0.000000
vt 0.875000 0.250000
vt 0.125000 0.000000
vt 0.125000 0.250000
vt 0.500000 0.250000
vt 0.500000 0.500000
vt 0.500000 0.750000
vt 0.500000 0.000000
vt 0.500000 1.000000
vt 0.208333 0.250000
vt 0.375000 0.416667
vt 0.208333 0.000000
vt 0.375000 0.833333
vt 0.500000 0.833333
vt 0.625000 0.833333
vt 0.791667 0.000000
vt 0.625000 0.416667
vt 0.791667 0.250000
vt 0.500000 0.416667
vt 0.291667 0.250000
vt 0.375000 0.333333
vt 0.291667 0.000000
vt 0.375000 0.916667
vt 0.500000 0.916667
vt 0.625000 0.916667
vt 0.708333 0.000000
vt 0.625000 0.333333
vt 0.708333 0.250000
vt 0.500000 0.333333
vt 0.708333 0.250000
vt 0.708333 0.000000
vt 0.791667 0.000000
vt 0.791667 0.250000
vt 0.791667 0.250000
vt 0.708333 0.250000
vt 0.708333 0.250000
vt 0.791667 0.250000
vt 0.791667 0.250000
vt 0.708333 0.250000
vt 0.708333 0.250000
vt 0.791667 0.250000
vt 0.791667 0.250000
vt 0.708333 0.250000
vt 0.708333 0.250000
vt 0.791667 0.250000
vt 0.763889 0.250000
vt 0.763889 0.250000
vt 0.763889 0.250000
vt 0.625000 0.388889
vt 0.763889 0.250000
vt 0.500000 0.388889
vt 0.236111 0.250000
vt 0.375000 0.388889
vt 0.236111 0.000000
vt 0.375000 0.861111
vt 0.500000 0.861111
vt 0.625000 0.861111
vt 0.763889 0.000000
vt 0.763889 0.000000
vt 0.763889 0.250000
vt 0.763889 0.250000
vt 0.763889 0.250000
vt 0.763889 0.250000
vt 0.736111 0.250000
vt 0.736111 0.250000
vt 0.736111 0.250000
vt 0.625000 0.361111
vt 0.736111 0.250000
vt 0.500000 0.361111
vt 0.263889 0.250000
vt 0.375000 0.361111
vt 0.263889 0.000000
vt 0.375000 0.888889
vt 0.500000 0.888889
vt 0.625000 0.888889
vt 0.736111 0.000000
vt 0.736111 0.000000
vt 0.736111 0.250000
vt 0.736111 0.250000
vt 0.736111 0.250000
vt 0.736111 0.250000
vt 0.736111 0.250000
vt 0.708333 0.250000
vt 0.708333 0.250000
vt 0.736111 0.250000
vt 0.791667 0.250000
vt 0.763889 0.250000
vt 0.763889 0.250000
vt 0.791667 0.250000
vt 0.736111 0.250000
vt 0.708333 0.250000
vt 0.708333 0.250000
vt 0.736111 0.250000
vt 0.791667 0.250000
vt 0.763889 0.250000
vt 0.763889 0.250000
vt 0.791667 0.250000
vt 0.736111 0.250000
vt 0.708333 0.250000
vt 0.708333 0.250000
vt 0.736111 0.250000
vt 0.791667 0.250000
vt 0.763889 0.250000
vt 0.763889 0.250000
vt 0.791667 0.250000
vt 0.736111 0.250000
vt 0.708333 0.250000
vt 0.708333 0.250000
vt 0.736111 0.250000
vt 0.791667 0.250000
vt 0.763889 0.250000
vt 0.763889 0.250000
vt 0.791667 0.250000
vt 0.736111 0.250000
vt 0.708333 0.250000
vt 0.708333 0.250000
vt 0.736111 0.250000
vt 0.791667 0.250000
vt 0.763889 0.250000
vt 0.763889 0.250000
vt 0.791667 0.250000
vt 0.736111 0.250000
vt 0.708333 0.250000
vt 0.708333 0.250000
vt 0.736111 0.250000
vt 0.791667 0.250000
vt 0.763889 0.250000
vt 0.763889 0.250000
vt 0.791667 0.250000
vt 0.736111 0.250000
vt 0.708333 0.250000
vt 0.708333 0.250000
vt 0.736111 0.250000
vt 0.791667 0.250000
vt 0.763889 0.250000
vt 0.763889 0.250000
vt 0.791667 0.250000
vt 0.736111 0.250000
vt 0.708333 0.250000
vt 0.708333 0.250000
vt 0.736111 0.250000
vt 0.791667 0.250000
vt 0.763889 0.250000
vt 0.763889 0.250000
vt 0.791667 0.250000
vn 0.092424 0.000000 0.995720
vn 0.133686 0.000000 0.991024
vn 0.133686 0.000000 0.991024
vn 0.092424 0.000000 0.995720
vn 0.000000 1.000000 0.000000
vn 0.000000 1.000000 0.000000
vn 0.000000 1.000000 0.000000
vn 0.000000 1.000000 0.000000
vn 0.092424 0.000000 -0.995720
vn 0.133686 0.000000 -0.991024
vn 0.133686 0.000000 -0.991024
vn 0.092424 0.000000 -0.995720
vn 0.000000 -1.000000 -0.000000
vn 0.000000 -1.000000 -0.000000
vn 0.000000 -1.000000 -0.000000
vn 0.000000 -1.000000 -0.000000
vn 0.979702 0.000000 0.200459
vn 0.979702 0.000000 0.200459
vn 0.979702 0.000000 0.200459
vn 0.979702 0.000000 0.200459
vn -0.964813 0.000000 0.262936
vn -0.940767 0.000000 0.339055
vn -0.940767 0.000000 0.339055
vn -0.964813 0.000000 0.262936
vn 0.000000 1.000000 0.000000
vn 0.000000 1.000000 0.000000
vn 0.178551 0.000000 -0.983931
vn 0.178551 0.000000 -0.983931
vn 0.000000 -1.000000 0.000000
vn 0.000000 -1.000000 0.000000
vn 0.178551 0.000000 0.983931
vn 0.178551 0.000000 0.983931
vn -0.940767 0.000000 -0.339055
vn -0.964813 0.000000 -0.262936
vn -0.964813 0.000000 -0.262936
vn -0.940767 0.000000 -0.339055
vn 0.000000 -1.000000 0.000000
vn 0.000000 -1.000000 0.000000
vn 0.000000 -1.000000 0.000000
vn 0.000000 -1.000000 0.000000
vn 0.000000 -1.000000 0.000000
vn 0.000000 -1.000000 0.000000
vn 0.979702 0.000000 -0.200459
vn 0.979702 0.000000 -0.200459
vn 0.979702 0.000000 -0.200459
vn 0.979702 0.000000 -0.200459
vn 0.000000 1.000000 0.000000
vn 0.000000 1.000000 0.000000
vn 0.000000 1.000000 0.000000
vn 0.000000 1.000000 0.000000
vn 0.000000 1.000000 0.000000
vn 0.000000 1.000000 0.000000
vn -0.995084 0.000000 0.099031
vn -0.995084 0.000000 0.099031
vn 0.000000 -1.000000 0.000000
vn 0.000000 -1.000000 0.000000
vn 0.000000 -1.000000 0.000000
vn 0.991490 -0.130182 0.000000
vn 1.000000 0.000000 0.000000
vn 1.000000 0.000000 0.000000
vn 0.991304 -0.131593 0.000000
vn 0.000000 1.000000 0.000000
vn 0.000000 1.000000 0.000000
vn 0.000000 1.000000 0.000000
vn 0.062786 0.481510 0.874189
vn 0.000000 0.000000 1.000000
vn 0.000000 0.000000 1.000000
vn 0.063029 0.483372 0.873143
vn 0.000000 -1.000000 0.000000
vn 0.000000 -1.000000 0.000000
vn 0.000000 0.000000 -1.000000
vn 0.062786 0.481510 -0.874189
vn 0.063029 0.483372 -0.873143
vn 0.000000 0.000000 -1.000000
vn 0.956796 0.290760 -0.000003
vn 0.956796 0.290760 -0.000003
vn 0.956796 0.290759 0.000007
vn 0.956796 0.290759 0.000007
vn -0.962155 0.272503 0.000000
vn -0.962155 0.272503 0.000000
vn -0.915986 0.401211 0.000000
vn -0.914418 0.404772 0.000000
vn 0.092135 0.640937 0.762044
vn 0.299761 0.413827 0.859587
vn 0.941886 -0.335933 0.000000
vn 0.943561 -0.331199 0.000000
vn 0.299761 0.413827 -0.859587
vn 0.092135 0.640937 -0.762044
vn -0.693321 0.720629 0.000000
vn -0.692590 0.721331 0.000000
vn 0.322246 0.384137 0.865214
vn 0.322246 0.384137 0.865214
vn 0.596423 -0.802670 0.000000
vn 0.598798 -0.800900 0.000000
vn 0.322246 0.384137 -0.865214
vn 0.322246 0.384137 -0.865214
vn -0.491962 0.844937 0.209894
vn -0.527492 0.842894 0.106215
vn 0.104601 0.042191 0.993619
vn 0.104601 0.042191 0.993619
vn 0.098763 0.039836 0.994313
vn 0.001659 0.000669 0.999998
vn 0.326695 -0.938611 0.110818
vn 0.352756 -0.910228 0.216907
vn 0.104601 0.042191 -0.993619
vn 0.104601 0.042191 -0.993619
vn 0.001659 0.000669 -0.999998
vn 0.098763 0.039836 -0.994313
vn -0.693321 0.720629 0.000000
vn -0.692590 0.721331 0.000000
vn -0.527492 0.842894 -0.106215
vn -0.491962 0.844937 -0.209894
vn -0.915986 0.401211 0.000000
vn -0.914417 0.404772 0.000000
vn -0.962155 0.272503 0.000000
vn -0.962155 0.272503 0.000000
vn 0.000000 1.000000 0.000000
vn 0.000000 1.000000 0.000000
vn 0.000000 1.000000 0.000000
vn -0.995084 0.000000 -0.099031
vn -0.995084 0.000000 -0.099031
vn 0.000000 -1.000000 -0.000000
vn 0.000000 -1.000000 -0.000000
vn 0.000000 -1.000000 0.000000
vn 0.000000 -1.000000 0.000000
vn 0.000000 -1.000000 0.000000
vn 0.991304 -0.131593 0.000000
vn 1.000000 0.000000 0.000000
vn 1.000000 0.000000 0.000000
vn 0.991490 -0.130182 0.000000
vn 0.941886 -0.335933 0.000000
vn 0.943561 -0.331199 0.000000
vn 0.596423 -0.802670 0.000000
vn 0.598798 -0.800900 0.000000
vn 0.326695 -0.938611 -0.110818
vn 0.352756 -0.910228 -0.216907
vn 0.956795 0.290764 -0.000004
vn 0.956796 0.290760 -0.000004
vn 0.956796 0.290760 -0.000004
vn 0.956795 0.290764 -0.000004
vn -0.317963 0.801544 0.506386
vn -0.298968 0.828686 0.473178
vn -0.004766 -0.001520 0.999988
vn -0.011749 -0.003747 0.999924
vn 0.291359 -0.951049 0.103031
vn 0.231827 -0.730718 0.642111
vn -0.298968 0.828687 -0.473177
vn -0.317963 0.801545 -0.506385
vn 0.231827 -0.730717 -0.642112
vn 0.291359 -0.951049 -0.103031
vn -0.011749 -0.003747 -0.999924
vn -0.004766 -0.001520 -0.999988
vn -0.257551 0.721705 0.642502
vn -0.257551 0.721705 0.642502
vn -0.011795 -0.003762 0.999923
vn -0.011795 -0.003762 0.999923
vn 0.231757 -0.730206 0.642720
vn 0.231756 -0.730206 0.642720
vn -0.257551 0.721706 -0.642502
vn -0.257551 0.721706 -0.642502
vn 0.231756 -0.730205 -0.642721
vn 0.231756 -0.730205 -0.642721
vn -0.011795 -0.003762 -0.999923
vn -0.011795 -0.003762 -0.999923
vn -0.334206 0.942500 0.000001
vn -0.334206 0.942500 0.000001
vn 0.304427 -0.952536 0.000000
vn 0.304427 -0.952536 0.000000
vn 0.956793 0.290769 -0.000003
vn 0.956793 0.290769 -0.000003
vn 0.956793 0.290769 -0.000003
vn 0.956793 0.290769 -0.000003
vn 0.956797 0.290755 -0.000004
vn 0.956797 0.290755 -0.000004
vn 0.956797 0.290755 -0.000004
vn 0.956797 0.290755 -0.000004
vn 0.956796 0.290759 -0.000003
vn 0.956796 0.290759 -0.000003
vn 0.956796 0.290759 -0.000003
vn 0.956796 0.290759 -0.000003
vn 0.956795 0.290762 -0.000001
vn 0.956795 0.290762 -0.000001
vn 0.956795 0.290762 -0.000001
vn 0.956795 0.290762 -0.000001
vn 0.956794 0.290768 -0.000006
vn 0.956794 0.290768 -0.000006
vn 0.956794 0.290768 -0.000006
vn 0.956794 0.290768 -0.000006
vn 0.956799 0.290751 -0.000005
vn 0.956799 0.290751 -0.000005
vn 0.956799 0.290751 -0.000005
vn 0.956799 0.290751 -0.000005
vn 0.956792 0.290772 -0.000005
vn 0.956792 0.290772 -0.000005
vn 0.956792 0.290772 -0.000005
vn 0.956792 0.290772 -0.000005
vn 0.956797 0.290756 0.000000
vn 0.956797 0.290756 0.000000
vn 0.956797 0.290756 0.000000
vn 0.956797 0.290756 0.000000
vn -0.174137 0.729164 0.661813
vn -0.174137 0.729164 0.661813
vn -0.174137 0.729164 0.661813
vn -0.174137 0.729164 0.661813
vn 0.000002 0.000001 1.000000
vn 0.000002 0.000001 1.000000
vn 0.000002 0.000001 1.000000
vn 0.000002 0.000001 1.000000
vn 0.174192 -0.729151 0.661813
vn 0.174192 -0.729151 0.661813
vn 0.174192 -0.729151 0.661813
vn 0.174192 -0.729151 0.661813
vn -0.174141 0.729160 -0.661816
vn -0.174141 0.729160 -0.661816
vn -0.174141 0.729160 -0.661816
vn -0.174141 0.729160 -0.661816
vn 0.174188 -0.729155 -0.661809
vn 0.174188 -0.729155 -0.661809
vn 0.174188 -0.729155 -0.661809
vn 0.174188 -0.729155 -0.661809
vn 0.000002 0.000001 -1.000000
vn 0.000002 0.000001 -1.000000
vn 0.000002 0.000001 -1.000000
vn 0.000002 0.000001 -1.000000
vn -0.232340 0.972635 0.000001
vn -0.232340 0.972635 0.000001
vn -0.232340 0.972635 0.000001
vn -0.232340 0.972635 0.000001
vn 0.232381 -0.972625 0.000000
vn 0.232381 -0.972625 0.000000
vn 0.232381 -0.972625 0.000000
vn 0.232381 -0.972625 0.000000
vn -0.705013 -0.620363 -0.343667
vn -0.705013 -0.620363 -0.343667
vn -0.705013 -0.620363 -0.343667
vn -0.705013 -0.620363 -0.343667
vn -0.819272 -0.248964 -0.516538
vn -0.819272 -0.248964 -0.516538
vn -0.819272 -0.248964 -0.516538
vn -0.819272 -0.248964 -0.516538
vn -0.908465 0.173368 -0.380310
vn -0.908465 0.173368 -0.380310
vn -0.908465 0.173368 -0.380310
vn -0.908465 0.173368 -0.380310
vn -0.705016 -0.620358 0.343669
vn -0.705016 -0.620358 0.343669
vn -0.705016 -0.620358 0.343669
vn -0.705016 -0.620358 0.343669
vn -0.908464 0.173346 0.380320
vn -0.908464 0.173346 0.380320
vn -0.908464 0.173346 0.380320
vn -0.908464 0.173346 0.380320
vn -0.819270 -0.248963 0.516540
vn -0.819270 -0.248963 0.516540
vn -0.819270 -0.248963 0.516540
vn -0.819270 -0.248963 0.516540
vn -0.679440 -0.733731 0.000004
vn -0.679440 -0.733731 0.000004
vn -0.679440 -0.733731 0.000004
vn -0.679440 -0.733731 0.000004
vn -0.949220 0.314613 0.000000
vn -0.949220 0.314613 0.000000
vn -0.949220 0.314613 0.000000
vn -0.949220 0.314613 0.000000
vn -0.204350 0.720708 0.662436
vn -0.204350 0.720708 0.662436
vn -0.201157 0.721637 0.662401
vn -0.134993 0.738984 0.660060
vn -0.030242 -0.009190 0.999500
vn -0.030242 -0.009190 0.999500
vn -0.027618 -0.008393 0.999583
vn 0.035027 0.010644 0.999330
vn 0.147880 -0.735920 0.660722
vn 0.147880 -0.735920 0.660722
vn 0.149914 -0.735419 0.660821
vn 0.199976 -0.722025 0.662336
vn -0.204359 0.720721 -0.662419
vn -0.204359 0.720721 -0.662419
vn -0.134999 0.739007 -0.660033
vn -0.201165 0.721651 -0.662384
vn 0.147877 -0.735919 -0.660723
vn 0.147877 -0.735919 -0.660723
vn 0.199975 -0.722025 -0.662336
vn 0.149912 -0.735419 -0.660822
vn -0.030251 -0.009193 -0.999500
vn -0.030251 -0.009193 -0.999500
vn 0.035025 0.010644 -0.999330
vn -0.027626 -0.008395 -0.999583
vn -0.263810 0.964575 0.000001
vn -0.263810 0.964575 0.000001
vn -0.234073 0.972219 0.000001
vn -0.234073 0.972219 0.000001
vn 0.206065 -0.978538 0.000000
vn 0.206065 -0.978538 0.000000
vn 0.226886 -0.973921 0.000000
vn 0.226886 -0.973921 0.000000
vn -0.120709 0.742256 0.659155
vn -0.076094 0.751413 0.655430
vn 0.044555 0.013540 0.998915
vn 0.300332 0.091268 0.949458
vn 0.208251 -0.719609 0.662416
vn 0.485130 -0.602075 0.634157
vn -0.076100 0.751437 -0.655402
vn -0.120714 0.742280 -0.659127
vn 0.485125 -0.602076 -0.634160
vn 0.208250 -0.719609 -0.662416
vn 0.300329 0.091265 -0.949459
vn 0.044554 0.013539 -0.998915
vn -0.139555 0.990214 0.000000
vn -0.139555 0.990214 0.000000
vn 0.320729 -0.947171 0.000000
vn 0.320729 -0.947171 0.000000
vn 0.201903 0.772632 0.601892
vn 0.201903 0.772632 0.601892
vn 0.420501 0.127786 0.898248
vn 0.420501 0.127786 0.898248
vn 0.589621 -0.535468 0.604666
vn 0.589621 -0.535468 0.604666
vn 0.201892 0.772655 -0.601867
vn 0.201892 0.772655 -0.601867
vn 0.589614 -0.535471 -0.604670
vn 0.589614 -0.535471 -0.604670
vn 0.420501 0.127783 -0.898249
vn 0.420501 0.127783 -0.898249
vn 0.143606 0.989635 0.000000
vn 0.143605 0.989635 0.000000
vn 0.659741 -0.751493 0.000000
vn 0.659741 -0.751493 0.000000
s 1
g pCube15
usemtl initialShadingGroup
f 1/1/1 12/18/2 9/15/3 3/3/4
s 2
f 3/3/5 9/15/6 24/39/7 19/31/8
s 3
f 5/5/9 10/16/10 11/17/11 7/7/12
s 4
f 20/33/13 21/34/14 12/19/15 1/9/16
s off
f 2/2/17 22/36/18 23/38/19 4/4/20
s 5
f 20/32/21 1/1/22 3/3/23 19/30/24
s 2
f 9/15/6 4/4/25 23/37/26 24/39/7
s 3
f 11/17/11 10/16/10 6/6/27 8/8/28
s 4
f 12/19/15 21/34/14 22/35/29 2/10/30
s 1
f 9/15/3 12/18/2 2/2/31 4/4/32
s 5
f 7/13/33 14/22/34 13/20/35 5/14/36
s 4
f 7/7/37 11/17/38 15/24/39 14/23/40
f 16/25/41 15/24/39 11/17/38 8/8/42
s off
f 17/28/43 16/26/44 8/11/45 6/12/46
s 2
f 18/29/47 17/27/48 6/6/49 10/16/50
f 13/21/51 18/29/47 10/16/50 5/5/52
s 5
f 61/82/53 20/32/21 19/30/24 60/80/54
s 4
f 61/83/55 62/84/56 21/34/14 20/33/13
f 22/35/29 21/34/14 62/84/56 63/85/57
s 9
f 26/40/58 25/41/59 64/87/60 65/88/61
s 2
f 24/39/7 23/37/26 58/77/62 59/79/63
f 19/31/8 24/39/7 59/79/63 60/81/64
s 10
f 23/38/65 22/36/66 25/41/67 26/40/68
s 4
f 22/36/29 63/86/57 64/87/69 25/41/70
s 11
f 16/26/71 17/28/72 28/43/73 27/42/74
s 12
f 125/151/75 126/148/76 127/149/77 128/150/78
s 13
f 58/78/79 23/38/80 29/45/81 57/76/82
s 10
f 23/38/65 26/40/68 31/46/83 29/45/84
s 9
f 26/40/58 65/88/61 66/89/85 31/46/86
s 11
f 28/43/73 17/28/72 30/44/87 32/47/88
s 13
f 57/76/82 29/45/81 33/49/89 56/75/90
s 10
f 29/45/84 31/46/83 35/50/91 33/49/92
s 9
f 31/46/86 66/89/85 67/90/93 35/50/94
s 11
f 32/47/88 30/44/87 34/48/95 36/51/96
s 13
f 56/75/90 33/49/89 37/53/97 55/74/98
s 14
f 33/49/99 35/50/100 39/54/101 37/53/102
s 9
f 35/50/94 67/90/93 68/91/103 39/54/104
s 15
f 36/51/105 34/48/106 38/52/107 40/55/108
s 13
f 34/48/109 42/57/110 41/56/111 38/52/112
f 30/44/113 43/58/114 42/57/110 34/48/109
f 17/28/115 44/60/116 43/58/114 30/44/113
s 2
f 45/61/117 44/59/118 17/27/48 18/29/47
f 46/63/119 45/61/117 18/29/47 13/21/51
s 5
f 14/22/34 47/64/120 46/62/121 13/20/35
s 4
f 14/23/40 15/24/39 48/66/122 47/65/123
f 49/67/124 48/66/122 15/24/39 16/25/41
f 50/69/125 49/68/124 16/26/41 27/42/126
s 9
f 51/70/127 50/69/128 27/42/129 28/43/130
f 52/71/131 51/70/127 28/43/130 32/47/132
f 53/72/133 52/71/131 32/47/132 36/51/134
f 54/73/135 53/72/133 36/51/134 40/55/136
s 12
f 130/152/137 129/153/138 131/154/139 132/155/140
s 13
f 42/57/110 56/75/90 55/74/98 41/56/111
f 43/58/114 57/76/82 56/75/90 42/57/110
f 44/60/116 58/78/79 57/76/82 43/58/114
s 2
f 59/79/63 58/77/62 44/59/118 45/61/117
f 60/81/64 59/79/63 45/61/117 46/63/119
s 5
f 47/64/120 61/82/53 60/80/54 46/62/121
s 4
f 47/65/123 48/66/122 62/84/56 61/83/55
f 63/85/57 62/84/56 48/66/122 49/67/124
f 64/87/69 63/86/57 49/68/124 50/69/125
s 9
f 65/88/61 64/87/60 50/69/128 51/70/127
f 66/89/85 65/88/61 51/70/127 52/71/131
f 67/90/93 66/89/85 52/71/131 53/72/133
f 68/91/103 67/90/93 53/72/133 54/73/135
s 12
f 131/154/139 129/153/138 126/148/76 125/151/75
s 13
f 55/74/98 37/53/97 71/93/141 70/92/142
s 14
f 37/53/102 39/54/101 72/94/143 71/93/144
s 9
f 39/54/104 68/91/103 69/95/145 72/94/146
s 13
f 38/52/112 41/56/111 73/97/147 74/96/148
s 9
f 54/73/135 40/55/136 76/99/149 75/98/150
s 15
f 40/55/108 38/52/107 74/96/151 76/99/152
s 13
f 41/56/111 55/74/98 70/92/142 73/97/147
s 9
f 68/91/103 54/73/135 75/98/150 69/95/145
s 13
f 70/92/142 71/93/141 79/101/153 78/100/154
s 14
f 71/93/144 72/94/143 80/102/155 79/101/156
s 9
f 72/94/146 69/95/145 77/103/157 80/102/158
s 13
f 74/96/148 73/97/147 81/105/159 82/104/160
s 9
f 75/98/150 76/99/149 84/107/161 83/106/162
s 15
f 76/99/152 74/96/151 82/104/163 84/107/164
s 13
f 73/97/147 70/92/142 78/100/165 81/105/166
s 9
f 69/95/145 75/98/150 83/106/167 77/103/168
s off
f 78/100/169 79/101/170 87/109/171 86/108/172
f 79/101/173 80/102/174 88/110/175 87/109/176
f 80/102/177 77/103/178 85/111/179 88/110/180
f 82/104/181 81/105/182 89/113/183 90/112/184
f 83/106/185 84/107/186 92/115/187 91/114/188
f 84/107/189 82/104/190 90/112/191 92/115/192
f 81/105/193 78/100/194 86/108/195 89/113/196
f 77/103/197 83/106/198 91/114/199 85/111/200
f 86/108/201 87/109/202 95/117/203 94/116/204
f 87/109/205 88/110/206 96/118/207 95/117/208
f 88/110/209 85/111/210 93/119/211 96/118/212
f 90/112/213 89/113/214 97/121/215 98/120/216
f 91/114/217 92/115/218 100/123/219 99/122/220
f 92/115/221 90/112/222 98/120/223 100/123/224
f 89/113/225 86/108/226 94/116/227 97/121/228
f 85/111/229 91/114/230 99/122/231 93/119/232
f 94/116/233 95/117/234 103/125/235 102/124/236
f 95/117/237 96/118/238 104/126/239 103/125/240
f 96/118/241 93/119/242 101/127/243 104/126/244
f 98/120/245 97/121/246 105/129/247 106/128/248
f 99/122/249 100/123/250 108/131/251 107/130/252
f 100/123/253 98/120/254 106/128/255 108/131/256
f 97/121/257 94/116/258 102/124/259 105/129/260
f 93/119/261 99/122/262 107/130/263 101/127/264
s 17
f 102/124/265 103/125/266 111/133/267 110/132/268
s 18
f 103/125/269 104/126/270 112/134/271 111/133/272
s 19
f 104/126/273 101/127/274 109/135/275 112/134/276
s 20
f 106/128/277 105/129/278 113/137/279 114/136/280
s 21
f 107/130/281 108/131/282 116/139/283 115/138/284
s 22
f 108/131/285 106/128/286 114/136/287 116/139/288
s 23
f 105/129/289 102/124/290 110/132/291 113/137/292
s 24
f 101/127/293 107/130/294 115/138/295 109/135/296
s 17
f 110/132/268 111/133/267 119/141/297 118/140/298
s 18
f 111/133/272 112/134/271 120/142/299 119/141/300
s 19
f 112/134/276 109/135/275 117/143/301 120/142/302
s 20
f 114/136/280 113/137/279 121/145/303 122/144/304
s 21
f 115/138/284 116/139/283 124/147/305 123/146/306
s 22
f 116/139/288 114/136/287 122/144/307 124/147/308
s 23
f 113/137/292 110/132/291 118/140/309 121/145/310
s 24
f 109/135/296 115/138/295 123/146/311 117/143/312
s 17
f 118/140/298 119/141/297 127/149/313 126/148/314
s 18
f 119/141/300 120/142/299 128/150/315 127/149/316
s 19
f 120/142/302 117/143/301 125/151/317 128/150/318
s 20
f 122/144/304 121/145/303 129/153/319 130/152/320
s 21
f 123/146/306 124/147/305 132/155/321 131/154/322
s 22
f 124/147/308 122/144/307 130/152/323 132/155/324
s 23
f 121/145/310 118/140/309 126/148/325 129/153/326
s 24
f 117/143/312 123/146/311 131/154/327 125/151/328
